G04 #@! TF.FileFunction,Copper,L6,Bot,Signal*
%FSLAX45Y45*%
G04 Gerber Fmt 4.5, Leading zero omitted, Abs format (unit mm)*
G04 Created by KiCad (PCBNEW 0.201509251832+6217~30~ubuntu14.04.1-product) date Fri 30 Oct 2015 01:43:29 PM EDT*
%MOMM*%
G01*
G04 APERTURE LIST*
%ADD10C,0.127000*%
%ADD11R,0.599440X0.899160*%
%ADD12R,0.899160X0.599440*%
%ADD13R,0.500380X0.599440*%
%ADD14R,0.599440X0.500380*%
%ADD15R,0.330200X2.540000*%
%ADD16C,1.600200*%
%ADD17R,0.450000X0.600000*%
%ADD18R,0.750000X0.600000*%
%ADD19R,0.812800X0.330200*%
%ADD20C,0.406400*%
%ADD21C,0.635000*%
%ADD22C,0.203200*%
%ADD23C,0.381000*%
%ADD24C,0.254000*%
%ADD25C,0.635000*%
G04 APERTURE END LIST*
D10*
D11*
X13687806Y-8284464D03*
X13837666Y-8284464D03*
D12*
X13661390Y-8829040D03*
X13661390Y-8679180D03*
D13*
X13432028Y-8246110D03*
X13331952Y-8246110D03*
D14*
X13661390Y-8600948D03*
X13661390Y-8500872D03*
X13923010Y-8303768D03*
X13923010Y-8203692D03*
X13534390Y-8588248D03*
X13534390Y-8488172D03*
X14060424Y-8381746D03*
X14060424Y-8481822D03*
X13534390Y-8704072D03*
X13534390Y-8804148D03*
D13*
X14043152Y-9160510D03*
X14143228Y-9160510D03*
D14*
X13775690Y-8704072D03*
X13775690Y-8804148D03*
D13*
X13915390Y-9060180D03*
X13815314Y-9060180D03*
D14*
X13775690Y-8588248D03*
X13775690Y-8488172D03*
X13343890Y-9134348D03*
X13343890Y-9034272D03*
X13216890Y-8716772D03*
X13216890Y-8816848D03*
D13*
X13135102Y-8935212D03*
X13235178Y-8935212D03*
X15019528Y-8081010D03*
X14919452Y-8081010D03*
X14708632Y-8387080D03*
X14808708Y-8387080D03*
X14808708Y-8301990D03*
X14708632Y-8301990D03*
X13708126Y-9192260D03*
X13808202Y-9192260D03*
D15*
X16834866Y-11102594D03*
X16771366Y-11102594D03*
X16707866Y-11102594D03*
X16644366Y-11102594D03*
X16580866Y-11102594D03*
X16517366Y-11102594D03*
X16453866Y-11102594D03*
X16390366Y-11102594D03*
X16326866Y-11102594D03*
X16263366Y-11102594D03*
X16199866Y-11102594D03*
X16136366Y-11102594D03*
X16072866Y-11102594D03*
X16009366Y-11102594D03*
X15945866Y-11102594D03*
X15882366Y-11102594D03*
X15818866Y-11102594D03*
X15755366Y-11102594D03*
X14042644Y-11102086D03*
X13979144Y-11102086D03*
X13915644Y-11102086D03*
X13852144Y-11102086D03*
X13788644Y-11102086D03*
X13725144Y-11102086D03*
X13661644Y-11102086D03*
X13598144Y-11102086D03*
X13534644Y-11102086D03*
X13471144Y-11102086D03*
X13407644Y-11102086D03*
X13344144Y-11102086D03*
X13280644Y-11102086D03*
X13217144Y-11102086D03*
X13153644Y-11102086D03*
X13090144Y-11102086D03*
X13026644Y-11102086D03*
X12963144Y-11102086D03*
X15439390Y-11100816D03*
X15375890Y-11100816D03*
X15312390Y-11100816D03*
X15248890Y-11100816D03*
X15185390Y-11100816D03*
X15121890Y-11100816D03*
X15058390Y-11100816D03*
X14994890Y-11100816D03*
X14931390Y-11100816D03*
X14867890Y-11100816D03*
X14804390Y-11100816D03*
X14740890Y-11100816D03*
X14677390Y-11100816D03*
X14613890Y-11100816D03*
X14550390Y-11100816D03*
X14486890Y-11100816D03*
X14423390Y-11100816D03*
X14359890Y-11100816D03*
X12628372Y-11102594D03*
X12564872Y-11102594D03*
X12501372Y-11102594D03*
X12437872Y-11102594D03*
X12374372Y-11102594D03*
X12310872Y-11102594D03*
X12247372Y-11102594D03*
X12183872Y-11102594D03*
X12120372Y-11102594D03*
X12056872Y-11102594D03*
X11993372Y-11102594D03*
X11929872Y-11102594D03*
X11866372Y-11102594D03*
X11802872Y-11102594D03*
X11739372Y-11102594D03*
X11675872Y-11102594D03*
X11612372Y-11102594D03*
X11548872Y-11102594D03*
D16*
X12456922Y-9391650D03*
X12710922Y-9391650D03*
D17*
X13504950Y-8996970D03*
D18*
X13619950Y-8996970D03*
D17*
X13634950Y-9191970D03*
X13504950Y-9191970D03*
D19*
X15271750Y-8200390D03*
X15271750Y-8263890D03*
X15271750Y-8327390D03*
X15271750Y-8390890D03*
X15271750Y-8454390D03*
X15271750Y-8517890D03*
X15271750Y-8581390D03*
X15271750Y-8644890D03*
X15271750Y-8708390D03*
D20*
X14595856Y-9315958D03*
X14831060Y-9289288D03*
X14659356Y-8937752D03*
X14696440Y-8452104D03*
X14563344Y-8535416D03*
X14553184Y-8692896D03*
X15433548Y-8327136D03*
X13444728Y-8431530D03*
X11589258Y-9973564D03*
X11590782Y-10037826D03*
X12692888Y-10948416D03*
X13005308Y-10246868D03*
X13725144Y-9861296D03*
X13051536Y-9981184D03*
X13017500Y-10069576D03*
X14106652Y-10939780D03*
X14418056Y-9986772D03*
X14417548Y-10060940D03*
X15114524Y-9275572D03*
X15124684Y-9872472D03*
X15807436Y-9998964D03*
X15805912Y-10071608D03*
X16886428Y-10986516D03*
X16495268Y-9861296D03*
X16780002Y-10154158D03*
X15191740Y-8584184D03*
D21*
X12658090Y-8426958D03*
X12657582Y-8173974D03*
X12659106Y-8539734D03*
D20*
X15968980Y-10243566D03*
X14572996Y-10248900D03*
X13177012Y-10244836D03*
X11749786Y-10239502D03*
X11593576Y-10233406D03*
X16216376Y-10433304D03*
D21*
X12829540Y-8823960D03*
D20*
X14514068Y-8941308D03*
X13901928Y-8735568D03*
X14930628Y-8806180D03*
X14988032Y-8886952D03*
X15002256Y-8753348D03*
X14664690Y-8690610D03*
X15193010Y-8197850D03*
X13423900Y-8341360D03*
X13342620Y-8656320D03*
D21*
X12488418Y-8941816D03*
X12830048Y-8941816D03*
D20*
X12886182Y-9085326D03*
X13206730Y-9328150D03*
X13096240Y-9182100D03*
X13528040Y-9382760D03*
X13421360Y-9141460D03*
X13423900Y-8981440D03*
D21*
X12388342Y-9090406D03*
X12658090Y-8092186D03*
X12817602Y-9234170D03*
D20*
X13983208Y-8419592D03*
X13982700Y-8338820D03*
X13822680Y-8420100D03*
X13624560Y-8432800D03*
X13597890Y-8589010D03*
X13534390Y-8639810D03*
X13597890Y-8754110D03*
X13342620Y-8740140D03*
X13906500Y-8978900D03*
X13712190Y-8601710D03*
X13712190Y-8754110D03*
X13978890Y-8589010D03*
X13775690Y-8639810D03*
X13180060Y-8178800D03*
X13662660Y-8900160D03*
D21*
X12488418Y-8826246D03*
D20*
X13575030Y-9231630D03*
X13985240Y-9230360D03*
X15968726Y-10184384D03*
X16627856Y-10170414D03*
X16367506Y-10275824D03*
X15776956Y-10938764D03*
X15507462Y-10929874D03*
X14827250Y-10421366D03*
X14382750Y-10936986D03*
X12009882Y-10421874D03*
X11571732Y-10927334D03*
X13440664Y-10420096D03*
X12986004Y-10930636D03*
X13175996Y-10185146D03*
X13829792Y-10187686D03*
X13566394Y-10291826D03*
X13829284Y-10131298D03*
X15812770Y-10230358D03*
X12139422Y-10292334D03*
X14965680Y-10294366D03*
X12402820Y-10185654D03*
X12402820Y-10132314D03*
X11748516Y-10184638D03*
X15226538Y-10182352D03*
X15227554Y-10127488D03*
X14572234Y-10185908D03*
X14416786Y-10237216D03*
X12321540Y-10043922D03*
X11703304Y-9817354D03*
X14419326Y-9869932D03*
X14717268Y-9047988D03*
X15261590Y-8811260D03*
D21*
X12284202Y-8916670D03*
D20*
X13744448Y-8420100D03*
X13279120Y-10021570D03*
X13001244Y-10167366D03*
X13823188Y-9872218D03*
X13895832Y-9873234D03*
X14415262Y-10142728D03*
X15208504Y-9870948D03*
X15268956Y-9884156D03*
X15806928Y-10153650D03*
X14443964Y-8158988D03*
X14989556Y-8665464D03*
X14229080Y-8173720D03*
X13343890Y-8423910D03*
X13267690Y-8576310D03*
D21*
X12297918Y-8199374D03*
D20*
X13342620Y-8821420D03*
X13342620Y-8978900D03*
X13736320Y-9057640D03*
X13820140Y-8978900D03*
X13982700Y-8181340D03*
X13889990Y-8538210D03*
X14211300Y-9222740D03*
X13980160Y-8735060D03*
X14443202Y-8391906D03*
X13502640Y-9138920D03*
X13545820Y-8892540D03*
X15018258Y-8155178D03*
X14319250Y-9371330D03*
X16651986Y-9869424D03*
X16577056Y-9863074D03*
X16778986Y-10067544D03*
X16775176Y-10001504D03*
X16069056Y-10029444D03*
X13986256Y-10030714D03*
X13989812Y-10087102D03*
X12558776Y-10031222D03*
X12402820Y-9874250D03*
X12351512Y-9874758D03*
X12558776Y-10080498D03*
X11851132Y-10030714D03*
X11591544Y-10132314D03*
X15383002Y-10078720D03*
X15382494Y-10027920D03*
X14674850Y-10016236D03*
X11850624Y-9871202D03*
D21*
X12299442Y-8554974D03*
X15103602Y-9511030D03*
D20*
X12609068Y-8658860D03*
X12710160Y-8658860D03*
D21*
X12642342Y-9114790D03*
D20*
X15326360Y-8150860D03*
D21*
X15173960Y-8709660D03*
X15358872Y-8642604D03*
D20*
X13780008Y-8856472D03*
X13543280Y-8430260D03*
D21*
X13014198Y-8593074D03*
D20*
X13889990Y-8855710D03*
X13902690Y-8423910D03*
X13432790Y-8868410D03*
X13432790Y-8538210D03*
D21*
X12988290Y-8106410D03*
X13000990Y-8195310D03*
D20*
X14090904Y-9485884D03*
X14226540Y-9141460D03*
X15774670Y-10736326D03*
X16867886Y-10745978D03*
X16810990Y-10941304D03*
X12986512Y-10719308D03*
X14072870Y-10720070D03*
X14019784Y-10928096D03*
X15690088Y-10950448D03*
X12892278Y-10940542D03*
X14377924Y-10726674D03*
X15468854Y-10741914D03*
X15416530Y-10926826D03*
X11569446Y-10720578D03*
X12656820Y-10744962D03*
X12605512Y-10929874D03*
X14290548Y-10957052D03*
X11484102Y-10954512D03*
X13095224Y-8887460D03*
X14857984Y-8490204D03*
X14347190Y-8914130D03*
X14585696Y-8282940D03*
X14476730Y-9163050D03*
X14144752Y-8819896D03*
X14334744Y-8785860D03*
X14061440Y-9058910D03*
X14226540Y-8260080D03*
X14810994Y-8450580D03*
X14865350Y-8343900D03*
X15328900Y-8779256D03*
X16777716Y-10651744D03*
X16780256Y-10595864D03*
X16780256Y-10541254D03*
X16780256Y-10486644D03*
X16777716Y-10432034D03*
X16778986Y-10378694D03*
X16778986Y-10325354D03*
X16620236Y-10291064D03*
X15981426Y-10338054D03*
X15812516Y-10325354D03*
X15811246Y-10378694D03*
X15813786Y-10432034D03*
X15812516Y-10486644D03*
X15812516Y-10542524D03*
X15807436Y-10595864D03*
X15806166Y-10653014D03*
X13986764Y-10653776D03*
X13990574Y-10600436D03*
X13989304Y-10543286D03*
X13988034Y-10488676D03*
X13986764Y-10435336D03*
X13986764Y-10380726D03*
X13984224Y-10326116D03*
X13829284Y-10299446D03*
X13204444Y-10333228D03*
X13020294Y-10329926D03*
X13019024Y-10383266D03*
X13016484Y-10436606D03*
X13019024Y-10489946D03*
X13019024Y-10544556D03*
X13016484Y-10597896D03*
X13019024Y-10652506D03*
X14777974Y-9521952D03*
X14066520Y-8581136D03*
X14661642Y-9485376D03*
X14237716Y-8473440D03*
X14225524Y-8587232D03*
X14260576Y-9463532D03*
X14144244Y-8498840D03*
X14511528Y-9460484D03*
X14063472Y-8740648D03*
X14142720Y-8900160D03*
X13502640Y-9576308D03*
X14236192Y-8728964D03*
X13946886Y-9547860D03*
X14141704Y-8739124D03*
X13677138Y-9575292D03*
X14062964Y-8657844D03*
X13029692Y-9572752D03*
X15382240Y-10656316D03*
X15382240Y-10600436D03*
X15382240Y-10545826D03*
X15380970Y-10492486D03*
X15382240Y-10439146D03*
X15383510Y-10385806D03*
X15383510Y-10332466D03*
X15227300Y-10293096D03*
X14592300Y-10334752D03*
X14415770Y-10328656D03*
X14415770Y-10381996D03*
X14414500Y-10435336D03*
X14417040Y-10488676D03*
X14417040Y-10542016D03*
X14417040Y-10595356D03*
X14415770Y-10649966D03*
X12558522Y-10656824D03*
X12559792Y-10600944D03*
X12561062Y-10547604D03*
X12559792Y-10492994D03*
X12558522Y-10439654D03*
X12559792Y-10386314D03*
X12558522Y-10332974D03*
X12402312Y-10294874D03*
X11773916Y-10329164D03*
X11592052Y-10329164D03*
X11593322Y-10382504D03*
X11593322Y-10435844D03*
X11593322Y-10489184D03*
X11589512Y-10543794D03*
X11592052Y-10598404D03*
X11592052Y-10655554D03*
X14143736Y-8658352D03*
X14189456Y-9464040D03*
X14142212Y-8581136D03*
X14357604Y-9471152D03*
X14064488Y-8901176D03*
X13343128Y-9572752D03*
X14062710Y-8817610D03*
X13189458Y-9571482D03*
X13902690Y-9224010D03*
X13983970Y-9061450D03*
X13503402Y-9060688D03*
X14476730Y-9104630D03*
X15127224Y-8522716D03*
X14342110Y-9117330D03*
X14062710Y-8982710D03*
X14229080Y-8340090D03*
X14062710Y-8262620D03*
X13981430Y-8097520D03*
X14137640Y-8093710D03*
X15025116Y-9872472D03*
X15132558Y-9662160D03*
X14925294Y-9871710D03*
X15047214Y-9711690D03*
X14259052Y-9712452D03*
X16225520Y-9826752D03*
X14371828Y-9752584D03*
X14824710Y-9782556D03*
X13628370Y-9885426D03*
X13424154Y-9747504D03*
X12097512Y-9872472D03*
X13476224Y-9859772D03*
X13328142Y-9852660D03*
X12873990Y-9726168D03*
D10*
X14708632Y-8439912D02*
X14696440Y-8452104D01*
X14708632Y-8387080D02*
X14708632Y-8439912D01*
X12692888Y-10948416D02*
X12628372Y-11012932D01*
X12628372Y-11102594D02*
X12628372Y-11012932D01*
X14042644Y-11003788D02*
X14106652Y-10939780D01*
X14042644Y-11102086D02*
X14042644Y-11003788D01*
X16834866Y-11038078D02*
X16886428Y-10986516D01*
X16834866Y-11102594D02*
X16834866Y-11038078D01*
X16834866Y-11102594D02*
X16834866Y-10996168D01*
X16834866Y-11102594D02*
X16834866Y-10991850D01*
D22*
X14060424Y-8381746D02*
X14025626Y-8381746D01*
X14025626Y-8381746D02*
X13982700Y-8338820D01*
X13915390Y-9060180D02*
X13906500Y-9051290D01*
X13906500Y-9051290D02*
X13906500Y-8978900D01*
D10*
X15271750Y-8708390D02*
X15261590Y-8718550D01*
X15193010Y-8197850D02*
X15269210Y-8197850D01*
X15271750Y-8200390D02*
X15269210Y-8197850D01*
D23*
X13660628Y-8601710D02*
X13661390Y-8600948D01*
D24*
X13660628Y-8601710D02*
X13661390Y-8600948D01*
X13787628Y-8601710D02*
X13788390Y-8600948D01*
X13649960Y-8690610D02*
X13661390Y-8679180D01*
X13672820Y-8690610D02*
X13661390Y-8679180D01*
D22*
X13649452Y-8589010D02*
X13661390Y-8600948D01*
X13597128Y-8588248D02*
X13534390Y-8588248D01*
X13597128Y-8588248D02*
X13597890Y-8589010D01*
X13649452Y-8589010D02*
X13597890Y-8589010D01*
X13673328Y-8589010D02*
X13661390Y-8600948D01*
X13534390Y-8704072D02*
X13547852Y-8704072D01*
X13788390Y-8704072D02*
X13774928Y-8704072D01*
X13547852Y-8704072D02*
X13597890Y-8754110D01*
X13661390Y-8690610D02*
X13597890Y-8754110D01*
X13661390Y-8679180D02*
X13661390Y-8690610D01*
D24*
X13661390Y-8600948D02*
X13661390Y-8679180D01*
D22*
X13534390Y-8639810D02*
X13534390Y-8704072D01*
X13534390Y-8588248D02*
X13534390Y-8639810D01*
X13762228Y-8601710D02*
X13775690Y-8588248D01*
X13711428Y-8600948D02*
X13661390Y-8600948D01*
X13711428Y-8600948D02*
X13712190Y-8601710D01*
X13762228Y-8601710D02*
X13712190Y-8601710D01*
X13661390Y-8679180D02*
X13661390Y-8703310D01*
X13661390Y-8703310D02*
X13712190Y-8754110D01*
X13725652Y-8754110D02*
X13775690Y-8704072D01*
X13712190Y-8754110D02*
X13725652Y-8754110D01*
X13775690Y-8639810D02*
X13775690Y-8704072D01*
X13775690Y-8588248D02*
X13775690Y-8639810D01*
D24*
X13432028Y-8333232D02*
X13423900Y-8341360D01*
X13432028Y-8246110D02*
X13432028Y-8333232D01*
X13914628Y-9084310D02*
X13906500Y-9076182D01*
D23*
X13351002Y-9141460D02*
X13343890Y-9134348D01*
X13421360Y-9141460D02*
X13351002Y-9141460D01*
X13240258Y-8740140D02*
X13216890Y-8716772D01*
X13342620Y-8740140D02*
X13240258Y-8740140D01*
D10*
X13489420Y-8981440D02*
X13423900Y-8981440D01*
X13504950Y-8996970D02*
X13489420Y-8981440D01*
X14043152Y-9160510D02*
X14043152Y-9172448D01*
X14043152Y-9172448D02*
X13985240Y-9230360D01*
X15439390Y-10961116D02*
X15439390Y-11100816D01*
X15439390Y-10961116D02*
X15507462Y-10929874D01*
D22*
X15271750Y-8708390D02*
X15271750Y-8801100D01*
X15271750Y-8801100D02*
X15261590Y-8811260D01*
X13958062Y-8338820D02*
X13982700Y-8338820D01*
X13923010Y-8303768D02*
X13958062Y-8338820D01*
X13822680Y-8299450D02*
X13822680Y-8420100D01*
X13837666Y-8284464D02*
X13822680Y-8299450D01*
D10*
X13687806Y-8284464D02*
X13744448Y-8341106D01*
X13744448Y-8341106D02*
X13744448Y-8420100D01*
D22*
X14060424Y-8481822D02*
X13946378Y-8481822D01*
X13946378Y-8481822D02*
X13889990Y-8538210D01*
X13235178Y-8935212D02*
X13278866Y-8978900D01*
X13278866Y-8978900D02*
X13342620Y-8978900D01*
X13815314Y-9060180D02*
X13812774Y-9057640D01*
X13812774Y-9057640D02*
X13736320Y-9057640D01*
X13815314Y-9060180D02*
X13820140Y-9055354D01*
X13820140Y-9055354D02*
X13820140Y-8978900D01*
X13808202Y-9192260D02*
X13736320Y-9120378D01*
X13736320Y-9120378D02*
X13736320Y-9057640D01*
X13808202Y-9192260D02*
X13814552Y-9185910D01*
D24*
X13343890Y-8258048D02*
X13331952Y-8246110D01*
X14149070Y-9160510D02*
X14143228Y-9160510D01*
X14149070Y-9160510D02*
X14211300Y-9222740D01*
X13814552Y-9084310D02*
X13820140Y-9078722D01*
D23*
X13342620Y-9033002D02*
X13343890Y-9034272D01*
X13342620Y-8978900D02*
X13342620Y-9033002D01*
X13221462Y-8821420D02*
X13216890Y-8816848D01*
X13342620Y-8821420D02*
X13221462Y-8821420D01*
D24*
X13343890Y-8258048D02*
X13343890Y-8423910D01*
D10*
X13502640Y-9189660D02*
X13504950Y-9191970D01*
X13502640Y-9189660D02*
X13502640Y-9138920D01*
D22*
X15019528Y-8153908D02*
X15018258Y-8155178D01*
X15019528Y-8081010D02*
X15019528Y-8153908D01*
X13945362Y-8181340D02*
X13982700Y-8181340D01*
X13923010Y-8203692D02*
X13945362Y-8181340D01*
X13687806Y-8284464D02*
X13703300Y-8299958D01*
D25*
X14971522Y-9643110D02*
X15103602Y-9511030D01*
X14785340Y-9643110D02*
X14778990Y-9643110D01*
X12710922Y-9549892D02*
X12804140Y-9643110D01*
X12710922Y-9549892D02*
X12710922Y-9391650D01*
X14778990Y-9643110D02*
X12804140Y-9643110D01*
X14785340Y-9643110D02*
X14971522Y-9643110D01*
D22*
X12710160Y-8658860D02*
X12609068Y-8658860D01*
X12708636Y-9048496D02*
X12710160Y-9046972D01*
X12710160Y-9046972D02*
X12710160Y-8658860D01*
D24*
X12642342Y-9114790D02*
X12708636Y-9048496D01*
X12708636Y-9048496D02*
X12710922Y-9046210D01*
X15271750Y-8644890D02*
X15274290Y-8647430D01*
X15356586Y-8644890D02*
X15358872Y-8642604D01*
D22*
X15274036Y-8642604D02*
X15358872Y-8642604D01*
X15271750Y-8644890D02*
X15274036Y-8642604D01*
D24*
X13780008Y-8856472D02*
X13775690Y-8852154D01*
X13775690Y-8852154D02*
X13775690Y-8804148D01*
D23*
X13543534Y-8430514D02*
X13543280Y-8430260D01*
D24*
X13636498Y-8804148D02*
X13661390Y-8829040D01*
X13534390Y-8804148D02*
X13636498Y-8804148D01*
X13775690Y-8500872D02*
X13788390Y-8488172D01*
X13547090Y-8500872D02*
X13534390Y-8488172D01*
X13661390Y-8500872D02*
X13547090Y-8500872D01*
X13543280Y-8479282D02*
X13534390Y-8488172D01*
X13543280Y-8430260D02*
X13543280Y-8479282D01*
X13534390Y-8488172D02*
X13470890Y-8551672D01*
X13470128Y-8804148D02*
X13470890Y-8803386D01*
X13470890Y-8803386D02*
X13470890Y-8539480D01*
X13470890Y-8538210D02*
X13470890Y-8551672D01*
X13470890Y-8539480D02*
X13470890Y-8538210D01*
X13484352Y-8804148D02*
X13470128Y-8804148D01*
X13534390Y-8804148D02*
X13484352Y-8804148D01*
X13762990Y-8500872D02*
X13775690Y-8488172D01*
X13661390Y-8500872D02*
X13762990Y-8500872D01*
X13686282Y-8804148D02*
X13661390Y-8829040D01*
X13775690Y-8804148D02*
X13686282Y-8804148D01*
X13838428Y-8804148D02*
X13889990Y-8855710D01*
X13775690Y-8804148D02*
X13838428Y-8804148D01*
X13838428Y-8488172D02*
X13902690Y-8423910D01*
X13775690Y-8488172D02*
X13838428Y-8488172D01*
X13838428Y-8488172D02*
X13838428Y-8804148D01*
X13788390Y-8816848D02*
X13775690Y-8804148D01*
X13432790Y-8855710D02*
X13484352Y-8804148D01*
X13432790Y-8868410D02*
X13432790Y-8855710D01*
X13470890Y-8538210D02*
X13432790Y-8538210D01*
D23*
X13343890Y-8538210D02*
X13000990Y-8195310D01*
X13432790Y-8538210D02*
X13343890Y-8538210D01*
D10*
X14090904Y-9485884D02*
X14283436Y-9293352D01*
X14283436Y-9290304D02*
X14283690Y-9290304D01*
X14283436Y-9293352D02*
X14283436Y-9290304D01*
X14226540Y-9141460D02*
X14283690Y-9198610D01*
X14283690Y-9249410D02*
X14283690Y-9290304D01*
X14283690Y-9198610D02*
X14283690Y-9249410D01*
X15755366Y-11012170D02*
X15690088Y-10950448D01*
X15755366Y-11102594D02*
X15755366Y-11012170D01*
X15755366Y-11102594D02*
X15755366Y-11034014D01*
X12963144Y-11011408D02*
X12892278Y-10940542D01*
X12963144Y-11102086D02*
X12963144Y-11011408D01*
X14359890Y-11014964D02*
X14290548Y-10957052D01*
X14359890Y-11100816D02*
X14359890Y-11014964D01*
X14359890Y-11100816D02*
X14359890Y-10977626D01*
X11548872Y-11019282D02*
X11484102Y-10954512D01*
X11548872Y-11102594D02*
X11548872Y-11019282D01*
X13135102Y-8935212D02*
X13095224Y-8895334D01*
X13095224Y-8895334D02*
X13095224Y-8887460D01*
X14797278Y-8490204D02*
X14857984Y-8490204D01*
X14797278Y-8490204D02*
X14621510Y-8665972D01*
X14621510Y-8669528D02*
X14621510Y-8665972D01*
X14621510Y-8665972D02*
X14621510Y-8669274D01*
X14443710Y-8914130D02*
X14621510Y-8736330D01*
X14347190Y-8914130D02*
X14443710Y-8914130D01*
X14621510Y-8671560D02*
X14621510Y-8669528D01*
X14621510Y-8669528D02*
X14621510Y-8672830D01*
X14621510Y-8736330D02*
X14621510Y-8671560D01*
X14621510Y-8672830D02*
X14621510Y-8670290D01*
X14689582Y-8282940D02*
X14585696Y-8282940D01*
X14689582Y-8282940D02*
X14708632Y-8301990D01*
X14144752Y-8819896D02*
X14144752Y-8831072D01*
X14254480Y-8940800D02*
X14476730Y-9163050D01*
X14144752Y-8831072D02*
X14254480Y-8940800D01*
X14919452Y-8081010D02*
X14908530Y-8081010D01*
X14908530Y-8081010D02*
X14872970Y-8045450D01*
X14173200Y-8260080D02*
X14226540Y-8260080D01*
X14069060Y-8155940D02*
X14173200Y-8260080D01*
X14069060Y-8094980D02*
X14069060Y-8155940D01*
X14118590Y-8045450D02*
X14069060Y-8094980D01*
X14872970Y-8045450D02*
X14118590Y-8045450D01*
X15271750Y-8263890D02*
X15038070Y-8263890D01*
X14919452Y-8145272D02*
X14919452Y-8081010D01*
X15038070Y-8263890D02*
X14919452Y-8145272D01*
X14808708Y-8448294D02*
X14810994Y-8450580D01*
X14808708Y-8448294D02*
X14808708Y-8387080D01*
X15079980Y-8411210D02*
X15250160Y-8581390D01*
X15079980Y-8411210D02*
X14893290Y-8411210D01*
X14893290Y-8411210D02*
X14869160Y-8387080D01*
X14808708Y-8387080D02*
X14869160Y-8387080D01*
X14808708Y-8387080D02*
X14808708Y-8402828D01*
X15271750Y-8581390D02*
X15250160Y-8581390D01*
X15271750Y-8581390D02*
X15248890Y-8581390D01*
X14865350Y-8343900D02*
X14823440Y-8301990D01*
X14808708Y-8301990D02*
X14823440Y-8301990D01*
X15326868Y-8891016D02*
X14663420Y-9554464D01*
X15328900Y-8888984D02*
X15326868Y-8891016D01*
X13708126Y-9192260D02*
X14070330Y-9554464D01*
X14070330Y-9554464D02*
X14663420Y-9554464D01*
D22*
X13708126Y-9192260D02*
X13635240Y-9192260D01*
X13635240Y-9192260D02*
X13634950Y-9191970D01*
D10*
X15326868Y-8781288D02*
X15326868Y-8891016D01*
X15328900Y-8779256D02*
X15326868Y-8781288D01*
X16771366Y-10658094D02*
X16777716Y-10651744D01*
X16771366Y-11102594D02*
X16771366Y-10658094D01*
X16707866Y-10619994D02*
X16731996Y-10595864D01*
X16731996Y-10595864D02*
X16780256Y-10595864D01*
X16707866Y-11102594D02*
X16707866Y-10619994D01*
X16644366Y-10627614D02*
X16730726Y-10541254D01*
X16730726Y-10541254D02*
X16780256Y-10541254D01*
X16644366Y-11102594D02*
X16644366Y-10627614D01*
X16580866Y-10630154D02*
X16724376Y-10486644D01*
X16724376Y-10486644D02*
X16780256Y-10486644D01*
X16580866Y-11102594D02*
X16580866Y-10630154D01*
X16517366Y-10632694D02*
X16718026Y-10432034D01*
X16718026Y-10432034D02*
X16777716Y-10432034D01*
X16517366Y-11102594D02*
X16517366Y-10632694D01*
X16778986Y-10378694D02*
X16777716Y-10378694D01*
X16453866Y-10649204D02*
X16724376Y-10378694D01*
X16724376Y-10378694D02*
X16778986Y-10378694D01*
X16453866Y-11102594D02*
X16453866Y-10649204D01*
X16778986Y-10325354D02*
X16780256Y-10324084D01*
X16390366Y-10661904D02*
X16726916Y-10325354D01*
X16726916Y-10325354D02*
X16778986Y-10325354D01*
X16390366Y-11102594D02*
X16390366Y-10661904D01*
X16326866Y-10680954D02*
X16326866Y-10670794D01*
X16326866Y-10584434D02*
X16620236Y-10291064D01*
X16326866Y-10680954D02*
X16326866Y-10584434D01*
X16326866Y-11102594D02*
X16326866Y-10680954D01*
X16263366Y-11102594D02*
X16263366Y-10619994D01*
X16263366Y-10619994D02*
X15981426Y-10338054D01*
X16199866Y-10655554D02*
X15869666Y-10325354D01*
X15869666Y-10325354D02*
X15812516Y-10325354D01*
X16199866Y-11102594D02*
X16199866Y-10655554D01*
X16136366Y-10650474D02*
X15864586Y-10378694D01*
X15864586Y-10378694D02*
X15811246Y-10378694D01*
X16136366Y-11102594D02*
X16136366Y-10650474D01*
X16072866Y-10691114D02*
X15813786Y-10432034D01*
X16072866Y-11102594D02*
X16072866Y-10691114D01*
X16009366Y-10683494D02*
X15812516Y-10486644D01*
X16009366Y-11102594D02*
X16009366Y-10683494D01*
X15812516Y-10542524D02*
X15813786Y-10542524D01*
X15945866Y-10675874D02*
X15812516Y-10542524D01*
X15945866Y-11102594D02*
X15945866Y-10675874D01*
X15882366Y-10670794D02*
X15807436Y-10595864D01*
X15882366Y-11102594D02*
X15882366Y-10670794D01*
X15818866Y-10665714D02*
X15806166Y-10653014D01*
X15818866Y-11102594D02*
X15818866Y-10665714D01*
X13979144Y-10661396D02*
X13986764Y-10653776D01*
X13979144Y-11102086D02*
X13979144Y-10661396D01*
X13915644Y-10651236D02*
X13966444Y-10600436D01*
X13966444Y-10600436D02*
X13990574Y-10600436D01*
X13915644Y-11102086D02*
X13915644Y-10651236D01*
X13852144Y-10655046D02*
X13963904Y-10543286D01*
X13963904Y-10543286D02*
X13989304Y-10543286D01*
X13852144Y-11102086D02*
X13852144Y-10655046D01*
X13788644Y-10651236D02*
X13951204Y-10488676D01*
X13951204Y-10488676D02*
X13988034Y-10488676D01*
X13788644Y-11102086D02*
X13788644Y-10651236D01*
X13725144Y-10656316D02*
X13946124Y-10435336D01*
X13946124Y-10435336D02*
X13986764Y-10435336D01*
X13725144Y-11102086D02*
X13725144Y-10656316D01*
X13661644Y-10651236D02*
X13932154Y-10380726D01*
X13932154Y-10380726D02*
X13986764Y-10380726D01*
X13661644Y-11102086D02*
X13661644Y-10651236D01*
X13598144Y-10651236D02*
X13923264Y-10326116D01*
X13923264Y-10326116D02*
X13984224Y-10326116D01*
X13598144Y-11102086D02*
X13598144Y-10651236D01*
X13534644Y-10594086D02*
X13829284Y-10299446D01*
X13534644Y-11102086D02*
X13534644Y-10594086D01*
X13204444Y-10333228D02*
X13471144Y-10599928D01*
X13471144Y-10599928D02*
X13471144Y-11102086D01*
X13407644Y-10688066D02*
X13049504Y-10329926D01*
X13049504Y-10329926D02*
X13020294Y-10329926D01*
X13407644Y-11102086D02*
X13407644Y-10688066D01*
X13344144Y-10675366D02*
X13052044Y-10383266D01*
X13052044Y-10383266D02*
X13019024Y-10383266D01*
X13344144Y-11102086D02*
X13344144Y-10675366D01*
X13280644Y-10676636D02*
X13040614Y-10436606D01*
X13040614Y-10436606D02*
X13016484Y-10436606D01*
X13280644Y-11102086D02*
X13280644Y-10676636D01*
X13217144Y-10665206D02*
X13041884Y-10489946D01*
X13041884Y-10489946D02*
X13019024Y-10489946D01*
X13217144Y-11102086D02*
X13217144Y-10665206D01*
X13038074Y-10544556D02*
X13153644Y-10660126D01*
X13153644Y-10660126D02*
X13153644Y-11102086D01*
X13019024Y-10544556D02*
X13038074Y-10544556D01*
X13025374Y-10597896D02*
X13090144Y-10662666D01*
X13090144Y-10662666D02*
X13090144Y-11102086D01*
X13016484Y-10597896D02*
X13025374Y-10597896D01*
X13026644Y-10660126D02*
X13019024Y-10652506D01*
X13026644Y-11102086D02*
X13026644Y-10660126D01*
X14063472Y-8740648D02*
X14064996Y-8740648D01*
X14103096Y-8860536D02*
X14142720Y-8900160D01*
X14103096Y-8778748D02*
X14103096Y-8860536D01*
X14064996Y-8740648D02*
X14103096Y-8778748D01*
X15375890Y-10662666D02*
X15382240Y-10656316D01*
X15375890Y-11100816D02*
X15375890Y-10662666D01*
X15312390Y-10670286D02*
X15382240Y-10600436D01*
X15312390Y-11100816D02*
X15312390Y-10670286D01*
X15248890Y-10660126D02*
X15363190Y-10545826D01*
X15363190Y-10545826D02*
X15382240Y-10545826D01*
X15248890Y-11100816D02*
X15248890Y-10660126D01*
X15185390Y-10658856D02*
X15351760Y-10492486D01*
X15351760Y-10492486D02*
X15380970Y-10492486D01*
X15185390Y-11100816D02*
X15185390Y-10658856D01*
X15121890Y-10670286D02*
X15353030Y-10439146D01*
X15353030Y-10439146D02*
X15382240Y-10439146D01*
X15121890Y-11100816D02*
X15121890Y-10670286D01*
X15058390Y-10677906D02*
X15350490Y-10385806D01*
X15350490Y-10385806D02*
X15383510Y-10385806D01*
X15058390Y-11100816D02*
X15058390Y-10677906D01*
X14994890Y-10691876D02*
X15354300Y-10332466D01*
X15354300Y-10332466D02*
X15383510Y-10332466D01*
X14994890Y-11100816D02*
X14994890Y-10691876D01*
X14931390Y-10589006D02*
X15227300Y-10293096D01*
X14931390Y-11100816D02*
X14931390Y-10589006D01*
X14592300Y-10334752D02*
X14867890Y-10610342D01*
X14867890Y-10610342D02*
X14867890Y-11100816D01*
X14804390Y-10698226D02*
X14434820Y-10328656D01*
X14434820Y-10328656D02*
X14415770Y-10328656D01*
X14804390Y-11100816D02*
X14804390Y-10698226D01*
X14740890Y-10691876D02*
X14431010Y-10381996D01*
X14431010Y-10381996D02*
X14415770Y-10381996D01*
X14740890Y-11100816D02*
X14740890Y-10691876D01*
X14677390Y-10685526D02*
X14427200Y-10435336D01*
X14427200Y-10435336D02*
X14414500Y-10435336D01*
X14677390Y-11100816D02*
X14677390Y-10685526D01*
X14613890Y-10669016D02*
X14433550Y-10488676D01*
X14433550Y-10488676D02*
X14417040Y-10488676D01*
X14613890Y-11100816D02*
X14613890Y-10669016D01*
X14550390Y-10658856D02*
X14433550Y-10542016D01*
X14433550Y-10542016D02*
X14417040Y-10542016D01*
X14550390Y-11100816D02*
X14550390Y-10658856D01*
X14486890Y-10665206D02*
X14417040Y-10595356D01*
X14486890Y-11100816D02*
X14486890Y-10665206D01*
X14423390Y-10657586D02*
X14415770Y-10649966D01*
X14423390Y-11100816D02*
X14423390Y-10657586D01*
X12564872Y-10663174D02*
X12558522Y-10656824D01*
X12564872Y-11102594D02*
X12564872Y-10663174D01*
X12501372Y-10633964D02*
X12534392Y-10600944D01*
X12534392Y-10600944D02*
X12559792Y-10600944D01*
X12501372Y-11102594D02*
X12501372Y-10633964D01*
X12437872Y-10649204D02*
X12539472Y-10547604D01*
X12539472Y-10547604D02*
X12561062Y-10547604D01*
X12437872Y-11102594D02*
X12437872Y-10649204D01*
X12374372Y-10655554D02*
X12536932Y-10492994D01*
X12536932Y-10492994D02*
X12559792Y-10492994D01*
X12374372Y-11102594D02*
X12374372Y-10655554D01*
X12310872Y-10656824D02*
X12528042Y-10439654D01*
X12528042Y-10439654D02*
X12558522Y-10439654D01*
X12310872Y-11102594D02*
X12310872Y-10656824D01*
X12247372Y-10669524D02*
X12530582Y-10386314D01*
X12530582Y-10386314D02*
X12559792Y-10386314D01*
X12247372Y-11102594D02*
X12247372Y-10669524D01*
X12183872Y-10674604D02*
X12525502Y-10332974D01*
X12525502Y-10332974D02*
X12558522Y-10332974D01*
X12183872Y-11102594D02*
X12183872Y-10674604D01*
X12120372Y-10576814D02*
X12402312Y-10294874D01*
X12120372Y-11102594D02*
X12120372Y-10576814D01*
X11773916Y-10329164D02*
X12056872Y-10612120D01*
X12056872Y-10612120D02*
X12056872Y-11102594D01*
X11993372Y-10705084D02*
X11617452Y-10329164D01*
X11617452Y-10329164D02*
X11592052Y-10329164D01*
X11993372Y-11102594D02*
X11993372Y-10705084D01*
X11929872Y-10687304D02*
X11625072Y-10382504D01*
X11625072Y-10382504D02*
X11593322Y-10382504D01*
X11929872Y-11102594D02*
X11929872Y-10687304D01*
X11866372Y-10686034D02*
X11616182Y-10435844D01*
X11616182Y-10435844D02*
X11593322Y-10435844D01*
X11866372Y-11102594D02*
X11866372Y-10686034D01*
X11802872Y-10679684D02*
X11612372Y-10489184D01*
X11612372Y-10489184D02*
X11593322Y-10489184D01*
X11802872Y-11102594D02*
X11802872Y-10679684D01*
X11739372Y-10672064D02*
X11611102Y-10543794D01*
X11611102Y-10543794D02*
X11589512Y-10543794D01*
X11739372Y-11102594D02*
X11739372Y-10672064D01*
X11675872Y-10682224D02*
X11592052Y-10598404D01*
X11675872Y-11102594D02*
X11675872Y-10682224D01*
X11612372Y-10675874D02*
X11592052Y-10655554D01*
X11612372Y-11102594D02*
X11612372Y-10675874D01*
X13983970Y-9142730D02*
X13902690Y-9224010D01*
X13983970Y-9061450D02*
X13983970Y-9142730D01*
X13503402Y-9060688D02*
X13556232Y-9060688D01*
X13556232Y-9060688D02*
X13619950Y-8996970D01*
X15127224Y-8522716D02*
X14908784Y-8522716D01*
X14888210Y-8543290D02*
X14718030Y-8713470D01*
X14563090Y-9104630D02*
X14718030Y-8949690D01*
X14476730Y-9104630D02*
X14563090Y-9104630D01*
X14718030Y-8949690D02*
X14718030Y-8721090D01*
X14718030Y-8721090D02*
X14718030Y-8713470D01*
X14908784Y-8522716D02*
X14888210Y-8543290D01*
X14207490Y-8982710D02*
X14062710Y-8982710D01*
X14342110Y-9117330D02*
X14207490Y-8982710D01*
X14229080Y-8340090D02*
X14235430Y-8340090D01*
X15223490Y-8390890D02*
X15271750Y-8390890D01*
X15157450Y-8324850D02*
X15223490Y-8390890D01*
X15020290Y-8324850D02*
X15157450Y-8324850D01*
X14814550Y-8119110D02*
X15020290Y-8324850D01*
X14315440Y-8119110D02*
X14814550Y-8119110D01*
X14305280Y-8129270D02*
X14315440Y-8119110D01*
X14305280Y-8270240D02*
X14305280Y-8129270D01*
X14235430Y-8340090D02*
X14305280Y-8270240D01*
X15242540Y-8517890D02*
X15109190Y-8384540D01*
X14062710Y-8262620D02*
X14065250Y-8262620D01*
X14984730Y-8384540D02*
X14819630Y-8219440D01*
X15109190Y-8384540D02*
X14984730Y-8384540D01*
X14782800Y-8182610D02*
X14819630Y-8219440D01*
X14571980Y-8182610D02*
X14782800Y-8182610D01*
X14325600Y-8428990D02*
X14571980Y-8182610D01*
X14201140Y-8428990D02*
X14325600Y-8428990D01*
X14159230Y-8387080D02*
X14201140Y-8428990D01*
X14159230Y-8356600D02*
X14159230Y-8387080D01*
X14065250Y-8262620D02*
X14159230Y-8356600D01*
X15271750Y-8517890D02*
X15242540Y-8517890D01*
X15144750Y-8351520D02*
X15247620Y-8454390D01*
X13981430Y-8097520D02*
X13981430Y-8116570D01*
X15005050Y-8351520D02*
X14799310Y-8145780D01*
X15144750Y-8351520D02*
X15005050Y-8351520D01*
X14799310Y-8145780D02*
X14536420Y-8145780D01*
X14286230Y-8395970D02*
X14536420Y-8145780D01*
X14206220Y-8395970D02*
X14286230Y-8395970D01*
X14188440Y-8378190D02*
X14206220Y-8395970D01*
X14188440Y-8323580D02*
X14188440Y-8378190D01*
X13981430Y-8116570D02*
X14188440Y-8323580D01*
X15271750Y-8454390D02*
X15247620Y-8454390D01*
X15271750Y-8327390D02*
X15215870Y-8327390D01*
X15034260Y-8296910D02*
X14831060Y-8093710D01*
X15185390Y-8296910D02*
X15034260Y-8296910D01*
X15215870Y-8327390D02*
X15185390Y-8296910D01*
X14831060Y-8093710D02*
X14137640Y-8093710D01*
X14259052Y-9723628D02*
X14362176Y-9826752D01*
X14362176Y-9826752D02*
X16225520Y-9826752D01*
X14259052Y-9712452D02*
X14259052Y-9723628D01*
X14371828Y-9752584D02*
X14794738Y-9752584D01*
X14794738Y-9752584D02*
X14824710Y-9782556D01*
X13562076Y-9885426D02*
X13424154Y-9747504D01*
X13628370Y-9885426D02*
X13629132Y-9885426D01*
X13629132Y-9885426D02*
X13562076Y-9885426D01*
X13399770Y-9936226D02*
X12161266Y-9936226D01*
X12161266Y-9936226D02*
X12097512Y-9872472D01*
X13476224Y-9859772D02*
X13399770Y-9936226D01*
X13000482Y-9852660D02*
X13328142Y-9852660D01*
X12873990Y-9726168D02*
X13000482Y-9852660D01*
M02*
