G04 #@! TF.FileFunction,Legend,Top*
%FSLAX45Y45*%
G04 Gerber Fmt 4.5, Leading zero omitted, Abs format (unit mm)*
G04 Created by KiCad (PCBNEW 0.201509251832+6217~30~ubuntu14.04.1-product) date Fri 30 Oct 2015 01:43:29 PM EDT*
%MOMM*%
G01*
G04 APERTURE LIST*
%ADD10C,0.127000*%
%ADD11C,0.150000*%
%ADD12C,0.165100*%
%ADD13C,0.381000*%
%ADD14C,0.099060*%
%ADD15C,0.200660*%
G04 APERTURE END LIST*
D10*
X15695676Y-10071862D02*
X15682976Y-10059162D01*
X15759176Y-9982962D02*
X15708376Y-9982962D01*
X12907772Y-10068560D02*
X12895072Y-10055860D01*
X12971272Y-9979660D02*
X12920472Y-9979660D01*
X15696438Y-10282174D02*
X15683738Y-10269474D01*
X15759938Y-10193274D02*
X15709138Y-10193274D01*
X16480536Y-9759188D02*
X16493236Y-9746488D01*
X16569436Y-9822688D02*
X16569436Y-9771888D01*
X12884658Y-10289032D02*
X12871958Y-10276332D01*
X12948158Y-10200132D02*
X12897358Y-10200132D01*
X13687806Y-9756140D02*
X13700506Y-9743440D01*
X13776706Y-9819640D02*
X13776706Y-9768840D01*
X14311122Y-10065766D02*
X14298422Y-10053066D01*
X14374622Y-9976866D02*
X14323822Y-9976866D01*
X11486896Y-10072370D02*
X11474196Y-10059670D01*
X11550396Y-9983470D02*
X11499596Y-9983470D01*
X11489436Y-10278110D02*
X11476736Y-10265410D01*
X11552936Y-10189210D02*
X11502136Y-10189210D01*
X14316202Y-10279380D02*
X14303502Y-10266680D01*
X14379702Y-10190480D02*
X14328902Y-10190480D01*
X14447774Y-9797034D02*
X14460474Y-9784334D01*
X14536674Y-9860534D02*
X14536674Y-9809734D01*
X11724132Y-9769094D02*
X11736832Y-9756394D01*
X11813032Y-9832594D02*
X11813032Y-9781794D01*
X13110210Y-9467850D02*
X13097510Y-9455150D01*
X13173710Y-9378950D02*
X13122910Y-9378950D01*
X13637260Y-9292590D02*
X13649960Y-9305290D01*
X13573760Y-9381490D02*
X13624560Y-9381490D01*
X12263882Y-8864854D02*
X12251182Y-8852154D01*
X12327382Y-8775954D02*
X12276582Y-8775954D01*
X12359132Y-8132064D02*
X12359132Y-8144764D01*
X12359132Y-8144764D02*
X12371832Y-8157464D01*
X12371832Y-8157464D02*
X12384532Y-8157464D01*
X12384532Y-8030464D02*
X12371832Y-8030464D01*
X12371832Y-8030464D02*
X12359132Y-8043164D01*
X12359132Y-8043164D02*
X12359132Y-8055864D01*
X12486132Y-8055864D02*
X12486132Y-8132064D01*
X12954000Y-8055864D02*
X12954000Y-8043164D01*
X12954000Y-8043164D02*
X12941300Y-8030464D01*
X12941300Y-8030464D02*
X12928600Y-8030464D01*
X12928600Y-8157464D02*
X12941300Y-8157464D01*
X12941300Y-8157464D02*
X12954000Y-8144764D01*
X12954000Y-8144764D02*
X12954000Y-8132064D01*
X12827000Y-8132064D02*
X12827000Y-8055864D01*
X14534388Y-8653780D02*
X14547088Y-8666480D01*
X14470888Y-8742680D02*
X14521688Y-8742680D01*
X14477492Y-9329674D02*
X14490192Y-9316974D01*
X14566392Y-9393174D02*
X14566392Y-9342374D01*
X14842490Y-8919210D02*
X14855190Y-8906510D01*
X14931390Y-8982710D02*
X14931390Y-8931910D01*
X14575790Y-8830310D02*
X14563090Y-8817610D01*
X14639290Y-8741410D02*
X14588490Y-8741410D01*
X14790928Y-8819388D02*
X14803628Y-8806688D01*
X14879828Y-8882888D02*
X14879828Y-8832088D01*
X14753590Y-9312910D02*
X14766290Y-9300210D01*
X14842490Y-9376410D02*
X14842490Y-9325610D01*
X14790928Y-8713216D02*
X14803628Y-8700516D01*
X14879828Y-8776716D02*
X14879828Y-8725916D01*
X15299690Y-8131810D02*
X15286990Y-8144510D01*
X15210790Y-8068310D02*
X15210790Y-8119110D01*
X15109190Y-9389110D02*
X15096490Y-9401810D01*
X15020290Y-9325610D02*
X15020290Y-9376410D01*
X15286990Y-9097010D02*
X15274290Y-9109710D01*
X15198090Y-9033510D02*
X15198090Y-9084310D01*
X15274290Y-8830310D02*
X15286990Y-8843010D01*
X15210790Y-8919210D02*
X15261590Y-8919210D01*
X12447270Y-8665972D02*
X12371070Y-8665972D01*
X12371070Y-8665972D02*
X12345670Y-8640572D01*
X12345670Y-8640572D02*
X12345670Y-8615172D01*
X12625070Y-8615172D02*
X12625070Y-8640572D01*
X12625070Y-8640572D02*
X12599670Y-8665972D01*
X12599670Y-8665972D02*
X12523470Y-8665972D01*
X12625070Y-8208772D02*
X12625070Y-8183372D01*
X12625070Y-8183372D02*
X12599670Y-8157972D01*
X12599670Y-8157972D02*
X12371070Y-8157972D01*
X12371070Y-8157972D02*
X12345670Y-8183372D01*
X12345670Y-8183372D02*
X12345670Y-8208772D01*
X12586970Y-8411972D02*
X12383770Y-8411972D01*
X12790932Y-8665972D02*
X12714732Y-8665972D01*
X12714732Y-8665972D02*
X12689332Y-8640572D01*
X12689332Y-8640572D02*
X12689332Y-8615172D01*
X12968732Y-8615172D02*
X12968732Y-8640572D01*
X12968732Y-8640572D02*
X12943332Y-8665972D01*
X12943332Y-8665972D02*
X12867132Y-8665972D01*
X12968732Y-8208772D02*
X12968732Y-8183372D01*
X12968732Y-8183372D02*
X12943332Y-8157972D01*
X12943332Y-8157972D02*
X12714732Y-8157972D01*
X12714732Y-8157972D02*
X12689332Y-8183372D01*
X12689332Y-8183372D02*
X12689332Y-8208772D01*
X12930632Y-8411972D02*
X12727432Y-8411972D01*
X14842490Y-9198610D02*
X14829790Y-9185910D01*
X14905990Y-9109710D02*
X14855190Y-9109710D01*
X14931390Y-9020810D02*
X14944090Y-9008110D01*
X15020290Y-9084310D02*
X15020290Y-9033510D01*
X15007590Y-9122410D02*
X15020290Y-9135110D01*
X14944090Y-9211310D02*
X14994890Y-9211310D01*
X14790928Y-8626348D02*
X14803628Y-8613648D01*
X14879828Y-8689848D02*
X14879828Y-8639048D01*
X14428470Y-9213850D02*
X14441170Y-9226550D01*
X14364970Y-9302750D02*
X14415770Y-9302750D01*
X12349734Y-9063482D02*
X12337034Y-9050782D01*
X12413234Y-8974582D02*
X12362434Y-8974582D01*
X12349226Y-8864854D02*
X12336526Y-8852154D01*
X12412726Y-8775954D02*
X12361926Y-8775954D01*
X12978130Y-8734806D02*
X12990830Y-8747506D01*
X12914630Y-8823706D02*
X12965430Y-8823706D01*
X12978130Y-8910066D02*
X12990830Y-8922766D01*
X12914630Y-8998966D02*
X12965430Y-8998966D01*
X14753590Y-8652510D02*
X14766290Y-8665210D01*
X14690090Y-8741410D02*
X14740890Y-8741410D01*
X15021560Y-8712708D02*
X15008860Y-8700008D01*
X15085060Y-8623808D02*
X15034260Y-8623808D01*
X14420850Y-8214614D02*
X14433550Y-8227314D01*
X14357350Y-8303514D02*
X14408150Y-8303514D01*
X14420342Y-8038846D02*
X14433042Y-8051546D01*
X14356842Y-8127746D02*
X14407642Y-8127746D01*
X12848590Y-9287510D02*
X12861290Y-9274810D01*
X12937490Y-9351010D02*
X12937490Y-9300210D01*
D11*
X16711168Y-10751234D02*
G75*
G03X16711168Y-10751234I-14142J0D01*
G01*
X13918946Y-10750726D02*
G75*
G03X13918946Y-10750726I-14142J0D01*
G01*
X15315692Y-10749456D02*
G75*
G03X15315692Y-10749456I-14142J0D01*
G01*
X12491974Y-10751234D02*
G75*
G03X12491974Y-10751234I-14142J0D01*
G01*
D12*
X14263624Y-9219692D02*
X14223492Y-9259824D01*
X14223492Y-9259824D02*
X13063728Y-9259824D01*
X13063728Y-9259824D02*
X13063728Y-8059928D01*
X13063728Y-8059928D02*
X14263624Y-8059928D01*
X14263624Y-8059928D02*
X14263624Y-9219692D01*
D10*
X14743755Y-8096504D02*
G75*
G03X14743755Y-8096504I-32329J0D01*
G01*
X14577466Y-8033194D02*
X14977466Y-8033194D01*
X14577466Y-8533194D02*
X14577466Y-8033194D01*
X14977466Y-8533194D02*
X14577466Y-8533194D01*
X14977466Y-8033194D02*
X14977466Y-8533194D01*
D13*
X15322550Y-8073390D02*
X15779750Y-8073390D01*
X15779750Y-8073390D02*
X15779750Y-8835390D01*
X15779750Y-8835390D02*
X15322550Y-8835390D01*
X15347696Y-9402064D02*
X15411196Y-9465564D01*
X15411196Y-9465564D02*
X16046196Y-9465564D01*
X16046196Y-9465564D02*
X16109696Y-9402064D01*
X15347696Y-9148064D02*
X15411196Y-9084564D01*
X15411196Y-9084564D02*
X16046196Y-9084564D01*
X16046196Y-9084564D02*
X16109696Y-9148064D01*
D10*
X12236450Y-8947658D02*
X12223750Y-8960358D01*
X12325350Y-9074658D02*
X12249150Y-9074658D01*
X12387326Y-9219946D02*
X12400026Y-9232646D01*
X12514326Y-9131046D02*
X12514326Y-9207246D01*
X12808966Y-9222486D02*
X12796266Y-9235186D01*
X12720066Y-9158986D02*
X12720066Y-9209786D01*
X14802612Y-9618472D02*
X14789912Y-9605772D01*
X14866112Y-9529572D02*
X14815312Y-9529572D01*
X14638528Y-9686036D02*
X14625828Y-9673336D01*
X14702028Y-9597136D02*
X14651228Y-9597136D01*
X14220444Y-9668764D02*
X14207744Y-9656064D01*
X14283944Y-9579864D02*
X14233144Y-9579864D01*
X14475714Y-9669526D02*
X14463014Y-9656826D01*
X14539214Y-9580626D02*
X14488414Y-9580626D01*
X14135100Y-9668764D02*
X14122400Y-9656064D01*
X14198600Y-9579864D02*
X14147800Y-9579864D01*
X14305788Y-9668764D02*
X14293088Y-9656064D01*
X14369288Y-9579864D02*
X14318488Y-9579864D01*
X13385292Y-9740900D02*
X13372592Y-9728200D01*
X13448792Y-9652000D02*
X13397992Y-9652000D01*
X13823188Y-9676384D02*
X13810488Y-9663684D01*
X13886688Y-9587484D02*
X13835888Y-9587484D01*
X13544296Y-9740900D02*
X13531596Y-9728200D01*
X13607796Y-9652000D02*
X13556996Y-9652000D01*
X12912090Y-9740900D02*
X12899390Y-9728200D01*
X12975590Y-9652000D02*
X12924790Y-9652000D01*
X13230606Y-9742678D02*
X13217906Y-9729978D01*
X13294106Y-9653778D02*
X13243306Y-9653778D01*
X13071348Y-9740900D02*
X13058648Y-9728200D01*
X13134848Y-9652000D02*
X13084048Y-9652000D01*
D14*
X12927330Y-9476994D02*
X12927330Y-9457182D01*
X12937236Y-9487154D02*
X12937236Y-9447022D01*
X12947142Y-9497060D02*
X12947142Y-9437116D01*
X12957302Y-9506966D02*
X12917170Y-9467088D01*
X12917170Y-9467088D02*
X12957302Y-9427210D01*
X12957302Y-9427210D02*
X12957302Y-9506966D01*
D10*
X13064236Y-9428988D02*
X13064236Y-9416288D01*
X13064236Y-9416288D02*
X13051536Y-9403588D01*
X13051536Y-9403588D02*
X13038836Y-9403588D01*
X13038836Y-9530588D02*
X13051536Y-9530588D01*
X13051536Y-9530588D02*
X13064236Y-9517888D01*
X13064236Y-9517888D02*
X13064236Y-9505188D01*
X15673179Y-9991429D02*
X15675598Y-9993848D01*
X15678017Y-10001105D01*
X15678017Y-10005943D01*
X15675598Y-10013200D01*
X15670760Y-10018038D01*
X15665922Y-10020457D01*
X15656245Y-10022876D01*
X15648988Y-10022876D01*
X15639312Y-10020457D01*
X15634474Y-10018038D01*
X15629636Y-10013200D01*
X15627217Y-10005943D01*
X15627217Y-10001105D01*
X15629636Y-9993848D01*
X15632055Y-9991429D01*
X15678017Y-9943048D02*
X15678017Y-9972076D01*
X15678017Y-9957562D02*
X15627217Y-9957562D01*
X15634474Y-9962400D01*
X15639312Y-9967238D01*
X15641731Y-9972076D01*
X12884767Y-9982031D02*
X12887186Y-9984450D01*
X12889605Y-9991707D01*
X12889605Y-9996545D01*
X12887186Y-10003802D01*
X12882348Y-10008640D01*
X12877510Y-10011059D01*
X12867833Y-10013478D01*
X12860576Y-10013478D01*
X12850900Y-10011059D01*
X12846062Y-10008640D01*
X12841224Y-10003802D01*
X12838805Y-9996545D01*
X12838805Y-9991707D01*
X12841224Y-9984450D01*
X12843643Y-9982031D01*
X12843643Y-9962678D02*
X12841224Y-9960259D01*
X12838805Y-9955421D01*
X12838805Y-9943326D01*
X12841224Y-9938488D01*
X12843643Y-9936069D01*
X12848481Y-9933650D01*
X12853319Y-9933650D01*
X12860576Y-9936069D01*
X12889605Y-9965097D01*
X12889605Y-9933650D01*
X15673941Y-10210631D02*
X15676360Y-10213050D01*
X15678779Y-10220307D01*
X15678779Y-10225145D01*
X15676360Y-10232402D01*
X15671522Y-10237240D01*
X15666684Y-10239659D01*
X15657007Y-10242078D01*
X15649750Y-10242078D01*
X15640074Y-10239659D01*
X15635236Y-10237240D01*
X15630398Y-10232402D01*
X15627979Y-10225145D01*
X15627979Y-10220307D01*
X15630398Y-10213050D01*
X15632817Y-10210631D01*
X15627979Y-10193697D02*
X15627979Y-10162250D01*
X15647331Y-10179183D01*
X15647331Y-10171926D01*
X15649750Y-10167088D01*
X15652169Y-10164669D01*
X15657007Y-10162250D01*
X15669103Y-10162250D01*
X15673941Y-10164669D01*
X15676360Y-10167088D01*
X15678779Y-10171926D01*
X15678779Y-10186440D01*
X15676360Y-10191278D01*
X15673941Y-10193697D01*
X16563509Y-9723991D02*
X16561090Y-9726410D01*
X16553833Y-9728829D01*
X16548995Y-9728829D01*
X16541738Y-9726410D01*
X16536900Y-9721572D01*
X16534481Y-9716734D01*
X16532062Y-9707058D01*
X16532062Y-9699800D01*
X16534481Y-9690124D01*
X16536900Y-9685286D01*
X16541738Y-9680448D01*
X16548995Y-9678029D01*
X16553833Y-9678029D01*
X16561090Y-9680448D01*
X16563509Y-9682867D01*
X16607052Y-9694962D02*
X16607052Y-9728829D01*
X16594957Y-9675610D02*
X16582862Y-9711896D01*
X16614309Y-9711896D01*
X12866225Y-10202503D02*
X12868644Y-10204922D01*
X12871063Y-10212179D01*
X12871063Y-10217017D01*
X12868644Y-10224274D01*
X12863806Y-10229112D01*
X12858968Y-10231531D01*
X12849291Y-10233950D01*
X12842034Y-10233950D01*
X12832358Y-10231531D01*
X12827520Y-10229112D01*
X12822682Y-10224274D01*
X12820263Y-10217017D01*
X12820263Y-10212179D01*
X12822682Y-10204922D01*
X12825101Y-10202503D01*
X12820263Y-10156541D02*
X12820263Y-10180731D01*
X12844453Y-10183150D01*
X12842034Y-10180731D01*
X12839615Y-10175893D01*
X12839615Y-10163798D01*
X12842034Y-10158960D01*
X12844453Y-10156541D01*
X12849291Y-10154122D01*
X12861387Y-10154122D01*
X12866225Y-10156541D01*
X12868644Y-10158960D01*
X12871063Y-10163798D01*
X12871063Y-10175893D01*
X12868644Y-10180731D01*
X12866225Y-10183150D01*
X13616347Y-9818987D02*
X13613928Y-9821406D01*
X13606671Y-9823825D01*
X13601833Y-9823825D01*
X13594576Y-9821406D01*
X13589738Y-9816568D01*
X13587319Y-9811730D01*
X13584900Y-9802054D01*
X13584900Y-9794796D01*
X13587319Y-9785120D01*
X13589738Y-9780282D01*
X13594576Y-9775444D01*
X13601833Y-9773025D01*
X13606671Y-9773025D01*
X13613928Y-9775444D01*
X13616347Y-9777863D01*
X13659890Y-9773025D02*
X13650214Y-9773025D01*
X13645376Y-9775444D01*
X13642957Y-9777863D01*
X13638119Y-9785120D01*
X13635700Y-9794796D01*
X13635700Y-9814149D01*
X13638119Y-9818987D01*
X13640538Y-9821406D01*
X13645376Y-9823825D01*
X13655052Y-9823825D01*
X13659890Y-9821406D01*
X13662309Y-9818987D01*
X13664728Y-9814149D01*
X13664728Y-9802054D01*
X13662309Y-9797215D01*
X13659890Y-9794796D01*
X13655052Y-9792377D01*
X13645376Y-9792377D01*
X13640538Y-9794796D01*
X13638119Y-9797215D01*
X13635700Y-9802054D01*
X14290149Y-9983809D02*
X14292568Y-9986228D01*
X14294987Y-9993485D01*
X14294987Y-9998323D01*
X14292568Y-10005580D01*
X14287730Y-10010418D01*
X14282892Y-10012837D01*
X14273215Y-10015256D01*
X14265958Y-10015256D01*
X14256282Y-10012837D01*
X14251444Y-10010418D01*
X14246606Y-10005580D01*
X14244187Y-9998323D01*
X14244187Y-9993485D01*
X14246606Y-9986228D01*
X14249025Y-9983809D01*
X14244187Y-9966875D02*
X14244187Y-9933009D01*
X14294987Y-9954780D01*
X11513989Y-9879947D02*
X11511570Y-9882366D01*
X11504313Y-9884785D01*
X11499475Y-9884785D01*
X11492218Y-9882366D01*
X11487380Y-9877528D01*
X11484961Y-9872690D01*
X11482542Y-9863014D01*
X11482542Y-9855756D01*
X11484961Y-9846080D01*
X11487380Y-9841242D01*
X11492218Y-9836404D01*
X11499475Y-9833985D01*
X11504313Y-9833985D01*
X11511570Y-9836404D01*
X11513989Y-9838823D01*
X11543018Y-9855756D02*
X11538180Y-9853337D01*
X11535761Y-9850918D01*
X11533342Y-9846080D01*
X11533342Y-9843661D01*
X11535761Y-9838823D01*
X11538180Y-9836404D01*
X11543018Y-9833985D01*
X11552694Y-9833985D01*
X11557532Y-9836404D01*
X11559951Y-9838823D01*
X11562370Y-9843661D01*
X11562370Y-9846080D01*
X11559951Y-9850918D01*
X11557532Y-9853337D01*
X11552694Y-9855756D01*
X11543018Y-9855756D01*
X11538180Y-9858175D01*
X11535761Y-9860595D01*
X11533342Y-9865433D01*
X11533342Y-9875109D01*
X11535761Y-9879947D01*
X11538180Y-9882366D01*
X11543018Y-9884785D01*
X11552694Y-9884785D01*
X11557532Y-9882366D01*
X11559951Y-9879947D01*
X11562370Y-9875109D01*
X11562370Y-9865433D01*
X11559951Y-9860595D01*
X11557532Y-9858175D01*
X11552694Y-9855756D01*
X11513227Y-10334861D02*
X11510808Y-10337280D01*
X11503551Y-10339699D01*
X11498713Y-10339699D01*
X11491456Y-10337280D01*
X11486618Y-10332442D01*
X11484199Y-10327604D01*
X11481780Y-10317928D01*
X11481780Y-10310670D01*
X11484199Y-10300994D01*
X11486618Y-10296156D01*
X11491456Y-10291318D01*
X11498713Y-10288899D01*
X11503551Y-10288899D01*
X11510808Y-10291318D01*
X11513227Y-10293737D01*
X11537418Y-10339699D02*
X11547094Y-10339699D01*
X11551932Y-10337280D01*
X11554351Y-10334861D01*
X11559189Y-10327604D01*
X11561608Y-10317928D01*
X11561608Y-10298575D01*
X11559189Y-10293737D01*
X11556770Y-10291318D01*
X11551932Y-10288899D01*
X11542256Y-10288899D01*
X11537418Y-10291318D01*
X11534999Y-10293737D01*
X11532580Y-10298575D01*
X11532580Y-10310670D01*
X11534999Y-10315509D01*
X11537418Y-10317928D01*
X11542256Y-10320347D01*
X11551932Y-10320347D01*
X11556770Y-10317928D01*
X11559189Y-10315509D01*
X11561608Y-10310670D01*
X14376001Y-10386713D02*
X14378420Y-10389132D01*
X14380839Y-10396389D01*
X14380839Y-10401228D01*
X14378420Y-10408485D01*
X14373582Y-10413323D01*
X14368744Y-10415742D01*
X14359067Y-10418161D01*
X14351810Y-10418161D01*
X14342134Y-10415742D01*
X14337296Y-10413323D01*
X14332458Y-10408485D01*
X14330039Y-10401228D01*
X14330039Y-10396389D01*
X14332458Y-10389132D01*
X14334877Y-10386713D01*
X14380839Y-10338332D02*
X14380839Y-10367361D01*
X14380839Y-10352847D02*
X14330039Y-10352847D01*
X14337296Y-10357685D01*
X14342134Y-10362523D01*
X14344553Y-10367361D01*
X14330039Y-10306885D02*
X14330039Y-10302047D01*
X14332458Y-10297208D01*
X14334877Y-10294789D01*
X14339715Y-10292370D01*
X14349391Y-10289951D01*
X14361487Y-10289951D01*
X14371163Y-10292370D01*
X14376001Y-10294789D01*
X14378420Y-10297208D01*
X14380839Y-10302047D01*
X14380839Y-10306885D01*
X14378420Y-10311723D01*
X14376001Y-10314142D01*
X14371163Y-10316561D01*
X14361487Y-10318980D01*
X14349391Y-10318980D01*
X14339715Y-10316561D01*
X14334877Y-10314142D01*
X14332458Y-10311723D01*
X14330039Y-10306885D01*
X14667085Y-9857849D02*
X14664666Y-9860268D01*
X14657409Y-9862687D01*
X14652570Y-9862687D01*
X14645313Y-9860268D01*
X14640475Y-9855430D01*
X14638056Y-9850592D01*
X14635637Y-9840916D01*
X14635637Y-9833658D01*
X14638056Y-9823982D01*
X14640475Y-9819144D01*
X14645313Y-9814306D01*
X14652570Y-9811887D01*
X14657409Y-9811887D01*
X14664666Y-9814306D01*
X14667085Y-9816725D01*
X14715466Y-9862687D02*
X14686437Y-9862687D01*
X14700951Y-9862687D02*
X14700951Y-9811887D01*
X14696113Y-9819144D01*
X14691275Y-9823982D01*
X14686437Y-9826401D01*
X14763847Y-9862687D02*
X14734818Y-9862687D01*
X14749332Y-9862687D02*
X14749332Y-9811887D01*
X14744494Y-9819144D01*
X14739656Y-9823982D01*
X14734818Y-9826401D01*
X11940395Y-9828893D02*
X11937976Y-9831312D01*
X11930719Y-9833731D01*
X11925880Y-9833731D01*
X11918623Y-9831312D01*
X11913785Y-9826474D01*
X11911366Y-9821636D01*
X11908947Y-9811960D01*
X11908947Y-9804702D01*
X11911366Y-9795026D01*
X11913785Y-9790188D01*
X11918623Y-9785350D01*
X11925880Y-9782931D01*
X11930719Y-9782931D01*
X11937976Y-9785350D01*
X11940395Y-9787769D01*
X11988776Y-9833731D02*
X11959747Y-9833731D01*
X11974261Y-9833731D02*
X11974261Y-9782931D01*
X11969423Y-9790188D01*
X11964585Y-9795026D01*
X11959747Y-9797445D01*
X12008128Y-9787769D02*
X12010547Y-9785350D01*
X12015385Y-9782931D01*
X12027481Y-9782931D01*
X12032319Y-9785350D01*
X12034738Y-9787769D01*
X12037157Y-9792607D01*
X12037157Y-9797445D01*
X12034738Y-9804702D01*
X12005709Y-9833731D01*
X12037157Y-9833731D01*
X13082633Y-9370967D02*
X13085052Y-9373386D01*
X13087471Y-9380643D01*
X13087471Y-9385482D01*
X13085052Y-9392739D01*
X13080214Y-9397577D01*
X13075376Y-9399996D01*
X13065699Y-9402415D01*
X13058442Y-9402415D01*
X13048766Y-9399996D01*
X13043928Y-9397577D01*
X13039090Y-9392739D01*
X13036671Y-9385482D01*
X13036671Y-9380643D01*
X13039090Y-9373386D01*
X13041509Y-9370967D01*
X13087471Y-9322586D02*
X13087471Y-9351615D01*
X13087471Y-9337101D02*
X13036671Y-9337101D01*
X13043928Y-9341939D01*
X13048766Y-9346777D01*
X13051185Y-9351615D01*
X13036671Y-9279043D02*
X13036671Y-9288720D01*
X13039090Y-9293558D01*
X13041509Y-9295977D01*
X13048766Y-9300815D01*
X13058442Y-9303234D01*
X13077795Y-9303234D01*
X13082633Y-9300815D01*
X13085052Y-9298396D01*
X13087471Y-9293558D01*
X13087471Y-9283881D01*
X13085052Y-9279043D01*
X13082633Y-9276624D01*
X13077795Y-9274205D01*
X13065699Y-9274205D01*
X13060861Y-9276624D01*
X13058442Y-9279043D01*
X13056023Y-9283881D01*
X13056023Y-9293558D01*
X13058442Y-9298396D01*
X13060861Y-9300815D01*
X13065699Y-9303234D01*
X13697313Y-9410337D02*
X13699732Y-9412756D01*
X13702151Y-9420013D01*
X13702151Y-9424852D01*
X13699732Y-9432109D01*
X13694894Y-9436947D01*
X13690056Y-9439366D01*
X13680379Y-9441785D01*
X13673122Y-9441785D01*
X13663446Y-9439366D01*
X13658608Y-9436947D01*
X13653770Y-9432109D01*
X13651351Y-9424852D01*
X13651351Y-9420013D01*
X13653770Y-9412756D01*
X13656189Y-9410337D01*
X13702151Y-9361956D02*
X13702151Y-9390985D01*
X13702151Y-9376471D02*
X13651351Y-9376471D01*
X13658608Y-9381309D01*
X13663446Y-9386147D01*
X13665865Y-9390985D01*
X13651351Y-9345023D02*
X13651351Y-9311156D01*
X13702151Y-9332928D01*
X12241893Y-8800991D02*
X12244312Y-8803410D01*
X12246731Y-8810667D01*
X12246731Y-8815506D01*
X12244312Y-8822763D01*
X12239474Y-8827601D01*
X12234636Y-8830020D01*
X12224959Y-8832439D01*
X12217702Y-8832439D01*
X12208026Y-8830020D01*
X12203188Y-8827601D01*
X12198350Y-8822763D01*
X12195931Y-8815506D01*
X12195931Y-8810667D01*
X12198350Y-8803410D01*
X12200769Y-8800991D01*
X12246731Y-8752610D02*
X12246731Y-8781639D01*
X12246731Y-8767125D02*
X12195931Y-8767125D01*
X12203188Y-8771963D01*
X12208026Y-8776801D01*
X12210445Y-8781639D01*
X12217702Y-8723582D02*
X12215283Y-8728420D01*
X12212864Y-8730839D01*
X12208026Y-8733258D01*
X12205607Y-8733258D01*
X12200769Y-8730839D01*
X12198350Y-8728420D01*
X12195931Y-8723582D01*
X12195931Y-8713905D01*
X12198350Y-8709067D01*
X12200769Y-8706648D01*
X12205607Y-8704229D01*
X12208026Y-8704229D01*
X12212864Y-8706648D01*
X12215283Y-8709067D01*
X12217702Y-8713905D01*
X12217702Y-8723582D01*
X12220121Y-8728420D01*
X12222540Y-8730839D01*
X12227379Y-8733258D01*
X12237055Y-8733258D01*
X12241893Y-8730839D01*
X12244312Y-8728420D01*
X12246731Y-8723582D01*
X12246731Y-8713905D01*
X12244312Y-8709067D01*
X12241893Y-8706648D01*
X12237055Y-8704229D01*
X12227379Y-8704229D01*
X12222540Y-8706648D01*
X12220121Y-8709067D01*
X12217702Y-8713905D01*
X12448395Y-8021175D02*
X12445976Y-8023594D01*
X12438719Y-8026013D01*
X12433880Y-8026013D01*
X12426623Y-8023594D01*
X12421785Y-8018756D01*
X12419366Y-8013918D01*
X12416947Y-8004241D01*
X12416947Y-7996984D01*
X12419366Y-7987308D01*
X12421785Y-7982470D01*
X12426623Y-7977632D01*
X12433880Y-7975213D01*
X12438719Y-7975213D01*
X12445976Y-7977632D01*
X12448395Y-7980051D01*
X12496776Y-8026013D02*
X12467747Y-8026013D01*
X12482261Y-8026013D02*
X12482261Y-7975213D01*
X12477423Y-7982470D01*
X12472585Y-7987308D01*
X12467747Y-7989727D01*
X12520966Y-8026013D02*
X12530642Y-8026013D01*
X12535481Y-8023594D01*
X12537900Y-8021175D01*
X12542738Y-8013918D01*
X12545157Y-8004241D01*
X12545157Y-7984889D01*
X12542738Y-7980051D01*
X12540319Y-7977632D01*
X12535481Y-7975213D01*
X12525804Y-7975213D01*
X12520966Y-7977632D01*
X12518547Y-7980051D01*
X12516128Y-7984889D01*
X12516128Y-7996984D01*
X12518547Y-8001822D01*
X12520966Y-8004241D01*
X12525804Y-8006661D01*
X12535481Y-8006661D01*
X12540319Y-8004241D01*
X12542738Y-8001822D01*
X12545157Y-7996984D01*
X12796375Y-8020159D02*
X12793956Y-8022578D01*
X12786699Y-8024997D01*
X12781860Y-8024997D01*
X12774603Y-8022578D01*
X12769765Y-8017740D01*
X12767346Y-8012902D01*
X12764927Y-8003225D01*
X12764927Y-7995968D01*
X12767346Y-7986292D01*
X12769765Y-7981454D01*
X12774603Y-7976616D01*
X12781860Y-7974197D01*
X12786699Y-7974197D01*
X12793956Y-7976616D01*
X12796375Y-7979035D01*
X12815727Y-7979035D02*
X12818146Y-7976616D01*
X12822984Y-7974197D01*
X12835080Y-7974197D01*
X12839918Y-7976616D01*
X12842337Y-7979035D01*
X12844756Y-7983873D01*
X12844756Y-7988711D01*
X12842337Y-7995968D01*
X12813308Y-8024997D01*
X12844756Y-8024997D01*
X12876203Y-7974197D02*
X12881041Y-7974197D01*
X12885880Y-7976616D01*
X12888299Y-7979035D01*
X12890718Y-7983873D01*
X12893137Y-7993549D01*
X12893137Y-8005645D01*
X12890718Y-8015321D01*
X12888299Y-8020159D01*
X12885880Y-8022578D01*
X12881041Y-8024997D01*
X12876203Y-8024997D01*
X12871365Y-8022578D01*
X12868946Y-8020159D01*
X12866527Y-8015321D01*
X12864108Y-8005645D01*
X12864108Y-7993549D01*
X12866527Y-7983873D01*
X12868946Y-7979035D01*
X12871365Y-7976616D01*
X12876203Y-7974197D01*
X14428071Y-8775337D02*
X14430490Y-8777756D01*
X14432909Y-8785013D01*
X14432909Y-8789852D01*
X14430490Y-8797109D01*
X14425652Y-8801947D01*
X14420814Y-8804366D01*
X14411137Y-8806785D01*
X14403880Y-8806785D01*
X14394204Y-8804366D01*
X14389366Y-8801947D01*
X14384528Y-8797109D01*
X14382109Y-8789852D01*
X14382109Y-8785013D01*
X14384528Y-8777756D01*
X14386947Y-8775337D01*
X14386947Y-8755985D02*
X14384528Y-8753566D01*
X14382109Y-8748728D01*
X14382109Y-8736632D01*
X14384528Y-8731794D01*
X14386947Y-8729375D01*
X14391785Y-8726956D01*
X14396623Y-8726956D01*
X14403880Y-8729375D01*
X14432909Y-8758404D01*
X14432909Y-8726956D01*
X14432909Y-8678575D02*
X14432909Y-8707604D01*
X14432909Y-8693090D02*
X14382109Y-8693090D01*
X14389366Y-8697928D01*
X14394204Y-8702766D01*
X14396623Y-8707604D01*
X14543895Y-9462117D02*
X14541476Y-9464536D01*
X14534219Y-9466955D01*
X14529380Y-9466955D01*
X14522123Y-9464536D01*
X14517285Y-9459698D01*
X14514866Y-9454860D01*
X14512447Y-9445184D01*
X14512447Y-9437926D01*
X14514866Y-9428250D01*
X14517285Y-9423412D01*
X14522123Y-9418574D01*
X14529380Y-9416155D01*
X14534219Y-9416155D01*
X14541476Y-9418574D01*
X14543895Y-9420993D01*
X14563247Y-9420993D02*
X14565666Y-9418574D01*
X14570504Y-9416155D01*
X14582600Y-9416155D01*
X14587438Y-9418574D01*
X14589857Y-9420993D01*
X14592276Y-9425831D01*
X14592276Y-9430669D01*
X14589857Y-9437926D01*
X14560828Y-9466955D01*
X14592276Y-9466955D01*
X14635819Y-9433088D02*
X14635819Y-9466955D01*
X14623723Y-9413736D02*
X14611628Y-9450022D01*
X14643076Y-9450022D01*
X15075771Y-8992471D02*
X15073352Y-8994890D01*
X15066095Y-8997309D01*
X15061256Y-8997309D01*
X15053999Y-8994890D01*
X15049161Y-8990052D01*
X15046742Y-8985214D01*
X15044323Y-8975538D01*
X15044323Y-8968280D01*
X15046742Y-8958604D01*
X15049161Y-8953766D01*
X15053999Y-8948928D01*
X15061256Y-8946509D01*
X15066095Y-8946509D01*
X15073352Y-8948928D01*
X15075771Y-8951347D01*
X15095123Y-8951347D02*
X15097542Y-8948928D01*
X15102380Y-8946509D01*
X15114476Y-8946509D01*
X15119314Y-8948928D01*
X15121733Y-8951347D01*
X15124152Y-8956185D01*
X15124152Y-8961023D01*
X15121733Y-8968280D01*
X15092704Y-8997309D01*
X15124152Y-8997309D01*
X15167695Y-8946509D02*
X15158018Y-8946509D01*
X15153180Y-8948928D01*
X15150761Y-8951347D01*
X15145923Y-8958604D01*
X15143504Y-8968280D01*
X15143504Y-8987633D01*
X15145923Y-8992471D01*
X15148342Y-8994890D01*
X15153180Y-8997309D01*
X15162857Y-8997309D01*
X15167695Y-8994890D01*
X15170114Y-8992471D01*
X15172533Y-8987633D01*
X15172533Y-8975538D01*
X15170114Y-8970699D01*
X15167695Y-8968280D01*
X15162857Y-8965861D01*
X15153180Y-8965861D01*
X15148342Y-8968280D01*
X15145923Y-8970699D01*
X15143504Y-8975538D01*
X14492079Y-8637379D02*
X14489660Y-8639798D01*
X14482403Y-8642217D01*
X14477564Y-8642217D01*
X14470307Y-8639798D01*
X14465469Y-8634960D01*
X14463050Y-8630122D01*
X14460631Y-8620446D01*
X14460631Y-8613188D01*
X14463050Y-8603512D01*
X14465469Y-8598674D01*
X14470307Y-8593836D01*
X14477564Y-8591417D01*
X14482403Y-8591417D01*
X14489660Y-8593836D01*
X14492079Y-8596255D01*
X14511431Y-8596255D02*
X14513850Y-8593836D01*
X14518688Y-8591417D01*
X14530784Y-8591417D01*
X14535622Y-8593836D01*
X14538041Y-8596255D01*
X14540460Y-8601093D01*
X14540460Y-8605931D01*
X14538041Y-8613188D01*
X14509012Y-8642217D01*
X14540460Y-8642217D01*
X14564650Y-8642217D02*
X14574326Y-8642217D01*
X14579165Y-8639798D01*
X14581584Y-8637379D01*
X14586422Y-8630122D01*
X14588841Y-8620446D01*
X14588841Y-8601093D01*
X14586422Y-8596255D01*
X14584003Y-8593836D01*
X14579165Y-8591417D01*
X14569488Y-8591417D01*
X14564650Y-8593836D01*
X14562231Y-8596255D01*
X14559812Y-8601093D01*
X14559812Y-8613188D01*
X14562231Y-8618027D01*
X14564650Y-8620446D01*
X14569488Y-8622865D01*
X14579165Y-8622865D01*
X14584003Y-8620446D01*
X14586422Y-8618027D01*
X14588841Y-8613188D01*
X15011763Y-8875123D02*
X15009344Y-8877542D01*
X15002087Y-8879961D01*
X14997248Y-8879961D01*
X14989991Y-8877542D01*
X14985153Y-8872704D01*
X14982734Y-8867866D01*
X14980315Y-8858190D01*
X14980315Y-8850932D01*
X14982734Y-8841256D01*
X14985153Y-8836418D01*
X14989991Y-8831580D01*
X14997248Y-8829161D01*
X15002087Y-8829161D01*
X15009344Y-8831580D01*
X15011763Y-8833999D01*
X15028696Y-8829161D02*
X15060144Y-8829161D01*
X15043210Y-8848513D01*
X15050468Y-8848513D01*
X15055306Y-8850932D01*
X15057725Y-8853351D01*
X15060144Y-8858190D01*
X15060144Y-8870285D01*
X15057725Y-8875123D01*
X15055306Y-8877542D01*
X15050468Y-8879961D01*
X15035953Y-8879961D01*
X15031115Y-8877542D01*
X15028696Y-8875123D01*
X15108525Y-8879961D02*
X15079496Y-8879961D01*
X15094010Y-8879961D02*
X15094010Y-8829161D01*
X15089172Y-8836418D01*
X15084334Y-8841256D01*
X15079496Y-8843675D01*
X14809833Y-9445353D02*
X14807414Y-9447772D01*
X14800157Y-9450191D01*
X14795318Y-9450191D01*
X14788061Y-9447772D01*
X14783223Y-9442934D01*
X14780804Y-9438096D01*
X14778385Y-9428420D01*
X14778385Y-9421162D01*
X14780804Y-9411486D01*
X14783223Y-9406648D01*
X14788061Y-9401810D01*
X14795318Y-9399391D01*
X14800157Y-9399391D01*
X14807414Y-9401810D01*
X14809833Y-9404229D01*
X14826766Y-9399391D02*
X14858214Y-9399391D01*
X14841280Y-9418743D01*
X14848538Y-9418743D01*
X14853376Y-9421162D01*
X14855795Y-9423581D01*
X14858214Y-9428420D01*
X14858214Y-9440515D01*
X14855795Y-9445353D01*
X14853376Y-9447772D01*
X14848538Y-9450191D01*
X14834023Y-9450191D01*
X14829185Y-9447772D01*
X14826766Y-9445353D01*
X14875147Y-9399391D02*
X14906595Y-9399391D01*
X14889661Y-9418743D01*
X14896919Y-9418743D01*
X14901757Y-9421162D01*
X14904176Y-9423581D01*
X14906595Y-9428420D01*
X14906595Y-9440515D01*
X14904176Y-9445353D01*
X14901757Y-9447772D01*
X14896919Y-9450191D01*
X14882404Y-9450191D01*
X14877566Y-9447772D01*
X14875147Y-9445353D01*
X15005667Y-8769967D02*
X15003248Y-8772386D01*
X14995991Y-8774805D01*
X14991152Y-8774805D01*
X14983895Y-8772386D01*
X14979057Y-8767548D01*
X14976638Y-8762710D01*
X14974219Y-8753034D01*
X14974219Y-8745776D01*
X14976638Y-8736100D01*
X14979057Y-8731262D01*
X14983895Y-8726424D01*
X14991152Y-8724005D01*
X14995991Y-8724005D01*
X15003248Y-8726424D01*
X15005667Y-8728843D01*
X15022600Y-8724005D02*
X15054048Y-8724005D01*
X15037114Y-8743357D01*
X15044372Y-8743357D01*
X15049210Y-8745776D01*
X15051629Y-8748195D01*
X15054048Y-8753034D01*
X15054048Y-8765129D01*
X15051629Y-8769967D01*
X15049210Y-8772386D01*
X15044372Y-8774805D01*
X15029857Y-8774805D01*
X15025019Y-8772386D01*
X15022600Y-8769967D01*
X15100010Y-8724005D02*
X15075819Y-8724005D01*
X15073400Y-8748195D01*
X15075819Y-8745776D01*
X15080657Y-8743357D01*
X15092753Y-8743357D01*
X15097591Y-8745776D01*
X15100010Y-8748195D01*
X15102429Y-8753034D01*
X15102429Y-8765129D01*
X15100010Y-8769967D01*
X15097591Y-8772386D01*
X15092753Y-8774805D01*
X15080657Y-8774805D01*
X15075819Y-8772386D01*
X15073400Y-8769967D01*
X15171783Y-8029303D02*
X15169364Y-8031722D01*
X15162107Y-8034141D01*
X15157268Y-8034141D01*
X15150011Y-8031722D01*
X15145173Y-8026884D01*
X15142754Y-8022046D01*
X15140335Y-8012369D01*
X15140335Y-8005112D01*
X15142754Y-7995436D01*
X15145173Y-7990598D01*
X15150011Y-7985760D01*
X15157268Y-7983341D01*
X15162107Y-7983341D01*
X15169364Y-7985760D01*
X15171783Y-7988179D01*
X15188716Y-7983341D02*
X15220164Y-7983341D01*
X15203230Y-8002693D01*
X15210488Y-8002693D01*
X15215326Y-8005112D01*
X15217745Y-8007531D01*
X15220164Y-8012369D01*
X15220164Y-8024465D01*
X15217745Y-8029303D01*
X15215326Y-8031722D01*
X15210488Y-8034141D01*
X15195973Y-8034141D01*
X15191135Y-8031722D01*
X15188716Y-8029303D01*
X15237097Y-7983341D02*
X15270964Y-7983341D01*
X15249192Y-8034141D01*
X14987633Y-9445353D02*
X14985214Y-9447772D01*
X14977957Y-9450191D01*
X14973118Y-9450191D01*
X14965861Y-9447772D01*
X14961023Y-9442934D01*
X14958604Y-9438096D01*
X14956185Y-9428420D01*
X14956185Y-9421162D01*
X14958604Y-9411486D01*
X14961023Y-9406648D01*
X14965861Y-9401810D01*
X14973118Y-9399391D01*
X14977957Y-9399391D01*
X14985214Y-9401810D01*
X14987633Y-9404229D01*
X15004566Y-9399391D02*
X15036014Y-9399391D01*
X15019080Y-9418743D01*
X15026338Y-9418743D01*
X15031176Y-9421162D01*
X15033595Y-9423581D01*
X15036014Y-9428420D01*
X15036014Y-9440515D01*
X15033595Y-9445353D01*
X15031176Y-9447772D01*
X15026338Y-9450191D01*
X15011823Y-9450191D01*
X15006985Y-9447772D01*
X15004566Y-9445353D01*
X15065042Y-9421162D02*
X15060204Y-9418743D01*
X15057785Y-9416324D01*
X15055366Y-9411486D01*
X15055366Y-9409067D01*
X15057785Y-9404229D01*
X15060204Y-9401810D01*
X15065042Y-9399391D01*
X15074719Y-9399391D01*
X15079557Y-9401810D01*
X15081976Y-9404229D01*
X15084395Y-9409067D01*
X15084395Y-9411486D01*
X15081976Y-9416324D01*
X15079557Y-9418743D01*
X15074719Y-9421162D01*
X15065042Y-9421162D01*
X15060204Y-9423581D01*
X15057785Y-9426001D01*
X15055366Y-9430839D01*
X15055366Y-9440515D01*
X15057785Y-9445353D01*
X15060204Y-9447772D01*
X15065042Y-9450191D01*
X15074719Y-9450191D01*
X15079557Y-9447772D01*
X15081976Y-9445353D01*
X15084395Y-9440515D01*
X15084395Y-9430839D01*
X15081976Y-9426001D01*
X15079557Y-9423581D01*
X15074719Y-9421162D01*
X15343233Y-9066167D02*
X15345652Y-9068586D01*
X15348071Y-9075843D01*
X15348071Y-9080682D01*
X15345652Y-9087939D01*
X15340814Y-9092777D01*
X15335976Y-9095196D01*
X15326299Y-9097615D01*
X15319042Y-9097615D01*
X15309366Y-9095196D01*
X15304528Y-9092777D01*
X15299690Y-9087939D01*
X15297271Y-9080682D01*
X15297271Y-9075843D01*
X15299690Y-9068586D01*
X15302109Y-9066167D01*
X15297271Y-9049234D02*
X15297271Y-9017786D01*
X15316623Y-9034720D01*
X15316623Y-9027462D01*
X15319042Y-9022624D01*
X15321461Y-9020205D01*
X15326299Y-9017786D01*
X15338395Y-9017786D01*
X15343233Y-9020205D01*
X15345652Y-9022624D01*
X15348071Y-9027462D01*
X15348071Y-9041977D01*
X15345652Y-9046815D01*
X15343233Y-9049234D01*
X15348071Y-8993596D02*
X15348071Y-8983920D01*
X15345652Y-8979081D01*
X15343233Y-8976662D01*
X15335976Y-8971824D01*
X15326299Y-8969405D01*
X15306947Y-8969405D01*
X15302109Y-8971824D01*
X15299690Y-8974243D01*
X15297271Y-8979081D01*
X15297271Y-8988758D01*
X15299690Y-8993596D01*
X15302109Y-8996015D01*
X15306947Y-8998434D01*
X15319042Y-8998434D01*
X15323880Y-8996015D01*
X15326299Y-8993596D01*
X15328719Y-8988758D01*
X15328719Y-8979081D01*
X15326299Y-8974243D01*
X15323880Y-8971824D01*
X15319042Y-8969405D01*
X15330533Y-8937353D02*
X15328114Y-8939772D01*
X15320857Y-8942191D01*
X15316018Y-8942191D01*
X15308761Y-8939772D01*
X15303923Y-8934934D01*
X15301504Y-8930096D01*
X15299085Y-8920420D01*
X15299085Y-8913162D01*
X15301504Y-8903486D01*
X15303923Y-8898648D01*
X15308761Y-8893810D01*
X15316018Y-8891391D01*
X15320857Y-8891391D01*
X15328114Y-8893810D01*
X15330533Y-8896229D01*
X15374076Y-8908324D02*
X15374076Y-8942191D01*
X15361980Y-8888972D02*
X15349885Y-8925258D01*
X15381333Y-8925258D01*
X15395847Y-8891391D02*
X15427295Y-8891391D01*
X15410361Y-8910743D01*
X15417619Y-8910743D01*
X15422457Y-8913162D01*
X15424876Y-8915581D01*
X15427295Y-8920420D01*
X15427295Y-8932515D01*
X15424876Y-8937353D01*
X15422457Y-8939772D01*
X15417619Y-8942191D01*
X15403104Y-8942191D01*
X15398266Y-8939772D01*
X15395847Y-8937353D01*
X12479189Y-8391265D02*
X12454999Y-8391265D01*
X12454999Y-8340465D01*
X12522732Y-8391265D02*
X12493704Y-8391265D01*
X12508218Y-8391265D02*
X12508218Y-8340465D01*
X12503380Y-8347722D01*
X12498542Y-8352560D01*
X12493704Y-8354979D01*
X12287129Y-8488233D02*
X12284710Y-8485814D01*
X12282291Y-8480975D01*
X12282291Y-8468880D01*
X12284710Y-8464042D01*
X12287129Y-8461623D01*
X12291967Y-8459204D01*
X12296805Y-8459204D01*
X12304062Y-8461623D01*
X12333091Y-8490652D01*
X12333091Y-8459204D01*
X12328253Y-8437433D02*
X12330672Y-8435013D01*
X12333091Y-8437433D01*
X12330672Y-8439852D01*
X12328253Y-8437433D01*
X12333091Y-8437433D01*
X12287129Y-8415661D02*
X12284710Y-8413242D01*
X12282291Y-8408404D01*
X12282291Y-8396309D01*
X12284710Y-8391471D01*
X12287129Y-8389052D01*
X12291967Y-8386632D01*
X12296805Y-8386632D01*
X12304062Y-8389052D01*
X12333091Y-8418080D01*
X12333091Y-8386632D01*
X12299224Y-8343089D02*
X12333091Y-8343089D01*
X12299224Y-8364861D02*
X12325834Y-8364861D01*
X12330672Y-8362442D01*
X12333091Y-8357604D01*
X12333091Y-8350347D01*
X12330672Y-8345509D01*
X12328253Y-8343089D01*
X12333091Y-8318899D02*
X12282291Y-8318899D01*
X12306481Y-8318899D02*
X12306481Y-8289870D01*
X12333091Y-8289870D02*
X12282291Y-8289870D01*
X12822851Y-8391265D02*
X12798661Y-8391265D01*
X12798661Y-8340465D01*
X12837366Y-8345303D02*
X12839785Y-8342884D01*
X12844623Y-8340465D01*
X12856718Y-8340465D01*
X12861556Y-8342884D01*
X12863975Y-8345303D01*
X12866394Y-8350141D01*
X12866394Y-8354979D01*
X12863975Y-8362236D01*
X12834946Y-8391265D01*
X12866394Y-8391265D01*
X12976739Y-8550971D02*
X12974320Y-8548552D01*
X12971901Y-8543713D01*
X12971901Y-8531618D01*
X12974320Y-8526780D01*
X12976739Y-8524361D01*
X12981577Y-8521942D01*
X12986415Y-8521942D01*
X12993672Y-8524361D01*
X13022701Y-8553390D01*
X13022701Y-8521942D01*
X13017863Y-8500171D02*
X13020282Y-8497751D01*
X13022701Y-8500171D01*
X13020282Y-8502590D01*
X13017863Y-8500171D01*
X13022701Y-8500171D01*
X12976739Y-8478399D02*
X12974320Y-8475980D01*
X12971901Y-8471142D01*
X12971901Y-8459047D01*
X12974320Y-8454209D01*
X12976739Y-8451790D01*
X12981577Y-8449370D01*
X12986415Y-8449370D01*
X12993672Y-8451790D01*
X13022701Y-8480818D01*
X13022701Y-8449370D01*
X12988834Y-8405828D02*
X13022701Y-8405828D01*
X12988834Y-8427599D02*
X13015444Y-8427599D01*
X13020282Y-8425180D01*
X13022701Y-8420342D01*
X13022701Y-8413085D01*
X13020282Y-8408247D01*
X13017863Y-8405828D01*
X13022701Y-8381637D02*
X12971901Y-8381637D01*
X12996091Y-8381637D02*
X12996091Y-8352608D01*
X13022701Y-8352608D02*
X12971901Y-8352608D01*
X14872123Y-9259691D02*
X14847933Y-9259691D01*
X14847933Y-9208891D01*
X14884218Y-9208891D02*
X14915666Y-9208891D01*
X14898733Y-9228243D01*
X14905990Y-9228243D01*
X14910828Y-9230662D01*
X14913247Y-9233081D01*
X14915666Y-9237920D01*
X14915666Y-9250015D01*
X14913247Y-9254853D01*
X14910828Y-9257272D01*
X14905990Y-9259691D01*
X14891476Y-9259691D01*
X14886638Y-9257272D01*
X14884218Y-9254853D01*
X15049923Y-9158091D02*
X15025733Y-9158091D01*
X15025733Y-9107291D01*
X15088628Y-9124224D02*
X15088628Y-9158091D01*
X15076533Y-9104872D02*
X15064438Y-9141158D01*
X15095885Y-9141158D01*
X15049923Y-9246991D02*
X15025733Y-9246991D01*
X15025733Y-9196191D01*
X15091047Y-9196191D02*
X15066857Y-9196191D01*
X15064438Y-9220381D01*
X15066857Y-9217962D01*
X15071695Y-9215543D01*
X15083790Y-9215543D01*
X15088628Y-9217962D01*
X15091047Y-9220381D01*
X15093466Y-9225220D01*
X15093466Y-9237315D01*
X15091047Y-9242153D01*
X15088628Y-9244572D01*
X15083790Y-9246991D01*
X15071695Y-9246991D01*
X15066857Y-9244572D01*
X15064438Y-9242153D01*
X14849009Y-8612753D02*
X14824819Y-8612753D01*
X14824819Y-8561953D01*
X14887714Y-8561953D02*
X14878038Y-8561953D01*
X14873200Y-8564372D01*
X14870781Y-8566791D01*
X14865943Y-8574048D01*
X14863524Y-8583724D01*
X14863524Y-8603077D01*
X14865943Y-8607915D01*
X14868362Y-8610334D01*
X14873200Y-8612753D01*
X14882876Y-8612753D01*
X14887714Y-8610334D01*
X14890133Y-8607915D01*
X14892552Y-8603077D01*
X14892552Y-8590982D01*
X14890133Y-8586143D01*
X14887714Y-8583724D01*
X14882876Y-8581305D01*
X14873200Y-8581305D01*
X14868362Y-8583724D01*
X14865943Y-8586143D01*
X14863524Y-8590982D01*
X14357713Y-9450191D02*
X14340779Y-9426001D01*
X14328684Y-9450191D02*
X14328684Y-9399391D01*
X14348037Y-9399391D01*
X14352875Y-9401810D01*
X14355294Y-9404229D01*
X14357713Y-9409067D01*
X14357713Y-9416324D01*
X14355294Y-9421162D01*
X14352875Y-9423581D01*
X14348037Y-9426001D01*
X14328684Y-9426001D01*
X14406094Y-9450191D02*
X14377065Y-9450191D01*
X14391579Y-9450191D02*
X14391579Y-9399391D01*
X14386741Y-9406648D01*
X14381903Y-9411486D01*
X14377065Y-9413905D01*
X14435122Y-9421162D02*
X14430284Y-9418743D01*
X14427865Y-9416324D01*
X14425446Y-9411486D01*
X14425446Y-9409067D01*
X14427865Y-9404229D01*
X14430284Y-9401810D01*
X14435122Y-9399391D01*
X14444799Y-9399391D01*
X14449637Y-9401810D01*
X14452056Y-9404229D01*
X14454475Y-9409067D01*
X14454475Y-9411486D01*
X14452056Y-9416324D01*
X14449637Y-9418743D01*
X14444799Y-9421162D01*
X14435122Y-9421162D01*
X14430284Y-9423581D01*
X14427865Y-9426001D01*
X14425446Y-9430839D01*
X14425446Y-9440515D01*
X14427865Y-9445353D01*
X14430284Y-9447772D01*
X14435122Y-9450191D01*
X14444799Y-9450191D01*
X14449637Y-9447772D01*
X14452056Y-9445353D01*
X14454475Y-9440515D01*
X14454475Y-9430839D01*
X14452056Y-9426001D01*
X14449637Y-9423581D01*
X14444799Y-9421162D01*
X12888081Y-8805817D02*
X12863890Y-8822751D01*
X12888081Y-8834846D02*
X12837281Y-8834846D01*
X12837281Y-8815493D01*
X12839700Y-8810655D01*
X12842119Y-8808236D01*
X12846957Y-8805817D01*
X12854214Y-8805817D01*
X12859052Y-8808236D01*
X12861471Y-8810655D01*
X12863890Y-8815493D01*
X12863890Y-8834846D01*
X12842119Y-8786465D02*
X12839700Y-8784046D01*
X12837281Y-8779208D01*
X12837281Y-8767112D01*
X12839700Y-8762274D01*
X12842119Y-8759855D01*
X12846957Y-8757436D01*
X12851795Y-8757436D01*
X12859052Y-8759855D01*
X12888081Y-8788884D01*
X12888081Y-8757436D01*
X12888081Y-8709055D02*
X12888081Y-8738084D01*
X12888081Y-8723570D02*
X12837281Y-8723570D01*
X12844538Y-8728408D01*
X12849376Y-8733246D01*
X12851795Y-8738084D01*
X13045815Y-9043307D02*
X13021624Y-9060241D01*
X13045815Y-9072336D02*
X12995015Y-9072336D01*
X12995015Y-9052983D01*
X12997434Y-9048145D01*
X12999853Y-9045726D01*
X13004691Y-9043307D01*
X13011948Y-9043307D01*
X13016786Y-9045726D01*
X13019205Y-9048145D01*
X13021624Y-9052983D01*
X13021624Y-9072336D01*
X12999853Y-9023955D02*
X12997434Y-9021536D01*
X12995015Y-9016698D01*
X12995015Y-9004602D01*
X12997434Y-8999764D01*
X12999853Y-8997345D01*
X13004691Y-8994926D01*
X13009529Y-8994926D01*
X13016786Y-8997345D01*
X13045815Y-9026374D01*
X13045815Y-8994926D01*
X12999853Y-8975574D02*
X12997434Y-8973155D01*
X12995015Y-8968317D01*
X12995015Y-8956221D01*
X12997434Y-8951383D01*
X12999853Y-8948964D01*
X13004691Y-8946545D01*
X13009529Y-8946545D01*
X13016786Y-8948964D01*
X13045815Y-8977993D01*
X13045815Y-8946545D01*
X14656671Y-8642725D02*
X14639737Y-8618535D01*
X14627642Y-8642725D02*
X14627642Y-8591925D01*
X14646995Y-8591925D01*
X14651833Y-8594344D01*
X14654252Y-8596763D01*
X14656671Y-8601601D01*
X14656671Y-8608858D01*
X14654252Y-8613696D01*
X14651833Y-8616115D01*
X14646995Y-8618535D01*
X14627642Y-8618535D01*
X14676023Y-8596763D02*
X14678442Y-8594344D01*
X14683280Y-8591925D01*
X14695376Y-8591925D01*
X14700214Y-8594344D01*
X14702633Y-8596763D01*
X14705052Y-8601601D01*
X14705052Y-8606439D01*
X14702633Y-8613696D01*
X14673604Y-8642725D01*
X14705052Y-8642725D01*
X14721985Y-8591925D02*
X14753433Y-8591925D01*
X14736499Y-8611277D01*
X14743757Y-8611277D01*
X14748595Y-8613696D01*
X14751014Y-8616115D01*
X14753433Y-8620954D01*
X14753433Y-8633049D01*
X14751014Y-8637887D01*
X14748595Y-8640306D01*
X14743757Y-8642725D01*
X14729242Y-8642725D01*
X14724404Y-8640306D01*
X14721985Y-8637887D01*
X15157063Y-8666117D02*
X15132872Y-8683051D01*
X15157063Y-8695146D02*
X15106263Y-8695146D01*
X15106263Y-8675793D01*
X15108682Y-8670955D01*
X15111101Y-8668536D01*
X15115939Y-8666117D01*
X15123196Y-8666117D01*
X15128034Y-8668536D01*
X15130453Y-8670955D01*
X15132872Y-8675793D01*
X15132872Y-8695146D01*
X15111101Y-8646765D02*
X15108682Y-8644346D01*
X15106263Y-8639508D01*
X15106263Y-8627412D01*
X15108682Y-8622574D01*
X15111101Y-8620155D01*
X15115939Y-8617736D01*
X15120777Y-8617736D01*
X15128034Y-8620155D01*
X15157063Y-8649184D01*
X15157063Y-8617736D01*
X15123196Y-8574193D02*
X15157063Y-8574193D01*
X15103844Y-8586289D02*
X15140130Y-8598384D01*
X15140130Y-8566936D01*
X14334611Y-8342775D02*
X14310420Y-8359708D01*
X14334611Y-8371804D02*
X14283811Y-8371804D01*
X14283811Y-8352451D01*
X14286230Y-8347613D01*
X14288649Y-8345194D01*
X14293487Y-8342775D01*
X14300744Y-8342775D01*
X14305582Y-8345194D01*
X14308001Y-8347613D01*
X14310420Y-8352451D01*
X14310420Y-8371804D01*
X14288649Y-8323423D02*
X14286230Y-8321004D01*
X14283811Y-8316166D01*
X14283811Y-8304070D01*
X14286230Y-8299232D01*
X14288649Y-8296813D01*
X14293487Y-8294394D01*
X14298325Y-8294394D01*
X14305582Y-8296813D01*
X14334611Y-8325842D01*
X14334611Y-8294394D01*
X14283811Y-8248432D02*
X14283811Y-8272623D01*
X14308001Y-8275042D01*
X14305582Y-8272623D01*
X14303163Y-8267785D01*
X14303163Y-8255689D01*
X14305582Y-8250851D01*
X14308001Y-8248432D01*
X14312839Y-8246013D01*
X14324935Y-8246013D01*
X14329773Y-8248432D01*
X14332192Y-8250851D01*
X14334611Y-8255689D01*
X14334611Y-8267785D01*
X14332192Y-8272623D01*
X14329773Y-8275042D01*
X14330039Y-8169547D02*
X14305848Y-8186480D01*
X14330039Y-8198576D02*
X14279239Y-8198576D01*
X14279239Y-8179223D01*
X14281658Y-8174385D01*
X14284077Y-8171966D01*
X14288915Y-8169547D01*
X14296172Y-8169547D01*
X14301010Y-8171966D01*
X14303429Y-8174385D01*
X14305848Y-8179223D01*
X14305848Y-8198576D01*
X14284077Y-8150195D02*
X14281658Y-8147776D01*
X14279239Y-8142938D01*
X14279239Y-8130842D01*
X14281658Y-8126004D01*
X14284077Y-8123585D01*
X14288915Y-8121166D01*
X14293753Y-8121166D01*
X14301010Y-8123585D01*
X14330039Y-8152614D01*
X14330039Y-8121166D01*
X14279239Y-8077623D02*
X14279239Y-8087299D01*
X14281658Y-8092138D01*
X14284077Y-8094557D01*
X14291334Y-8099395D01*
X14301010Y-8101814D01*
X14320363Y-8101814D01*
X14325201Y-8099395D01*
X14327620Y-8096976D01*
X14330039Y-8092138D01*
X14330039Y-8082461D01*
X14327620Y-8077623D01*
X14325201Y-8075204D01*
X14320363Y-8072785D01*
X14308267Y-8072785D01*
X14303429Y-8075204D01*
X14301010Y-8077623D01*
X14298591Y-8082461D01*
X14298591Y-8092138D01*
X14301010Y-8096976D01*
X14303429Y-8099395D01*
X14308267Y-8101814D01*
X12917533Y-9259691D02*
X12900599Y-9235501D01*
X12888504Y-9259691D02*
X12888504Y-9208891D01*
X12907857Y-9208891D01*
X12912695Y-9211310D01*
X12915114Y-9213729D01*
X12917533Y-9218567D01*
X12917533Y-9225824D01*
X12915114Y-9230662D01*
X12912695Y-9233081D01*
X12907857Y-9235501D01*
X12888504Y-9235501D01*
X12934466Y-9208891D02*
X12965914Y-9208891D01*
X12948980Y-9228243D01*
X12956238Y-9228243D01*
X12961076Y-9230662D01*
X12963495Y-9233081D01*
X12965914Y-9237920D01*
X12965914Y-9250015D01*
X12963495Y-9254853D01*
X12961076Y-9257272D01*
X12956238Y-9259691D01*
X12941723Y-9259691D01*
X12936885Y-9257272D01*
X12934466Y-9254853D01*
X12997361Y-9208891D02*
X13002199Y-9208891D01*
X13007038Y-9211310D01*
X13009457Y-9213729D01*
X13011876Y-9218567D01*
X13014295Y-9228243D01*
X13014295Y-9240339D01*
X13011876Y-9250015D01*
X13009457Y-9254853D01*
X13007038Y-9257272D01*
X13002199Y-9259691D01*
X12997361Y-9259691D01*
X12992523Y-9257272D01*
X12990104Y-9254853D01*
X12987685Y-9250015D01*
X12985266Y-9240339D01*
X12985266Y-9228243D01*
X12987685Y-9218567D01*
X12990104Y-9213729D01*
X12992523Y-9211310D01*
X12997361Y-9208891D01*
D11*
X16180825Y-10835742D02*
X16180825Y-10916695D01*
X16185587Y-10926218D01*
X16190349Y-10930980D01*
X16199873Y-10935742D01*
X16218921Y-10935742D01*
X16228445Y-10930980D01*
X16233206Y-10926218D01*
X16237968Y-10916695D01*
X16237968Y-10835742D01*
X16276064Y-10835742D02*
X16337968Y-10835742D01*
X16304635Y-10873837D01*
X16318921Y-10873837D01*
X16328445Y-10878599D01*
X16333206Y-10883361D01*
X16337968Y-10892885D01*
X16337968Y-10916695D01*
X16333206Y-10926218D01*
X16328445Y-10930980D01*
X16318921Y-10935742D01*
X16290349Y-10935742D01*
X16280825Y-10930980D01*
X16276064Y-10926218D01*
X13521953Y-10841584D02*
X13521953Y-10922537D01*
X13526715Y-10932060D01*
X13531477Y-10936822D01*
X13541001Y-10941584D01*
X13560049Y-10941584D01*
X13569573Y-10936822D01*
X13574334Y-10932060D01*
X13579096Y-10922537D01*
X13579096Y-10841584D01*
X13669573Y-10874917D02*
X13669573Y-10941584D01*
X13645763Y-10836822D02*
X13621953Y-10908251D01*
X13683858Y-10908251D01*
X14918699Y-10840314D02*
X14918699Y-10921267D01*
X14923461Y-10930790D01*
X14928223Y-10935552D01*
X14937747Y-10940314D01*
X14956795Y-10940314D01*
X14966319Y-10935552D01*
X14971080Y-10930790D01*
X14975842Y-10921267D01*
X14975842Y-10840314D01*
X15013938Y-10840314D02*
X15080604Y-10840314D01*
X15037747Y-10940314D01*
X12094981Y-10842092D02*
X12094981Y-10923045D01*
X12099743Y-10932568D01*
X12104505Y-10937330D01*
X12114029Y-10942092D01*
X12133077Y-10942092D01*
X12142601Y-10937330D01*
X12147362Y-10932568D01*
X12152124Y-10923045D01*
X12152124Y-10842092D01*
X12214029Y-10884949D02*
X12204505Y-10880187D01*
X12199743Y-10875425D01*
X12194981Y-10865902D01*
X12194981Y-10861140D01*
X12199743Y-10851616D01*
X12204505Y-10846854D01*
X12214029Y-10842092D01*
X12233077Y-10842092D01*
X12242601Y-10846854D01*
X12247362Y-10851616D01*
X12252124Y-10861140D01*
X12252124Y-10865902D01*
X12247362Y-10875425D01*
X12242601Y-10880187D01*
X12233077Y-10884949D01*
X12214029Y-10884949D01*
X12204505Y-10889711D01*
X12199743Y-10894473D01*
X12194981Y-10903997D01*
X12194981Y-10923045D01*
X12199743Y-10932568D01*
X12204505Y-10937330D01*
X12214029Y-10942092D01*
X12233077Y-10942092D01*
X12242601Y-10937330D01*
X12247362Y-10932568D01*
X12252124Y-10923045D01*
X12252124Y-10903997D01*
X12247362Y-10894473D01*
X12242601Y-10889711D01*
X12233077Y-10884949D01*
D10*
X12478984Y-9507909D02*
X12532396Y-9507909D01*
X12619192Y-9507909D02*
X12672604Y-9507909D01*
X12645898Y-9534616D02*
X12645898Y-9481203D01*
X14055695Y-9292711D02*
X14055695Y-9333835D01*
X14058114Y-9338673D01*
X14060533Y-9341092D01*
X14065371Y-9343511D01*
X14075047Y-9343511D01*
X14079885Y-9341092D01*
X14082304Y-9338673D01*
X14084723Y-9333835D01*
X14084723Y-9292711D01*
X14135523Y-9343511D02*
X14106495Y-9343511D01*
X14121009Y-9343511D02*
X14121009Y-9292711D01*
X14116171Y-9299968D01*
X14111333Y-9304806D01*
X14106495Y-9307225D01*
X14154876Y-9297549D02*
X14157295Y-9295130D01*
X14162133Y-9292711D01*
X14174228Y-9292711D01*
X14179066Y-9295130D01*
X14181485Y-9297549D01*
X14183904Y-9302387D01*
X14183904Y-9307225D01*
X14181485Y-9314482D01*
X14152457Y-9343511D01*
X14183904Y-9343511D01*
X14721175Y-8469751D02*
X14721175Y-8510875D01*
X14723594Y-8515713D01*
X14726013Y-8518132D01*
X14730851Y-8520551D01*
X14740527Y-8520551D01*
X14745365Y-8518132D01*
X14747784Y-8515713D01*
X14750203Y-8510875D01*
X14750203Y-8469751D01*
X14801003Y-8520551D02*
X14771975Y-8520551D01*
X14786489Y-8520551D02*
X14786489Y-8469751D01*
X14781651Y-8477008D01*
X14776813Y-8481846D01*
X14771975Y-8484265D01*
X14846965Y-8469751D02*
X14822775Y-8469751D01*
X14820356Y-8493941D01*
X14822775Y-8491522D01*
X14827613Y-8489103D01*
X14839708Y-8489103D01*
X14844546Y-8491522D01*
X14846965Y-8493941D01*
X14849384Y-8498780D01*
X14849384Y-8510875D01*
X14846965Y-8515713D01*
X14844546Y-8518132D01*
X14839708Y-8520551D01*
X14827613Y-8520551D01*
X14822775Y-8518132D01*
X14820356Y-8515713D01*
D15*
X15643158Y-8654893D02*
X15643158Y-8635831D01*
X15638393Y-8626300D01*
X15633627Y-8621534D01*
X15619331Y-8612003D01*
X15600269Y-8607238D01*
X15562145Y-8607238D01*
X15552613Y-8612003D01*
X15547848Y-8616769D01*
X15543082Y-8626300D01*
X15543082Y-8645362D01*
X15547848Y-8654893D01*
X15552613Y-8659658D01*
X15562145Y-8664424D01*
X15585972Y-8664424D01*
X15595503Y-8659658D01*
X15600269Y-8654893D01*
X15605034Y-8645362D01*
X15605034Y-8626300D01*
X15600269Y-8616769D01*
X15595503Y-8612003D01*
X15585972Y-8607238D01*
X15643158Y-8573879D02*
X15576441Y-8521458D01*
X15576441Y-8573879D02*
X15643158Y-8521458D01*
X15643158Y-8430913D02*
X15643158Y-8488099D01*
X15643158Y-8459506D02*
X15543082Y-8459506D01*
X15557379Y-8469037D01*
X15566910Y-8478568D01*
X15571676Y-8488099D01*
X15543082Y-8368961D02*
X15543082Y-8359430D01*
X15547848Y-8349899D01*
X15552613Y-8345134D01*
X15562145Y-8340368D01*
X15581207Y-8335603D01*
X15605034Y-8335603D01*
X15624096Y-8340368D01*
X15633627Y-8345134D01*
X15638393Y-8349899D01*
X15643158Y-8359430D01*
X15643158Y-8368961D01*
X15638393Y-8378492D01*
X15633627Y-8383258D01*
X15624096Y-8388023D01*
X15605034Y-8392789D01*
X15581207Y-8392789D01*
X15562145Y-8388023D01*
X15552613Y-8383258D01*
X15547848Y-8378492D01*
X15543082Y-8368961D01*
X15543082Y-8273651D02*
X15543082Y-8264120D01*
X15547848Y-8254589D01*
X15552613Y-8249823D01*
X15562145Y-8245058D01*
X15581207Y-8240292D01*
X15605034Y-8240292D01*
X15624096Y-8245058D01*
X15633627Y-8249823D01*
X15638393Y-8254589D01*
X15643158Y-8264120D01*
X15643158Y-8273651D01*
X15638393Y-8283182D01*
X15633627Y-8287947D01*
X15624096Y-8292713D01*
X15605034Y-8297478D01*
X15581207Y-8297478D01*
X15562145Y-8292713D01*
X15552613Y-8287947D01*
X15547848Y-8283182D01*
X15543082Y-8273651D01*
D10*
X15665801Y-8993245D02*
X15665801Y-9034369D01*
X15668220Y-9039207D01*
X15670639Y-9041626D01*
X15675477Y-9044045D01*
X15685153Y-9044045D01*
X15689991Y-9041626D01*
X15692410Y-9039207D01*
X15694829Y-9034369D01*
X15694829Y-8993245D01*
X15745629Y-9044045D02*
X15716601Y-9044045D01*
X15731115Y-9044045D02*
X15731115Y-8993245D01*
X15726277Y-9000502D01*
X15721439Y-9005340D01*
X15716601Y-9007759D01*
X15762563Y-8993245D02*
X15796429Y-8993245D01*
X15774658Y-9044045D01*
X15592479Y-9325441D02*
X15616670Y-9325441D01*
X15587641Y-9339955D02*
X15604575Y-9289155D01*
X15621508Y-9339955D01*
X15638441Y-9339955D02*
X15638441Y-9289155D01*
X15667470Y-9339955D01*
X15667470Y-9289155D01*
X15684403Y-9289155D02*
X15713432Y-9289155D01*
X15698918Y-9339955D02*
X15698918Y-9289155D01*
X15730365Y-9313345D02*
X15747299Y-9313345D01*
X15754556Y-9339955D02*
X15730365Y-9339955D01*
X15730365Y-9289155D01*
X15754556Y-9289155D01*
X15776327Y-9339955D02*
X15776327Y-9289155D01*
X15805356Y-9339955D01*
X15805356Y-9289155D01*
X15829546Y-9339955D02*
X15829546Y-9289155D01*
X15858575Y-9339955D01*
X15858575Y-9289155D01*
X15880346Y-9325441D02*
X15904537Y-9325441D01*
X15875508Y-9339955D02*
X15892441Y-9289155D01*
X15909375Y-9339955D01*
X13113863Y-9485243D02*
X13113863Y-9526367D01*
X13116282Y-9531205D01*
X13118701Y-9533624D01*
X13123539Y-9536043D01*
X13133215Y-9536043D01*
X13138053Y-9533624D01*
X13140472Y-9531205D01*
X13142891Y-9526367D01*
X13142891Y-9485243D01*
X13193691Y-9536043D02*
X13164663Y-9536043D01*
X13179177Y-9536043D02*
X13179177Y-9485243D01*
X13174339Y-9492500D01*
X13169501Y-9497338D01*
X13164663Y-9499757D01*
X13242072Y-9536043D02*
X13213044Y-9536043D01*
X13227558Y-9536043D02*
X13227558Y-9485243D01*
X13222720Y-9492500D01*
X13217882Y-9497338D01*
X13213044Y-9499757D01*
X12206333Y-9087757D02*
X12208752Y-9090176D01*
X12211171Y-9097433D01*
X12211171Y-9102272D01*
X12208752Y-9109529D01*
X12203914Y-9114367D01*
X12199076Y-9116786D01*
X12189399Y-9119205D01*
X12182142Y-9119205D01*
X12172466Y-9116786D01*
X12167628Y-9114367D01*
X12162790Y-9109529D01*
X12160371Y-9102272D01*
X12160371Y-9097433D01*
X12162790Y-9090176D01*
X12165209Y-9087757D01*
X12211171Y-9039376D02*
X12211171Y-9068405D01*
X12211171Y-9053891D02*
X12160371Y-9053891D01*
X12167628Y-9058729D01*
X12172466Y-9063567D01*
X12174885Y-9068405D01*
X12160371Y-8993414D02*
X12160371Y-9017605D01*
X12184561Y-9020024D01*
X12182142Y-9017605D01*
X12179723Y-9012767D01*
X12179723Y-9000671D01*
X12182142Y-8995833D01*
X12184561Y-8993414D01*
X12189399Y-8990995D01*
X12201495Y-8990995D01*
X12206333Y-8993414D01*
X12208752Y-8995833D01*
X12211171Y-9000671D01*
X12211171Y-9012767D01*
X12208752Y-9017605D01*
X12206333Y-9020024D01*
X12495639Y-9282539D02*
X12493220Y-9284958D01*
X12485963Y-9287377D01*
X12481124Y-9287377D01*
X12473867Y-9284958D01*
X12469029Y-9280120D01*
X12466610Y-9275282D01*
X12464191Y-9265606D01*
X12464191Y-9258348D01*
X12466610Y-9248672D01*
X12469029Y-9243834D01*
X12473867Y-9238996D01*
X12481124Y-9236577D01*
X12485963Y-9236577D01*
X12493220Y-9238996D01*
X12495639Y-9241415D01*
X12544020Y-9287377D02*
X12514991Y-9287377D01*
X12529505Y-9287377D02*
X12529505Y-9236577D01*
X12524667Y-9243834D01*
X12519829Y-9248672D01*
X12514991Y-9251091D01*
X12560953Y-9236577D02*
X12592401Y-9236577D01*
X12575467Y-9255929D01*
X12582725Y-9255929D01*
X12587563Y-9258348D01*
X12589982Y-9260767D01*
X12592401Y-9265606D01*
X12592401Y-9277701D01*
X12589982Y-9282539D01*
X12587563Y-9284958D01*
X12582725Y-9287377D01*
X12568210Y-9287377D01*
X12563372Y-9284958D01*
X12560953Y-9282539D01*
X12664041Y-9280253D02*
X12661622Y-9282672D01*
X12654365Y-9285091D01*
X12649526Y-9285091D01*
X12642269Y-9282672D01*
X12637431Y-9277834D01*
X12635012Y-9272996D01*
X12632593Y-9263320D01*
X12632593Y-9256062D01*
X12635012Y-9246386D01*
X12637431Y-9241548D01*
X12642269Y-9236710D01*
X12649526Y-9234291D01*
X12654365Y-9234291D01*
X12661622Y-9236710D01*
X12664041Y-9239129D01*
X12712422Y-9285091D02*
X12683393Y-9285091D01*
X12697907Y-9285091D02*
X12697907Y-9234291D01*
X12693069Y-9241548D01*
X12688231Y-9246386D01*
X12683393Y-9248805D01*
X12755965Y-9251224D02*
X12755965Y-9285091D01*
X12743869Y-9231872D02*
X12731774Y-9268158D01*
X12763222Y-9268158D01*
X12595703Y-8855577D02*
X12595703Y-8896701D01*
X12598122Y-8901539D01*
X12600541Y-8903958D01*
X12605379Y-8906377D01*
X12615055Y-8906377D01*
X12619893Y-8903958D01*
X12622312Y-8901539D01*
X12624731Y-8896701D01*
X12624731Y-8855577D01*
X12675531Y-8906377D02*
X12646503Y-8906377D01*
X12661017Y-8906377D02*
X12661017Y-8855577D01*
X12656179Y-8862834D01*
X12651341Y-8867672D01*
X12646503Y-8870091D01*
X12706979Y-8855577D02*
X12711817Y-8855577D01*
X12716655Y-8857996D01*
X12719074Y-8860415D01*
X12721493Y-8865253D01*
X12723912Y-8874929D01*
X12723912Y-8887025D01*
X12721493Y-8896701D01*
X12719074Y-8901539D01*
X12716655Y-8903958D01*
X12711817Y-8906377D01*
X12706979Y-8906377D01*
X12702141Y-8903958D01*
X12699722Y-8901539D01*
X12697303Y-8896701D01*
X12694884Y-8887025D01*
X12694884Y-8874929D01*
X12697303Y-8865253D01*
X12699722Y-8860415D01*
X12702141Y-8857996D01*
X12706979Y-8855577D01*
X14348581Y-9237920D02*
X14297781Y-9237920D01*
X14348581Y-9208891D01*
X14297781Y-9208891D01*
X14348581Y-9155672D02*
X14324390Y-9172605D01*
X14348581Y-9184701D02*
X14297781Y-9184701D01*
X14297781Y-9165348D01*
X14300200Y-9160510D01*
X14302619Y-9158091D01*
X14307457Y-9155672D01*
X14314714Y-9155672D01*
X14319552Y-9158091D01*
X14321971Y-9160510D01*
X14324390Y-9165348D01*
X14324390Y-9184701D01*
X14321971Y-9116967D02*
X14321971Y-9133901D01*
X14348581Y-9133901D02*
X14297781Y-9133901D01*
X14297781Y-9109710D01*
X14302619Y-9092777D02*
X14300200Y-9090358D01*
X14297781Y-9085520D01*
X14297781Y-9073424D01*
X14300200Y-9068586D01*
X14302619Y-9066167D01*
X14307457Y-9063748D01*
X14312295Y-9063748D01*
X14319552Y-9066167D01*
X14348581Y-9095196D01*
X14348581Y-9063748D01*
X14314714Y-9020205D02*
X14348581Y-9020205D01*
X14295362Y-9032301D02*
X14331648Y-9044396D01*
X14331648Y-9012948D01*
X14348581Y-8969405D02*
X14348581Y-8993596D01*
X14297781Y-8993596D01*
X14297781Y-8942796D02*
X14297781Y-8937958D01*
X14300200Y-8933120D01*
X14302619Y-8930700D01*
X14307457Y-8928281D01*
X14317133Y-8925862D01*
X14329229Y-8925862D01*
X14338905Y-8928281D01*
X14343743Y-8930700D01*
X14346162Y-8933120D01*
X14348581Y-8937958D01*
X14348581Y-8942796D01*
X14346162Y-8947634D01*
X14343743Y-8950053D01*
X14338905Y-8952472D01*
X14329229Y-8954891D01*
X14317133Y-8954891D01*
X14307457Y-8952472D01*
X14302619Y-8950053D01*
X14300200Y-8947634D01*
X14297781Y-8942796D01*
X14348581Y-8877481D02*
X14348581Y-8906510D01*
X14348581Y-8891996D02*
X14297781Y-8891996D01*
X14305038Y-8896834D01*
X14309876Y-8901672D01*
X14312295Y-8906510D01*
X14923117Y-9528931D02*
X14906183Y-9504741D01*
X14894088Y-9528931D02*
X14894088Y-9478131D01*
X14913441Y-9478131D01*
X14918279Y-9480550D01*
X14920698Y-9482969D01*
X14923117Y-9487807D01*
X14923117Y-9495064D01*
X14920698Y-9499902D01*
X14918279Y-9502321D01*
X14913441Y-9504741D01*
X14894088Y-9504741D01*
X14940050Y-9478131D02*
X14971498Y-9478131D01*
X14954564Y-9497483D01*
X14961822Y-9497483D01*
X14966660Y-9499902D01*
X14969079Y-9502321D01*
X14971498Y-9507160D01*
X14971498Y-9519255D01*
X14969079Y-9524093D01*
X14966660Y-9526512D01*
X14961822Y-9528931D01*
X14947307Y-9528931D01*
X14942469Y-9526512D01*
X14940050Y-9524093D01*
X14990850Y-9482969D02*
X14993269Y-9480550D01*
X14998107Y-9478131D01*
X15010203Y-9478131D01*
X15015041Y-9480550D01*
X15017460Y-9482969D01*
X15019879Y-9487807D01*
X15019879Y-9492645D01*
X15017460Y-9499902D01*
X14988431Y-9528931D01*
X15019879Y-9528931D01*
X14784699Y-9622173D02*
X14760508Y-9639107D01*
X14784699Y-9651202D02*
X14733899Y-9651202D01*
X14733899Y-9631849D01*
X14736318Y-9627011D01*
X14738737Y-9624592D01*
X14743575Y-9622173D01*
X14750832Y-9622173D01*
X14755670Y-9624592D01*
X14758089Y-9627011D01*
X14760508Y-9631849D01*
X14760508Y-9651202D01*
X14733899Y-9605240D02*
X14733899Y-9573792D01*
X14753251Y-9590726D01*
X14753251Y-9583468D01*
X14755670Y-9578630D01*
X14758089Y-9576211D01*
X14762927Y-9573792D01*
X14775023Y-9573792D01*
X14779861Y-9576211D01*
X14782280Y-9578630D01*
X14784699Y-9583468D01*
X14784699Y-9597983D01*
X14782280Y-9602821D01*
X14779861Y-9605240D01*
X14733899Y-9556859D02*
X14733899Y-9525411D01*
X14753251Y-9542345D01*
X14753251Y-9535087D01*
X14755670Y-9530249D01*
X14758089Y-9527830D01*
X14762927Y-9525411D01*
X14775023Y-9525411D01*
X14779861Y-9527830D01*
X14782280Y-9530249D01*
X14784699Y-9535087D01*
X14784699Y-9549602D01*
X14782280Y-9554440D01*
X14779861Y-9556859D01*
X14243413Y-9725527D02*
X14226479Y-9701337D01*
X14214384Y-9725527D02*
X14214384Y-9674727D01*
X14233737Y-9674727D01*
X14238575Y-9677146D01*
X14240994Y-9679565D01*
X14243413Y-9684403D01*
X14243413Y-9691660D01*
X14240994Y-9696498D01*
X14238575Y-9698917D01*
X14233737Y-9701337D01*
X14214384Y-9701337D01*
X14260346Y-9674727D02*
X14291794Y-9674727D01*
X14274860Y-9694079D01*
X14282118Y-9694079D01*
X14286956Y-9696498D01*
X14289375Y-9698917D01*
X14291794Y-9703756D01*
X14291794Y-9715851D01*
X14289375Y-9720689D01*
X14286956Y-9723108D01*
X14282118Y-9725527D01*
X14267603Y-9725527D01*
X14262765Y-9723108D01*
X14260346Y-9720689D01*
X14335337Y-9691660D02*
X14335337Y-9725527D01*
X14323241Y-9672308D02*
X14311146Y-9708594D01*
X14342594Y-9708594D01*
X14618075Y-9609473D02*
X14593884Y-9626407D01*
X14618075Y-9638502D02*
X14567275Y-9638502D01*
X14567275Y-9619149D01*
X14569694Y-9614311D01*
X14572113Y-9611892D01*
X14576951Y-9609473D01*
X14584208Y-9609473D01*
X14589046Y-9611892D01*
X14591465Y-9614311D01*
X14593884Y-9619149D01*
X14593884Y-9638502D01*
X14567275Y-9592540D02*
X14567275Y-9561092D01*
X14586627Y-9578026D01*
X14586627Y-9570768D01*
X14589046Y-9565930D01*
X14591465Y-9563511D01*
X14596303Y-9561092D01*
X14608399Y-9561092D01*
X14613237Y-9563511D01*
X14615656Y-9565930D01*
X14618075Y-9570768D01*
X14618075Y-9585283D01*
X14615656Y-9590121D01*
X14613237Y-9592540D01*
X14567275Y-9515130D02*
X14567275Y-9539321D01*
X14591465Y-9541740D01*
X14589046Y-9539321D01*
X14586627Y-9534483D01*
X14586627Y-9522387D01*
X14589046Y-9517549D01*
X14591465Y-9515130D01*
X14596303Y-9512711D01*
X14608399Y-9512711D01*
X14613237Y-9515130D01*
X14615656Y-9517549D01*
X14618075Y-9522387D01*
X14618075Y-9534483D01*
X14615656Y-9539321D01*
X14613237Y-9541740D01*
X14121505Y-9612013D02*
X14097314Y-9628947D01*
X14121505Y-9641042D02*
X14070705Y-9641042D01*
X14070705Y-9621689D01*
X14073124Y-9616851D01*
X14075543Y-9614432D01*
X14080381Y-9612013D01*
X14087638Y-9612013D01*
X14092476Y-9614432D01*
X14094895Y-9616851D01*
X14097314Y-9621689D01*
X14097314Y-9641042D01*
X14070705Y-9595080D02*
X14070705Y-9563632D01*
X14090057Y-9580566D01*
X14090057Y-9573308D01*
X14092476Y-9568470D01*
X14094895Y-9566051D01*
X14099733Y-9563632D01*
X14111829Y-9563632D01*
X14116667Y-9566051D01*
X14119086Y-9568470D01*
X14121505Y-9573308D01*
X14121505Y-9587823D01*
X14119086Y-9592661D01*
X14116667Y-9595080D01*
X14070705Y-9520089D02*
X14070705Y-9529766D01*
X14073124Y-9534604D01*
X14075543Y-9537023D01*
X14082800Y-9541861D01*
X14092476Y-9544280D01*
X14111829Y-9544280D01*
X14116667Y-9541861D01*
X14119086Y-9539442D01*
X14121505Y-9534604D01*
X14121505Y-9524927D01*
X14119086Y-9520089D01*
X14116667Y-9517670D01*
X14111829Y-9515251D01*
X14099733Y-9515251D01*
X14094895Y-9517670D01*
X14092476Y-9520089D01*
X14090057Y-9524927D01*
X14090057Y-9534604D01*
X14092476Y-9539442D01*
X14094895Y-9541861D01*
X14099733Y-9544280D01*
X14445609Y-9603885D02*
X14421418Y-9620819D01*
X14445609Y-9632914D02*
X14394809Y-9632914D01*
X14394809Y-9613561D01*
X14397228Y-9608723D01*
X14399647Y-9606304D01*
X14404485Y-9603885D01*
X14411742Y-9603885D01*
X14416580Y-9606304D01*
X14418999Y-9608723D01*
X14421418Y-9613561D01*
X14421418Y-9632914D01*
X14394809Y-9586952D02*
X14394809Y-9555504D01*
X14414161Y-9572438D01*
X14414161Y-9565180D01*
X14416580Y-9560342D01*
X14418999Y-9557923D01*
X14423837Y-9555504D01*
X14435933Y-9555504D01*
X14440771Y-9557923D01*
X14443190Y-9560342D01*
X14445609Y-9565180D01*
X14445609Y-9579695D01*
X14443190Y-9584533D01*
X14440771Y-9586952D01*
X14394809Y-9538571D02*
X14394809Y-9504704D01*
X14445609Y-9526476D01*
X13370935Y-9700913D02*
X13346744Y-9717847D01*
X13370935Y-9729942D02*
X13320135Y-9729942D01*
X13320135Y-9710589D01*
X13322554Y-9705751D01*
X13324973Y-9703332D01*
X13329811Y-9700913D01*
X13337068Y-9700913D01*
X13341906Y-9703332D01*
X13344325Y-9705751D01*
X13346744Y-9710589D01*
X13346744Y-9729942D01*
X13320135Y-9683980D02*
X13320135Y-9652532D01*
X13339487Y-9669466D01*
X13339487Y-9662208D01*
X13341906Y-9657370D01*
X13344325Y-9654951D01*
X13349163Y-9652532D01*
X13361259Y-9652532D01*
X13366097Y-9654951D01*
X13368516Y-9657370D01*
X13370935Y-9662208D01*
X13370935Y-9676723D01*
X13368516Y-9681561D01*
X13366097Y-9683980D01*
X13341906Y-9623504D02*
X13339487Y-9628342D01*
X13337068Y-9630761D01*
X13332230Y-9633180D01*
X13329811Y-9633180D01*
X13324973Y-9630761D01*
X13322554Y-9628342D01*
X13320135Y-9623504D01*
X13320135Y-9613827D01*
X13322554Y-9608989D01*
X13324973Y-9606570D01*
X13329811Y-9604151D01*
X13332230Y-9604151D01*
X13337068Y-9606570D01*
X13339487Y-9608989D01*
X13341906Y-9613827D01*
X13341906Y-9623504D01*
X13344325Y-9628342D01*
X13346744Y-9630761D01*
X13351583Y-9633180D01*
X13361259Y-9633180D01*
X13366097Y-9630761D01*
X13368516Y-9628342D01*
X13370935Y-9623504D01*
X13370935Y-9613827D01*
X13368516Y-9608989D01*
X13366097Y-9606570D01*
X13361259Y-9604151D01*
X13351583Y-9604151D01*
X13346744Y-9606570D01*
X13344325Y-9608989D01*
X13341906Y-9613827D01*
X13798671Y-9614299D02*
X13774480Y-9631233D01*
X13798671Y-9643328D02*
X13747871Y-9643328D01*
X13747871Y-9623975D01*
X13750290Y-9619137D01*
X13752709Y-9616718D01*
X13757547Y-9614299D01*
X13764804Y-9614299D01*
X13769642Y-9616718D01*
X13772061Y-9619137D01*
X13774480Y-9623975D01*
X13774480Y-9643328D01*
X13747871Y-9597366D02*
X13747871Y-9565918D01*
X13767223Y-9582852D01*
X13767223Y-9575594D01*
X13769642Y-9570756D01*
X13772061Y-9568337D01*
X13776899Y-9565918D01*
X13788995Y-9565918D01*
X13793833Y-9568337D01*
X13796252Y-9570756D01*
X13798671Y-9575594D01*
X13798671Y-9590109D01*
X13796252Y-9594947D01*
X13793833Y-9597366D01*
X13798671Y-9541728D02*
X13798671Y-9532052D01*
X13796252Y-9527213D01*
X13793833Y-9524794D01*
X13786576Y-9519956D01*
X13776899Y-9517537D01*
X13757547Y-9517537D01*
X13752709Y-9519956D01*
X13750290Y-9522375D01*
X13747871Y-9527213D01*
X13747871Y-9536890D01*
X13750290Y-9541728D01*
X13752709Y-9544147D01*
X13757547Y-9546566D01*
X13769642Y-9546566D01*
X13774480Y-9544147D01*
X13776899Y-9541728D01*
X13779319Y-9536890D01*
X13779319Y-9527213D01*
X13776899Y-9522375D01*
X13774480Y-9519956D01*
X13769642Y-9517537D01*
X13529177Y-9704977D02*
X13504986Y-9721911D01*
X13529177Y-9734006D02*
X13478377Y-9734006D01*
X13478377Y-9714653D01*
X13480796Y-9709815D01*
X13483215Y-9707396D01*
X13488053Y-9704977D01*
X13495310Y-9704977D01*
X13500148Y-9707396D01*
X13502567Y-9709815D01*
X13504986Y-9714653D01*
X13504986Y-9734006D01*
X13495310Y-9661434D02*
X13529177Y-9661434D01*
X13475958Y-9673530D02*
X13512244Y-9685625D01*
X13512244Y-9654177D01*
X13478377Y-9625149D02*
X13478377Y-9620311D01*
X13480796Y-9615472D01*
X13483215Y-9613053D01*
X13488053Y-9610634D01*
X13497729Y-9608215D01*
X13509825Y-9608215D01*
X13519501Y-9610634D01*
X13524339Y-9613053D01*
X13526758Y-9615472D01*
X13529177Y-9620311D01*
X13529177Y-9625149D01*
X13526758Y-9629987D01*
X13524339Y-9632406D01*
X13519501Y-9634825D01*
X13509825Y-9637244D01*
X13497729Y-9637244D01*
X13488053Y-9634825D01*
X13483215Y-9632406D01*
X13480796Y-9629987D01*
X13478377Y-9625149D01*
X12899003Y-9675513D02*
X12874812Y-9692447D01*
X12899003Y-9704542D02*
X12848203Y-9704542D01*
X12848203Y-9685189D01*
X12850622Y-9680351D01*
X12853041Y-9677932D01*
X12857879Y-9675513D01*
X12865136Y-9675513D01*
X12869974Y-9677932D01*
X12872393Y-9680351D01*
X12874812Y-9685189D01*
X12874812Y-9704542D01*
X12865136Y-9631970D02*
X12899003Y-9631970D01*
X12845784Y-9644066D02*
X12882070Y-9656161D01*
X12882070Y-9624713D01*
X12899003Y-9578751D02*
X12899003Y-9607780D01*
X12899003Y-9593266D02*
X12848203Y-9593266D01*
X12855460Y-9598104D01*
X12860298Y-9602942D01*
X12862717Y-9607780D01*
X13215487Y-9704723D02*
X13191296Y-9721657D01*
X13215487Y-9733752D02*
X13164687Y-9733752D01*
X13164687Y-9714399D01*
X13167106Y-9709561D01*
X13169525Y-9707142D01*
X13174363Y-9704723D01*
X13181620Y-9704723D01*
X13186458Y-9707142D01*
X13188877Y-9709561D01*
X13191296Y-9714399D01*
X13191296Y-9733752D01*
X13181620Y-9661180D02*
X13215487Y-9661180D01*
X13162268Y-9673276D02*
X13198554Y-9685371D01*
X13198554Y-9653923D01*
X13169525Y-9636990D02*
X13167106Y-9634571D01*
X13164687Y-9629733D01*
X13164687Y-9617637D01*
X13167106Y-9612799D01*
X13169525Y-9610380D01*
X13174363Y-9607961D01*
X13179201Y-9607961D01*
X13186458Y-9610380D01*
X13215487Y-9639409D01*
X13215487Y-9607961D01*
X13056991Y-9696087D02*
X13032800Y-9713021D01*
X13056991Y-9725116D02*
X13006191Y-9725116D01*
X13006191Y-9705763D01*
X13008610Y-9700925D01*
X13011029Y-9698506D01*
X13015867Y-9696087D01*
X13023124Y-9696087D01*
X13027962Y-9698506D01*
X13030381Y-9700925D01*
X13032800Y-9705763D01*
X13032800Y-9725116D01*
X13023124Y-9652544D02*
X13056991Y-9652544D01*
X13003772Y-9664640D02*
X13040058Y-9676735D01*
X13040058Y-9645287D01*
X13006191Y-9630773D02*
X13006191Y-9599325D01*
X13025543Y-9616259D01*
X13025543Y-9609001D01*
X13027962Y-9604163D01*
X13030381Y-9601744D01*
X13035219Y-9599325D01*
X13047315Y-9599325D01*
X13052153Y-9601744D01*
X13054572Y-9604163D01*
X13056991Y-9609001D01*
X13056991Y-9623516D01*
X13054572Y-9628354D01*
X13052153Y-9630773D01*
M02*
