M48
INCH,TZ
T1C0.006
T2C0.010
T3C0.039
%
G90
G05
T1
X45213Y-43128
X45549Y-42207
X45558Y-43021
X45627Y-39266
X45628Y-41511
X45633Y-39519
X45636Y-39891
X45638Y-40666
X45638Y-41726
X45638Y-41951
X45643Y-40876
X45643Y-41086
X45643Y-41296
X45644Y-40289
X46076Y-38651
X46254Y-40097
X46259Y-40313
X46354Y-40666
X46656Y-38863
X46658Y-39491
X47283Y-41031
X47628Y-38868
X47793Y-40521
X48510Y-39543
X48628Y-38877
X48828Y-40531
X48830Y-38875
X48830Y-39891
X48830Y-40101
X49443Y-40681
X49443Y-41101
X49443Y-41956
X49444Y-39493
X49444Y-39687
X49448Y-40891
X49448Y-41311
X49448Y-41736
X49453Y-41526
X49628Y-43031
X49642Y-34090
X49830Y-42303
X49972Y-43104
X50040Y-34090
X50685Y-38292
X50733Y-35769
X50757Y-43073
X51126Y-43034
X51128Y-42202
X51186Y-40029
X51202Y-40342
X51246Y-41089
X51246Y-41724
X51250Y-39644
X51256Y-40879
X51256Y-41299
X51256Y-41514
X51256Y-41939
X51261Y-40669
X51298Y-37688
X51384Y-39296
X51556Y-34990
X51560Y-36150
X51874Y-40099
X51878Y-40334
X51890Y-32200
X51927Y-37683
X51986Y-40682
X51995Y-36725
X52235Y-33765
X52280Y-39455
X52473Y-38790
X52530Y-34080
X52530Y-34410
X52530Y-34730
X52530Y-35350
X52532Y-37688
X52535Y-33165
X52840Y-35990
X52850Y-32840
X52850Y-35360
X52851Y-38376
X52885Y-33615
X52885Y-34915
X52916Y-41024
X52932Y-33195
X53056Y-38818
X53160Y-35980
X53160Y-37702
X53163Y-35672
X53260Y-36940
X53285Y-34015
X53320Y-33190
X53330Y-35010
X53411Y-40519
X53445Y-36345
X53535Y-33815
X53535Y-34465
X53640Y-33200
X53655Y-38919
X53790Y-35040
X53847Y-37698
X53985Y-33865
X53985Y-34465
X54036Y-38824
X54080Y-35660
X54112Y-33150
X54235Y-34015
X54252Y-34868
X54410Y-35350
X54420Y-33150
X54422Y-38867
X54446Y-39887
X54446Y-40549
X54448Y-40109
X54685Y-33615
X54685Y-34865
X54708Y-38871
X54732Y-34392
X54735Y-33165
X54735Y-36315
X54750Y-35350
X54909Y-37590
X55035Y-33815
X55040Y-34390
X55045Y-31880
X55050Y-32210
X55050Y-32830
X55052Y-33148
X55055Y-35675
X55056Y-40654
X55060Y-36340
X55064Y-39491
X55066Y-40869
X55066Y-41084
X55066Y-41944
X55071Y-41294
X55076Y-41509
X55078Y-39713
X55081Y-41734
X55196Y-43024
X55360Y-35665
X55365Y-32530
X55365Y-34715
X55365Y-35365
X55366Y-34086
X55368Y-34412
X55372Y-35044
X55380Y-33784
X55405Y-42205
X55476Y-37346
X55538Y-43070
X55660Y-31865
X55676Y-34406
X55678Y-33784
X55680Y-35040
X55684Y-34088
X55686Y-33460
X55688Y-34724
X55864Y-37260
X55950Y-36310
X56006Y-33808
X56010Y-32520
X56010Y-35990
X56020Y-32180
X56020Y-32835
X56048Y-34366
X56054Y-33360
X56138Y-38238
X56144Y-37258
X56262Y-43138
X56375Y-36895
X56436Y-34590
X56465Y-35895
X56485Y-35095
X56526Y-37288
X56582Y-38396
X56606Y-42231
X56625Y-43059
X56750Y-41084
X56753Y-39932
X56755Y-40664
X56755Y-40874
X56755Y-41929
X56759Y-40304
X56760Y-41294
X56760Y-41504
X56760Y-41714
X56762Y-39610
X56764Y-39318
X56769Y-38858
X56863Y-33039
X56866Y-32122
X56995Y-35845
X56995Y-36075
X57132Y-37246
X57142Y-35202
X57296Y-34224
X57336Y-33604
X57371Y-40102
X57374Y-40350
X57424Y-32610
X57450Y-40688
X57464Y-36677
X57714Y-35188
X57723Y-37344
X57735Y-34215
X57775Y-39434
X57860Y-33276
X57942Y-35622
X58181Y-37488
X58311Y-33270
X58365Y-38514
X58375Y-41029
X58390Y-36572
X58496Y-33426
X58525Y-32850
X58761Y-38865
X58782Y-34670
X58920Y-40529
X59008Y-34988
X59014Y-34116
X59064Y-34462
X59127Y-32107
X59154Y-38868
X59241Y-38235
X59506Y-36518
X59546Y-38868
X59556Y-33554
X59577Y-38040
X59810Y-33796
X59815Y-32275
X59876Y-38862
X59947Y-40088
X59950Y-40524
X59951Y-39872
X60085Y-34690
X60114Y-38914
X60340Y-32090
X60350Y-34564
X60555Y-41309
X60560Y-41099
X60560Y-41519
X60560Y-41734
X60560Y-41954
X60561Y-39480
X60563Y-39680
X60565Y-40679
X60565Y-40889
X60695Y-43019
X60762Y-32784
X60901Y-42291
X61053Y-43031
X61772Y-43112
X62105Y-42269
X62114Y-43066
X62228Y-39652
X62229Y-41941
X62232Y-39975
X62234Y-39366
X62234Y-41716
X62249Y-40861
X62254Y-40651
X62254Y-41286
X62254Y-41506
X62255Y-40277
X62259Y-41071
X62869Y-40096
X62870Y-40329
X62919Y-40701
X63264Y-39486
X63844Y-41076
X63880Y-38688
X64439Y-40456
X64942Y-38824
X65264Y-38831
X65434Y-40516
X65464Y-40041
X65559Y-38856
X66044Y-39376
X66054Y-41071
X66054Y-41936
X66059Y-39636
X66059Y-40651
X66059Y-40861
X66063Y-39977
X66064Y-41286
X66064Y-41501
X66064Y-41716
X66185Y-43076
X66409Y-42307
X66482Y-43254
T2
X48363Y-35105
X48417Y-32281
X48423Y-33681
X48773Y-35789
X49167Y-34749
X49167Y-35204
X49773Y-35885
X49833Y-32181
X49835Y-31859
X49835Y-33177
X49839Y-33621
X50463Y-36355
X50510Y-34740
X50512Y-35204
X51135Y-31915
X51185Y-32265
X51237Y-33831
X59463Y-37445
X59740Y-34290
X60468Y-34026
T3
X49043Y-36975
X50043Y-36975
T0
M30
