G04 #@! TF.FileFunction,Legend,Bot*
%FSLAX45Y45*%
G04 Gerber Fmt 4.5, Leading zero omitted, Abs format (unit mm)*
G04 Created by KiCad (PCBNEW 0.201509251832+6217~30~ubuntu14.04.1-product) date Fri 30 Oct 2015 01:43:29 PM EDT*
%MOMM*%
G01*
G04 APERTURE LIST*
%ADD10C,0.127000*%
%ADD11C,0.381000*%
%ADD12C,0.200660*%
G04 APERTURE END LIST*
D10*
X13635736Y-8246364D02*
X13635736Y-8233664D01*
X13635736Y-8233664D02*
X13648436Y-8220964D01*
X13648436Y-8220964D02*
X13661136Y-8220964D01*
X13661136Y-8347964D02*
X13648436Y-8347964D01*
X13648436Y-8347964D02*
X13635736Y-8335264D01*
X13635736Y-8335264D02*
X13635736Y-8322564D01*
X13762736Y-8322564D02*
X13762736Y-8246364D01*
X13623290Y-8881110D02*
X13610590Y-8881110D01*
X13610590Y-8881110D02*
X13597890Y-8868410D01*
X13597890Y-8868410D02*
X13597890Y-8855710D01*
X13724890Y-8855710D02*
X13724890Y-8868410D01*
X13724890Y-8868410D02*
X13712190Y-8881110D01*
X13712190Y-8881110D02*
X13699490Y-8881110D01*
X13699490Y-8754110D02*
X13623290Y-8754110D01*
X13293090Y-8284210D02*
X13305790Y-8296910D01*
X13381990Y-8220710D02*
X13381990Y-8271510D01*
X13623290Y-8462010D02*
X13610590Y-8474710D01*
X13686790Y-8550910D02*
X13635990Y-8550910D01*
X13884910Y-8164830D02*
X13872210Y-8177530D01*
X13948410Y-8253730D02*
X13897610Y-8253730D01*
X13496290Y-8449310D02*
X13483590Y-8462010D01*
X13559790Y-8538210D02*
X13508990Y-8538210D01*
X14098524Y-8520684D02*
X14111224Y-8507984D01*
X14035024Y-8431784D02*
X14085824Y-8431784D01*
X13572490Y-8843010D02*
X13585190Y-8830310D01*
X13508990Y-8754110D02*
X13559790Y-8754110D01*
X14182090Y-9122410D02*
X14169390Y-9109710D01*
X14093190Y-9185910D02*
X14093190Y-9135110D01*
X13813790Y-8843010D02*
X13826490Y-8830310D01*
X13750290Y-8754110D02*
X13801090Y-8754110D01*
X13776452Y-9098280D02*
X13789152Y-9110980D01*
X13865352Y-9034780D02*
X13865352Y-9085580D01*
X13737590Y-8449310D02*
X13724890Y-8462010D01*
X13801090Y-8538210D02*
X13750290Y-8538210D01*
X13305790Y-8995410D02*
X13293090Y-9008110D01*
X13369290Y-9084310D02*
X13318490Y-9084310D01*
X13254990Y-8855710D02*
X13267690Y-8843010D01*
X13191490Y-8766810D02*
X13242290Y-8766810D01*
X13274040Y-8897112D02*
X13261340Y-8884412D01*
X13185140Y-8960612D02*
X13185140Y-8909812D01*
X14880590Y-8119110D02*
X14893290Y-8131810D01*
X14969490Y-8055610D02*
X14969490Y-8106410D01*
X14847570Y-8348980D02*
X14834870Y-8336280D01*
X14758670Y-8412480D02*
X14758670Y-8361680D01*
X14669770Y-8340090D02*
X14682470Y-8352790D01*
X14758670Y-8276590D02*
X14758670Y-8327390D01*
X13847064Y-9154160D02*
X13834364Y-9141460D01*
X13758164Y-9217660D02*
X13758164Y-9166860D01*
D11*
X15322550Y-8835390D02*
X15779750Y-8835390D01*
X15779750Y-8835390D02*
X15779750Y-8073390D01*
X15779750Y-8073390D02*
X15322550Y-8073390D01*
D10*
X13795393Y-8213707D02*
X13797812Y-8216126D01*
X13805069Y-8218545D01*
X13809907Y-8218545D01*
X13817165Y-8216126D01*
X13822003Y-8211288D01*
X13824422Y-8206450D01*
X13826841Y-8196773D01*
X13826841Y-8189516D01*
X13824422Y-8179840D01*
X13822003Y-8175002D01*
X13817165Y-8170164D01*
X13809907Y-8167745D01*
X13805069Y-8167745D01*
X13797812Y-8170164D01*
X13795393Y-8172583D01*
X13776041Y-8172583D02*
X13773622Y-8170164D01*
X13768784Y-8167745D01*
X13756688Y-8167745D01*
X13751850Y-8170164D01*
X13749431Y-8172583D01*
X13747012Y-8177421D01*
X13747012Y-8182259D01*
X13749431Y-8189516D01*
X13778460Y-8218545D01*
X13747012Y-8218545D01*
X13727660Y-8172583D02*
X13725241Y-8170164D01*
X13720403Y-8167745D01*
X13708307Y-8167745D01*
X13703469Y-8170164D01*
X13701050Y-8172583D01*
X13698631Y-8177421D01*
X13698631Y-8182259D01*
X13701050Y-8189516D01*
X13730079Y-8218545D01*
X13698631Y-8218545D01*
X13679533Y-8924653D02*
X13681952Y-8922234D01*
X13684371Y-8914977D01*
X13684371Y-8910139D01*
X13681952Y-8902881D01*
X13677114Y-8898043D01*
X13672276Y-8895624D01*
X13662599Y-8893205D01*
X13655342Y-8893205D01*
X13645666Y-8895624D01*
X13640828Y-8898043D01*
X13635990Y-8902881D01*
X13633571Y-8910139D01*
X13633571Y-8914977D01*
X13635990Y-8922234D01*
X13638409Y-8924653D01*
X13638409Y-8944005D02*
X13635990Y-8946424D01*
X13633571Y-8951262D01*
X13633571Y-8963358D01*
X13635990Y-8968196D01*
X13638409Y-8970615D01*
X13643247Y-8973034D01*
X13648085Y-8973034D01*
X13655342Y-8970615D01*
X13684371Y-8941586D01*
X13684371Y-8973034D01*
X13633571Y-8989967D02*
X13633571Y-9021415D01*
X13652923Y-9004481D01*
X13652923Y-9011739D01*
X13655342Y-9016577D01*
X13657761Y-9018996D01*
X13662599Y-9021415D01*
X13674695Y-9021415D01*
X13679533Y-9018996D01*
X13681952Y-9016577D01*
X13684371Y-9011739D01*
X13684371Y-8997224D01*
X13681952Y-8992386D01*
X13679533Y-8989967D01*
X13427347Y-8213453D02*
X13429766Y-8215872D01*
X13437023Y-8218291D01*
X13441861Y-8218291D01*
X13449119Y-8215872D01*
X13453957Y-8211034D01*
X13456376Y-8206196D01*
X13458795Y-8196519D01*
X13458795Y-8189262D01*
X13456376Y-8179586D01*
X13453957Y-8174748D01*
X13449119Y-8169910D01*
X13441861Y-8167491D01*
X13437023Y-8167491D01*
X13429766Y-8169910D01*
X13427347Y-8172329D01*
X13407995Y-8172329D02*
X13405576Y-8169910D01*
X13400738Y-8167491D01*
X13388642Y-8167491D01*
X13383804Y-8169910D01*
X13381385Y-8172329D01*
X13378966Y-8177167D01*
X13378966Y-8182005D01*
X13381385Y-8189262D01*
X13410414Y-8218291D01*
X13378966Y-8218291D01*
X13333004Y-8167491D02*
X13357195Y-8167491D01*
X13359614Y-8191681D01*
X13357195Y-8189262D01*
X13352357Y-8186843D01*
X13340261Y-8186843D01*
X13335423Y-8189262D01*
X13333004Y-8191681D01*
X13330585Y-8196519D01*
X13330585Y-8208615D01*
X13333004Y-8213453D01*
X13335423Y-8215872D01*
X13340261Y-8218291D01*
X13352357Y-8218291D01*
X13357195Y-8215872D01*
X13359614Y-8213453D01*
X13685121Y-8355185D02*
X13687540Y-8352766D01*
X13689959Y-8345509D01*
X13689959Y-8340670D01*
X13687540Y-8333413D01*
X13682702Y-8328575D01*
X13677864Y-8326156D01*
X13668187Y-8323737D01*
X13660930Y-8323737D01*
X13651254Y-8326156D01*
X13646416Y-8328575D01*
X13641578Y-8333413D01*
X13639159Y-8340670D01*
X13639159Y-8345509D01*
X13641578Y-8352766D01*
X13643997Y-8355185D01*
X13643997Y-8374537D02*
X13641578Y-8376956D01*
X13639159Y-8381794D01*
X13639159Y-8393890D01*
X13641578Y-8398728D01*
X13643997Y-8401147D01*
X13648835Y-8403566D01*
X13653673Y-8403566D01*
X13660930Y-8401147D01*
X13689959Y-8372118D01*
X13689959Y-8403566D01*
X13639159Y-8420499D02*
X13639159Y-8454366D01*
X13689959Y-8432594D01*
X14017353Y-8233773D02*
X14019772Y-8231354D01*
X14022191Y-8224097D01*
X14022191Y-8219258D01*
X14019772Y-8212001D01*
X14014934Y-8207163D01*
X14010096Y-8204744D01*
X14000419Y-8202325D01*
X13993162Y-8202325D01*
X13983486Y-8204744D01*
X13978648Y-8207163D01*
X13973810Y-8212001D01*
X13971391Y-8219258D01*
X13971391Y-8224097D01*
X13973810Y-8231354D01*
X13976229Y-8233773D01*
X13976229Y-8253125D02*
X13973810Y-8255544D01*
X13971391Y-8260382D01*
X13971391Y-8272478D01*
X13973810Y-8277316D01*
X13976229Y-8279735D01*
X13981067Y-8282154D01*
X13985905Y-8282154D01*
X13993162Y-8279735D01*
X14022191Y-8250706D01*
X14022191Y-8282154D01*
X13993162Y-8311182D02*
X13990743Y-8306344D01*
X13988324Y-8303925D01*
X13983486Y-8301506D01*
X13981067Y-8301506D01*
X13976229Y-8303925D01*
X13973810Y-8306344D01*
X13971391Y-8311182D01*
X13971391Y-8320859D01*
X13973810Y-8325697D01*
X13976229Y-8328116D01*
X13981067Y-8330535D01*
X13983486Y-8330535D01*
X13988324Y-8328116D01*
X13990743Y-8325697D01*
X13993162Y-8320859D01*
X13993162Y-8311182D01*
X13995581Y-8306344D01*
X13998000Y-8303925D01*
X14002839Y-8301506D01*
X14012515Y-8301506D01*
X14017353Y-8303925D01*
X14019772Y-8306344D01*
X14022191Y-8311182D01*
X14022191Y-8320859D01*
X14019772Y-8325697D01*
X14017353Y-8328116D01*
X14012515Y-8330535D01*
X14002839Y-8330535D01*
X13998000Y-8328116D01*
X13995581Y-8325697D01*
X13993162Y-8320859D01*
X13548977Y-8350105D02*
X13551396Y-8347686D01*
X13553815Y-8340429D01*
X13553815Y-8335590D01*
X13551396Y-8328333D01*
X13546558Y-8323495D01*
X13541720Y-8321076D01*
X13532043Y-8318657D01*
X13524786Y-8318657D01*
X13515110Y-8321076D01*
X13510272Y-8323495D01*
X13505434Y-8328333D01*
X13503015Y-8335590D01*
X13503015Y-8340429D01*
X13505434Y-8347686D01*
X13507853Y-8350105D01*
X13503015Y-8367038D02*
X13503015Y-8398486D01*
X13522367Y-8381552D01*
X13522367Y-8388810D01*
X13524786Y-8393648D01*
X13527205Y-8396067D01*
X13532043Y-8398486D01*
X13544139Y-8398486D01*
X13548977Y-8396067D01*
X13551396Y-8393648D01*
X13553815Y-8388810D01*
X13553815Y-8374295D01*
X13551396Y-8369457D01*
X13548977Y-8367038D01*
X13503015Y-8429933D02*
X13503015Y-8434772D01*
X13505434Y-8439610D01*
X13507853Y-8442029D01*
X13512691Y-8444448D01*
X13522367Y-8446867D01*
X13534463Y-8446867D01*
X13544139Y-8444448D01*
X13548977Y-8442029D01*
X13551396Y-8439610D01*
X13553815Y-8434772D01*
X13553815Y-8429933D01*
X13551396Y-8425095D01*
X13548977Y-8422676D01*
X13544139Y-8420257D01*
X13534463Y-8417838D01*
X13522367Y-8417838D01*
X13512691Y-8420257D01*
X13507853Y-8422676D01*
X13505434Y-8425095D01*
X13503015Y-8429933D01*
X14167467Y-8386427D02*
X14169886Y-8384008D01*
X14172305Y-8376751D01*
X14172305Y-8371912D01*
X14169886Y-8364655D01*
X14165048Y-8359817D01*
X14160210Y-8357398D01*
X14150533Y-8354979D01*
X14143276Y-8354979D01*
X14133600Y-8357398D01*
X14128762Y-8359817D01*
X14123924Y-8364655D01*
X14121505Y-8371912D01*
X14121505Y-8376751D01*
X14123924Y-8384008D01*
X14126343Y-8386427D01*
X14121505Y-8403360D02*
X14121505Y-8434808D01*
X14140857Y-8417874D01*
X14140857Y-8425132D01*
X14143276Y-8429970D01*
X14145695Y-8432389D01*
X14150533Y-8434808D01*
X14162629Y-8434808D01*
X14167467Y-8432389D01*
X14169886Y-8429970D01*
X14172305Y-8425132D01*
X14172305Y-8410617D01*
X14169886Y-8405779D01*
X14167467Y-8403360D01*
X14126343Y-8454160D02*
X14123924Y-8456579D01*
X14121505Y-8461417D01*
X14121505Y-8473513D01*
X14123924Y-8478351D01*
X14126343Y-8480770D01*
X14131181Y-8483189D01*
X14136019Y-8483189D01*
X14143276Y-8480770D01*
X14172305Y-8451741D01*
X14172305Y-8483189D01*
X13552533Y-8873853D02*
X13554952Y-8871434D01*
X13557371Y-8864177D01*
X13557371Y-8859339D01*
X13554952Y-8852081D01*
X13550114Y-8847243D01*
X13545276Y-8844824D01*
X13535599Y-8842405D01*
X13528342Y-8842405D01*
X13518666Y-8844824D01*
X13513828Y-8847243D01*
X13508990Y-8852081D01*
X13506571Y-8859339D01*
X13506571Y-8864177D01*
X13508990Y-8871434D01*
X13511409Y-8873853D01*
X13506571Y-8890786D02*
X13506571Y-8922234D01*
X13525923Y-8905300D01*
X13525923Y-8912558D01*
X13528342Y-8917396D01*
X13530761Y-8919815D01*
X13535599Y-8922234D01*
X13547695Y-8922234D01*
X13552533Y-8919815D01*
X13554952Y-8917396D01*
X13557371Y-8912558D01*
X13557371Y-8898043D01*
X13554952Y-8893205D01*
X13552533Y-8890786D01*
X13523504Y-8965777D02*
X13557371Y-8965777D01*
X13504152Y-8953681D02*
X13540438Y-8941586D01*
X13540438Y-8973034D01*
X14113147Y-9102453D02*
X14115566Y-9104872D01*
X14122823Y-9107291D01*
X14127661Y-9107291D01*
X14134919Y-9104872D01*
X14139757Y-9100034D01*
X14142176Y-9095196D01*
X14144595Y-9085520D01*
X14144595Y-9078262D01*
X14142176Y-9068586D01*
X14139757Y-9063748D01*
X14134919Y-9058910D01*
X14127661Y-9056491D01*
X14122823Y-9056491D01*
X14115566Y-9058910D01*
X14113147Y-9061329D01*
X14096214Y-9056491D02*
X14064766Y-9056491D01*
X14081700Y-9075843D01*
X14074442Y-9075843D01*
X14069604Y-9078262D01*
X14067185Y-9080681D01*
X14064766Y-9085520D01*
X14064766Y-9097615D01*
X14067185Y-9102453D01*
X14069604Y-9104872D01*
X14074442Y-9107291D01*
X14088957Y-9107291D01*
X14093795Y-9104872D01*
X14096214Y-9102453D01*
X14021223Y-9056491D02*
X14030899Y-9056491D01*
X14035738Y-9058910D01*
X14038157Y-9061329D01*
X14042995Y-9068586D01*
X14045414Y-9078262D01*
X14045414Y-9097615D01*
X14042995Y-9102453D01*
X14040576Y-9104872D01*
X14035738Y-9107291D01*
X14026061Y-9107291D01*
X14021223Y-9104872D01*
X14018804Y-9102453D01*
X14016385Y-9097615D01*
X14016385Y-9085520D01*
X14018804Y-9080681D01*
X14021223Y-9078262D01*
X14026061Y-9075843D01*
X14035738Y-9075843D01*
X14040576Y-9078262D01*
X14042995Y-9080681D01*
X14045414Y-9085520D01*
X13793833Y-8886553D02*
X13796252Y-8884134D01*
X13798671Y-8876877D01*
X13798671Y-8872039D01*
X13796252Y-8864781D01*
X13791414Y-8859943D01*
X13786576Y-8857524D01*
X13776899Y-8855105D01*
X13769642Y-8855105D01*
X13759966Y-8857524D01*
X13755128Y-8859943D01*
X13750290Y-8864781D01*
X13747871Y-8872039D01*
X13747871Y-8876877D01*
X13750290Y-8884134D01*
X13752709Y-8886553D01*
X13764804Y-8930096D02*
X13798671Y-8930096D01*
X13745452Y-8918000D02*
X13781738Y-8905905D01*
X13781738Y-8937353D01*
X13747871Y-8966381D02*
X13747871Y-8971220D01*
X13750290Y-8976058D01*
X13752709Y-8978477D01*
X13757547Y-8980896D01*
X13767223Y-8983315D01*
X13779319Y-8983315D01*
X13788995Y-8980896D01*
X13793833Y-8978477D01*
X13796252Y-8976058D01*
X13798671Y-8971220D01*
X13798671Y-8966381D01*
X13796252Y-8961543D01*
X13793833Y-8959124D01*
X13788995Y-8956705D01*
X13779319Y-8954286D01*
X13767223Y-8954286D01*
X13757547Y-8956705D01*
X13752709Y-8959124D01*
X13750290Y-8961543D01*
X13747871Y-8966381D01*
X13898009Y-9154523D02*
X13900428Y-9156942D01*
X13907685Y-9159361D01*
X13912523Y-9159361D01*
X13919781Y-9156942D01*
X13924619Y-9152104D01*
X13927038Y-9147266D01*
X13929457Y-9137590D01*
X13929457Y-9130332D01*
X13927038Y-9120656D01*
X13924619Y-9115818D01*
X13919781Y-9110980D01*
X13912523Y-9108561D01*
X13907685Y-9108561D01*
X13900428Y-9110980D01*
X13898009Y-9113399D01*
X13854466Y-9125494D02*
X13854466Y-9159361D01*
X13866562Y-9106142D02*
X13878657Y-9142428D01*
X13847209Y-9142428D01*
X13801247Y-9159361D02*
X13830276Y-9159361D01*
X13815761Y-9159361D02*
X13815761Y-9108561D01*
X13820600Y-9115818D01*
X13825438Y-9120656D01*
X13830276Y-9123075D01*
X13797389Y-8349089D02*
X13799808Y-8346670D01*
X13802227Y-8339413D01*
X13802227Y-8334574D01*
X13799808Y-8327317D01*
X13794970Y-8322479D01*
X13790132Y-8320060D01*
X13780455Y-8317641D01*
X13773198Y-8317641D01*
X13763522Y-8320060D01*
X13758684Y-8322479D01*
X13753846Y-8327317D01*
X13751427Y-8334574D01*
X13751427Y-8339413D01*
X13753846Y-8346670D01*
X13756265Y-8349089D01*
X13768360Y-8392632D02*
X13802227Y-8392632D01*
X13749008Y-8380536D02*
X13785294Y-8368441D01*
X13785294Y-8399889D01*
X13756265Y-8416822D02*
X13753846Y-8419241D01*
X13751427Y-8424079D01*
X13751427Y-8436175D01*
X13753846Y-8441013D01*
X13756265Y-8443432D01*
X13761103Y-8445851D01*
X13765941Y-8445851D01*
X13773198Y-8443432D01*
X13802227Y-8414403D01*
X13802227Y-8445851D01*
X13289135Y-9064099D02*
X13291554Y-9061680D01*
X13293973Y-9054423D01*
X13293973Y-9049585D01*
X13291554Y-9042327D01*
X13286716Y-9037489D01*
X13281878Y-9035070D01*
X13272201Y-9032651D01*
X13264944Y-9032651D01*
X13255268Y-9035070D01*
X13250430Y-9037489D01*
X13245592Y-9042327D01*
X13243173Y-9049585D01*
X13243173Y-9054423D01*
X13245592Y-9061680D01*
X13248011Y-9064099D01*
X13260106Y-9107642D02*
X13293973Y-9107642D01*
X13240754Y-9095546D02*
X13277040Y-9083451D01*
X13277040Y-9114899D01*
X13260106Y-9156023D02*
X13293973Y-9156023D01*
X13240754Y-9143927D02*
X13277040Y-9131832D01*
X13277040Y-9163280D01*
X13158833Y-8721453D02*
X13161252Y-8719034D01*
X13163671Y-8711777D01*
X13163671Y-8706939D01*
X13161252Y-8699681D01*
X13156414Y-8694843D01*
X13151576Y-8692424D01*
X13141899Y-8690005D01*
X13134642Y-8690005D01*
X13124966Y-8692424D01*
X13120128Y-8694843D01*
X13115290Y-8699681D01*
X13112871Y-8706939D01*
X13112871Y-8711777D01*
X13115290Y-8719034D01*
X13117709Y-8721453D01*
X13129804Y-8764996D02*
X13163671Y-8764996D01*
X13110452Y-8752900D02*
X13146738Y-8740805D01*
X13146738Y-8772253D01*
X13112871Y-8815796D02*
X13112871Y-8791605D01*
X13137061Y-8789186D01*
X13134642Y-8791605D01*
X13132223Y-8796443D01*
X13132223Y-8808539D01*
X13134642Y-8813377D01*
X13137061Y-8815796D01*
X13141899Y-8818215D01*
X13153995Y-8818215D01*
X13158833Y-8815796D01*
X13161252Y-8813377D01*
X13163671Y-8808539D01*
X13163671Y-8796443D01*
X13161252Y-8791605D01*
X13158833Y-8789186D01*
X13214749Y-9033885D02*
X13231682Y-9009695D01*
X13243778Y-9033885D02*
X13243778Y-8983085D01*
X13224425Y-8983085D01*
X13219587Y-8985504D01*
X13217168Y-8987923D01*
X13214749Y-8992761D01*
X13214749Y-9000018D01*
X13217168Y-9004856D01*
X13219587Y-9007275D01*
X13224425Y-9009695D01*
X13243778Y-9009695D01*
X13166368Y-9033885D02*
X13195397Y-9033885D01*
X13180882Y-9033885D02*
X13180882Y-8983085D01*
X13185721Y-8990342D01*
X13190559Y-8995180D01*
X13195397Y-8997599D01*
X13149435Y-8983085D02*
X13115568Y-8983085D01*
X13137340Y-9033885D01*
X15014847Y-8192891D02*
X15031780Y-8168700D01*
X15043876Y-8192891D02*
X15043876Y-8142091D01*
X15024523Y-8142091D01*
X15019685Y-8144510D01*
X15017266Y-8146929D01*
X15014847Y-8151767D01*
X15014847Y-8159024D01*
X15017266Y-8163862D01*
X15019685Y-8166281D01*
X15024523Y-8168700D01*
X15043876Y-8168700D01*
X14995495Y-8146929D02*
X14993076Y-8144510D01*
X14988238Y-8142091D01*
X14976142Y-8142091D01*
X14971304Y-8144510D01*
X14968885Y-8146929D01*
X14966466Y-8151767D01*
X14966466Y-8156605D01*
X14968885Y-8163862D01*
X14997914Y-8192891D01*
X14966466Y-8192891D01*
X14949533Y-8142091D02*
X14915666Y-8142091D01*
X14937438Y-8192891D01*
X14764657Y-8488801D02*
X14781590Y-8464611D01*
X14793686Y-8488801D02*
X14793686Y-8438001D01*
X14774333Y-8438001D01*
X14769495Y-8440420D01*
X14767076Y-8442839D01*
X14764657Y-8447677D01*
X14764657Y-8454934D01*
X14767076Y-8459772D01*
X14769495Y-8462191D01*
X14774333Y-8464611D01*
X14793686Y-8464611D01*
X14745305Y-8442839D02*
X14742886Y-8440420D01*
X14738048Y-8438001D01*
X14725952Y-8438001D01*
X14721114Y-8440420D01*
X14718695Y-8442839D01*
X14716276Y-8447677D01*
X14716276Y-8452515D01*
X14718695Y-8459772D01*
X14747724Y-8488801D01*
X14716276Y-8488801D01*
X14687248Y-8459772D02*
X14692086Y-8457353D01*
X14694505Y-8454934D01*
X14696924Y-8450096D01*
X14696924Y-8447677D01*
X14694505Y-8442839D01*
X14692086Y-8440420D01*
X14687248Y-8438001D01*
X14677571Y-8438001D01*
X14672733Y-8440420D01*
X14670314Y-8442839D01*
X14667895Y-8447677D01*
X14667895Y-8450096D01*
X14670314Y-8454934D01*
X14672733Y-8457353D01*
X14677571Y-8459772D01*
X14687248Y-8459772D01*
X14692086Y-8462191D01*
X14694505Y-8464611D01*
X14696924Y-8469449D01*
X14696924Y-8479125D01*
X14694505Y-8483963D01*
X14692086Y-8486382D01*
X14687248Y-8488801D01*
X14677571Y-8488801D01*
X14672733Y-8486382D01*
X14670314Y-8483963D01*
X14667895Y-8479125D01*
X14667895Y-8469449D01*
X14670314Y-8464611D01*
X14672733Y-8462191D01*
X14677571Y-8459772D01*
X14791327Y-8248771D02*
X14808260Y-8224580D01*
X14820356Y-8248771D02*
X14820356Y-8197971D01*
X14801003Y-8197971D01*
X14796165Y-8200390D01*
X14793746Y-8202809D01*
X14791327Y-8207647D01*
X14791327Y-8214904D01*
X14793746Y-8219742D01*
X14796165Y-8222161D01*
X14801003Y-8224580D01*
X14820356Y-8224580D01*
X14771975Y-8202809D02*
X14769556Y-8200390D01*
X14764718Y-8197971D01*
X14752622Y-8197971D01*
X14747784Y-8200390D01*
X14745365Y-8202809D01*
X14742946Y-8207647D01*
X14742946Y-8212485D01*
X14745365Y-8219742D01*
X14774394Y-8248771D01*
X14742946Y-8248771D01*
X14718756Y-8248771D02*
X14709079Y-8248771D01*
X14704241Y-8246352D01*
X14701822Y-8243933D01*
X14696984Y-8236676D01*
X14694565Y-8226999D01*
X14694565Y-8207647D01*
X14696984Y-8202809D01*
X14699403Y-8200390D01*
X14704241Y-8197971D01*
X14713918Y-8197971D01*
X14718756Y-8200390D01*
X14721175Y-8202809D01*
X14723594Y-8207647D01*
X14723594Y-8219742D01*
X14721175Y-8224580D01*
X14718756Y-8226999D01*
X14713918Y-8229419D01*
X14704241Y-8229419D01*
X14699403Y-8226999D01*
X14696984Y-8224580D01*
X14694565Y-8219742D01*
X13799965Y-9290425D02*
X13816898Y-9266235D01*
X13828994Y-9290425D02*
X13828994Y-9239625D01*
X13809641Y-9239625D01*
X13804803Y-9242044D01*
X13802384Y-9244463D01*
X13799965Y-9249301D01*
X13799965Y-9256558D01*
X13802384Y-9261396D01*
X13804803Y-9263815D01*
X13809641Y-9266235D01*
X13828994Y-9266235D01*
X13783032Y-9239625D02*
X13751584Y-9239625D01*
X13768518Y-9258977D01*
X13761260Y-9258977D01*
X13756422Y-9261396D01*
X13754003Y-9263815D01*
X13751584Y-9268654D01*
X13751584Y-9280749D01*
X13754003Y-9285587D01*
X13756422Y-9288006D01*
X13761260Y-9290425D01*
X13775775Y-9290425D01*
X13780613Y-9288006D01*
X13783032Y-9285587D01*
X13703203Y-9290425D02*
X13732232Y-9290425D01*
X13717717Y-9290425D02*
X13717717Y-9239625D01*
X13722556Y-9246882D01*
X13727394Y-9251720D01*
X13732232Y-9254139D01*
X13654181Y-9085955D02*
X13654181Y-9127079D01*
X13651762Y-9131917D01*
X13649343Y-9134336D01*
X13644505Y-9136755D01*
X13634829Y-9136755D01*
X13629991Y-9134336D01*
X13627572Y-9131917D01*
X13625153Y-9127079D01*
X13625153Y-9085955D01*
X13574353Y-9136755D02*
X13603381Y-9136755D01*
X13588867Y-9136755D02*
X13588867Y-9085955D01*
X13593705Y-9093212D01*
X13598543Y-9098050D01*
X13603381Y-9100469D01*
X13530810Y-9102888D02*
X13530810Y-9136755D01*
X13542905Y-9083536D02*
X13555000Y-9119822D01*
X13523553Y-9119822D01*
D12*
X15643158Y-8253887D02*
X15643158Y-8272949D01*
X15638393Y-8282480D01*
X15633627Y-8287246D01*
X15619331Y-8296777D01*
X15600269Y-8301542D01*
X15562145Y-8301542D01*
X15552613Y-8296777D01*
X15547848Y-8292011D01*
X15543082Y-8282480D01*
X15543082Y-8263418D01*
X15547848Y-8253887D01*
X15552613Y-8249122D01*
X15562145Y-8244356D01*
X15585972Y-8244356D01*
X15595503Y-8249122D01*
X15600269Y-8253887D01*
X15605034Y-8263418D01*
X15605034Y-8282480D01*
X15600269Y-8292011D01*
X15595503Y-8296777D01*
X15585972Y-8301542D01*
X15643158Y-8334901D02*
X15576441Y-8387322D01*
X15576441Y-8334901D02*
X15643158Y-8387322D01*
X15643158Y-8477867D02*
X15643158Y-8420681D01*
X15643158Y-8449274D02*
X15543082Y-8449274D01*
X15557379Y-8439743D01*
X15566910Y-8430212D01*
X15571676Y-8420681D01*
X15543082Y-8539819D02*
X15543082Y-8549350D01*
X15547848Y-8558881D01*
X15552613Y-8563646D01*
X15562145Y-8568412D01*
X15581207Y-8573177D01*
X15605034Y-8573177D01*
X15624096Y-8568412D01*
X15633627Y-8563646D01*
X15638393Y-8558881D01*
X15643158Y-8549350D01*
X15643158Y-8539819D01*
X15638393Y-8530288D01*
X15633627Y-8525522D01*
X15624096Y-8520757D01*
X15605034Y-8515991D01*
X15581207Y-8515991D01*
X15562145Y-8520757D01*
X15552613Y-8525522D01*
X15547848Y-8530288D01*
X15543082Y-8539819D01*
X15543082Y-8635129D02*
X15543082Y-8644660D01*
X15547848Y-8654191D01*
X15552613Y-8658957D01*
X15562145Y-8663722D01*
X15581207Y-8668488D01*
X15605034Y-8668488D01*
X15624096Y-8663722D01*
X15633627Y-8658957D01*
X15638393Y-8654191D01*
X15643158Y-8644660D01*
X15643158Y-8635129D01*
X15638393Y-8625598D01*
X15633627Y-8620833D01*
X15624096Y-8616067D01*
X15605034Y-8611302D01*
X15581207Y-8611302D01*
X15562145Y-8616067D01*
X15552613Y-8620833D01*
X15547848Y-8625598D01*
X15543082Y-8635129D01*
M02*
