G04 #@! TF.FileFunction,Copper,L4,Inr,Mixed*
%FSLAX45Y45*%
G04 Gerber Fmt 4.5, Leading zero omitted, Abs format (unit mm)*
G04 Created by KiCad (PCBNEW 0.201509251832+6217~30~ubuntu14.04.1-product) date Fri 30 Oct 2015 01:43:29 PM EDT*
%MOMM*%
G01*
G04 APERTURE LIST*
%ADD10C,0.127000*%
%ADD11C,1.600200*%
%ADD12C,0.406400*%
%ADD13C,0.635000*%
G04 APERTURE END LIST*
D10*
D11*
X12456922Y-9391650D03*
X12710922Y-9391650D03*
D12*
X14595856Y-9315958D03*
X14831060Y-9289288D03*
X14659356Y-8937752D03*
X14696440Y-8452104D03*
X14563344Y-8535416D03*
X14553184Y-8692896D03*
X15433548Y-8327136D03*
X13444728Y-8431530D03*
X11589258Y-9973564D03*
X11590782Y-10037826D03*
X12692888Y-10948416D03*
X13005308Y-10246868D03*
X13725144Y-9861296D03*
X13051536Y-9981184D03*
X13017500Y-10069576D03*
X14106652Y-10939780D03*
X14418056Y-9986772D03*
X14417548Y-10060940D03*
X15114524Y-9275572D03*
X15124684Y-9872472D03*
X15807436Y-9998964D03*
X15805912Y-10071608D03*
X16886428Y-10986516D03*
X16495268Y-9861296D03*
X16780002Y-10154158D03*
X15191740Y-8584184D03*
D13*
X12658090Y-8426958D03*
X12657582Y-8173974D03*
X12659106Y-8539734D03*
D12*
X15968980Y-10243566D03*
X14572996Y-10248900D03*
X13177012Y-10244836D03*
X11749786Y-10239502D03*
X11593576Y-10233406D03*
X16216376Y-10433304D03*
D13*
X12829540Y-8823960D03*
D12*
X14514068Y-8941308D03*
X13901928Y-8735568D03*
X14930628Y-8806180D03*
X14988032Y-8886952D03*
X15002256Y-8753348D03*
X14664690Y-8690610D03*
X15193010Y-8197850D03*
X13423900Y-8341360D03*
X13342620Y-8656320D03*
D13*
X12488418Y-8941816D03*
X12830048Y-8941816D03*
D12*
X12886182Y-9085326D03*
X13206730Y-9328150D03*
X13096240Y-9182100D03*
X13528040Y-9382760D03*
X13421360Y-9141460D03*
X13423900Y-8981440D03*
D13*
X12388342Y-9090406D03*
X12658090Y-8092186D03*
X12817602Y-9234170D03*
D12*
X13983208Y-8419592D03*
X13982700Y-8338820D03*
X13822680Y-8420100D03*
X13624560Y-8432800D03*
X13597890Y-8589010D03*
X13534390Y-8639810D03*
X13597890Y-8754110D03*
X13342620Y-8740140D03*
X13906500Y-8978900D03*
X13712190Y-8601710D03*
X13712190Y-8754110D03*
X13978890Y-8589010D03*
X13775690Y-8639810D03*
X13180060Y-8178800D03*
X13662660Y-8900160D03*
D13*
X12488418Y-8826246D03*
D12*
X13575030Y-9231630D03*
X13985240Y-9230360D03*
X15968726Y-10184384D03*
X16627856Y-10170414D03*
X16367506Y-10275824D03*
X15776956Y-10938764D03*
X15507462Y-10929874D03*
X14827250Y-10421366D03*
X14382750Y-10936986D03*
X12009882Y-10421874D03*
X11571732Y-10927334D03*
X13440664Y-10420096D03*
X12986004Y-10930636D03*
X13175996Y-10185146D03*
X13829792Y-10187686D03*
X13566394Y-10291826D03*
X13829284Y-10131298D03*
X15812770Y-10230358D03*
X12139422Y-10292334D03*
X14965680Y-10294366D03*
X12402820Y-10185654D03*
X12402820Y-10132314D03*
X11748516Y-10184638D03*
X15226538Y-10182352D03*
X15227554Y-10127488D03*
X14572234Y-10185908D03*
X14416786Y-10237216D03*
X12321540Y-10043922D03*
X11703304Y-9817354D03*
X14419326Y-9869932D03*
X14717268Y-9047988D03*
X15261590Y-8811260D03*
D13*
X12284202Y-8916670D03*
D12*
X13744448Y-8420100D03*
X13279120Y-10021570D03*
X13001244Y-10167366D03*
X13823188Y-9872218D03*
X13895832Y-9873234D03*
X14415262Y-10142728D03*
X15208504Y-9870948D03*
X15268956Y-9884156D03*
X15806928Y-10153650D03*
X14443964Y-8158988D03*
X14989556Y-8665464D03*
X14229080Y-8173720D03*
X13343890Y-8423910D03*
X13267690Y-8576310D03*
D13*
X12297918Y-8199374D03*
D12*
X13342620Y-8821420D03*
X13342620Y-8978900D03*
X13736320Y-9057640D03*
X13820140Y-8978900D03*
X13982700Y-8181340D03*
X13889990Y-8538210D03*
X14211300Y-9222740D03*
X13980160Y-8735060D03*
X14443202Y-8391906D03*
X13502640Y-9138920D03*
X13545820Y-8892540D03*
X15018258Y-8155178D03*
X14319250Y-9371330D03*
X16651986Y-9869424D03*
X16577056Y-9863074D03*
X16778986Y-10067544D03*
X16775176Y-10001504D03*
X16069056Y-10029444D03*
X13986256Y-10030714D03*
X13989812Y-10087102D03*
X12558776Y-10031222D03*
X12402820Y-9874250D03*
X12351512Y-9874758D03*
X12558776Y-10080498D03*
X11851132Y-10030714D03*
X11591544Y-10132314D03*
X15383002Y-10078720D03*
X15382494Y-10027920D03*
X14674850Y-10016236D03*
X11850624Y-9871202D03*
D13*
X12299442Y-8554974D03*
X15103602Y-9511030D03*
D12*
X12609068Y-8658860D03*
X12710160Y-8658860D03*
D13*
X12642342Y-9114790D03*
D12*
X15326360Y-8150860D03*
D13*
X15173960Y-8709660D03*
X15358872Y-8642604D03*
D12*
X13780008Y-8856472D03*
X13543280Y-8430260D03*
D13*
X13014198Y-8593074D03*
D12*
X13889990Y-8855710D03*
X13902690Y-8423910D03*
X13432790Y-8868410D03*
X13432790Y-8538210D03*
D13*
X12988290Y-8106410D03*
X13000990Y-8195310D03*
D12*
X14090904Y-9485884D03*
X14226540Y-9141460D03*
X15774670Y-10736326D03*
X16867886Y-10745978D03*
X16810990Y-10941304D03*
X12986512Y-10719308D03*
X14072870Y-10720070D03*
X14019784Y-10928096D03*
X15690088Y-10950448D03*
X12892278Y-10940542D03*
X14377924Y-10726674D03*
X15468854Y-10741914D03*
X15416530Y-10926826D03*
X11569446Y-10720578D03*
X12656820Y-10744962D03*
X12605512Y-10929874D03*
X14290548Y-10957052D03*
X11484102Y-10954512D03*
X13095224Y-8887460D03*
X14857984Y-8490204D03*
X14347190Y-8914130D03*
X14585696Y-8282940D03*
X14476730Y-9163050D03*
X14144752Y-8819896D03*
X14334744Y-8785860D03*
X14061440Y-9058910D03*
X14226540Y-8260080D03*
X14810994Y-8450580D03*
X14865350Y-8343900D03*
X15328900Y-8779256D03*
X16777716Y-10651744D03*
X16780256Y-10595864D03*
X16780256Y-10541254D03*
X16780256Y-10486644D03*
X16777716Y-10432034D03*
X16778986Y-10378694D03*
X16778986Y-10325354D03*
X16620236Y-10291064D03*
X15981426Y-10338054D03*
X15812516Y-10325354D03*
X15811246Y-10378694D03*
X15813786Y-10432034D03*
X15812516Y-10486644D03*
X15812516Y-10542524D03*
X15807436Y-10595864D03*
X15806166Y-10653014D03*
X13986764Y-10653776D03*
X13990574Y-10600436D03*
X13989304Y-10543286D03*
X13988034Y-10488676D03*
X13986764Y-10435336D03*
X13986764Y-10380726D03*
X13984224Y-10326116D03*
X13829284Y-10299446D03*
X13204444Y-10333228D03*
X13020294Y-10329926D03*
X13019024Y-10383266D03*
X13016484Y-10436606D03*
X13019024Y-10489946D03*
X13019024Y-10544556D03*
X13016484Y-10597896D03*
X13019024Y-10652506D03*
X14777974Y-9521952D03*
X14066520Y-8581136D03*
X14661642Y-9485376D03*
X14237716Y-8473440D03*
X14225524Y-8587232D03*
X14260576Y-9463532D03*
X14144244Y-8498840D03*
X14511528Y-9460484D03*
X14063472Y-8740648D03*
X14142720Y-8900160D03*
X13502640Y-9576308D03*
X14236192Y-8728964D03*
X13946886Y-9547860D03*
X14141704Y-8739124D03*
X13677138Y-9575292D03*
X14062964Y-8657844D03*
X13029692Y-9572752D03*
X15382240Y-10656316D03*
X15382240Y-10600436D03*
X15382240Y-10545826D03*
X15380970Y-10492486D03*
X15382240Y-10439146D03*
X15383510Y-10385806D03*
X15383510Y-10332466D03*
X15227300Y-10293096D03*
X14592300Y-10334752D03*
X14415770Y-10328656D03*
X14415770Y-10381996D03*
X14414500Y-10435336D03*
X14417040Y-10488676D03*
X14417040Y-10542016D03*
X14417040Y-10595356D03*
X14415770Y-10649966D03*
X12558522Y-10656824D03*
X12559792Y-10600944D03*
X12561062Y-10547604D03*
X12559792Y-10492994D03*
X12558522Y-10439654D03*
X12559792Y-10386314D03*
X12558522Y-10332974D03*
X12402312Y-10294874D03*
X11773916Y-10329164D03*
X11592052Y-10329164D03*
X11593322Y-10382504D03*
X11593322Y-10435844D03*
X11593322Y-10489184D03*
X11589512Y-10543794D03*
X11592052Y-10598404D03*
X11592052Y-10655554D03*
X14143736Y-8658352D03*
X14189456Y-9464040D03*
X14142212Y-8581136D03*
X14357604Y-9471152D03*
X14064488Y-8901176D03*
X13343128Y-9572752D03*
X14062710Y-8817610D03*
X13189458Y-9571482D03*
X13902690Y-9224010D03*
X13983970Y-9061450D03*
X13503402Y-9060688D03*
X14476730Y-9104630D03*
X15127224Y-8522716D03*
X14342110Y-9117330D03*
X14062710Y-8982710D03*
X14229080Y-8340090D03*
X14062710Y-8262620D03*
X13981430Y-8097520D03*
X14137640Y-8093710D03*
X15025116Y-9872472D03*
X15132558Y-9662160D03*
X14925294Y-9871710D03*
X15047214Y-9711690D03*
X14259052Y-9712452D03*
X16225520Y-9826752D03*
X14371828Y-9752584D03*
X14824710Y-9782556D03*
X13628370Y-9885426D03*
X13424154Y-9747504D03*
X12097512Y-9872472D03*
X13476224Y-9859772D03*
X13328142Y-9852660D03*
X12873990Y-9726168D03*
D10*
X13543280Y-8430260D02*
X13543280Y-8425180D01*
X16858234Y-10736326D02*
X16867886Y-10745978D01*
X15774670Y-10736326D02*
X16858234Y-10736326D01*
X12986512Y-10719308D02*
X12986004Y-10719816D01*
X14072108Y-10719308D02*
X14072870Y-10720070D01*
X12986512Y-10719308D02*
X14072108Y-10719308D01*
X15453614Y-10726674D02*
X15468854Y-10741914D01*
X14377924Y-10726674D02*
X15453614Y-10726674D01*
X12632436Y-10720578D02*
X12656820Y-10744962D01*
X11569446Y-10720578D02*
X12632436Y-10720578D01*
X14777974Y-9521952D02*
X14734540Y-9478518D01*
X14765528Y-9262618D02*
X14734540Y-9293606D01*
X14734540Y-9293606D02*
X14734540Y-9452864D01*
X14765528Y-9206484D02*
X14765528Y-9262618D01*
X14734540Y-9478518D02*
X14734540Y-9452864D01*
X14370812Y-8433308D02*
X14534388Y-8596884D01*
X14765528Y-9206484D02*
X14765528Y-9203944D01*
X14765528Y-8722360D02*
X14765528Y-9206484D01*
X14640052Y-8596884D02*
X14765528Y-8722360D01*
X14534388Y-8596884D02*
X14640052Y-8596884D01*
X14066520Y-8581136D02*
X14066520Y-8512048D01*
X14145260Y-8433308D02*
X14370812Y-8433308D01*
X14370812Y-8433308D02*
X14376908Y-8433308D01*
X14066520Y-8512048D02*
X14145260Y-8433308D01*
X14603984Y-9240520D02*
X14661642Y-9298178D01*
X14661642Y-9298178D02*
X14661642Y-9485376D01*
X14603984Y-9153144D02*
X14603984Y-9240520D01*
X14603984Y-9240520D02*
X14603984Y-9238488D01*
X14603984Y-8645652D02*
X14603984Y-9153144D01*
X14583664Y-8625332D02*
X14603984Y-8645652D01*
X14237716Y-8473440D02*
X14324584Y-8473440D01*
X14324584Y-8473440D02*
X14476476Y-8625332D01*
X14476476Y-8625332D02*
X14583664Y-8625332D01*
X14583664Y-8625332D02*
X14582648Y-8625332D01*
X14434820Y-9170924D02*
X14434820Y-9176004D01*
X14434820Y-9176004D02*
X14260576Y-9350248D01*
X14225524Y-8587232D02*
X14261084Y-8587232D01*
X14434820Y-8760968D02*
X14434820Y-9170924D01*
X14261084Y-8587232D02*
X14434820Y-8760968D01*
X14260576Y-9463532D02*
X14260576Y-9350248D01*
X14511528Y-9338056D02*
X14511528Y-9308084D01*
X14511528Y-9308084D02*
X14562836Y-9256776D01*
X14561820Y-8785352D02*
X14562836Y-8786368D01*
X14562836Y-9240012D02*
X14562836Y-9242552D01*
X14562836Y-9241536D02*
X14562836Y-9240012D01*
X14562836Y-8786368D02*
X14562836Y-9241536D01*
X14503908Y-8727440D02*
X14561820Y-8785352D01*
X14561820Y-8785352D02*
X14560296Y-8783828D01*
X14144244Y-8498840D02*
X14161008Y-8515604D01*
X14292072Y-8515604D02*
X14503908Y-8727440D01*
X14503908Y-8727440D02*
X14506448Y-8729980D01*
X14506448Y-8729980D02*
X14503908Y-8727440D01*
X14278864Y-8515604D02*
X14292072Y-8515604D01*
X14161008Y-8515604D02*
X14278864Y-8515604D01*
X14562836Y-9241536D02*
X14562836Y-9256776D01*
X14511528Y-9340088D02*
X14511528Y-9338056D01*
X14511528Y-9338056D02*
X14511528Y-9460484D01*
X14142720Y-8900160D02*
X14142720Y-9058148D01*
X14029182Y-9171686D02*
X14027912Y-9172956D01*
X14142720Y-9058148D02*
X14029182Y-9171686D01*
X14029182Y-9329166D02*
X14029182Y-9332976D01*
X14029182Y-9171686D02*
X14029182Y-9329166D01*
X14029182Y-9329166D02*
X13823696Y-9534652D01*
X13544296Y-9534652D02*
X13502640Y-9576308D01*
X13823696Y-9534652D02*
X13544296Y-9534652D01*
X14175486Y-9322562D02*
X14175740Y-9322308D01*
X14177772Y-9320276D02*
X14175486Y-9322562D01*
X14236192Y-8728964D02*
X14258036Y-8750808D01*
X14311376Y-9186672D02*
X14177772Y-9320276D01*
X14311376Y-9167876D02*
X14311376Y-9186672D01*
X14258036Y-9114536D02*
X14311376Y-9167876D01*
X14258036Y-9105392D02*
X14258036Y-9114536D01*
X14258036Y-8750808D02*
X14258036Y-9105392D01*
X14174470Y-9320276D02*
X14177772Y-9320276D01*
X14174470Y-9320276D02*
X13946886Y-9547860D01*
X14069060Y-9353550D02*
X14069060Y-9359392D01*
X14069060Y-9359392D02*
X14068044Y-9360408D01*
X14069060Y-9348724D02*
X14069060Y-9353550D01*
X14141704Y-8739124D02*
X14141704Y-8752840D01*
X14216888Y-9058148D02*
X14069060Y-9205976D01*
X14216888Y-8828024D02*
X14216888Y-9058148D01*
X14141704Y-8752840D02*
X14216888Y-8828024D01*
X14069060Y-9205976D02*
X14069060Y-9348724D01*
X14069060Y-9356852D02*
X13850620Y-9575292D01*
X13850620Y-9575292D02*
X13677138Y-9575292D01*
X14069060Y-9348724D02*
X14069060Y-9356852D01*
X13854684Y-8804148D02*
X13826236Y-8832596D01*
X13826236Y-8832596D02*
X13826236Y-8893556D01*
X13656564Y-9063228D02*
X13656564Y-9063228D01*
X13826236Y-8893556D02*
X13656564Y-9063228D01*
X13889228Y-8804148D02*
X13854684Y-8804148D01*
X14021816Y-8698992D02*
X14023340Y-8700516D01*
X13991336Y-8804148D02*
X13889228Y-8804148D01*
X13889228Y-8804148D02*
X13887704Y-8804148D01*
X14023340Y-8772144D02*
X13991336Y-8804148D01*
X14023340Y-8700516D02*
X14023340Y-8772144D01*
X14062964Y-8657844D02*
X14021816Y-8698992D01*
X14021816Y-8698992D02*
X14022832Y-8697976D01*
X14062964Y-8657844D02*
X14062964Y-8659368D01*
X13197840Y-9521952D02*
X13080492Y-9521952D01*
X13080492Y-9521952D02*
X13029692Y-9572752D01*
X13197840Y-9521952D02*
X13656564Y-9063228D01*
X14397228Y-8888984D02*
X14397228Y-9157208D01*
X14215110Y-9339326D02*
X14215364Y-9339072D01*
X14397228Y-9157208D02*
X14215110Y-9339326D01*
X14143736Y-8658352D02*
X14278864Y-8658352D01*
X14397228Y-8776716D02*
X14397228Y-8888984D01*
X14397228Y-8888984D02*
X14397228Y-8891524D01*
X14278864Y-8658352D02*
X14397228Y-8776716D01*
X14187424Y-9367012D02*
X14188440Y-9365996D01*
X14215110Y-9339326D02*
X14187424Y-9367012D01*
X14187424Y-9462008D02*
X14187424Y-9367012D01*
X14187424Y-9462008D02*
X14189456Y-9464040D01*
X14474190Y-9029954D02*
X14460728Y-9016492D01*
X14460728Y-9016492D02*
X14460728Y-8735060D01*
X14460728Y-8735060D02*
X14460728Y-8740648D01*
X14460728Y-8740648D02*
X14460728Y-8735060D01*
X14373606Y-9373362D02*
X14372844Y-9374124D01*
X14142212Y-8581136D02*
X14174216Y-8581136D01*
X14174216Y-8581136D02*
X14213840Y-8541512D01*
X14213840Y-8541512D02*
X14267180Y-8541512D01*
X14267180Y-8541512D02*
X14460728Y-8735060D01*
X14524228Y-9222740D02*
X14373606Y-9373362D01*
X14524228Y-9079992D02*
X14524228Y-9222740D01*
X14473936Y-9029700D02*
X14474190Y-9029954D01*
X14474190Y-9029954D02*
X14524228Y-9079992D01*
X14357604Y-9389364D02*
X14373606Y-9373362D01*
X14356842Y-9390126D02*
X14357604Y-9389364D01*
X14357604Y-9471152D02*
X14357604Y-9389364D01*
X13685012Y-9280652D02*
X13680694Y-9284970D01*
X14064488Y-8901176D02*
X13685012Y-9280652D01*
X13412470Y-9503410D02*
X13343128Y-9572752D01*
X13606018Y-9503410D02*
X13412470Y-9503410D01*
X13680694Y-9428734D02*
X13606018Y-9503410D01*
X13680694Y-9284970D02*
X13680694Y-9428734D01*
X13650087Y-9263253D02*
X13645388Y-9267952D01*
X13860272Y-9053068D02*
X13650087Y-9263253D01*
X13860272Y-8943848D02*
X13860272Y-9053068D01*
X13892276Y-8911844D02*
X13860272Y-8943848D01*
X13908532Y-8911844D02*
X13892276Y-8911844D01*
X13968476Y-8911844D02*
X13908532Y-8911844D01*
X14062710Y-8817610D02*
X13968476Y-8911844D01*
X13571982Y-9341358D02*
X13650087Y-9263253D01*
X13419582Y-9341358D02*
X13189458Y-9571482D01*
X13571982Y-9341358D02*
X13419582Y-9341358D01*
X15025116Y-9828276D02*
X15025116Y-9831324D01*
X15025116Y-9831324D02*
X15025116Y-9872472D01*
X15132558Y-9723882D02*
X15025116Y-9831324D01*
X15132558Y-9662160D02*
X15132558Y-9723882D01*
X15047214Y-9749790D02*
X14925294Y-9871710D01*
X15047214Y-9711690D02*
X15047214Y-9749790D01*
G36*
X15455392Y-8288077D02*
X15442428Y-8282694D01*
X15424745Y-8282678D01*
X15408402Y-8289431D01*
X15395887Y-8301924D01*
X15389106Y-8318256D01*
X15389090Y-8335939D01*
X15395843Y-8352282D01*
X15408336Y-8364797D01*
X15424668Y-8371578D01*
X15442351Y-8371594D01*
X15455392Y-8366205D01*
X15455392Y-8831326D01*
X15301388Y-8831326D01*
X15306032Y-8820140D01*
X15306034Y-8817891D01*
X15320020Y-8823698D01*
X15337703Y-8823714D01*
X15354046Y-8816961D01*
X15366561Y-8804468D01*
X15373342Y-8788136D01*
X15373358Y-8770453D01*
X15366605Y-8754110D01*
X15354112Y-8741595D01*
X15337780Y-8734814D01*
X15320097Y-8734798D01*
X15303754Y-8741551D01*
X15291239Y-8754044D01*
X15284458Y-8770376D01*
X15284456Y-8772625D01*
X15270470Y-8766818D01*
X15252787Y-8766802D01*
X15236444Y-8773555D01*
X15223929Y-8786048D01*
X15217148Y-8802380D01*
X15217132Y-8820063D01*
X15221786Y-8831326D01*
X15209774Y-8831326D01*
X15207303Y-8831826D01*
X15205222Y-8833248D01*
X15203858Y-8835368D01*
X15203424Y-8837676D01*
X15203424Y-9726655D01*
X15162513Y-9726523D01*
X15163038Y-9723882D01*
X15163038Y-9694540D01*
X15170219Y-9687372D01*
X15177000Y-9671040D01*
X15177016Y-9653357D01*
X15170263Y-9637014D01*
X15157770Y-9624499D01*
X15141438Y-9617718D01*
X15123755Y-9617702D01*
X15107412Y-9624455D01*
X15094897Y-9636948D01*
X15088116Y-9653280D01*
X15088100Y-9670963D01*
X15094853Y-9687306D01*
X15102078Y-9694544D01*
X15102078Y-9711257D01*
X15090869Y-9722466D01*
X15091656Y-9720570D01*
X15091672Y-9702887D01*
X15084919Y-9686544D01*
X15072426Y-9674029D01*
X15056094Y-9667248D01*
X15038411Y-9667232D01*
X15022068Y-9673985D01*
X15009553Y-9686478D01*
X15002772Y-9702810D01*
X15002756Y-9720493D01*
X15005037Y-9726012D01*
X14406171Y-9724071D01*
X14397040Y-9714923D01*
X14380708Y-9708142D01*
X14363025Y-9708126D01*
X14346682Y-9714879D01*
X14337697Y-9723849D01*
X14302497Y-9723735D01*
X14303494Y-9721332D01*
X14303510Y-9703649D01*
X14296757Y-9687306D01*
X14284264Y-9674791D01*
X14267932Y-9668010D01*
X14250249Y-9667994D01*
X14233906Y-9674747D01*
X14221391Y-9687240D01*
X14214610Y-9703572D01*
X14214594Y-9721255D01*
X14215502Y-9723453D01*
X13460508Y-9721005D01*
X13449366Y-9709843D01*
X13433034Y-9703062D01*
X13415351Y-9703046D01*
X13399008Y-9709799D01*
X13388018Y-9720770D01*
X12918446Y-9719248D01*
X12918448Y-9717365D01*
X12911695Y-9701022D01*
X12899202Y-9688507D01*
X12882870Y-9681726D01*
X12865187Y-9681710D01*
X12848844Y-9688463D01*
X12836329Y-9700956D01*
X12829548Y-9717288D01*
X12829546Y-9718960D01*
X12160504Y-9716791D01*
X12160504Y-9581555D01*
X12985234Y-9581555D01*
X12991987Y-9597898D01*
X13004480Y-9610413D01*
X13020812Y-9617194D01*
X13038495Y-9617210D01*
X13054838Y-9610457D01*
X13067353Y-9597964D01*
X13074134Y-9581632D01*
X13074143Y-9571406D01*
X13093117Y-9552432D01*
X13149238Y-9552432D01*
X13145016Y-9562602D01*
X13145000Y-9580285D01*
X13151753Y-9596628D01*
X13164246Y-9609143D01*
X13180578Y-9615924D01*
X13198261Y-9615940D01*
X13214604Y-9609187D01*
X13227119Y-9596694D01*
X13233900Y-9580362D01*
X13233909Y-9570136D01*
X13432207Y-9371838D01*
X13484445Y-9371838D01*
X13483598Y-9373880D01*
X13483582Y-9391563D01*
X13490335Y-9407906D01*
X13502828Y-9420421D01*
X13519160Y-9427202D01*
X13536843Y-9427218D01*
X13553186Y-9420465D01*
X13565701Y-9407972D01*
X13572482Y-9391640D01*
X13572498Y-9373957D01*
X13571622Y-9371838D01*
X13571982Y-9371838D01*
X13583646Y-9369518D01*
X13593535Y-9362911D01*
X13650214Y-9306231D01*
X13650214Y-9416109D01*
X13593393Y-9472930D01*
X13412470Y-9472930D01*
X13400806Y-9475250D01*
X13393871Y-9479884D01*
X13390917Y-9481857D01*
X13344472Y-9528303D01*
X13334325Y-9528294D01*
X13317982Y-9535047D01*
X13305467Y-9547540D01*
X13298686Y-9563872D01*
X13298670Y-9581555D01*
X13305423Y-9597898D01*
X13317916Y-9610413D01*
X13334248Y-9617194D01*
X13351931Y-9617210D01*
X13368274Y-9610457D01*
X13380789Y-9597964D01*
X13387570Y-9581632D01*
X13387579Y-9571406D01*
X13425095Y-9533890D01*
X13488901Y-9533890D01*
X13477494Y-9538603D01*
X13464979Y-9551096D01*
X13458198Y-9567428D01*
X13458182Y-9585111D01*
X13464935Y-9601454D01*
X13477428Y-9613969D01*
X13493760Y-9620750D01*
X13511443Y-9620766D01*
X13527786Y-9614013D01*
X13540301Y-9601520D01*
X13547082Y-9585188D01*
X13547091Y-9574962D01*
X13556921Y-9565132D01*
X13633227Y-9565132D01*
X13632696Y-9566412D01*
X13632680Y-9584095D01*
X13639433Y-9600438D01*
X13651926Y-9612953D01*
X13668258Y-9619734D01*
X13685941Y-9619750D01*
X13702284Y-9612997D01*
X13709521Y-9605772D01*
X13850620Y-9605772D01*
X13862284Y-9603452D01*
X13872173Y-9596845D01*
X13905330Y-9563687D01*
X13909181Y-9573006D01*
X13921674Y-9585521D01*
X13938006Y-9592302D01*
X13955689Y-9592318D01*
X13972032Y-9585565D01*
X13984547Y-9573072D01*
X13991328Y-9556740D01*
X13991337Y-9546514D01*
X14046449Y-9491402D01*
X14046446Y-9494687D01*
X14053199Y-9511030D01*
X14065692Y-9523545D01*
X14082024Y-9530326D01*
X14099707Y-9530342D01*
X14116050Y-9523589D01*
X14128565Y-9511096D01*
X14135346Y-9494764D01*
X14135362Y-9477081D01*
X14128609Y-9460738D01*
X14116116Y-9448223D01*
X14099784Y-9441442D01*
X14096412Y-9441439D01*
X14156944Y-9380907D01*
X14156944Y-9433688D01*
X14151795Y-9438828D01*
X14145014Y-9455160D01*
X14144998Y-9472843D01*
X14151751Y-9489186D01*
X14164244Y-9501701D01*
X14180576Y-9508482D01*
X14198259Y-9508498D01*
X14214602Y-9501745D01*
X14225277Y-9491088D01*
X14235364Y-9501193D01*
X14251696Y-9507974D01*
X14269379Y-9507990D01*
X14285722Y-9501237D01*
X14298237Y-9488744D01*
X14305018Y-9472412D01*
X14305034Y-9454729D01*
X14298281Y-9438386D01*
X14291056Y-9431149D01*
X14291056Y-9406004D01*
X14294038Y-9408991D01*
X14310370Y-9415772D01*
X14327124Y-9415787D01*
X14327124Y-9438772D01*
X14319943Y-9445940D01*
X14313162Y-9462272D01*
X14313146Y-9479955D01*
X14319899Y-9496298D01*
X14332392Y-9508813D01*
X14348724Y-9515594D01*
X14366407Y-9515610D01*
X14382750Y-9508857D01*
X14395265Y-9496364D01*
X14402046Y-9480032D01*
X14402062Y-9462349D01*
X14395309Y-9446006D01*
X14388084Y-9438769D01*
X14388084Y-9401989D01*
X14481048Y-9309025D01*
X14481048Y-9428104D01*
X14473867Y-9435272D01*
X14467086Y-9451604D01*
X14467070Y-9469287D01*
X14473823Y-9485630D01*
X14486316Y-9498145D01*
X14502648Y-9504926D01*
X14520331Y-9504942D01*
X14536674Y-9498189D01*
X14549189Y-9485696D01*
X14555970Y-9469364D01*
X14555986Y-9451681D01*
X14549233Y-9435338D01*
X14542008Y-9428101D01*
X14542008Y-9320709D01*
X14551410Y-9311307D01*
X14551398Y-9324761D01*
X14558151Y-9341104D01*
X14570644Y-9353619D01*
X14586976Y-9360400D01*
X14604659Y-9360416D01*
X14621002Y-9353663D01*
X14631162Y-9343521D01*
X14631162Y-9452996D01*
X14623981Y-9460164D01*
X14617200Y-9476496D01*
X14617184Y-9494179D01*
X14623937Y-9510522D01*
X14636430Y-9523037D01*
X14652762Y-9529818D01*
X14670445Y-9529834D01*
X14686788Y-9523081D01*
X14699303Y-9510588D01*
X14706084Y-9494256D01*
X14706089Y-9488719D01*
X14706380Y-9490182D01*
X14712987Y-9500071D01*
X14733525Y-9520608D01*
X14733516Y-9530755D01*
X14740269Y-9547098D01*
X14752762Y-9559613D01*
X14769094Y-9566394D01*
X14786777Y-9566410D01*
X14803120Y-9559657D01*
X14815635Y-9547164D01*
X14822416Y-9530832D01*
X14822424Y-9522097D01*
X15047712Y-9522097D01*
X15056202Y-9542642D01*
X15071907Y-9558375D01*
X15092438Y-9566900D01*
X15114668Y-9566920D01*
X15135214Y-9558430D01*
X15150947Y-9542725D01*
X15159472Y-9522194D01*
X15159492Y-9499964D01*
X15151002Y-9479418D01*
X15135297Y-9463685D01*
X15114766Y-9455160D01*
X15092535Y-9455140D01*
X15071990Y-9463630D01*
X15056257Y-9479335D01*
X15047732Y-9499866D01*
X15047712Y-9522097D01*
X14822424Y-9522097D01*
X14822432Y-9513149D01*
X14815679Y-9496806D01*
X14803186Y-9484291D01*
X14786854Y-9477510D01*
X14776628Y-9477501D01*
X14765020Y-9465893D01*
X14765020Y-9306231D01*
X14786614Y-9284637D01*
X14786602Y-9298091D01*
X14793355Y-9314434D01*
X14805848Y-9326949D01*
X14822180Y-9333730D01*
X14839863Y-9333746D01*
X14856206Y-9326993D01*
X14868721Y-9314500D01*
X14875502Y-9298168D01*
X14875514Y-9284375D01*
X15070066Y-9284375D01*
X15076819Y-9300718D01*
X15089312Y-9313233D01*
X15105644Y-9320014D01*
X15123327Y-9320030D01*
X15139670Y-9313277D01*
X15152185Y-9300784D01*
X15158966Y-9284452D01*
X15158982Y-9266769D01*
X15152229Y-9250426D01*
X15139736Y-9237911D01*
X15123404Y-9231130D01*
X15105721Y-9231114D01*
X15089378Y-9237867D01*
X15076863Y-9250360D01*
X15070082Y-9266692D01*
X15070066Y-9284375D01*
X14875514Y-9284375D01*
X14875518Y-9280485D01*
X14868765Y-9264142D01*
X14856272Y-9251627D01*
X14839940Y-9244846D01*
X14822257Y-9244830D01*
X14805914Y-9251583D01*
X14796008Y-9261472D01*
X14796008Y-8895755D01*
X14943574Y-8895755D01*
X14950327Y-8912098D01*
X14962820Y-8924613D01*
X14979152Y-8931394D01*
X14996835Y-8931410D01*
X15013178Y-8924657D01*
X15025693Y-8912164D01*
X15032474Y-8895832D01*
X15032490Y-8878149D01*
X15025737Y-8861806D01*
X15013244Y-8849291D01*
X14996912Y-8842510D01*
X14979229Y-8842494D01*
X14962886Y-8849247D01*
X14950371Y-8861740D01*
X14943590Y-8878072D01*
X14943574Y-8895755D01*
X14796008Y-8895755D01*
X14796008Y-8814983D01*
X14886170Y-8814983D01*
X14892923Y-8831326D01*
X14905416Y-8843841D01*
X14921748Y-8850622D01*
X14939431Y-8850638D01*
X14955774Y-8843885D01*
X14968289Y-8831392D01*
X14975070Y-8815060D01*
X14975086Y-8797377D01*
X14969213Y-8783164D01*
X14977044Y-8791009D01*
X14993376Y-8797790D01*
X15011059Y-8797806D01*
X15027402Y-8791053D01*
X15039917Y-8778560D01*
X15046698Y-8762228D01*
X15046714Y-8744545D01*
X15039961Y-8728202D01*
X15032498Y-8720727D01*
X15118070Y-8720727D01*
X15126560Y-8741272D01*
X15142265Y-8757005D01*
X15162796Y-8765530D01*
X15185026Y-8765550D01*
X15205572Y-8757060D01*
X15221305Y-8741355D01*
X15229830Y-8720824D01*
X15229850Y-8698594D01*
X15221360Y-8678048D01*
X15205655Y-8662315D01*
X15185124Y-8653790D01*
X15162893Y-8653770D01*
X15142348Y-8662260D01*
X15126615Y-8677965D01*
X15118090Y-8698496D01*
X15118070Y-8720727D01*
X15032498Y-8720727D01*
X15027468Y-8715687D01*
X15011136Y-8708906D01*
X15000839Y-8708897D01*
X15014702Y-8703169D01*
X15027217Y-8690676D01*
X15033998Y-8674344D01*
X15034014Y-8656661D01*
X15032778Y-8653671D01*
X15302982Y-8653671D01*
X15311472Y-8674216D01*
X15327177Y-8689949D01*
X15347708Y-8698474D01*
X15369938Y-8698494D01*
X15390484Y-8690004D01*
X15406217Y-8674299D01*
X15414742Y-8653768D01*
X15414762Y-8631538D01*
X15406272Y-8610992D01*
X15390567Y-8595259D01*
X15370036Y-8586734D01*
X15347805Y-8586714D01*
X15327260Y-8595204D01*
X15311527Y-8610909D01*
X15303002Y-8631440D01*
X15302982Y-8653671D01*
X15032778Y-8653671D01*
X15027261Y-8640318D01*
X15014768Y-8627803D01*
X14998436Y-8621022D01*
X14980753Y-8621006D01*
X14964410Y-8627759D01*
X14951895Y-8640252D01*
X14945114Y-8656584D01*
X14945098Y-8674267D01*
X14951851Y-8690610D01*
X14964344Y-8703125D01*
X14980676Y-8709906D01*
X14990973Y-8709915D01*
X14977110Y-8715643D01*
X14964595Y-8728136D01*
X14957814Y-8744468D01*
X14957798Y-8762151D01*
X14963671Y-8776364D01*
X14955840Y-8768519D01*
X14939508Y-8761738D01*
X14921825Y-8761722D01*
X14905482Y-8768475D01*
X14892967Y-8780968D01*
X14886186Y-8797300D01*
X14886170Y-8814983D01*
X14796008Y-8814983D01*
X14796008Y-8722360D01*
X14793688Y-8710696D01*
X14787081Y-8700807D01*
X14679260Y-8592987D01*
X15147282Y-8592987D01*
X15154035Y-8609330D01*
X15166528Y-8621845D01*
X15182860Y-8628626D01*
X15200543Y-8628642D01*
X15216886Y-8621889D01*
X15229401Y-8609396D01*
X15236182Y-8593064D01*
X15236198Y-8575381D01*
X15229445Y-8559038D01*
X15216952Y-8546523D01*
X15200620Y-8539742D01*
X15182937Y-8539726D01*
X15166594Y-8546479D01*
X15154079Y-8558972D01*
X15147298Y-8575304D01*
X15147282Y-8592987D01*
X14679260Y-8592987D01*
X14661605Y-8575331D01*
X14651716Y-8568724D01*
X14640052Y-8566404D01*
X14595219Y-8566404D01*
X14601005Y-8560628D01*
X14607786Y-8544296D01*
X14607802Y-8526613D01*
X14601049Y-8510270D01*
X14588556Y-8497755D01*
X14572224Y-8490974D01*
X14554541Y-8490958D01*
X14538198Y-8497711D01*
X14525683Y-8510204D01*
X14518902Y-8526536D01*
X14518891Y-8538282D01*
X14441516Y-8460907D01*
X14651982Y-8460907D01*
X14658735Y-8477250D01*
X14671228Y-8489765D01*
X14687560Y-8496546D01*
X14705243Y-8496562D01*
X14721586Y-8489809D01*
X14734101Y-8477316D01*
X14740882Y-8460984D01*
X14740884Y-8459383D01*
X14766536Y-8459383D01*
X14773289Y-8475726D01*
X14785782Y-8488241D01*
X14802114Y-8495022D01*
X14813530Y-8495032D01*
X14813526Y-8499007D01*
X14820279Y-8515350D01*
X14832772Y-8527865D01*
X14849104Y-8534646D01*
X14866787Y-8534662D01*
X14874393Y-8531519D01*
X15082766Y-8531519D01*
X15089519Y-8547862D01*
X15102012Y-8560377D01*
X15118344Y-8567158D01*
X15136027Y-8567174D01*
X15152370Y-8560421D01*
X15164885Y-8547928D01*
X15171666Y-8531596D01*
X15171682Y-8513913D01*
X15164929Y-8497570D01*
X15152436Y-8485055D01*
X15136104Y-8478274D01*
X15118421Y-8478258D01*
X15102078Y-8485011D01*
X15089563Y-8497504D01*
X15082782Y-8513836D01*
X15082766Y-8531519D01*
X14874393Y-8531519D01*
X14883130Y-8527909D01*
X14895645Y-8515416D01*
X14902426Y-8499084D01*
X14902442Y-8481401D01*
X14895689Y-8465058D01*
X14883196Y-8452543D01*
X14866864Y-8445762D01*
X14855448Y-8445752D01*
X14855452Y-8441777D01*
X14848699Y-8425434D01*
X14836206Y-8412919D01*
X14819874Y-8406138D01*
X14802191Y-8406122D01*
X14785848Y-8412875D01*
X14773333Y-8425368D01*
X14766552Y-8441700D01*
X14766536Y-8459383D01*
X14740884Y-8459383D01*
X14740898Y-8443301D01*
X14734145Y-8426958D01*
X14721652Y-8414443D01*
X14705320Y-8407662D01*
X14687637Y-8407646D01*
X14671294Y-8414399D01*
X14658779Y-8426892D01*
X14651998Y-8443224D01*
X14651982Y-8460907D01*
X14441516Y-8460907D01*
X14405767Y-8425158D01*
X14405068Y-8421644D01*
X14398461Y-8411755D01*
X14388572Y-8405148D01*
X14376908Y-8402828D01*
X14145260Y-8402828D01*
X14133596Y-8405148D01*
X14125270Y-8410712D01*
X14123707Y-8411755D01*
X14044967Y-8490495D01*
X14038360Y-8500384D01*
X14036040Y-8512048D01*
X14036040Y-8548756D01*
X14028859Y-8555924D01*
X14022078Y-8572256D01*
X14022073Y-8577123D01*
X14016595Y-8563864D01*
X14004102Y-8551349D01*
X13987770Y-8544568D01*
X13970087Y-8544552D01*
X13953744Y-8551305D01*
X13941229Y-8563798D01*
X13934448Y-8580130D01*
X13934432Y-8597813D01*
X13941185Y-8614156D01*
X13953678Y-8626671D01*
X13970010Y-8633452D01*
X13987693Y-8633468D01*
X14004036Y-8626715D01*
X14016551Y-8614222D01*
X14023332Y-8597890D01*
X14023336Y-8593023D01*
X14028815Y-8606282D01*
X14041238Y-8618726D01*
X14037818Y-8620139D01*
X14025303Y-8632632D01*
X14018522Y-8648964D01*
X14018513Y-8659190D01*
X14000263Y-8677439D01*
X13993656Y-8687328D01*
X13992699Y-8692137D01*
X13989040Y-8690618D01*
X13971357Y-8690602D01*
X13955014Y-8697355D01*
X13942499Y-8709848D01*
X13940944Y-8713594D01*
X13939633Y-8710422D01*
X13927140Y-8697907D01*
X13910808Y-8691126D01*
X13893125Y-8691110D01*
X13876782Y-8697863D01*
X13864267Y-8710356D01*
X13857486Y-8726688D01*
X13857470Y-8744371D01*
X13864223Y-8760714D01*
X13876716Y-8773229D01*
X13877774Y-8773668D01*
X13854684Y-8773668D01*
X13843020Y-8775988D01*
X13833131Y-8782595D01*
X13804683Y-8811043D01*
X13798076Y-8820932D01*
X13795756Y-8832596D01*
X13795756Y-8880931D01*
X13546943Y-9129744D01*
X13540345Y-9113774D01*
X13527852Y-9101259D01*
X13524739Y-9099967D01*
X13528548Y-9098393D01*
X13541063Y-9085900D01*
X13547844Y-9069568D01*
X13547860Y-9051885D01*
X13541107Y-9035542D01*
X13528614Y-9023027D01*
X13512282Y-9016246D01*
X13494599Y-9016230D01*
X13478256Y-9022983D01*
X13465741Y-9035476D01*
X13458960Y-9051808D01*
X13458944Y-9069491D01*
X13465697Y-9085834D01*
X13478190Y-9098349D01*
X13481303Y-9099641D01*
X13477494Y-9101215D01*
X13464979Y-9113708D01*
X13461475Y-9122147D01*
X13459065Y-9116314D01*
X13446572Y-9103799D01*
X13430240Y-9097018D01*
X13412557Y-9097002D01*
X13396214Y-9103755D01*
X13383699Y-9116248D01*
X13376918Y-9132580D01*
X13376902Y-9150263D01*
X13383655Y-9166606D01*
X13396148Y-9179121D01*
X13412480Y-9185902D01*
X13430163Y-9185918D01*
X13446506Y-9179165D01*
X13459021Y-9166672D01*
X13462525Y-9158233D01*
X13464935Y-9164066D01*
X13477428Y-9176581D01*
X13493452Y-9183235D01*
X13185215Y-9491472D01*
X13080492Y-9491472D01*
X13068828Y-9493792D01*
X13058939Y-9500399D01*
X13031036Y-9528303D01*
X13020889Y-9528294D01*
X13004546Y-9535047D01*
X12992031Y-9547540D01*
X12985250Y-9563872D01*
X12985234Y-9581555D01*
X12160504Y-9581555D01*
X12160504Y-9412274D01*
X12352764Y-9412274D01*
X12368585Y-9450564D01*
X12397854Y-9479884D01*
X12436116Y-9495772D01*
X12477546Y-9495808D01*
X12515835Y-9479987D01*
X12545156Y-9450718D01*
X12561044Y-9412456D01*
X12561044Y-9412274D01*
X12606764Y-9412274D01*
X12622585Y-9450564D01*
X12651854Y-9479884D01*
X12690116Y-9495772D01*
X12731546Y-9495808D01*
X12769835Y-9479987D01*
X12799156Y-9450718D01*
X12815044Y-9412456D01*
X12815080Y-9371026D01*
X12801001Y-9336953D01*
X13162272Y-9336953D01*
X13169025Y-9353296D01*
X13181518Y-9365811D01*
X13197850Y-9372592D01*
X13215533Y-9372608D01*
X13231876Y-9365855D01*
X13244391Y-9353362D01*
X13251172Y-9337030D01*
X13251188Y-9319347D01*
X13244435Y-9303004D01*
X13231942Y-9290489D01*
X13215610Y-9283708D01*
X13197927Y-9283692D01*
X13181584Y-9290445D01*
X13169069Y-9302938D01*
X13162288Y-9319270D01*
X13162272Y-9336953D01*
X12801001Y-9336953D01*
X12799259Y-9332737D01*
X12769990Y-9303416D01*
X12731728Y-9287528D01*
X12690298Y-9287492D01*
X12652008Y-9303313D01*
X12622688Y-9332582D01*
X12606800Y-9370844D01*
X12606764Y-9412274D01*
X12561044Y-9412274D01*
X12561080Y-9371026D01*
X12545259Y-9332737D01*
X12515990Y-9303416D01*
X12477728Y-9287528D01*
X12436298Y-9287492D01*
X12398008Y-9303313D01*
X12368688Y-9332582D01*
X12352800Y-9370844D01*
X12352764Y-9412274D01*
X12160504Y-9412274D01*
X12160504Y-9245237D01*
X12761712Y-9245237D01*
X12770202Y-9265782D01*
X12785907Y-9281515D01*
X12806438Y-9290040D01*
X12828668Y-9290060D01*
X12849214Y-9281570D01*
X12864947Y-9265865D01*
X12873472Y-9245334D01*
X12873492Y-9223104D01*
X12865002Y-9202558D01*
X12853368Y-9190903D01*
X13051782Y-9190903D01*
X13058535Y-9207246D01*
X13071028Y-9219761D01*
X13087360Y-9226542D01*
X13105043Y-9226558D01*
X13121386Y-9219805D01*
X13133901Y-9207312D01*
X13140682Y-9190980D01*
X13140698Y-9173297D01*
X13133945Y-9156954D01*
X13121452Y-9144439D01*
X13105120Y-9137658D01*
X13087437Y-9137642D01*
X13071094Y-9144395D01*
X13058579Y-9156888D01*
X13051798Y-9173220D01*
X13051782Y-9190903D01*
X12853368Y-9190903D01*
X12849297Y-9186825D01*
X12828766Y-9178300D01*
X12806535Y-9178280D01*
X12785990Y-9186770D01*
X12770257Y-9202475D01*
X12761732Y-9223006D01*
X12761712Y-9245237D01*
X12160504Y-9245237D01*
X12160504Y-9101473D01*
X12332452Y-9101473D01*
X12340942Y-9122018D01*
X12356647Y-9137751D01*
X12377178Y-9146276D01*
X12399408Y-9146296D01*
X12419954Y-9137806D01*
X12431925Y-9125857D01*
X12586452Y-9125857D01*
X12594942Y-9146402D01*
X12610647Y-9162135D01*
X12631178Y-9170660D01*
X12653408Y-9170680D01*
X12673954Y-9162190D01*
X12689687Y-9146485D01*
X12698212Y-9125954D01*
X12698232Y-9103724D01*
X12694267Y-9094129D01*
X12841724Y-9094129D01*
X12848477Y-9110472D01*
X12860970Y-9122987D01*
X12877302Y-9129768D01*
X12894985Y-9129784D01*
X12911328Y-9123031D01*
X12923843Y-9110538D01*
X12930624Y-9094206D01*
X12930640Y-9076523D01*
X12923887Y-9060180D01*
X12911394Y-9047665D01*
X12895062Y-9040884D01*
X12877379Y-9040868D01*
X12861036Y-9047621D01*
X12848521Y-9060114D01*
X12841740Y-9076446D01*
X12841724Y-9094129D01*
X12694267Y-9094129D01*
X12689742Y-9083178D01*
X12674037Y-9067445D01*
X12653506Y-9058920D01*
X12631275Y-9058900D01*
X12610730Y-9067390D01*
X12594997Y-9083095D01*
X12586472Y-9103626D01*
X12586452Y-9125857D01*
X12431925Y-9125857D01*
X12435687Y-9122101D01*
X12444212Y-9101570D01*
X12444232Y-9079340D01*
X12435742Y-9058794D01*
X12420037Y-9043061D01*
X12399506Y-9034536D01*
X12377275Y-9034516D01*
X12356730Y-9043006D01*
X12340997Y-9058711D01*
X12332472Y-9079242D01*
X12332452Y-9101473D01*
X12160504Y-9101473D01*
X12160504Y-8927737D01*
X12228312Y-8927737D01*
X12236802Y-8948282D01*
X12252507Y-8964015D01*
X12273038Y-8972540D01*
X12295268Y-8972560D01*
X12315814Y-8964070D01*
X12327022Y-8952883D01*
X12432528Y-8952883D01*
X12441018Y-8973428D01*
X12456723Y-8989161D01*
X12477254Y-8997686D01*
X12499484Y-8997706D01*
X12520030Y-8989216D01*
X12535763Y-8973511D01*
X12544288Y-8952980D01*
X12544288Y-8952883D01*
X12774158Y-8952883D01*
X12782648Y-8973428D01*
X12798353Y-8989161D01*
X12818884Y-8997686D01*
X12841114Y-8997706D01*
X12861660Y-8989216D01*
X12863176Y-8987703D01*
X13298162Y-8987703D01*
X13304915Y-9004046D01*
X13317408Y-9016561D01*
X13333740Y-9023342D01*
X13351423Y-9023358D01*
X13367766Y-9016605D01*
X13380281Y-9004112D01*
X13382733Y-8998207D01*
X13386195Y-9006586D01*
X13398688Y-9019101D01*
X13415020Y-9025882D01*
X13432703Y-9025898D01*
X13449046Y-9019145D01*
X13461561Y-9006652D01*
X13468342Y-8990320D01*
X13468358Y-8972637D01*
X13461605Y-8956294D01*
X13449112Y-8943779D01*
X13432780Y-8936998D01*
X13415097Y-8936982D01*
X13398754Y-8943735D01*
X13386239Y-8956228D01*
X13383787Y-8962133D01*
X13380325Y-8953754D01*
X13367832Y-8941239D01*
X13351500Y-8934458D01*
X13333817Y-8934442D01*
X13317474Y-8941195D01*
X13304959Y-8953688D01*
X13298178Y-8970020D01*
X13298162Y-8987703D01*
X12863176Y-8987703D01*
X12877393Y-8973511D01*
X12885918Y-8952980D01*
X12885938Y-8930750D01*
X12877448Y-8910204D01*
X12863532Y-8896263D01*
X13050766Y-8896263D01*
X13057519Y-8912606D01*
X13070012Y-8925121D01*
X13086344Y-8931902D01*
X13104027Y-8931918D01*
X13120370Y-8925165D01*
X13132885Y-8912672D01*
X13137589Y-8901343D01*
X13501362Y-8901343D01*
X13508115Y-8917686D01*
X13520608Y-8930201D01*
X13536940Y-8936982D01*
X13554623Y-8936998D01*
X13570966Y-8930245D01*
X13583481Y-8917752D01*
X13587130Y-8908963D01*
X13618202Y-8908963D01*
X13624955Y-8925306D01*
X13637448Y-8937821D01*
X13653780Y-8944602D01*
X13671463Y-8944618D01*
X13687806Y-8937865D01*
X13700321Y-8925372D01*
X13707102Y-8909040D01*
X13707118Y-8891357D01*
X13700365Y-8875014D01*
X13687872Y-8862499D01*
X13671540Y-8855718D01*
X13653857Y-8855702D01*
X13637514Y-8862455D01*
X13624999Y-8874948D01*
X13618218Y-8891280D01*
X13618202Y-8908963D01*
X13587130Y-8908963D01*
X13590262Y-8901420D01*
X13590278Y-8883737D01*
X13583525Y-8867394D01*
X13571032Y-8854879D01*
X13554700Y-8848098D01*
X13537017Y-8848082D01*
X13520674Y-8854835D01*
X13508159Y-8867328D01*
X13501378Y-8883660D01*
X13501362Y-8901343D01*
X13137589Y-8901343D01*
X13139666Y-8896340D01*
X13139682Y-8878657D01*
X13132929Y-8862314D01*
X13120436Y-8849799D01*
X13104104Y-8843018D01*
X13086421Y-8843002D01*
X13070078Y-8849755D01*
X13057563Y-8862248D01*
X13050782Y-8878580D01*
X13050766Y-8896263D01*
X12863532Y-8896263D01*
X12861743Y-8894471D01*
X12841212Y-8885946D01*
X12818981Y-8885926D01*
X12798436Y-8894416D01*
X12782703Y-8910121D01*
X12774178Y-8930652D01*
X12774158Y-8952883D01*
X12544288Y-8952883D01*
X12544308Y-8930750D01*
X12535818Y-8910204D01*
X12520113Y-8894471D01*
X12499582Y-8885946D01*
X12477351Y-8885926D01*
X12456806Y-8894416D01*
X12441073Y-8910121D01*
X12432548Y-8930652D01*
X12432528Y-8952883D01*
X12327022Y-8952883D01*
X12331547Y-8948365D01*
X12340072Y-8927834D01*
X12340092Y-8905604D01*
X12331602Y-8885058D01*
X12315897Y-8869325D01*
X12295366Y-8860800D01*
X12273135Y-8860780D01*
X12252590Y-8869270D01*
X12236857Y-8884975D01*
X12228332Y-8905506D01*
X12228312Y-8927737D01*
X12160504Y-8927737D01*
X12160504Y-8837313D01*
X12432528Y-8837313D01*
X12441018Y-8857858D01*
X12456723Y-8873591D01*
X12477254Y-8882116D01*
X12499484Y-8882136D01*
X12520030Y-8873646D01*
X12535763Y-8857941D01*
X12544288Y-8837410D01*
X12544290Y-8835027D01*
X12773650Y-8835027D01*
X12782140Y-8855572D01*
X12797845Y-8871305D01*
X12818376Y-8879830D01*
X12840606Y-8879850D01*
X12861152Y-8871360D01*
X12876885Y-8855655D01*
X12885410Y-8835124D01*
X12885430Y-8812894D01*
X12876940Y-8792348D01*
X12861235Y-8776615D01*
X12840704Y-8768090D01*
X12818473Y-8768070D01*
X12797928Y-8776560D01*
X12782195Y-8792265D01*
X12773670Y-8812796D01*
X12773650Y-8835027D01*
X12544290Y-8835027D01*
X12544308Y-8815180D01*
X12535818Y-8794634D01*
X12520113Y-8778901D01*
X12499582Y-8770376D01*
X12477351Y-8770356D01*
X12456806Y-8778846D01*
X12441073Y-8794551D01*
X12432548Y-8815082D01*
X12432528Y-8837313D01*
X12160504Y-8837313D01*
X12160504Y-8667663D01*
X12564610Y-8667663D01*
X12571363Y-8684006D01*
X12583856Y-8696521D01*
X12600188Y-8703302D01*
X12617871Y-8703318D01*
X12634214Y-8696565D01*
X12646729Y-8684072D01*
X12653510Y-8667740D01*
X12653510Y-8667663D01*
X12665702Y-8667663D01*
X12672455Y-8684006D01*
X12684948Y-8696521D01*
X12701280Y-8703302D01*
X12718963Y-8703318D01*
X12735306Y-8696565D01*
X12747821Y-8684072D01*
X12754602Y-8667740D01*
X12754604Y-8665123D01*
X13298162Y-8665123D01*
X13304915Y-8681466D01*
X13317408Y-8693981D01*
X13327646Y-8698232D01*
X13317474Y-8702435D01*
X13304959Y-8714928D01*
X13298178Y-8731260D01*
X13298162Y-8748943D01*
X13304915Y-8765286D01*
X13317408Y-8777801D01*
X13324580Y-8780779D01*
X13317474Y-8783715D01*
X13304959Y-8796208D01*
X13298178Y-8812540D01*
X13298162Y-8830223D01*
X13304915Y-8846566D01*
X13317408Y-8859081D01*
X13333740Y-8865862D01*
X13351423Y-8865878D01*
X13367766Y-8859125D01*
X13380281Y-8846632D01*
X13387062Y-8830300D01*
X13387078Y-8812617D01*
X13380325Y-8796274D01*
X13367832Y-8783759D01*
X13360660Y-8780781D01*
X13367766Y-8777845D01*
X13380281Y-8765352D01*
X13381294Y-8762913D01*
X13553432Y-8762913D01*
X13560185Y-8779256D01*
X13572678Y-8791771D01*
X13589010Y-8798552D01*
X13606693Y-8798568D01*
X13623036Y-8791815D01*
X13635551Y-8779322D01*
X13642332Y-8762990D01*
X13642332Y-8762913D01*
X13667732Y-8762913D01*
X13674485Y-8779256D01*
X13686978Y-8791771D01*
X13703310Y-8798552D01*
X13720993Y-8798568D01*
X13737336Y-8791815D01*
X13749851Y-8779322D01*
X13756632Y-8762990D01*
X13756648Y-8745307D01*
X13749895Y-8728964D01*
X13737402Y-8716449D01*
X13721070Y-8709668D01*
X13703387Y-8709652D01*
X13687044Y-8716405D01*
X13674529Y-8728898D01*
X13667748Y-8745230D01*
X13667732Y-8762913D01*
X13642332Y-8762913D01*
X13642348Y-8745307D01*
X13635595Y-8728964D01*
X13623102Y-8716449D01*
X13606770Y-8709668D01*
X13589087Y-8709652D01*
X13572744Y-8716405D01*
X13560229Y-8728898D01*
X13553448Y-8745230D01*
X13553432Y-8762913D01*
X13381294Y-8762913D01*
X13387062Y-8749020D01*
X13387078Y-8731337D01*
X13380325Y-8714994D01*
X13367832Y-8702479D01*
X13357594Y-8698228D01*
X13367766Y-8694025D01*
X13380281Y-8681532D01*
X13387062Y-8665200D01*
X13387077Y-8648613D01*
X13489932Y-8648613D01*
X13496685Y-8664956D01*
X13509178Y-8677471D01*
X13525510Y-8684252D01*
X13543193Y-8684268D01*
X13559536Y-8677515D01*
X13572051Y-8665022D01*
X13578832Y-8648690D01*
X13578848Y-8631007D01*
X13577963Y-8628865D01*
X13589010Y-8633452D01*
X13606693Y-8633468D01*
X13623036Y-8626715D01*
X13635551Y-8614222D01*
X13637091Y-8610513D01*
X13667732Y-8610513D01*
X13674485Y-8626856D01*
X13686978Y-8639371D01*
X13703310Y-8646152D01*
X13720993Y-8646168D01*
X13731238Y-8641934D01*
X13731232Y-8648613D01*
X13737985Y-8664956D01*
X13750478Y-8677471D01*
X13766810Y-8684252D01*
X13784493Y-8684268D01*
X13800836Y-8677515D01*
X13813351Y-8665022D01*
X13820132Y-8648690D01*
X13820148Y-8631007D01*
X13813395Y-8614664D01*
X13800902Y-8602149D01*
X13784570Y-8595368D01*
X13766887Y-8595352D01*
X13756642Y-8599586D01*
X13756648Y-8592907D01*
X13749895Y-8576564D01*
X13737402Y-8564049D01*
X13721070Y-8557268D01*
X13703387Y-8557252D01*
X13687044Y-8564005D01*
X13674529Y-8576498D01*
X13667748Y-8592830D01*
X13667732Y-8610513D01*
X13637091Y-8610513D01*
X13642332Y-8597890D01*
X13642348Y-8580207D01*
X13635595Y-8563864D01*
X13623102Y-8551349D01*
X13612659Y-8547013D01*
X13845532Y-8547013D01*
X13852285Y-8563356D01*
X13864778Y-8575871D01*
X13881110Y-8582652D01*
X13898793Y-8582668D01*
X13915136Y-8575915D01*
X13927651Y-8563422D01*
X13934432Y-8547090D01*
X13934448Y-8529407D01*
X13927695Y-8513064D01*
X13915202Y-8500549D01*
X13898870Y-8493768D01*
X13881187Y-8493752D01*
X13864844Y-8500505D01*
X13852329Y-8512998D01*
X13845548Y-8529330D01*
X13845532Y-8547013D01*
X13612659Y-8547013D01*
X13606770Y-8544568D01*
X13589087Y-8544552D01*
X13572744Y-8551305D01*
X13560229Y-8563798D01*
X13553448Y-8580130D01*
X13553432Y-8597813D01*
X13554317Y-8599955D01*
X13543270Y-8595368D01*
X13525587Y-8595352D01*
X13509244Y-8602105D01*
X13496729Y-8614598D01*
X13489948Y-8630930D01*
X13489932Y-8648613D01*
X13387077Y-8648613D01*
X13387078Y-8647517D01*
X13380325Y-8631174D01*
X13367832Y-8618659D01*
X13351500Y-8611878D01*
X13333817Y-8611862D01*
X13317474Y-8618615D01*
X13304959Y-8631108D01*
X13298178Y-8647440D01*
X13298162Y-8665123D01*
X12754604Y-8665123D01*
X12754618Y-8650057D01*
X12747865Y-8633714D01*
X12735372Y-8621199D01*
X12719040Y-8614418D01*
X12701357Y-8614402D01*
X12685014Y-8621155D01*
X12672499Y-8633648D01*
X12665718Y-8649980D01*
X12665702Y-8667663D01*
X12653510Y-8667663D01*
X12653526Y-8650057D01*
X12646773Y-8633714D01*
X12634280Y-8621199D01*
X12617948Y-8614418D01*
X12600265Y-8614402D01*
X12583922Y-8621155D01*
X12571407Y-8633648D01*
X12564626Y-8649980D01*
X12564610Y-8667663D01*
X12160504Y-8667663D01*
X12160504Y-8566041D01*
X12243552Y-8566041D01*
X12252042Y-8586586D01*
X12267747Y-8602319D01*
X12288278Y-8610844D01*
X12310508Y-8610864D01*
X12331054Y-8602374D01*
X12346787Y-8586669D01*
X12355312Y-8566138D01*
X12355326Y-8550801D01*
X12603216Y-8550801D01*
X12611706Y-8571346D01*
X12627411Y-8587079D01*
X12647942Y-8595604D01*
X12670172Y-8595624D01*
X12690718Y-8587134D01*
X12692743Y-8585113D01*
X13223232Y-8585113D01*
X13229985Y-8601456D01*
X13242478Y-8613971D01*
X13258810Y-8620752D01*
X13276493Y-8620768D01*
X13292836Y-8614015D01*
X13305351Y-8601522D01*
X13312132Y-8585190D01*
X13312148Y-8567507D01*
X13305395Y-8551164D01*
X13292902Y-8538649D01*
X13276570Y-8531868D01*
X13258887Y-8531852D01*
X13242544Y-8538605D01*
X13230029Y-8551098D01*
X13223248Y-8567430D01*
X13223232Y-8585113D01*
X12692743Y-8585113D01*
X12706451Y-8571429D01*
X12714976Y-8550898D01*
X12714996Y-8528668D01*
X12706506Y-8508122D01*
X12690801Y-8492389D01*
X12670270Y-8483864D01*
X12648039Y-8483844D01*
X12627494Y-8492334D01*
X12611761Y-8508039D01*
X12603236Y-8528570D01*
X12603216Y-8550801D01*
X12355326Y-8550801D01*
X12355332Y-8543908D01*
X12346842Y-8523362D01*
X12331137Y-8507629D01*
X12310606Y-8499104D01*
X12288375Y-8499084D01*
X12267830Y-8507574D01*
X12252097Y-8523279D01*
X12243572Y-8543810D01*
X12243552Y-8566041D01*
X12160504Y-8566041D01*
X12160504Y-8438025D01*
X12602200Y-8438025D01*
X12610690Y-8458570D01*
X12626395Y-8474303D01*
X12646926Y-8482828D01*
X12669156Y-8482848D01*
X12689702Y-8474358D01*
X12705435Y-8458653D01*
X12713960Y-8438122D01*
X12713965Y-8432713D01*
X13299432Y-8432713D01*
X13306185Y-8449056D01*
X13318678Y-8461571D01*
X13335010Y-8468352D01*
X13352693Y-8468368D01*
X13369036Y-8461615D01*
X13381551Y-8449122D01*
X13385200Y-8440333D01*
X13400270Y-8440333D01*
X13407023Y-8456676D01*
X13419516Y-8469191D01*
X13435848Y-8475972D01*
X13453531Y-8475988D01*
X13469874Y-8469235D01*
X13482389Y-8456742D01*
X13488675Y-8441603D01*
X13580102Y-8441603D01*
X13586855Y-8457946D01*
X13599348Y-8470461D01*
X13615680Y-8477242D01*
X13633363Y-8477258D01*
X13649706Y-8470505D01*
X13662221Y-8458012D01*
X13669002Y-8441680D01*
X13669013Y-8428903D01*
X13699990Y-8428903D01*
X13706743Y-8445246D01*
X13719236Y-8457761D01*
X13735568Y-8464542D01*
X13753251Y-8464558D01*
X13769594Y-8457805D01*
X13782109Y-8445312D01*
X13783559Y-8441819D01*
X13784975Y-8445246D01*
X13797468Y-8457761D01*
X13813800Y-8464542D01*
X13831483Y-8464558D01*
X13847826Y-8457805D01*
X13860341Y-8445312D01*
X13867122Y-8428980D01*
X13867138Y-8411297D01*
X13860385Y-8394954D01*
X13847892Y-8382439D01*
X13831560Y-8375658D01*
X13813877Y-8375642D01*
X13797534Y-8382395D01*
X13785019Y-8394888D01*
X13783569Y-8398381D01*
X13782153Y-8394954D01*
X13769660Y-8382439D01*
X13753328Y-8375658D01*
X13735645Y-8375642D01*
X13719302Y-8382395D01*
X13706787Y-8394888D01*
X13700006Y-8411220D01*
X13699990Y-8428903D01*
X13669013Y-8428903D01*
X13669018Y-8423997D01*
X13662265Y-8407654D01*
X13649772Y-8395139D01*
X13633440Y-8388358D01*
X13615757Y-8388342D01*
X13599414Y-8395095D01*
X13586899Y-8407588D01*
X13580118Y-8423920D01*
X13580102Y-8441603D01*
X13488675Y-8441603D01*
X13489170Y-8440410D01*
X13489186Y-8422727D01*
X13482433Y-8406384D01*
X13469940Y-8393869D01*
X13453608Y-8387088D01*
X13435925Y-8387072D01*
X13419582Y-8393825D01*
X13407067Y-8406318D01*
X13400286Y-8422650D01*
X13400270Y-8440333D01*
X13385200Y-8440333D01*
X13388332Y-8432790D01*
X13388348Y-8415107D01*
X13381595Y-8398764D01*
X13369102Y-8386249D01*
X13352770Y-8379468D01*
X13335087Y-8379452D01*
X13318744Y-8386205D01*
X13306229Y-8398698D01*
X13299448Y-8415030D01*
X13299432Y-8432713D01*
X12713965Y-8432713D01*
X12713980Y-8415892D01*
X12705490Y-8395346D01*
X12689785Y-8379613D01*
X12669254Y-8371088D01*
X12647023Y-8371068D01*
X12626478Y-8379558D01*
X12610745Y-8395263D01*
X12602220Y-8415794D01*
X12602200Y-8438025D01*
X12160504Y-8438025D01*
X12160504Y-8350163D01*
X13379442Y-8350163D01*
X13386195Y-8366506D01*
X13398688Y-8379021D01*
X13415020Y-8385802D01*
X13432703Y-8385818D01*
X13449046Y-8379065D01*
X13461561Y-8366572D01*
X13468342Y-8350240D01*
X13468344Y-8347623D01*
X13938242Y-8347623D01*
X13944995Y-8363966D01*
X13957488Y-8376481D01*
X13964300Y-8379309D01*
X13958062Y-8381887D01*
X13945547Y-8394380D01*
X13938766Y-8410712D01*
X13938750Y-8428395D01*
X13945503Y-8444738D01*
X13957996Y-8457253D01*
X13974328Y-8464034D01*
X13992011Y-8464050D01*
X14008354Y-8457297D01*
X14020869Y-8444804D01*
X14027650Y-8428472D01*
X14027666Y-8410789D01*
X14023501Y-8400709D01*
X14398744Y-8400709D01*
X14405497Y-8417052D01*
X14417990Y-8429567D01*
X14434322Y-8436348D01*
X14452005Y-8436364D01*
X14468348Y-8429611D01*
X14480863Y-8417118D01*
X14487644Y-8400786D01*
X14487660Y-8383103D01*
X14480907Y-8366760D01*
X14468414Y-8354245D01*
X14464700Y-8352703D01*
X14820892Y-8352703D01*
X14827645Y-8369046D01*
X14840138Y-8381561D01*
X14856470Y-8388342D01*
X14874153Y-8388358D01*
X14890496Y-8381605D01*
X14903011Y-8369112D01*
X14909792Y-8352780D01*
X14909808Y-8335097D01*
X14903055Y-8318754D01*
X14890562Y-8306239D01*
X14874230Y-8299458D01*
X14856547Y-8299442D01*
X14840204Y-8306195D01*
X14827689Y-8318688D01*
X14820908Y-8335020D01*
X14820892Y-8352703D01*
X14464700Y-8352703D01*
X14452082Y-8347464D01*
X14434399Y-8347448D01*
X14418056Y-8354201D01*
X14405541Y-8366694D01*
X14398760Y-8383026D01*
X14398744Y-8400709D01*
X14023501Y-8400709D01*
X14020913Y-8394446D01*
X14008420Y-8381931D01*
X14001608Y-8379102D01*
X14007846Y-8376525D01*
X14020361Y-8364032D01*
X14027142Y-8347700D01*
X14027158Y-8330017D01*
X14020405Y-8313674D01*
X14007912Y-8301159D01*
X13991580Y-8294378D01*
X13973897Y-8294362D01*
X13957554Y-8301115D01*
X13945039Y-8313608D01*
X13938258Y-8329940D01*
X13938242Y-8347623D01*
X13468344Y-8347623D01*
X13468358Y-8332557D01*
X13461605Y-8316214D01*
X13449112Y-8303699D01*
X13432780Y-8296918D01*
X13415097Y-8296902D01*
X13398754Y-8303655D01*
X13386239Y-8316148D01*
X13379458Y-8332480D01*
X13379442Y-8350163D01*
X12160504Y-8350163D01*
X12160504Y-8271423D01*
X14018252Y-8271423D01*
X14025005Y-8287766D01*
X14037498Y-8300281D01*
X14053830Y-8307062D01*
X14071513Y-8307078D01*
X14087856Y-8300325D01*
X14100371Y-8287832D01*
X14107152Y-8271500D01*
X14107154Y-8268883D01*
X14182082Y-8268883D01*
X14188835Y-8285226D01*
X14201328Y-8297741D01*
X14208234Y-8300608D01*
X14203934Y-8302385D01*
X14191419Y-8314878D01*
X14184638Y-8331210D01*
X14184622Y-8348893D01*
X14191375Y-8365236D01*
X14203868Y-8377751D01*
X14220200Y-8384532D01*
X14237883Y-8384548D01*
X14254226Y-8377795D01*
X14266741Y-8365302D01*
X14273522Y-8348970D01*
X14273538Y-8331287D01*
X14266785Y-8314944D01*
X14254292Y-8302429D01*
X14247386Y-8299562D01*
X14251686Y-8297785D01*
X14257738Y-8291743D01*
X14541238Y-8291743D01*
X14547991Y-8308086D01*
X14560484Y-8320601D01*
X14576816Y-8327382D01*
X14594499Y-8327398D01*
X14610842Y-8320645D01*
X14623357Y-8308152D01*
X14630138Y-8291820D01*
X14630154Y-8274137D01*
X14623401Y-8257794D01*
X14610908Y-8245279D01*
X14594576Y-8238498D01*
X14576893Y-8238482D01*
X14560550Y-8245235D01*
X14548035Y-8257728D01*
X14541254Y-8274060D01*
X14541238Y-8291743D01*
X14257738Y-8291743D01*
X14264201Y-8285292D01*
X14270982Y-8268960D01*
X14270998Y-8251277D01*
X14264245Y-8234934D01*
X14251752Y-8222419D01*
X14239715Y-8217421D01*
X14254226Y-8211425D01*
X14259006Y-8206653D01*
X15148552Y-8206653D01*
X15155305Y-8222996D01*
X15167798Y-8235511D01*
X15184130Y-8242292D01*
X15201813Y-8242308D01*
X15218156Y-8235555D01*
X15230671Y-8223062D01*
X15237452Y-8206730D01*
X15237468Y-8189047D01*
X15230715Y-8172704D01*
X15218222Y-8160189D01*
X15216955Y-8159663D01*
X15281902Y-8159663D01*
X15288655Y-8176006D01*
X15301148Y-8188521D01*
X15317480Y-8195302D01*
X15335163Y-8195318D01*
X15351506Y-8188565D01*
X15364021Y-8176072D01*
X15370802Y-8159740D01*
X15370818Y-8142057D01*
X15364065Y-8125714D01*
X15351572Y-8113199D01*
X15335240Y-8106418D01*
X15317557Y-8106402D01*
X15301214Y-8113155D01*
X15288699Y-8125648D01*
X15281918Y-8141980D01*
X15281902Y-8159663D01*
X15216955Y-8159663D01*
X15201890Y-8153408D01*
X15184207Y-8153392D01*
X15167864Y-8160145D01*
X15155349Y-8172638D01*
X15148568Y-8188970D01*
X15148552Y-8206653D01*
X14259006Y-8206653D01*
X14266741Y-8198932D01*
X14273522Y-8182600D01*
X14273535Y-8167791D01*
X14399506Y-8167791D01*
X14406259Y-8184134D01*
X14418752Y-8196649D01*
X14435084Y-8203430D01*
X14452767Y-8203446D01*
X14469110Y-8196693D01*
X14481625Y-8184200D01*
X14488406Y-8167868D01*
X14488410Y-8163981D01*
X14973800Y-8163981D01*
X14980553Y-8180324D01*
X14993046Y-8192839D01*
X15009378Y-8199620D01*
X15027061Y-8199636D01*
X15043404Y-8192883D01*
X15055919Y-8180390D01*
X15062700Y-8164058D01*
X15062716Y-8146375D01*
X15055963Y-8130032D01*
X15043470Y-8117517D01*
X15027138Y-8110736D01*
X15009455Y-8110720D01*
X14993112Y-8117473D01*
X14980597Y-8129966D01*
X14973816Y-8146298D01*
X14973800Y-8163981D01*
X14488410Y-8163981D01*
X14488422Y-8150185D01*
X14481669Y-8133842D01*
X14469176Y-8121327D01*
X14452844Y-8114546D01*
X14435161Y-8114530D01*
X14418818Y-8121283D01*
X14406303Y-8133776D01*
X14399522Y-8150108D01*
X14399506Y-8167791D01*
X14273535Y-8167791D01*
X14273538Y-8164917D01*
X14266785Y-8148574D01*
X14254292Y-8136059D01*
X14237960Y-8129278D01*
X14220277Y-8129262D01*
X14203934Y-8136015D01*
X14191419Y-8148508D01*
X14184638Y-8164840D01*
X14184622Y-8182523D01*
X14191375Y-8198866D01*
X14203868Y-8211381D01*
X14215905Y-8216379D01*
X14201394Y-8222375D01*
X14188879Y-8234868D01*
X14182098Y-8251200D01*
X14182082Y-8268883D01*
X14107154Y-8268883D01*
X14107168Y-8253817D01*
X14100415Y-8237474D01*
X14087922Y-8224959D01*
X14071590Y-8218178D01*
X14053907Y-8218162D01*
X14037564Y-8224915D01*
X14025049Y-8237408D01*
X14018268Y-8253740D01*
X14018252Y-8271423D01*
X12160504Y-8271423D01*
X12160504Y-8210440D01*
X12242028Y-8210440D01*
X12250518Y-8230986D01*
X12266223Y-8246719D01*
X12286754Y-8255244D01*
X12308984Y-8255264D01*
X12329530Y-8246774D01*
X12345263Y-8231069D01*
X12353788Y-8210538D01*
X12353808Y-8188307D01*
X12352458Y-8185040D01*
X12601692Y-8185040D01*
X12610182Y-8205586D01*
X12625887Y-8221319D01*
X12646418Y-8229844D01*
X12668648Y-8229864D01*
X12689194Y-8221374D01*
X12704927Y-8205669D01*
X12712429Y-8187603D01*
X13135602Y-8187603D01*
X13142355Y-8203946D01*
X13154848Y-8216461D01*
X13171180Y-8223242D01*
X13188863Y-8223258D01*
X13205206Y-8216505D01*
X13217721Y-8204012D01*
X13224502Y-8187680D01*
X13224518Y-8169997D01*
X13217765Y-8153654D01*
X13205272Y-8141139D01*
X13188940Y-8134358D01*
X13171257Y-8134342D01*
X13154914Y-8141095D01*
X13142399Y-8153588D01*
X13135618Y-8169920D01*
X13135602Y-8187603D01*
X12712429Y-8187603D01*
X12713452Y-8185138D01*
X12713472Y-8162907D01*
X12704982Y-8142362D01*
X12695968Y-8133332D01*
X12705435Y-8123881D01*
X12712726Y-8106323D01*
X13936972Y-8106323D01*
X13943725Y-8122666D01*
X13956218Y-8135181D01*
X13967090Y-8139695D01*
X13957554Y-8143635D01*
X13945039Y-8156128D01*
X13938258Y-8172460D01*
X13938242Y-8190143D01*
X13944995Y-8206486D01*
X13957488Y-8219001D01*
X13973820Y-8225782D01*
X13991503Y-8225798D01*
X14007846Y-8219045D01*
X14020361Y-8206552D01*
X14027142Y-8190220D01*
X14027158Y-8172537D01*
X14020405Y-8156194D01*
X14007912Y-8143679D01*
X13997040Y-8139165D01*
X14006576Y-8135225D01*
X14019091Y-8122732D01*
X14025872Y-8106400D01*
X14025876Y-8102513D01*
X14093182Y-8102513D01*
X14099935Y-8118856D01*
X14112428Y-8131371D01*
X14128760Y-8138152D01*
X14146443Y-8138168D01*
X14162786Y-8131415D01*
X14175301Y-8118922D01*
X14182082Y-8102590D01*
X14182098Y-8084907D01*
X14175345Y-8068564D01*
X14162852Y-8056049D01*
X14146520Y-8049268D01*
X14128837Y-8049252D01*
X14112494Y-8056005D01*
X14099979Y-8068498D01*
X14093198Y-8084830D01*
X14093182Y-8102513D01*
X14025876Y-8102513D01*
X14025888Y-8088717D01*
X14019135Y-8072374D01*
X14006642Y-8059859D01*
X13990310Y-8053078D01*
X13972627Y-8053062D01*
X13956284Y-8059815D01*
X13943769Y-8072308D01*
X13936988Y-8088640D01*
X13936972Y-8106323D01*
X12712726Y-8106323D01*
X12713960Y-8103350D01*
X12713980Y-8081119D01*
X12705490Y-8060574D01*
X12689785Y-8044841D01*
X12669254Y-8036316D01*
X12647023Y-8036296D01*
X12626478Y-8044786D01*
X12610745Y-8060491D01*
X12602220Y-8081022D01*
X12602200Y-8103252D01*
X12610690Y-8123798D01*
X12619704Y-8132828D01*
X12610237Y-8142279D01*
X12601712Y-8162810D01*
X12601692Y-8185040D01*
X12352458Y-8185040D01*
X12345318Y-8167762D01*
X12329613Y-8152029D01*
X12309082Y-8143504D01*
X12286851Y-8143484D01*
X12266306Y-8151974D01*
X12250573Y-8167679D01*
X12242048Y-8188210D01*
X12242028Y-8210440D01*
X12160504Y-8210440D01*
X12160504Y-8002016D01*
X15455392Y-8002016D01*
X15455392Y-8288077D01*
X15455392Y-8288077D01*
G37*
X15455392Y-8288077D02*
X15442428Y-8282694D01*
X15424745Y-8282678D01*
X15408402Y-8289431D01*
X15395887Y-8301924D01*
X15389106Y-8318256D01*
X15389090Y-8335939D01*
X15395843Y-8352282D01*
X15408336Y-8364797D01*
X15424668Y-8371578D01*
X15442351Y-8371594D01*
X15455392Y-8366205D01*
X15455392Y-8831326D01*
X15301388Y-8831326D01*
X15306032Y-8820140D01*
X15306034Y-8817891D01*
X15320020Y-8823698D01*
X15337703Y-8823714D01*
X15354046Y-8816961D01*
X15366561Y-8804468D01*
X15373342Y-8788136D01*
X15373358Y-8770453D01*
X15366605Y-8754110D01*
X15354112Y-8741595D01*
X15337780Y-8734814D01*
X15320097Y-8734798D01*
X15303754Y-8741551D01*
X15291239Y-8754044D01*
X15284458Y-8770376D01*
X15284456Y-8772625D01*
X15270470Y-8766818D01*
X15252787Y-8766802D01*
X15236444Y-8773555D01*
X15223929Y-8786048D01*
X15217148Y-8802380D01*
X15217132Y-8820063D01*
X15221786Y-8831326D01*
X15209774Y-8831326D01*
X15207303Y-8831826D01*
X15205222Y-8833248D01*
X15203858Y-8835368D01*
X15203424Y-8837676D01*
X15203424Y-9726655D01*
X15162513Y-9726523D01*
X15163038Y-9723882D01*
X15163038Y-9694540D01*
X15170219Y-9687372D01*
X15177000Y-9671040D01*
X15177016Y-9653357D01*
X15170263Y-9637014D01*
X15157770Y-9624499D01*
X15141438Y-9617718D01*
X15123755Y-9617702D01*
X15107412Y-9624455D01*
X15094897Y-9636948D01*
X15088116Y-9653280D01*
X15088100Y-9670963D01*
X15094853Y-9687306D01*
X15102078Y-9694544D01*
X15102078Y-9711257D01*
X15090869Y-9722466D01*
X15091656Y-9720570D01*
X15091672Y-9702887D01*
X15084919Y-9686544D01*
X15072426Y-9674029D01*
X15056094Y-9667248D01*
X15038411Y-9667232D01*
X15022068Y-9673985D01*
X15009553Y-9686478D01*
X15002772Y-9702810D01*
X15002756Y-9720493D01*
X15005037Y-9726012D01*
X14406171Y-9724071D01*
X14397040Y-9714923D01*
X14380708Y-9708142D01*
X14363025Y-9708126D01*
X14346682Y-9714879D01*
X14337697Y-9723849D01*
X14302497Y-9723735D01*
X14303494Y-9721332D01*
X14303510Y-9703649D01*
X14296757Y-9687306D01*
X14284264Y-9674791D01*
X14267932Y-9668010D01*
X14250249Y-9667994D01*
X14233906Y-9674747D01*
X14221391Y-9687240D01*
X14214610Y-9703572D01*
X14214594Y-9721255D01*
X14215502Y-9723453D01*
X13460508Y-9721005D01*
X13449366Y-9709843D01*
X13433034Y-9703062D01*
X13415351Y-9703046D01*
X13399008Y-9709799D01*
X13388018Y-9720770D01*
X12918446Y-9719248D01*
X12918448Y-9717365D01*
X12911695Y-9701022D01*
X12899202Y-9688507D01*
X12882870Y-9681726D01*
X12865187Y-9681710D01*
X12848844Y-9688463D01*
X12836329Y-9700956D01*
X12829548Y-9717288D01*
X12829546Y-9718960D01*
X12160504Y-9716791D01*
X12160504Y-9581555D01*
X12985234Y-9581555D01*
X12991987Y-9597898D01*
X13004480Y-9610413D01*
X13020812Y-9617194D01*
X13038495Y-9617210D01*
X13054838Y-9610457D01*
X13067353Y-9597964D01*
X13074134Y-9581632D01*
X13074143Y-9571406D01*
X13093117Y-9552432D01*
X13149238Y-9552432D01*
X13145016Y-9562602D01*
X13145000Y-9580285D01*
X13151753Y-9596628D01*
X13164246Y-9609143D01*
X13180578Y-9615924D01*
X13198261Y-9615940D01*
X13214604Y-9609187D01*
X13227119Y-9596694D01*
X13233900Y-9580362D01*
X13233909Y-9570136D01*
X13432207Y-9371838D01*
X13484445Y-9371838D01*
X13483598Y-9373880D01*
X13483582Y-9391563D01*
X13490335Y-9407906D01*
X13502828Y-9420421D01*
X13519160Y-9427202D01*
X13536843Y-9427218D01*
X13553186Y-9420465D01*
X13565701Y-9407972D01*
X13572482Y-9391640D01*
X13572498Y-9373957D01*
X13571622Y-9371838D01*
X13571982Y-9371838D01*
X13583646Y-9369518D01*
X13593535Y-9362911D01*
X13650214Y-9306231D01*
X13650214Y-9416109D01*
X13593393Y-9472930D01*
X13412470Y-9472930D01*
X13400806Y-9475250D01*
X13393871Y-9479884D01*
X13390917Y-9481857D01*
X13344472Y-9528303D01*
X13334325Y-9528294D01*
X13317982Y-9535047D01*
X13305467Y-9547540D01*
X13298686Y-9563872D01*
X13298670Y-9581555D01*
X13305423Y-9597898D01*
X13317916Y-9610413D01*
X13334248Y-9617194D01*
X13351931Y-9617210D01*
X13368274Y-9610457D01*
X13380789Y-9597964D01*
X13387570Y-9581632D01*
X13387579Y-9571406D01*
X13425095Y-9533890D01*
X13488901Y-9533890D01*
X13477494Y-9538603D01*
X13464979Y-9551096D01*
X13458198Y-9567428D01*
X13458182Y-9585111D01*
X13464935Y-9601454D01*
X13477428Y-9613969D01*
X13493760Y-9620750D01*
X13511443Y-9620766D01*
X13527786Y-9614013D01*
X13540301Y-9601520D01*
X13547082Y-9585188D01*
X13547091Y-9574962D01*
X13556921Y-9565132D01*
X13633227Y-9565132D01*
X13632696Y-9566412D01*
X13632680Y-9584095D01*
X13639433Y-9600438D01*
X13651926Y-9612953D01*
X13668258Y-9619734D01*
X13685941Y-9619750D01*
X13702284Y-9612997D01*
X13709521Y-9605772D01*
X13850620Y-9605772D01*
X13862284Y-9603452D01*
X13872173Y-9596845D01*
X13905330Y-9563687D01*
X13909181Y-9573006D01*
X13921674Y-9585521D01*
X13938006Y-9592302D01*
X13955689Y-9592318D01*
X13972032Y-9585565D01*
X13984547Y-9573072D01*
X13991328Y-9556740D01*
X13991337Y-9546514D01*
X14046449Y-9491402D01*
X14046446Y-9494687D01*
X14053199Y-9511030D01*
X14065692Y-9523545D01*
X14082024Y-9530326D01*
X14099707Y-9530342D01*
X14116050Y-9523589D01*
X14128565Y-9511096D01*
X14135346Y-9494764D01*
X14135362Y-9477081D01*
X14128609Y-9460738D01*
X14116116Y-9448223D01*
X14099784Y-9441442D01*
X14096412Y-9441439D01*
X14156944Y-9380907D01*
X14156944Y-9433688D01*
X14151795Y-9438828D01*
X14145014Y-9455160D01*
X14144998Y-9472843D01*
X14151751Y-9489186D01*
X14164244Y-9501701D01*
X14180576Y-9508482D01*
X14198259Y-9508498D01*
X14214602Y-9501745D01*
X14225277Y-9491088D01*
X14235364Y-9501193D01*
X14251696Y-9507974D01*
X14269379Y-9507990D01*
X14285722Y-9501237D01*
X14298237Y-9488744D01*
X14305018Y-9472412D01*
X14305034Y-9454729D01*
X14298281Y-9438386D01*
X14291056Y-9431149D01*
X14291056Y-9406004D01*
X14294038Y-9408991D01*
X14310370Y-9415772D01*
X14327124Y-9415787D01*
X14327124Y-9438772D01*
X14319943Y-9445940D01*
X14313162Y-9462272D01*
X14313146Y-9479955D01*
X14319899Y-9496298D01*
X14332392Y-9508813D01*
X14348724Y-9515594D01*
X14366407Y-9515610D01*
X14382750Y-9508857D01*
X14395265Y-9496364D01*
X14402046Y-9480032D01*
X14402062Y-9462349D01*
X14395309Y-9446006D01*
X14388084Y-9438769D01*
X14388084Y-9401989D01*
X14481048Y-9309025D01*
X14481048Y-9428104D01*
X14473867Y-9435272D01*
X14467086Y-9451604D01*
X14467070Y-9469287D01*
X14473823Y-9485630D01*
X14486316Y-9498145D01*
X14502648Y-9504926D01*
X14520331Y-9504942D01*
X14536674Y-9498189D01*
X14549189Y-9485696D01*
X14555970Y-9469364D01*
X14555986Y-9451681D01*
X14549233Y-9435338D01*
X14542008Y-9428101D01*
X14542008Y-9320709D01*
X14551410Y-9311307D01*
X14551398Y-9324761D01*
X14558151Y-9341104D01*
X14570644Y-9353619D01*
X14586976Y-9360400D01*
X14604659Y-9360416D01*
X14621002Y-9353663D01*
X14631162Y-9343521D01*
X14631162Y-9452996D01*
X14623981Y-9460164D01*
X14617200Y-9476496D01*
X14617184Y-9494179D01*
X14623937Y-9510522D01*
X14636430Y-9523037D01*
X14652762Y-9529818D01*
X14670445Y-9529834D01*
X14686788Y-9523081D01*
X14699303Y-9510588D01*
X14706084Y-9494256D01*
X14706089Y-9488719D01*
X14706380Y-9490182D01*
X14712987Y-9500071D01*
X14733525Y-9520608D01*
X14733516Y-9530755D01*
X14740269Y-9547098D01*
X14752762Y-9559613D01*
X14769094Y-9566394D01*
X14786777Y-9566410D01*
X14803120Y-9559657D01*
X14815635Y-9547164D01*
X14822416Y-9530832D01*
X14822424Y-9522097D01*
X15047712Y-9522097D01*
X15056202Y-9542642D01*
X15071907Y-9558375D01*
X15092438Y-9566900D01*
X15114668Y-9566920D01*
X15135214Y-9558430D01*
X15150947Y-9542725D01*
X15159472Y-9522194D01*
X15159492Y-9499964D01*
X15151002Y-9479418D01*
X15135297Y-9463685D01*
X15114766Y-9455160D01*
X15092535Y-9455140D01*
X15071990Y-9463630D01*
X15056257Y-9479335D01*
X15047732Y-9499866D01*
X15047712Y-9522097D01*
X14822424Y-9522097D01*
X14822432Y-9513149D01*
X14815679Y-9496806D01*
X14803186Y-9484291D01*
X14786854Y-9477510D01*
X14776628Y-9477501D01*
X14765020Y-9465893D01*
X14765020Y-9306231D01*
X14786614Y-9284637D01*
X14786602Y-9298091D01*
X14793355Y-9314434D01*
X14805848Y-9326949D01*
X14822180Y-9333730D01*
X14839863Y-9333746D01*
X14856206Y-9326993D01*
X14868721Y-9314500D01*
X14875502Y-9298168D01*
X14875514Y-9284375D01*
X15070066Y-9284375D01*
X15076819Y-9300718D01*
X15089312Y-9313233D01*
X15105644Y-9320014D01*
X15123327Y-9320030D01*
X15139670Y-9313277D01*
X15152185Y-9300784D01*
X15158966Y-9284452D01*
X15158982Y-9266769D01*
X15152229Y-9250426D01*
X15139736Y-9237911D01*
X15123404Y-9231130D01*
X15105721Y-9231114D01*
X15089378Y-9237867D01*
X15076863Y-9250360D01*
X15070082Y-9266692D01*
X15070066Y-9284375D01*
X14875514Y-9284375D01*
X14875518Y-9280485D01*
X14868765Y-9264142D01*
X14856272Y-9251627D01*
X14839940Y-9244846D01*
X14822257Y-9244830D01*
X14805914Y-9251583D01*
X14796008Y-9261472D01*
X14796008Y-8895755D01*
X14943574Y-8895755D01*
X14950327Y-8912098D01*
X14962820Y-8924613D01*
X14979152Y-8931394D01*
X14996835Y-8931410D01*
X15013178Y-8924657D01*
X15025693Y-8912164D01*
X15032474Y-8895832D01*
X15032490Y-8878149D01*
X15025737Y-8861806D01*
X15013244Y-8849291D01*
X14996912Y-8842510D01*
X14979229Y-8842494D01*
X14962886Y-8849247D01*
X14950371Y-8861740D01*
X14943590Y-8878072D01*
X14943574Y-8895755D01*
X14796008Y-8895755D01*
X14796008Y-8814983D01*
X14886170Y-8814983D01*
X14892923Y-8831326D01*
X14905416Y-8843841D01*
X14921748Y-8850622D01*
X14939431Y-8850638D01*
X14955774Y-8843885D01*
X14968289Y-8831392D01*
X14975070Y-8815060D01*
X14975086Y-8797377D01*
X14969213Y-8783164D01*
X14977044Y-8791009D01*
X14993376Y-8797790D01*
X15011059Y-8797806D01*
X15027402Y-8791053D01*
X15039917Y-8778560D01*
X15046698Y-8762228D01*
X15046714Y-8744545D01*
X15039961Y-8728202D01*
X15032498Y-8720727D01*
X15118070Y-8720727D01*
X15126560Y-8741272D01*
X15142265Y-8757005D01*
X15162796Y-8765530D01*
X15185026Y-8765550D01*
X15205572Y-8757060D01*
X15221305Y-8741355D01*
X15229830Y-8720824D01*
X15229850Y-8698594D01*
X15221360Y-8678048D01*
X15205655Y-8662315D01*
X15185124Y-8653790D01*
X15162893Y-8653770D01*
X15142348Y-8662260D01*
X15126615Y-8677965D01*
X15118090Y-8698496D01*
X15118070Y-8720727D01*
X15032498Y-8720727D01*
X15027468Y-8715687D01*
X15011136Y-8708906D01*
X15000839Y-8708897D01*
X15014702Y-8703169D01*
X15027217Y-8690676D01*
X15033998Y-8674344D01*
X15034014Y-8656661D01*
X15032778Y-8653671D01*
X15302982Y-8653671D01*
X15311472Y-8674216D01*
X15327177Y-8689949D01*
X15347708Y-8698474D01*
X15369938Y-8698494D01*
X15390484Y-8690004D01*
X15406217Y-8674299D01*
X15414742Y-8653768D01*
X15414762Y-8631538D01*
X15406272Y-8610992D01*
X15390567Y-8595259D01*
X15370036Y-8586734D01*
X15347805Y-8586714D01*
X15327260Y-8595204D01*
X15311527Y-8610909D01*
X15303002Y-8631440D01*
X15302982Y-8653671D01*
X15032778Y-8653671D01*
X15027261Y-8640318D01*
X15014768Y-8627803D01*
X14998436Y-8621022D01*
X14980753Y-8621006D01*
X14964410Y-8627759D01*
X14951895Y-8640252D01*
X14945114Y-8656584D01*
X14945098Y-8674267D01*
X14951851Y-8690610D01*
X14964344Y-8703125D01*
X14980676Y-8709906D01*
X14990973Y-8709915D01*
X14977110Y-8715643D01*
X14964595Y-8728136D01*
X14957814Y-8744468D01*
X14957798Y-8762151D01*
X14963671Y-8776364D01*
X14955840Y-8768519D01*
X14939508Y-8761738D01*
X14921825Y-8761722D01*
X14905482Y-8768475D01*
X14892967Y-8780968D01*
X14886186Y-8797300D01*
X14886170Y-8814983D01*
X14796008Y-8814983D01*
X14796008Y-8722360D01*
X14793688Y-8710696D01*
X14787081Y-8700807D01*
X14679260Y-8592987D01*
X15147282Y-8592987D01*
X15154035Y-8609330D01*
X15166528Y-8621845D01*
X15182860Y-8628626D01*
X15200543Y-8628642D01*
X15216886Y-8621889D01*
X15229401Y-8609396D01*
X15236182Y-8593064D01*
X15236198Y-8575381D01*
X15229445Y-8559038D01*
X15216952Y-8546523D01*
X15200620Y-8539742D01*
X15182937Y-8539726D01*
X15166594Y-8546479D01*
X15154079Y-8558972D01*
X15147298Y-8575304D01*
X15147282Y-8592987D01*
X14679260Y-8592987D01*
X14661605Y-8575331D01*
X14651716Y-8568724D01*
X14640052Y-8566404D01*
X14595219Y-8566404D01*
X14601005Y-8560628D01*
X14607786Y-8544296D01*
X14607802Y-8526613D01*
X14601049Y-8510270D01*
X14588556Y-8497755D01*
X14572224Y-8490974D01*
X14554541Y-8490958D01*
X14538198Y-8497711D01*
X14525683Y-8510204D01*
X14518902Y-8526536D01*
X14518891Y-8538282D01*
X14441516Y-8460907D01*
X14651982Y-8460907D01*
X14658735Y-8477250D01*
X14671228Y-8489765D01*
X14687560Y-8496546D01*
X14705243Y-8496562D01*
X14721586Y-8489809D01*
X14734101Y-8477316D01*
X14740882Y-8460984D01*
X14740884Y-8459383D01*
X14766536Y-8459383D01*
X14773289Y-8475726D01*
X14785782Y-8488241D01*
X14802114Y-8495022D01*
X14813530Y-8495032D01*
X14813526Y-8499007D01*
X14820279Y-8515350D01*
X14832772Y-8527865D01*
X14849104Y-8534646D01*
X14866787Y-8534662D01*
X14874393Y-8531519D01*
X15082766Y-8531519D01*
X15089519Y-8547862D01*
X15102012Y-8560377D01*
X15118344Y-8567158D01*
X15136027Y-8567174D01*
X15152370Y-8560421D01*
X15164885Y-8547928D01*
X15171666Y-8531596D01*
X15171682Y-8513913D01*
X15164929Y-8497570D01*
X15152436Y-8485055D01*
X15136104Y-8478274D01*
X15118421Y-8478258D01*
X15102078Y-8485011D01*
X15089563Y-8497504D01*
X15082782Y-8513836D01*
X15082766Y-8531519D01*
X14874393Y-8531519D01*
X14883130Y-8527909D01*
X14895645Y-8515416D01*
X14902426Y-8499084D01*
X14902442Y-8481401D01*
X14895689Y-8465058D01*
X14883196Y-8452543D01*
X14866864Y-8445762D01*
X14855448Y-8445752D01*
X14855452Y-8441777D01*
X14848699Y-8425434D01*
X14836206Y-8412919D01*
X14819874Y-8406138D01*
X14802191Y-8406122D01*
X14785848Y-8412875D01*
X14773333Y-8425368D01*
X14766552Y-8441700D01*
X14766536Y-8459383D01*
X14740884Y-8459383D01*
X14740898Y-8443301D01*
X14734145Y-8426958D01*
X14721652Y-8414443D01*
X14705320Y-8407662D01*
X14687637Y-8407646D01*
X14671294Y-8414399D01*
X14658779Y-8426892D01*
X14651998Y-8443224D01*
X14651982Y-8460907D01*
X14441516Y-8460907D01*
X14405767Y-8425158D01*
X14405068Y-8421644D01*
X14398461Y-8411755D01*
X14388572Y-8405148D01*
X14376908Y-8402828D01*
X14145260Y-8402828D01*
X14133596Y-8405148D01*
X14125270Y-8410712D01*
X14123707Y-8411755D01*
X14044967Y-8490495D01*
X14038360Y-8500384D01*
X14036040Y-8512048D01*
X14036040Y-8548756D01*
X14028859Y-8555924D01*
X14022078Y-8572256D01*
X14022073Y-8577123D01*
X14016595Y-8563864D01*
X14004102Y-8551349D01*
X13987770Y-8544568D01*
X13970087Y-8544552D01*
X13953744Y-8551305D01*
X13941229Y-8563798D01*
X13934448Y-8580130D01*
X13934432Y-8597813D01*
X13941185Y-8614156D01*
X13953678Y-8626671D01*
X13970010Y-8633452D01*
X13987693Y-8633468D01*
X14004036Y-8626715D01*
X14016551Y-8614222D01*
X14023332Y-8597890D01*
X14023336Y-8593023D01*
X14028815Y-8606282D01*
X14041238Y-8618726D01*
X14037818Y-8620139D01*
X14025303Y-8632632D01*
X14018522Y-8648964D01*
X14018513Y-8659190D01*
X14000263Y-8677439D01*
X13993656Y-8687328D01*
X13992699Y-8692137D01*
X13989040Y-8690618D01*
X13971357Y-8690602D01*
X13955014Y-8697355D01*
X13942499Y-8709848D01*
X13940944Y-8713594D01*
X13939633Y-8710422D01*
X13927140Y-8697907D01*
X13910808Y-8691126D01*
X13893125Y-8691110D01*
X13876782Y-8697863D01*
X13864267Y-8710356D01*
X13857486Y-8726688D01*
X13857470Y-8744371D01*
X13864223Y-8760714D01*
X13876716Y-8773229D01*
X13877774Y-8773668D01*
X13854684Y-8773668D01*
X13843020Y-8775988D01*
X13833131Y-8782595D01*
X13804683Y-8811043D01*
X13798076Y-8820932D01*
X13795756Y-8832596D01*
X13795756Y-8880931D01*
X13546943Y-9129744D01*
X13540345Y-9113774D01*
X13527852Y-9101259D01*
X13524739Y-9099967D01*
X13528548Y-9098393D01*
X13541063Y-9085900D01*
X13547844Y-9069568D01*
X13547860Y-9051885D01*
X13541107Y-9035542D01*
X13528614Y-9023027D01*
X13512282Y-9016246D01*
X13494599Y-9016230D01*
X13478256Y-9022983D01*
X13465741Y-9035476D01*
X13458960Y-9051808D01*
X13458944Y-9069491D01*
X13465697Y-9085834D01*
X13478190Y-9098349D01*
X13481303Y-9099641D01*
X13477494Y-9101215D01*
X13464979Y-9113708D01*
X13461475Y-9122147D01*
X13459065Y-9116314D01*
X13446572Y-9103799D01*
X13430240Y-9097018D01*
X13412557Y-9097002D01*
X13396214Y-9103755D01*
X13383699Y-9116248D01*
X13376918Y-9132580D01*
X13376902Y-9150263D01*
X13383655Y-9166606D01*
X13396148Y-9179121D01*
X13412480Y-9185902D01*
X13430163Y-9185918D01*
X13446506Y-9179165D01*
X13459021Y-9166672D01*
X13462525Y-9158233D01*
X13464935Y-9164066D01*
X13477428Y-9176581D01*
X13493452Y-9183235D01*
X13185215Y-9491472D01*
X13080492Y-9491472D01*
X13068828Y-9493792D01*
X13058939Y-9500399D01*
X13031036Y-9528303D01*
X13020889Y-9528294D01*
X13004546Y-9535047D01*
X12992031Y-9547540D01*
X12985250Y-9563872D01*
X12985234Y-9581555D01*
X12160504Y-9581555D01*
X12160504Y-9412274D01*
X12352764Y-9412274D01*
X12368585Y-9450564D01*
X12397854Y-9479884D01*
X12436116Y-9495772D01*
X12477546Y-9495808D01*
X12515835Y-9479987D01*
X12545156Y-9450718D01*
X12561044Y-9412456D01*
X12561044Y-9412274D01*
X12606764Y-9412274D01*
X12622585Y-9450564D01*
X12651854Y-9479884D01*
X12690116Y-9495772D01*
X12731546Y-9495808D01*
X12769835Y-9479987D01*
X12799156Y-9450718D01*
X12815044Y-9412456D01*
X12815080Y-9371026D01*
X12801001Y-9336953D01*
X13162272Y-9336953D01*
X13169025Y-9353296D01*
X13181518Y-9365811D01*
X13197850Y-9372592D01*
X13215533Y-9372608D01*
X13231876Y-9365855D01*
X13244391Y-9353362D01*
X13251172Y-9337030D01*
X13251188Y-9319347D01*
X13244435Y-9303004D01*
X13231942Y-9290489D01*
X13215610Y-9283708D01*
X13197927Y-9283692D01*
X13181584Y-9290445D01*
X13169069Y-9302938D01*
X13162288Y-9319270D01*
X13162272Y-9336953D01*
X12801001Y-9336953D01*
X12799259Y-9332737D01*
X12769990Y-9303416D01*
X12731728Y-9287528D01*
X12690298Y-9287492D01*
X12652008Y-9303313D01*
X12622688Y-9332582D01*
X12606800Y-9370844D01*
X12606764Y-9412274D01*
X12561044Y-9412274D01*
X12561080Y-9371026D01*
X12545259Y-9332737D01*
X12515990Y-9303416D01*
X12477728Y-9287528D01*
X12436298Y-9287492D01*
X12398008Y-9303313D01*
X12368688Y-9332582D01*
X12352800Y-9370844D01*
X12352764Y-9412274D01*
X12160504Y-9412274D01*
X12160504Y-9245237D01*
X12761712Y-9245237D01*
X12770202Y-9265782D01*
X12785907Y-9281515D01*
X12806438Y-9290040D01*
X12828668Y-9290060D01*
X12849214Y-9281570D01*
X12864947Y-9265865D01*
X12873472Y-9245334D01*
X12873492Y-9223104D01*
X12865002Y-9202558D01*
X12853368Y-9190903D01*
X13051782Y-9190903D01*
X13058535Y-9207246D01*
X13071028Y-9219761D01*
X13087360Y-9226542D01*
X13105043Y-9226558D01*
X13121386Y-9219805D01*
X13133901Y-9207312D01*
X13140682Y-9190980D01*
X13140698Y-9173297D01*
X13133945Y-9156954D01*
X13121452Y-9144439D01*
X13105120Y-9137658D01*
X13087437Y-9137642D01*
X13071094Y-9144395D01*
X13058579Y-9156888D01*
X13051798Y-9173220D01*
X13051782Y-9190903D01*
X12853368Y-9190903D01*
X12849297Y-9186825D01*
X12828766Y-9178300D01*
X12806535Y-9178280D01*
X12785990Y-9186770D01*
X12770257Y-9202475D01*
X12761732Y-9223006D01*
X12761712Y-9245237D01*
X12160504Y-9245237D01*
X12160504Y-9101473D01*
X12332452Y-9101473D01*
X12340942Y-9122018D01*
X12356647Y-9137751D01*
X12377178Y-9146276D01*
X12399408Y-9146296D01*
X12419954Y-9137806D01*
X12431925Y-9125857D01*
X12586452Y-9125857D01*
X12594942Y-9146402D01*
X12610647Y-9162135D01*
X12631178Y-9170660D01*
X12653408Y-9170680D01*
X12673954Y-9162190D01*
X12689687Y-9146485D01*
X12698212Y-9125954D01*
X12698232Y-9103724D01*
X12694267Y-9094129D01*
X12841724Y-9094129D01*
X12848477Y-9110472D01*
X12860970Y-9122987D01*
X12877302Y-9129768D01*
X12894985Y-9129784D01*
X12911328Y-9123031D01*
X12923843Y-9110538D01*
X12930624Y-9094206D01*
X12930640Y-9076523D01*
X12923887Y-9060180D01*
X12911394Y-9047665D01*
X12895062Y-9040884D01*
X12877379Y-9040868D01*
X12861036Y-9047621D01*
X12848521Y-9060114D01*
X12841740Y-9076446D01*
X12841724Y-9094129D01*
X12694267Y-9094129D01*
X12689742Y-9083178D01*
X12674037Y-9067445D01*
X12653506Y-9058920D01*
X12631275Y-9058900D01*
X12610730Y-9067390D01*
X12594997Y-9083095D01*
X12586472Y-9103626D01*
X12586452Y-9125857D01*
X12431925Y-9125857D01*
X12435687Y-9122101D01*
X12444212Y-9101570D01*
X12444232Y-9079340D01*
X12435742Y-9058794D01*
X12420037Y-9043061D01*
X12399506Y-9034536D01*
X12377275Y-9034516D01*
X12356730Y-9043006D01*
X12340997Y-9058711D01*
X12332472Y-9079242D01*
X12332452Y-9101473D01*
X12160504Y-9101473D01*
X12160504Y-8927737D01*
X12228312Y-8927737D01*
X12236802Y-8948282D01*
X12252507Y-8964015D01*
X12273038Y-8972540D01*
X12295268Y-8972560D01*
X12315814Y-8964070D01*
X12327022Y-8952883D01*
X12432528Y-8952883D01*
X12441018Y-8973428D01*
X12456723Y-8989161D01*
X12477254Y-8997686D01*
X12499484Y-8997706D01*
X12520030Y-8989216D01*
X12535763Y-8973511D01*
X12544288Y-8952980D01*
X12544288Y-8952883D01*
X12774158Y-8952883D01*
X12782648Y-8973428D01*
X12798353Y-8989161D01*
X12818884Y-8997686D01*
X12841114Y-8997706D01*
X12861660Y-8989216D01*
X12863176Y-8987703D01*
X13298162Y-8987703D01*
X13304915Y-9004046D01*
X13317408Y-9016561D01*
X13333740Y-9023342D01*
X13351423Y-9023358D01*
X13367766Y-9016605D01*
X13380281Y-9004112D01*
X13382733Y-8998207D01*
X13386195Y-9006586D01*
X13398688Y-9019101D01*
X13415020Y-9025882D01*
X13432703Y-9025898D01*
X13449046Y-9019145D01*
X13461561Y-9006652D01*
X13468342Y-8990320D01*
X13468358Y-8972637D01*
X13461605Y-8956294D01*
X13449112Y-8943779D01*
X13432780Y-8936998D01*
X13415097Y-8936982D01*
X13398754Y-8943735D01*
X13386239Y-8956228D01*
X13383787Y-8962133D01*
X13380325Y-8953754D01*
X13367832Y-8941239D01*
X13351500Y-8934458D01*
X13333817Y-8934442D01*
X13317474Y-8941195D01*
X13304959Y-8953688D01*
X13298178Y-8970020D01*
X13298162Y-8987703D01*
X12863176Y-8987703D01*
X12877393Y-8973511D01*
X12885918Y-8952980D01*
X12885938Y-8930750D01*
X12877448Y-8910204D01*
X12863532Y-8896263D01*
X13050766Y-8896263D01*
X13057519Y-8912606D01*
X13070012Y-8925121D01*
X13086344Y-8931902D01*
X13104027Y-8931918D01*
X13120370Y-8925165D01*
X13132885Y-8912672D01*
X13137589Y-8901343D01*
X13501362Y-8901343D01*
X13508115Y-8917686D01*
X13520608Y-8930201D01*
X13536940Y-8936982D01*
X13554623Y-8936998D01*
X13570966Y-8930245D01*
X13583481Y-8917752D01*
X13587130Y-8908963D01*
X13618202Y-8908963D01*
X13624955Y-8925306D01*
X13637448Y-8937821D01*
X13653780Y-8944602D01*
X13671463Y-8944618D01*
X13687806Y-8937865D01*
X13700321Y-8925372D01*
X13707102Y-8909040D01*
X13707118Y-8891357D01*
X13700365Y-8875014D01*
X13687872Y-8862499D01*
X13671540Y-8855718D01*
X13653857Y-8855702D01*
X13637514Y-8862455D01*
X13624999Y-8874948D01*
X13618218Y-8891280D01*
X13618202Y-8908963D01*
X13587130Y-8908963D01*
X13590262Y-8901420D01*
X13590278Y-8883737D01*
X13583525Y-8867394D01*
X13571032Y-8854879D01*
X13554700Y-8848098D01*
X13537017Y-8848082D01*
X13520674Y-8854835D01*
X13508159Y-8867328D01*
X13501378Y-8883660D01*
X13501362Y-8901343D01*
X13137589Y-8901343D01*
X13139666Y-8896340D01*
X13139682Y-8878657D01*
X13132929Y-8862314D01*
X13120436Y-8849799D01*
X13104104Y-8843018D01*
X13086421Y-8843002D01*
X13070078Y-8849755D01*
X13057563Y-8862248D01*
X13050782Y-8878580D01*
X13050766Y-8896263D01*
X12863532Y-8896263D01*
X12861743Y-8894471D01*
X12841212Y-8885946D01*
X12818981Y-8885926D01*
X12798436Y-8894416D01*
X12782703Y-8910121D01*
X12774178Y-8930652D01*
X12774158Y-8952883D01*
X12544288Y-8952883D01*
X12544308Y-8930750D01*
X12535818Y-8910204D01*
X12520113Y-8894471D01*
X12499582Y-8885946D01*
X12477351Y-8885926D01*
X12456806Y-8894416D01*
X12441073Y-8910121D01*
X12432548Y-8930652D01*
X12432528Y-8952883D01*
X12327022Y-8952883D01*
X12331547Y-8948365D01*
X12340072Y-8927834D01*
X12340092Y-8905604D01*
X12331602Y-8885058D01*
X12315897Y-8869325D01*
X12295366Y-8860800D01*
X12273135Y-8860780D01*
X12252590Y-8869270D01*
X12236857Y-8884975D01*
X12228332Y-8905506D01*
X12228312Y-8927737D01*
X12160504Y-8927737D01*
X12160504Y-8837313D01*
X12432528Y-8837313D01*
X12441018Y-8857858D01*
X12456723Y-8873591D01*
X12477254Y-8882116D01*
X12499484Y-8882136D01*
X12520030Y-8873646D01*
X12535763Y-8857941D01*
X12544288Y-8837410D01*
X12544290Y-8835027D01*
X12773650Y-8835027D01*
X12782140Y-8855572D01*
X12797845Y-8871305D01*
X12818376Y-8879830D01*
X12840606Y-8879850D01*
X12861152Y-8871360D01*
X12876885Y-8855655D01*
X12885410Y-8835124D01*
X12885430Y-8812894D01*
X12876940Y-8792348D01*
X12861235Y-8776615D01*
X12840704Y-8768090D01*
X12818473Y-8768070D01*
X12797928Y-8776560D01*
X12782195Y-8792265D01*
X12773670Y-8812796D01*
X12773650Y-8835027D01*
X12544290Y-8835027D01*
X12544308Y-8815180D01*
X12535818Y-8794634D01*
X12520113Y-8778901D01*
X12499582Y-8770376D01*
X12477351Y-8770356D01*
X12456806Y-8778846D01*
X12441073Y-8794551D01*
X12432548Y-8815082D01*
X12432528Y-8837313D01*
X12160504Y-8837313D01*
X12160504Y-8667663D01*
X12564610Y-8667663D01*
X12571363Y-8684006D01*
X12583856Y-8696521D01*
X12600188Y-8703302D01*
X12617871Y-8703318D01*
X12634214Y-8696565D01*
X12646729Y-8684072D01*
X12653510Y-8667740D01*
X12653510Y-8667663D01*
X12665702Y-8667663D01*
X12672455Y-8684006D01*
X12684948Y-8696521D01*
X12701280Y-8703302D01*
X12718963Y-8703318D01*
X12735306Y-8696565D01*
X12747821Y-8684072D01*
X12754602Y-8667740D01*
X12754604Y-8665123D01*
X13298162Y-8665123D01*
X13304915Y-8681466D01*
X13317408Y-8693981D01*
X13327646Y-8698232D01*
X13317474Y-8702435D01*
X13304959Y-8714928D01*
X13298178Y-8731260D01*
X13298162Y-8748943D01*
X13304915Y-8765286D01*
X13317408Y-8777801D01*
X13324580Y-8780779D01*
X13317474Y-8783715D01*
X13304959Y-8796208D01*
X13298178Y-8812540D01*
X13298162Y-8830223D01*
X13304915Y-8846566D01*
X13317408Y-8859081D01*
X13333740Y-8865862D01*
X13351423Y-8865878D01*
X13367766Y-8859125D01*
X13380281Y-8846632D01*
X13387062Y-8830300D01*
X13387078Y-8812617D01*
X13380325Y-8796274D01*
X13367832Y-8783759D01*
X13360660Y-8780781D01*
X13367766Y-8777845D01*
X13380281Y-8765352D01*
X13381294Y-8762913D01*
X13553432Y-8762913D01*
X13560185Y-8779256D01*
X13572678Y-8791771D01*
X13589010Y-8798552D01*
X13606693Y-8798568D01*
X13623036Y-8791815D01*
X13635551Y-8779322D01*
X13642332Y-8762990D01*
X13642332Y-8762913D01*
X13667732Y-8762913D01*
X13674485Y-8779256D01*
X13686978Y-8791771D01*
X13703310Y-8798552D01*
X13720993Y-8798568D01*
X13737336Y-8791815D01*
X13749851Y-8779322D01*
X13756632Y-8762990D01*
X13756648Y-8745307D01*
X13749895Y-8728964D01*
X13737402Y-8716449D01*
X13721070Y-8709668D01*
X13703387Y-8709652D01*
X13687044Y-8716405D01*
X13674529Y-8728898D01*
X13667748Y-8745230D01*
X13667732Y-8762913D01*
X13642332Y-8762913D01*
X13642348Y-8745307D01*
X13635595Y-8728964D01*
X13623102Y-8716449D01*
X13606770Y-8709668D01*
X13589087Y-8709652D01*
X13572744Y-8716405D01*
X13560229Y-8728898D01*
X13553448Y-8745230D01*
X13553432Y-8762913D01*
X13381294Y-8762913D01*
X13387062Y-8749020D01*
X13387078Y-8731337D01*
X13380325Y-8714994D01*
X13367832Y-8702479D01*
X13357594Y-8698228D01*
X13367766Y-8694025D01*
X13380281Y-8681532D01*
X13387062Y-8665200D01*
X13387077Y-8648613D01*
X13489932Y-8648613D01*
X13496685Y-8664956D01*
X13509178Y-8677471D01*
X13525510Y-8684252D01*
X13543193Y-8684268D01*
X13559536Y-8677515D01*
X13572051Y-8665022D01*
X13578832Y-8648690D01*
X13578848Y-8631007D01*
X13577963Y-8628865D01*
X13589010Y-8633452D01*
X13606693Y-8633468D01*
X13623036Y-8626715D01*
X13635551Y-8614222D01*
X13637091Y-8610513D01*
X13667732Y-8610513D01*
X13674485Y-8626856D01*
X13686978Y-8639371D01*
X13703310Y-8646152D01*
X13720993Y-8646168D01*
X13731238Y-8641934D01*
X13731232Y-8648613D01*
X13737985Y-8664956D01*
X13750478Y-8677471D01*
X13766810Y-8684252D01*
X13784493Y-8684268D01*
X13800836Y-8677515D01*
X13813351Y-8665022D01*
X13820132Y-8648690D01*
X13820148Y-8631007D01*
X13813395Y-8614664D01*
X13800902Y-8602149D01*
X13784570Y-8595368D01*
X13766887Y-8595352D01*
X13756642Y-8599586D01*
X13756648Y-8592907D01*
X13749895Y-8576564D01*
X13737402Y-8564049D01*
X13721070Y-8557268D01*
X13703387Y-8557252D01*
X13687044Y-8564005D01*
X13674529Y-8576498D01*
X13667748Y-8592830D01*
X13667732Y-8610513D01*
X13637091Y-8610513D01*
X13642332Y-8597890D01*
X13642348Y-8580207D01*
X13635595Y-8563864D01*
X13623102Y-8551349D01*
X13612659Y-8547013D01*
X13845532Y-8547013D01*
X13852285Y-8563356D01*
X13864778Y-8575871D01*
X13881110Y-8582652D01*
X13898793Y-8582668D01*
X13915136Y-8575915D01*
X13927651Y-8563422D01*
X13934432Y-8547090D01*
X13934448Y-8529407D01*
X13927695Y-8513064D01*
X13915202Y-8500549D01*
X13898870Y-8493768D01*
X13881187Y-8493752D01*
X13864844Y-8500505D01*
X13852329Y-8512998D01*
X13845548Y-8529330D01*
X13845532Y-8547013D01*
X13612659Y-8547013D01*
X13606770Y-8544568D01*
X13589087Y-8544552D01*
X13572744Y-8551305D01*
X13560229Y-8563798D01*
X13553448Y-8580130D01*
X13553432Y-8597813D01*
X13554317Y-8599955D01*
X13543270Y-8595368D01*
X13525587Y-8595352D01*
X13509244Y-8602105D01*
X13496729Y-8614598D01*
X13489948Y-8630930D01*
X13489932Y-8648613D01*
X13387077Y-8648613D01*
X13387078Y-8647517D01*
X13380325Y-8631174D01*
X13367832Y-8618659D01*
X13351500Y-8611878D01*
X13333817Y-8611862D01*
X13317474Y-8618615D01*
X13304959Y-8631108D01*
X13298178Y-8647440D01*
X13298162Y-8665123D01*
X12754604Y-8665123D01*
X12754618Y-8650057D01*
X12747865Y-8633714D01*
X12735372Y-8621199D01*
X12719040Y-8614418D01*
X12701357Y-8614402D01*
X12685014Y-8621155D01*
X12672499Y-8633648D01*
X12665718Y-8649980D01*
X12665702Y-8667663D01*
X12653510Y-8667663D01*
X12653526Y-8650057D01*
X12646773Y-8633714D01*
X12634280Y-8621199D01*
X12617948Y-8614418D01*
X12600265Y-8614402D01*
X12583922Y-8621155D01*
X12571407Y-8633648D01*
X12564626Y-8649980D01*
X12564610Y-8667663D01*
X12160504Y-8667663D01*
X12160504Y-8566041D01*
X12243552Y-8566041D01*
X12252042Y-8586586D01*
X12267747Y-8602319D01*
X12288278Y-8610844D01*
X12310508Y-8610864D01*
X12331054Y-8602374D01*
X12346787Y-8586669D01*
X12355312Y-8566138D01*
X12355326Y-8550801D01*
X12603216Y-8550801D01*
X12611706Y-8571346D01*
X12627411Y-8587079D01*
X12647942Y-8595604D01*
X12670172Y-8595624D01*
X12690718Y-8587134D01*
X12692743Y-8585113D01*
X13223232Y-8585113D01*
X13229985Y-8601456D01*
X13242478Y-8613971D01*
X13258810Y-8620752D01*
X13276493Y-8620768D01*
X13292836Y-8614015D01*
X13305351Y-8601522D01*
X13312132Y-8585190D01*
X13312148Y-8567507D01*
X13305395Y-8551164D01*
X13292902Y-8538649D01*
X13276570Y-8531868D01*
X13258887Y-8531852D01*
X13242544Y-8538605D01*
X13230029Y-8551098D01*
X13223248Y-8567430D01*
X13223232Y-8585113D01*
X12692743Y-8585113D01*
X12706451Y-8571429D01*
X12714976Y-8550898D01*
X12714996Y-8528668D01*
X12706506Y-8508122D01*
X12690801Y-8492389D01*
X12670270Y-8483864D01*
X12648039Y-8483844D01*
X12627494Y-8492334D01*
X12611761Y-8508039D01*
X12603236Y-8528570D01*
X12603216Y-8550801D01*
X12355326Y-8550801D01*
X12355332Y-8543908D01*
X12346842Y-8523362D01*
X12331137Y-8507629D01*
X12310606Y-8499104D01*
X12288375Y-8499084D01*
X12267830Y-8507574D01*
X12252097Y-8523279D01*
X12243572Y-8543810D01*
X12243552Y-8566041D01*
X12160504Y-8566041D01*
X12160504Y-8438025D01*
X12602200Y-8438025D01*
X12610690Y-8458570D01*
X12626395Y-8474303D01*
X12646926Y-8482828D01*
X12669156Y-8482848D01*
X12689702Y-8474358D01*
X12705435Y-8458653D01*
X12713960Y-8438122D01*
X12713965Y-8432713D01*
X13299432Y-8432713D01*
X13306185Y-8449056D01*
X13318678Y-8461571D01*
X13335010Y-8468352D01*
X13352693Y-8468368D01*
X13369036Y-8461615D01*
X13381551Y-8449122D01*
X13385200Y-8440333D01*
X13400270Y-8440333D01*
X13407023Y-8456676D01*
X13419516Y-8469191D01*
X13435848Y-8475972D01*
X13453531Y-8475988D01*
X13469874Y-8469235D01*
X13482389Y-8456742D01*
X13488675Y-8441603D01*
X13580102Y-8441603D01*
X13586855Y-8457946D01*
X13599348Y-8470461D01*
X13615680Y-8477242D01*
X13633363Y-8477258D01*
X13649706Y-8470505D01*
X13662221Y-8458012D01*
X13669002Y-8441680D01*
X13669013Y-8428903D01*
X13699990Y-8428903D01*
X13706743Y-8445246D01*
X13719236Y-8457761D01*
X13735568Y-8464542D01*
X13753251Y-8464558D01*
X13769594Y-8457805D01*
X13782109Y-8445312D01*
X13783559Y-8441819D01*
X13784975Y-8445246D01*
X13797468Y-8457761D01*
X13813800Y-8464542D01*
X13831483Y-8464558D01*
X13847826Y-8457805D01*
X13860341Y-8445312D01*
X13867122Y-8428980D01*
X13867138Y-8411297D01*
X13860385Y-8394954D01*
X13847892Y-8382439D01*
X13831560Y-8375658D01*
X13813877Y-8375642D01*
X13797534Y-8382395D01*
X13785019Y-8394888D01*
X13783569Y-8398381D01*
X13782153Y-8394954D01*
X13769660Y-8382439D01*
X13753328Y-8375658D01*
X13735645Y-8375642D01*
X13719302Y-8382395D01*
X13706787Y-8394888D01*
X13700006Y-8411220D01*
X13699990Y-8428903D01*
X13669013Y-8428903D01*
X13669018Y-8423997D01*
X13662265Y-8407654D01*
X13649772Y-8395139D01*
X13633440Y-8388358D01*
X13615757Y-8388342D01*
X13599414Y-8395095D01*
X13586899Y-8407588D01*
X13580118Y-8423920D01*
X13580102Y-8441603D01*
X13488675Y-8441603D01*
X13489170Y-8440410D01*
X13489186Y-8422727D01*
X13482433Y-8406384D01*
X13469940Y-8393869D01*
X13453608Y-8387088D01*
X13435925Y-8387072D01*
X13419582Y-8393825D01*
X13407067Y-8406318D01*
X13400286Y-8422650D01*
X13400270Y-8440333D01*
X13385200Y-8440333D01*
X13388332Y-8432790D01*
X13388348Y-8415107D01*
X13381595Y-8398764D01*
X13369102Y-8386249D01*
X13352770Y-8379468D01*
X13335087Y-8379452D01*
X13318744Y-8386205D01*
X13306229Y-8398698D01*
X13299448Y-8415030D01*
X13299432Y-8432713D01*
X12713965Y-8432713D01*
X12713980Y-8415892D01*
X12705490Y-8395346D01*
X12689785Y-8379613D01*
X12669254Y-8371088D01*
X12647023Y-8371068D01*
X12626478Y-8379558D01*
X12610745Y-8395263D01*
X12602220Y-8415794D01*
X12602200Y-8438025D01*
X12160504Y-8438025D01*
X12160504Y-8350163D01*
X13379442Y-8350163D01*
X13386195Y-8366506D01*
X13398688Y-8379021D01*
X13415020Y-8385802D01*
X13432703Y-8385818D01*
X13449046Y-8379065D01*
X13461561Y-8366572D01*
X13468342Y-8350240D01*
X13468344Y-8347623D01*
X13938242Y-8347623D01*
X13944995Y-8363966D01*
X13957488Y-8376481D01*
X13964300Y-8379309D01*
X13958062Y-8381887D01*
X13945547Y-8394380D01*
X13938766Y-8410712D01*
X13938750Y-8428395D01*
X13945503Y-8444738D01*
X13957996Y-8457253D01*
X13974328Y-8464034D01*
X13992011Y-8464050D01*
X14008354Y-8457297D01*
X14020869Y-8444804D01*
X14027650Y-8428472D01*
X14027666Y-8410789D01*
X14023501Y-8400709D01*
X14398744Y-8400709D01*
X14405497Y-8417052D01*
X14417990Y-8429567D01*
X14434322Y-8436348D01*
X14452005Y-8436364D01*
X14468348Y-8429611D01*
X14480863Y-8417118D01*
X14487644Y-8400786D01*
X14487660Y-8383103D01*
X14480907Y-8366760D01*
X14468414Y-8354245D01*
X14464700Y-8352703D01*
X14820892Y-8352703D01*
X14827645Y-8369046D01*
X14840138Y-8381561D01*
X14856470Y-8388342D01*
X14874153Y-8388358D01*
X14890496Y-8381605D01*
X14903011Y-8369112D01*
X14909792Y-8352780D01*
X14909808Y-8335097D01*
X14903055Y-8318754D01*
X14890562Y-8306239D01*
X14874230Y-8299458D01*
X14856547Y-8299442D01*
X14840204Y-8306195D01*
X14827689Y-8318688D01*
X14820908Y-8335020D01*
X14820892Y-8352703D01*
X14464700Y-8352703D01*
X14452082Y-8347464D01*
X14434399Y-8347448D01*
X14418056Y-8354201D01*
X14405541Y-8366694D01*
X14398760Y-8383026D01*
X14398744Y-8400709D01*
X14023501Y-8400709D01*
X14020913Y-8394446D01*
X14008420Y-8381931D01*
X14001608Y-8379102D01*
X14007846Y-8376525D01*
X14020361Y-8364032D01*
X14027142Y-8347700D01*
X14027158Y-8330017D01*
X14020405Y-8313674D01*
X14007912Y-8301159D01*
X13991580Y-8294378D01*
X13973897Y-8294362D01*
X13957554Y-8301115D01*
X13945039Y-8313608D01*
X13938258Y-8329940D01*
X13938242Y-8347623D01*
X13468344Y-8347623D01*
X13468358Y-8332557D01*
X13461605Y-8316214D01*
X13449112Y-8303699D01*
X13432780Y-8296918D01*
X13415097Y-8296902D01*
X13398754Y-8303655D01*
X13386239Y-8316148D01*
X13379458Y-8332480D01*
X13379442Y-8350163D01*
X12160504Y-8350163D01*
X12160504Y-8271423D01*
X14018252Y-8271423D01*
X14025005Y-8287766D01*
X14037498Y-8300281D01*
X14053830Y-8307062D01*
X14071513Y-8307078D01*
X14087856Y-8300325D01*
X14100371Y-8287832D01*
X14107152Y-8271500D01*
X14107154Y-8268883D01*
X14182082Y-8268883D01*
X14188835Y-8285226D01*
X14201328Y-8297741D01*
X14208234Y-8300608D01*
X14203934Y-8302385D01*
X14191419Y-8314878D01*
X14184638Y-8331210D01*
X14184622Y-8348893D01*
X14191375Y-8365236D01*
X14203868Y-8377751D01*
X14220200Y-8384532D01*
X14237883Y-8384548D01*
X14254226Y-8377795D01*
X14266741Y-8365302D01*
X14273522Y-8348970D01*
X14273538Y-8331287D01*
X14266785Y-8314944D01*
X14254292Y-8302429D01*
X14247386Y-8299562D01*
X14251686Y-8297785D01*
X14257738Y-8291743D01*
X14541238Y-8291743D01*
X14547991Y-8308086D01*
X14560484Y-8320601D01*
X14576816Y-8327382D01*
X14594499Y-8327398D01*
X14610842Y-8320645D01*
X14623357Y-8308152D01*
X14630138Y-8291820D01*
X14630154Y-8274137D01*
X14623401Y-8257794D01*
X14610908Y-8245279D01*
X14594576Y-8238498D01*
X14576893Y-8238482D01*
X14560550Y-8245235D01*
X14548035Y-8257728D01*
X14541254Y-8274060D01*
X14541238Y-8291743D01*
X14257738Y-8291743D01*
X14264201Y-8285292D01*
X14270982Y-8268960D01*
X14270998Y-8251277D01*
X14264245Y-8234934D01*
X14251752Y-8222419D01*
X14239715Y-8217421D01*
X14254226Y-8211425D01*
X14259006Y-8206653D01*
X15148552Y-8206653D01*
X15155305Y-8222996D01*
X15167798Y-8235511D01*
X15184130Y-8242292D01*
X15201813Y-8242308D01*
X15218156Y-8235555D01*
X15230671Y-8223062D01*
X15237452Y-8206730D01*
X15237468Y-8189047D01*
X15230715Y-8172704D01*
X15218222Y-8160189D01*
X15216955Y-8159663D01*
X15281902Y-8159663D01*
X15288655Y-8176006D01*
X15301148Y-8188521D01*
X15317480Y-8195302D01*
X15335163Y-8195318D01*
X15351506Y-8188565D01*
X15364021Y-8176072D01*
X15370802Y-8159740D01*
X15370818Y-8142057D01*
X15364065Y-8125714D01*
X15351572Y-8113199D01*
X15335240Y-8106418D01*
X15317557Y-8106402D01*
X15301214Y-8113155D01*
X15288699Y-8125648D01*
X15281918Y-8141980D01*
X15281902Y-8159663D01*
X15216955Y-8159663D01*
X15201890Y-8153408D01*
X15184207Y-8153392D01*
X15167864Y-8160145D01*
X15155349Y-8172638D01*
X15148568Y-8188970D01*
X15148552Y-8206653D01*
X14259006Y-8206653D01*
X14266741Y-8198932D01*
X14273522Y-8182600D01*
X14273535Y-8167791D01*
X14399506Y-8167791D01*
X14406259Y-8184134D01*
X14418752Y-8196649D01*
X14435084Y-8203430D01*
X14452767Y-8203446D01*
X14469110Y-8196693D01*
X14481625Y-8184200D01*
X14488406Y-8167868D01*
X14488410Y-8163981D01*
X14973800Y-8163981D01*
X14980553Y-8180324D01*
X14993046Y-8192839D01*
X15009378Y-8199620D01*
X15027061Y-8199636D01*
X15043404Y-8192883D01*
X15055919Y-8180390D01*
X15062700Y-8164058D01*
X15062716Y-8146375D01*
X15055963Y-8130032D01*
X15043470Y-8117517D01*
X15027138Y-8110736D01*
X15009455Y-8110720D01*
X14993112Y-8117473D01*
X14980597Y-8129966D01*
X14973816Y-8146298D01*
X14973800Y-8163981D01*
X14488410Y-8163981D01*
X14488422Y-8150185D01*
X14481669Y-8133842D01*
X14469176Y-8121327D01*
X14452844Y-8114546D01*
X14435161Y-8114530D01*
X14418818Y-8121283D01*
X14406303Y-8133776D01*
X14399522Y-8150108D01*
X14399506Y-8167791D01*
X14273535Y-8167791D01*
X14273538Y-8164917D01*
X14266785Y-8148574D01*
X14254292Y-8136059D01*
X14237960Y-8129278D01*
X14220277Y-8129262D01*
X14203934Y-8136015D01*
X14191419Y-8148508D01*
X14184638Y-8164840D01*
X14184622Y-8182523D01*
X14191375Y-8198866D01*
X14203868Y-8211381D01*
X14215905Y-8216379D01*
X14201394Y-8222375D01*
X14188879Y-8234868D01*
X14182098Y-8251200D01*
X14182082Y-8268883D01*
X14107154Y-8268883D01*
X14107168Y-8253817D01*
X14100415Y-8237474D01*
X14087922Y-8224959D01*
X14071590Y-8218178D01*
X14053907Y-8218162D01*
X14037564Y-8224915D01*
X14025049Y-8237408D01*
X14018268Y-8253740D01*
X14018252Y-8271423D01*
X12160504Y-8271423D01*
X12160504Y-8210440D01*
X12242028Y-8210440D01*
X12250518Y-8230986D01*
X12266223Y-8246719D01*
X12286754Y-8255244D01*
X12308984Y-8255264D01*
X12329530Y-8246774D01*
X12345263Y-8231069D01*
X12353788Y-8210538D01*
X12353808Y-8188307D01*
X12352458Y-8185040D01*
X12601692Y-8185040D01*
X12610182Y-8205586D01*
X12625887Y-8221319D01*
X12646418Y-8229844D01*
X12668648Y-8229864D01*
X12689194Y-8221374D01*
X12704927Y-8205669D01*
X12712429Y-8187603D01*
X13135602Y-8187603D01*
X13142355Y-8203946D01*
X13154848Y-8216461D01*
X13171180Y-8223242D01*
X13188863Y-8223258D01*
X13205206Y-8216505D01*
X13217721Y-8204012D01*
X13224502Y-8187680D01*
X13224518Y-8169997D01*
X13217765Y-8153654D01*
X13205272Y-8141139D01*
X13188940Y-8134358D01*
X13171257Y-8134342D01*
X13154914Y-8141095D01*
X13142399Y-8153588D01*
X13135618Y-8169920D01*
X13135602Y-8187603D01*
X12712429Y-8187603D01*
X12713452Y-8185138D01*
X12713472Y-8162907D01*
X12704982Y-8142362D01*
X12695968Y-8133332D01*
X12705435Y-8123881D01*
X12712726Y-8106323D01*
X13936972Y-8106323D01*
X13943725Y-8122666D01*
X13956218Y-8135181D01*
X13967090Y-8139695D01*
X13957554Y-8143635D01*
X13945039Y-8156128D01*
X13938258Y-8172460D01*
X13938242Y-8190143D01*
X13944995Y-8206486D01*
X13957488Y-8219001D01*
X13973820Y-8225782D01*
X13991503Y-8225798D01*
X14007846Y-8219045D01*
X14020361Y-8206552D01*
X14027142Y-8190220D01*
X14027158Y-8172537D01*
X14020405Y-8156194D01*
X14007912Y-8143679D01*
X13997040Y-8139165D01*
X14006576Y-8135225D01*
X14019091Y-8122732D01*
X14025872Y-8106400D01*
X14025876Y-8102513D01*
X14093182Y-8102513D01*
X14099935Y-8118856D01*
X14112428Y-8131371D01*
X14128760Y-8138152D01*
X14146443Y-8138168D01*
X14162786Y-8131415D01*
X14175301Y-8118922D01*
X14182082Y-8102590D01*
X14182098Y-8084907D01*
X14175345Y-8068564D01*
X14162852Y-8056049D01*
X14146520Y-8049268D01*
X14128837Y-8049252D01*
X14112494Y-8056005D01*
X14099979Y-8068498D01*
X14093198Y-8084830D01*
X14093182Y-8102513D01*
X14025876Y-8102513D01*
X14025888Y-8088717D01*
X14019135Y-8072374D01*
X14006642Y-8059859D01*
X13990310Y-8053078D01*
X13972627Y-8053062D01*
X13956284Y-8059815D01*
X13943769Y-8072308D01*
X13936988Y-8088640D01*
X13936972Y-8106323D01*
X12712726Y-8106323D01*
X12713960Y-8103350D01*
X12713980Y-8081119D01*
X12705490Y-8060574D01*
X12689785Y-8044841D01*
X12669254Y-8036316D01*
X12647023Y-8036296D01*
X12626478Y-8044786D01*
X12610745Y-8060491D01*
X12602220Y-8081022D01*
X12602200Y-8103252D01*
X12610690Y-8123798D01*
X12619704Y-8132828D01*
X12610237Y-8142279D01*
X12601712Y-8162810D01*
X12601692Y-8185040D01*
X12352458Y-8185040D01*
X12345318Y-8167762D01*
X12329613Y-8152029D01*
X12309082Y-8143504D01*
X12286851Y-8143484D01*
X12266306Y-8151974D01*
X12250573Y-8167679D01*
X12242048Y-8188210D01*
X12242028Y-8210440D01*
X12160504Y-8210440D01*
X12160504Y-8002016D01*
X15455392Y-8002016D01*
X15455392Y-8288077D01*
G36*
X13955851Y-8881364D02*
X13892276Y-8881364D01*
X13880612Y-8883684D01*
X13872680Y-8888984D01*
X13870723Y-8890291D01*
X13851579Y-8909436D01*
X13854396Y-8905220D01*
X13855152Y-8901420D01*
X13856716Y-8893556D01*
X13856716Y-8845221D01*
X13867309Y-8834628D01*
X13991336Y-8834628D01*
X14003000Y-8832308D01*
X14008747Y-8828468D01*
X13955851Y-8881364D01*
X13955851Y-8881364D01*
G37*
X13955851Y-8881364D02*
X13892276Y-8881364D01*
X13880612Y-8883684D01*
X13872680Y-8888984D01*
X13870723Y-8890291D01*
X13851579Y-8909436D01*
X13854396Y-8905220D01*
X13855152Y-8901420D01*
X13856716Y-8893556D01*
X13856716Y-8845221D01*
X13867309Y-8834628D01*
X13991336Y-8834628D01*
X14003000Y-8832308D01*
X14008747Y-8828468D01*
X13955851Y-8881364D01*
M02*
