G04 #@! TF.FileFunction,Copper,L5,Inr,Plane*
%FSLAX45Y45*%
G04 Gerber Fmt 4.5, Leading zero omitted, Abs format (unit mm)*
G04 Created by KiCad (PCBNEW 0.201506030104+5696~23~ubuntu14.04.1-product) date Thu 09 Jul 2015 08:08:36 PM EDT*
%MOMM*%
G01*
G04 APERTURE LIST*
%ADD10C,0.127000*%
%ADD11C,1.600200*%
%ADD12C,0.406400*%
%ADD13C,0.635000*%
%ADD14C,0.254000*%
%ADD15C,0.203200*%
%ADD16C,0.381000*%
G04 APERTURE END LIST*
D10*
D11*
X12456922Y-9391650D03*
X12710922Y-9391650D03*
D12*
X14595856Y-9315958D03*
X14831060Y-9289288D03*
X14659356Y-8937752D03*
X14696440Y-8452104D03*
X14563344Y-8535416D03*
X14553184Y-8692896D03*
X15433548Y-8327136D03*
X13444728Y-8431530D03*
X11589258Y-9973564D03*
X11590782Y-10037826D03*
X12692888Y-10948416D03*
X13005308Y-10246868D03*
X13725144Y-9861296D03*
X13051536Y-9981184D03*
X13017500Y-10069576D03*
X14106652Y-10939780D03*
X14418056Y-9986772D03*
X14417548Y-10060940D03*
X15114524Y-9275572D03*
X15124684Y-9872472D03*
X15807436Y-9998964D03*
X15805912Y-10071608D03*
X16886428Y-10986516D03*
X16495268Y-9861296D03*
X16780002Y-10154158D03*
X15191740Y-8584184D03*
D13*
X12658090Y-8426958D03*
X12657582Y-8173974D03*
X12659106Y-8539734D03*
D12*
X15968980Y-10243566D03*
X14572996Y-10248900D03*
X13177012Y-10244836D03*
X11749786Y-10239502D03*
X11593576Y-10233406D03*
X16216376Y-10433304D03*
D13*
X12829540Y-8823960D03*
D12*
X14514068Y-8941308D03*
X13901928Y-8735568D03*
X14930628Y-8806180D03*
X14988032Y-8886952D03*
X15002256Y-8753348D03*
X14664690Y-8690610D03*
X15193010Y-8197850D03*
X13423900Y-8341360D03*
X13342620Y-8656320D03*
D13*
X12488418Y-8941816D03*
X12830048Y-8941816D03*
D12*
X12886182Y-9085326D03*
X13206730Y-9328150D03*
X13096240Y-9182100D03*
X13528040Y-9382760D03*
X13421360Y-9141460D03*
X13423900Y-8981440D03*
D13*
X12388342Y-9090406D03*
X12658090Y-8092186D03*
X12817602Y-9234170D03*
D12*
X13983208Y-8419592D03*
X13982700Y-8338820D03*
X13822680Y-8420100D03*
X13624560Y-8432800D03*
X13597890Y-8589010D03*
X13534390Y-8639810D03*
X13597890Y-8754110D03*
X13342620Y-8740140D03*
X13906500Y-8978900D03*
X13712190Y-8601710D03*
X13712190Y-8754110D03*
X13978890Y-8589010D03*
X13775690Y-8639810D03*
X13180060Y-8178800D03*
X13662660Y-8900160D03*
D13*
X12488418Y-8826246D03*
D12*
X13575030Y-9231630D03*
X13985240Y-9230360D03*
X15968726Y-10184384D03*
X16627856Y-10170414D03*
X16367506Y-10275824D03*
X15776956Y-10938764D03*
X15507462Y-10929874D03*
X14827250Y-10421366D03*
X14382750Y-10936986D03*
X12009882Y-10421874D03*
X11571732Y-10927334D03*
X13440664Y-10420096D03*
X12986004Y-10930636D03*
X13175996Y-10185146D03*
X13829792Y-10187686D03*
X13566394Y-10291826D03*
X13829284Y-10131298D03*
X15812770Y-10230358D03*
X12139422Y-10292334D03*
X14965680Y-10294366D03*
X12402820Y-10185654D03*
X12402820Y-10132314D03*
X11748516Y-10184638D03*
X15226538Y-10182352D03*
X15227554Y-10127488D03*
X14572234Y-10185908D03*
X14416786Y-10237216D03*
X12321540Y-10043922D03*
X11703304Y-9817354D03*
X14419326Y-9869932D03*
X14717268Y-9047988D03*
X15261590Y-8811260D03*
D13*
X12284202Y-8916670D03*
D12*
X13744448Y-8420100D03*
X13279120Y-10021570D03*
X13001244Y-10167366D03*
X13823188Y-9872218D03*
X13895832Y-9873234D03*
X14415262Y-10142728D03*
X15208504Y-9870948D03*
X15268956Y-9884156D03*
X15806928Y-10153650D03*
X14443964Y-8158988D03*
X14989556Y-8665464D03*
X14229080Y-8173720D03*
X13343890Y-8423910D03*
X13267690Y-8576310D03*
D13*
X12297918Y-8199374D03*
D12*
X13342620Y-8821420D03*
X13342620Y-8978900D03*
X13736320Y-9057640D03*
X13820140Y-8978900D03*
X13982700Y-8181340D03*
X13889990Y-8538210D03*
X14211300Y-9222740D03*
X13980160Y-8735060D03*
X14443202Y-8391906D03*
X13502640Y-9138920D03*
X13545820Y-8892540D03*
X15018258Y-8155178D03*
X14319250Y-9371330D03*
X16651986Y-9869424D03*
X16577056Y-9863074D03*
X16778986Y-10067544D03*
X16775176Y-10001504D03*
X16069056Y-10029444D03*
X13986256Y-10030714D03*
X13989812Y-10087102D03*
X12558776Y-10031222D03*
X12402820Y-9874250D03*
X12351512Y-9874758D03*
X12558776Y-10080498D03*
X11851132Y-10030714D03*
X11591544Y-10132314D03*
X15383002Y-10078720D03*
X15382494Y-10027920D03*
X14674850Y-10016236D03*
X11850624Y-9871202D03*
D13*
X12299442Y-8554974D03*
X15103602Y-9511030D03*
D12*
X12609068Y-8658860D03*
X12710160Y-8658860D03*
D13*
X12642342Y-9114790D03*
D12*
X15326360Y-8150860D03*
D13*
X15173960Y-8709660D03*
X15358872Y-8642604D03*
D12*
X13780008Y-8856472D03*
X13543280Y-8430260D03*
D13*
X13014198Y-8593074D03*
D12*
X13889990Y-8855710D03*
X13902690Y-8423910D03*
X13432790Y-8868410D03*
X13432790Y-8538210D03*
D13*
X12988290Y-8106410D03*
X13000990Y-8195310D03*
D12*
X14090904Y-9485884D03*
X14226540Y-9141460D03*
X15774670Y-10736326D03*
X16867886Y-10745978D03*
X16810990Y-10941304D03*
X12986512Y-10719308D03*
X14072870Y-10720070D03*
X14019784Y-10928096D03*
X15690088Y-10950448D03*
X12892278Y-10940542D03*
X14377924Y-10726674D03*
X15468854Y-10741914D03*
X15416530Y-10926826D03*
X11569446Y-10720578D03*
X12656820Y-10744962D03*
X12605512Y-10929874D03*
X14290548Y-10957052D03*
X11484102Y-10954512D03*
X13095224Y-8887460D03*
X14857984Y-8490204D03*
X14347190Y-8914130D03*
X14585696Y-8282940D03*
X14476730Y-9163050D03*
X14144752Y-8819896D03*
X14334744Y-8785860D03*
X14061440Y-9058910D03*
X14226540Y-8260080D03*
X14810994Y-8450580D03*
X14865350Y-8343900D03*
X15328900Y-8779256D03*
X16777716Y-10651744D03*
X16780256Y-10595864D03*
X16780256Y-10541254D03*
X16780256Y-10486644D03*
X16777716Y-10432034D03*
X16778986Y-10378694D03*
X16778986Y-10325354D03*
X16620236Y-10291064D03*
X15981426Y-10338054D03*
X15812516Y-10325354D03*
X15811246Y-10378694D03*
X15813786Y-10432034D03*
X15812516Y-10486644D03*
X15812516Y-10542524D03*
X15807436Y-10595864D03*
X15806166Y-10653014D03*
X13986764Y-10653776D03*
X13990574Y-10600436D03*
X13989304Y-10543286D03*
X13988034Y-10488676D03*
X13986764Y-10435336D03*
X13986764Y-10380726D03*
X13984224Y-10326116D03*
X13829284Y-10299446D03*
X13204444Y-10333228D03*
X13020294Y-10329926D03*
X13019024Y-10383266D03*
X13016484Y-10436606D03*
X13019024Y-10489946D03*
X13019024Y-10544556D03*
X13016484Y-10597896D03*
X13019024Y-10652506D03*
X14777974Y-9521952D03*
X14066520Y-8581136D03*
X14661642Y-9485376D03*
X14237716Y-8473440D03*
X14225524Y-8587232D03*
X14260576Y-9463532D03*
X14144244Y-8498840D03*
X14511528Y-9460484D03*
X14063472Y-8740648D03*
X14142720Y-8900160D03*
X13502640Y-9576308D03*
X14236192Y-8728964D03*
X13946886Y-9547860D03*
X14141704Y-8739124D03*
X13677138Y-9575292D03*
X14062964Y-8657844D03*
X13029692Y-9572752D03*
X15382240Y-10656316D03*
X15382240Y-10600436D03*
X15382240Y-10545826D03*
X15380970Y-10492486D03*
X15382240Y-10439146D03*
X15383510Y-10385806D03*
X15383510Y-10332466D03*
X15227300Y-10293096D03*
X14592300Y-10334752D03*
X14415770Y-10328656D03*
X14415770Y-10381996D03*
X14414500Y-10435336D03*
X14417040Y-10488676D03*
X14417040Y-10542016D03*
X14417040Y-10595356D03*
X14415770Y-10649966D03*
X12558522Y-10656824D03*
X12559792Y-10600944D03*
X12561062Y-10547604D03*
X12559792Y-10492994D03*
X12558522Y-10439654D03*
X12559792Y-10386314D03*
X12558522Y-10332974D03*
X12402312Y-10294874D03*
X11773916Y-10329164D03*
X11592052Y-10329164D03*
X11593322Y-10382504D03*
X11593322Y-10435844D03*
X11593322Y-10489184D03*
X11589512Y-10543794D03*
X11592052Y-10598404D03*
X11592052Y-10655554D03*
X14143736Y-8658352D03*
X14189456Y-9464040D03*
X14142212Y-8581136D03*
X14357604Y-9471152D03*
X14064488Y-8901176D03*
X13343128Y-9572752D03*
X14062710Y-8817610D03*
X13189458Y-9571482D03*
X13902690Y-9224010D03*
X13983970Y-9061450D03*
X13503402Y-9060688D03*
X14476730Y-9104630D03*
X15127224Y-8522716D03*
X14342110Y-9117330D03*
X14062710Y-8982710D03*
X14229080Y-8340090D03*
X14062710Y-8262620D03*
X13981430Y-8097520D03*
X14137640Y-8093710D03*
X15025116Y-9872472D03*
X15132558Y-9662160D03*
X14925294Y-9871710D03*
X15047214Y-9711690D03*
X14259052Y-9712452D03*
X16225520Y-9826752D03*
X14371828Y-9752584D03*
X14824710Y-9782556D03*
X13628370Y-9885426D03*
X13424154Y-9747504D03*
X12097512Y-9872472D03*
X13476224Y-9859772D03*
X13328142Y-9852660D03*
X12873990Y-9726168D03*
D10*
X14066520Y-9311640D02*
X14591538Y-9311640D01*
X14591538Y-9311640D02*
X14595856Y-9315958D01*
X14624304Y-9289288D02*
X14597634Y-9315958D01*
X14787118Y-9289288D02*
X14624304Y-9289288D01*
X14597634Y-9315958D02*
X14595856Y-9315958D01*
D14*
X14831060Y-9289288D02*
X15100808Y-9289288D01*
X15100808Y-9289288D02*
X15114524Y-9275572D01*
D10*
X14831060Y-9289288D02*
X14787118Y-9289288D01*
X14787118Y-9289288D02*
X14717268Y-9219438D01*
X14659356Y-8937752D02*
X14517624Y-8937752D01*
X14517624Y-8937752D02*
X14514068Y-8941308D01*
X14717268Y-9017508D02*
X14717268Y-8995664D01*
X14717268Y-9047988D02*
X14717268Y-9017508D01*
X14717268Y-8995664D02*
X14659356Y-8937752D01*
X14563344Y-8535416D02*
X14563344Y-8682736D01*
X14563344Y-8682736D02*
X14553184Y-8692896D01*
X14563344Y-8535416D02*
X14613128Y-8535416D01*
X14613128Y-8535416D02*
X14696440Y-8452104D01*
X14664690Y-8690610D02*
X14555470Y-8690610D01*
X14555470Y-8690610D02*
X14553184Y-8692896D01*
X15433548Y-8327136D02*
X15304262Y-8197850D01*
X15304262Y-8197850D02*
X15193010Y-8197850D01*
X15191740Y-8584184D02*
X15191740Y-8568944D01*
X15191740Y-8568944D02*
X15433548Y-8327136D01*
X13444728Y-8431530D02*
X13423900Y-8410702D01*
X13423900Y-8410702D02*
X13423900Y-8341360D01*
X13444728Y-8431530D02*
X13498576Y-8485378D01*
X13571982Y-8485378D02*
X13624560Y-8432800D01*
X13498576Y-8485378D02*
X13571982Y-8485378D01*
D14*
X11590782Y-10037826D02*
X11590782Y-9975088D01*
X11590782Y-9975088D02*
X11589258Y-9973564D01*
X11748516Y-10184638D02*
X11737594Y-10184638D01*
X11737594Y-10184638D02*
X11601958Y-10049002D01*
X12692888Y-10948416D02*
X12166346Y-10421874D01*
X12166346Y-10421874D02*
X12009882Y-10421874D01*
X13005308Y-10246868D02*
X12464034Y-10246868D01*
X12464034Y-10246868D02*
X12402820Y-10185654D01*
X13725144Y-9861296D02*
X13607796Y-9743948D01*
X13607796Y-9462516D02*
X13528040Y-9382760D01*
X13607796Y-9743948D02*
X13607796Y-9462516D01*
X13828014Y-10130028D02*
X13828014Y-9964166D01*
X13828014Y-9964166D02*
X13725144Y-9861296D01*
X13175996Y-10185146D02*
X13133070Y-10185146D01*
X13133070Y-10185146D02*
X13017500Y-10069576D01*
X13017500Y-10069576D02*
X13017500Y-10015220D01*
X13017500Y-10015220D02*
X13051536Y-9981184D01*
X14106652Y-10939780D02*
X14106652Y-10929874D01*
X13596874Y-10420096D02*
X13441172Y-10420096D01*
X14106652Y-10929874D02*
X13596874Y-10420096D01*
X14572234Y-10185908D02*
X14542516Y-10185908D01*
X14542516Y-10185908D02*
X14417548Y-10060940D01*
X14417548Y-10060940D02*
X14417548Y-9987280D01*
X14417548Y-9987280D02*
X14418056Y-9986772D01*
X15101062Y-9289034D02*
X15114524Y-9275572D01*
X15227554Y-9998456D02*
X15227554Y-9975342D01*
X15227554Y-9975342D02*
X15124684Y-9872472D01*
X15227554Y-9998456D02*
X15227554Y-9997694D01*
X15227554Y-10127488D02*
X15227554Y-9998456D01*
X15227554Y-9998456D02*
X15227554Y-10002774D01*
X15969488Y-10183622D02*
X15917926Y-10183622D01*
X15917926Y-10183622D02*
X15805912Y-10071608D01*
X15805912Y-10071608D02*
X15805912Y-10000488D01*
X15805912Y-10000488D02*
X15807436Y-9998964D01*
X16876776Y-10835894D02*
X16876776Y-10976864D01*
X16871696Y-10830814D02*
X16474186Y-10433304D01*
X16216376Y-10433304D02*
X16474186Y-10433304D01*
X16876776Y-10835894D02*
X16871696Y-10830814D01*
X16876776Y-10976864D02*
X16886428Y-10986516D01*
X16780002Y-10154158D02*
X16780002Y-10146030D01*
X16780002Y-10146030D02*
X16495268Y-9861296D01*
X16627856Y-10170414D02*
X16763746Y-10170414D01*
X16763746Y-10170414D02*
X16780002Y-10154158D01*
D10*
X15002256Y-8753348D02*
X15022576Y-8753348D01*
X15022576Y-8753348D02*
X15191740Y-8584184D01*
X13978890Y-8589010D02*
X13978890Y-8423910D01*
X13978890Y-8423910D02*
X13983208Y-8419592D01*
X13983208Y-8419592D02*
X13983208Y-8339328D01*
X13983208Y-8339328D02*
X13982700Y-8338820D01*
D14*
X15968980Y-10243566D02*
X15825978Y-10243566D01*
X15825978Y-10243566D02*
X15812770Y-10230358D01*
X16216376Y-10433304D02*
X16158718Y-10433304D01*
X16158718Y-10433304D02*
X15968980Y-10243566D01*
X14827250Y-10421366D02*
X14745462Y-10421366D01*
X14745462Y-10421366D02*
X14572996Y-10248900D01*
X14572996Y-10248900D02*
X14428470Y-10248900D01*
X14428470Y-10248900D02*
X14416786Y-10237216D01*
X14572996Y-10248900D02*
X14572996Y-10186670D01*
X14572996Y-10186670D02*
X14572234Y-10185908D01*
X13177012Y-10244836D02*
X13177012Y-10186162D01*
X13177012Y-10186162D02*
X13175996Y-10185146D01*
X13177012Y-10244836D02*
X13187172Y-10244836D01*
X13187172Y-10244836D02*
X13362432Y-10420096D01*
X11749786Y-10239502D02*
X11599672Y-10239502D01*
X11599672Y-10239502D02*
X11593576Y-10233406D01*
X11749786Y-10239502D02*
X11826494Y-10239502D01*
X11826494Y-10239502D02*
X11827002Y-10238994D01*
X11827002Y-10238994D02*
X12009882Y-10421874D01*
X11749786Y-10239502D02*
X11749786Y-10185908D01*
X11749786Y-10185908D02*
X11748516Y-10184638D01*
X11593576Y-10233406D02*
X11599164Y-10238994D01*
X13603986Y-9755124D02*
X13603986Y-9766554D01*
X13603986Y-9753600D02*
X13603986Y-9755124D01*
D10*
X13985240Y-9230360D02*
X14066520Y-9311640D01*
X14066520Y-9311640D02*
X14067790Y-9312910D01*
X14519910Y-8947150D02*
X14514068Y-8941308D01*
X13901928Y-8735568D02*
X13950696Y-8784336D01*
X13950696Y-8934704D02*
X13906500Y-8978900D01*
X13950696Y-8784336D02*
X13950696Y-8934704D01*
X13775690Y-8639810D02*
X13871448Y-8735568D01*
X13871448Y-8735568D02*
X13901928Y-8735568D01*
X14930628Y-8806180D02*
X14983460Y-8753348D01*
X14983460Y-8753348D02*
X15002256Y-8753348D01*
X14988032Y-8886952D02*
X14987016Y-8885936D01*
X14987016Y-8885936D02*
X14930628Y-8829548D01*
X14930628Y-8829548D02*
X14930628Y-8806180D01*
X15002256Y-8753348D02*
X15060168Y-8811260D01*
X15293340Y-8197850D02*
X15193010Y-8197850D01*
X13423900Y-8341360D02*
X13423900Y-8338820D01*
D15*
X13206730Y-9292590D02*
X13096240Y-9182100D01*
X13206730Y-9328150D02*
X13206730Y-9292590D01*
X13473430Y-9328150D02*
X13528040Y-9382760D01*
X13206730Y-9328150D02*
X13473430Y-9328150D01*
X13421360Y-8983980D02*
X13423900Y-8981440D01*
X13421360Y-8982710D02*
X13421360Y-8983980D01*
X13421360Y-9141460D02*
X13421360Y-8982710D01*
D16*
X12388342Y-9084310D02*
X12388342Y-9090406D01*
D14*
X12886182Y-9165590D02*
X12886182Y-9085326D01*
X12817602Y-9234170D02*
X12886182Y-9165590D01*
X12886690Y-9085834D02*
X12886182Y-9085326D01*
X12982956Y-9182100D02*
X12886690Y-9085834D01*
X13096240Y-9182100D02*
X12982956Y-9182100D01*
D10*
X13977620Y-8343900D02*
X13982700Y-8338820D01*
X13977620Y-8338058D02*
X13904722Y-8338058D01*
X13904722Y-8338058D02*
X13822680Y-8420100D01*
X13977620Y-8338058D02*
X13977620Y-8343900D01*
X13822680Y-8362188D02*
X13796010Y-8335518D01*
X13822680Y-8420100D02*
X13822680Y-8362188D01*
X13721842Y-8335518D02*
X13624560Y-8432800D01*
X13796010Y-8335518D02*
X13721842Y-8335518D01*
X13572490Y-8982710D02*
X13597890Y-8957310D01*
X13597890Y-8957310D02*
X13597890Y-8754110D01*
X13421360Y-8982710D02*
X13572490Y-8982710D01*
X13583920Y-8740140D02*
X13597890Y-8754110D01*
X13342620Y-8740140D02*
X13583920Y-8740140D01*
X13984478Y-8420862D02*
X13983208Y-8419592D01*
X13826490Y-8589010D02*
X13775690Y-8639810D01*
X13978890Y-8589010D02*
X13826490Y-8589010D01*
X13342620Y-8341360D02*
X13180060Y-8178800D01*
X13423900Y-8341360D02*
X13342620Y-8341360D01*
D14*
X13662660Y-8818880D02*
X13597890Y-8754110D01*
X13662660Y-8900160D02*
X13662660Y-8818880D01*
X12488418Y-8944610D02*
X12488418Y-8826246D01*
X12488418Y-8941816D02*
X12488418Y-8944610D01*
X12827254Y-8944610D02*
X12830048Y-8941816D01*
X12488418Y-8944610D02*
X12827254Y-8944610D01*
X12488418Y-8984234D02*
X12488418Y-8941816D01*
X12388342Y-9084310D02*
X12488418Y-8984234D01*
X12830048Y-9029192D02*
X12830048Y-8941816D01*
X12886690Y-9085834D02*
X12830048Y-9029192D01*
D10*
X13528040Y-9278620D02*
X13528040Y-9382760D01*
X13575030Y-9231630D02*
X13528040Y-9278620D01*
X13906500Y-9151620D02*
X13906500Y-8978900D01*
X13985240Y-9230360D02*
X13906500Y-9151620D01*
D14*
X15967456Y-10185654D02*
X15969488Y-10183622D01*
X15969488Y-10183622D02*
X15968726Y-10184384D01*
X16367506Y-10275824D02*
X16458946Y-10184384D01*
X16472916Y-10170414D02*
X16458946Y-10184384D01*
X16627856Y-10170414D02*
X16472916Y-10170414D01*
X15776956Y-10938764D02*
X15776956Y-10872724D01*
X15776956Y-10872724D02*
X16216376Y-10433304D01*
X14382750Y-10865866D02*
X14827250Y-10421366D01*
X14382750Y-10936986D02*
X14382750Y-10865866D01*
X15036800Y-10421366D02*
X14827250Y-10421366D01*
X15472410Y-10856976D02*
X15036800Y-10421366D01*
X15507462Y-10929874D02*
X15472410Y-10856976D01*
X11571732Y-10860024D02*
X12009882Y-10421874D01*
X11571732Y-10927334D02*
X11571732Y-10860024D01*
X12014200Y-10421874D02*
X12009882Y-10421874D01*
X12014200Y-10421874D02*
X12014200Y-10417556D01*
X12014200Y-10417556D02*
X12139422Y-10292334D01*
X12986004Y-10874756D02*
X13440664Y-10420096D01*
X12986004Y-10930636D02*
X12986004Y-10874756D01*
X13441172Y-10420096D02*
X13440664Y-10420096D01*
X13175488Y-10185654D02*
X13175996Y-10185146D01*
X13725652Y-10291826D02*
X13829792Y-10187686D01*
X13566394Y-10291826D02*
X13725652Y-10291826D01*
X13829792Y-10131806D02*
X13828014Y-10130028D01*
X13828014Y-10130028D02*
X13829284Y-10131298D01*
X13829792Y-10187686D02*
X13829792Y-10131806D01*
X13441172Y-10420096D02*
X13362432Y-10420096D01*
X13362432Y-10420096D02*
X13360146Y-10420096D01*
X16216376Y-10426954D02*
X16367506Y-10275824D01*
X16216376Y-10433304D02*
X16216376Y-10426954D01*
X13440664Y-10417556D02*
X13566394Y-10291826D01*
X13440664Y-10420096D02*
X13440664Y-10417556D01*
X14838680Y-10421366D02*
X14965680Y-10294366D01*
X14827250Y-10421366D02*
X14838680Y-10421366D01*
X12402820Y-10185654D02*
X12402820Y-10132314D01*
X12296140Y-10292334D02*
X12402820Y-10185654D01*
X12139422Y-10292334D02*
X12296140Y-10292334D01*
X15114524Y-10294366D02*
X15226538Y-10182352D01*
X14965680Y-10294366D02*
X15114524Y-10294366D01*
X15226538Y-10128504D02*
X15227554Y-10127488D01*
X15226538Y-10182352D02*
X15226538Y-10128504D01*
X14418310Y-10238740D02*
X14416786Y-10237216D01*
X12321540Y-10051034D02*
X12402820Y-10132314D01*
X12321540Y-10043922D02*
X12321540Y-10051034D01*
X11703304Y-9817354D02*
X11703812Y-9817354D01*
X14367256Y-10187686D02*
X14416786Y-10237216D01*
X13829792Y-10187686D02*
X14367256Y-10187686D01*
X15764764Y-10182352D02*
X15812770Y-10230358D01*
X15226538Y-10182352D02*
X15764764Y-10182352D01*
D10*
X14717268Y-9219438D02*
X14718030Y-9220200D01*
X14717268Y-9047988D02*
X14717268Y-9219438D01*
X15060168Y-8811260D02*
X15261590Y-8811260D01*
D16*
X12388342Y-9323070D02*
X12456922Y-9391650D01*
X12388342Y-9086850D02*
X12388342Y-9323070D01*
X12388342Y-9090406D02*
X12388342Y-9086850D01*
D14*
X12284202Y-8982710D02*
X12284202Y-8916670D01*
X12388342Y-9086850D02*
X12284202Y-8982710D01*
D10*
G36*
X16913098Y-11179048D02*
X16912344Y-11179048D01*
X16912344Y-10737175D01*
X16905591Y-10720832D01*
X16893098Y-10708317D01*
X16876766Y-10701536D01*
X16859083Y-10701520D01*
X16842740Y-10708273D01*
X16830225Y-10720766D01*
X16824714Y-10734039D01*
X16824714Y-10587061D01*
X16817961Y-10570718D01*
X16815813Y-10568566D01*
X16817917Y-10566466D01*
X16824698Y-10550134D01*
X16824714Y-10532451D01*
X16817961Y-10516108D01*
X16815813Y-10513956D01*
X16817917Y-10511856D01*
X16824698Y-10495524D01*
X16824714Y-10477841D01*
X16817961Y-10461498D01*
X16814545Y-10458076D01*
X16815377Y-10457246D01*
X16822158Y-10440914D01*
X16822174Y-10423231D01*
X16815421Y-10406888D01*
X16814542Y-10406007D01*
X16816647Y-10403906D01*
X16823428Y-10387574D01*
X16823444Y-10369891D01*
X16816691Y-10353548D01*
X16815178Y-10352032D01*
X16816647Y-10350566D01*
X16823428Y-10334234D01*
X16823444Y-10316551D01*
X16823444Y-10058741D01*
X16816691Y-10042398D01*
X16806926Y-10032616D01*
X16812837Y-10026716D01*
X16819618Y-10010384D01*
X16819634Y-9992701D01*
X16812881Y-9976358D01*
X16800388Y-9963843D01*
X16784056Y-9957062D01*
X16766373Y-9957046D01*
X16750030Y-9963799D01*
X16737515Y-9976292D01*
X16730734Y-9992624D01*
X16730718Y-10010307D01*
X16737471Y-10026650D01*
X16747236Y-10036432D01*
X16741325Y-10042332D01*
X16734544Y-10058664D01*
X16734528Y-10076347D01*
X16741281Y-10092690D01*
X16753774Y-10105205D01*
X16770106Y-10111986D01*
X16787789Y-10112002D01*
X16804132Y-10105249D01*
X16816647Y-10092756D01*
X16823428Y-10076424D01*
X16823444Y-10058741D01*
X16823444Y-10316551D01*
X16816691Y-10300208D01*
X16804198Y-10287693D01*
X16787866Y-10280912D01*
X16770183Y-10280896D01*
X16753840Y-10287649D01*
X16741325Y-10300142D01*
X16734544Y-10316474D01*
X16734528Y-10334157D01*
X16741281Y-10350500D01*
X16742794Y-10352016D01*
X16741325Y-10353482D01*
X16734544Y-10369814D01*
X16734528Y-10387497D01*
X16741281Y-10403840D01*
X16742160Y-10404721D01*
X16740055Y-10406822D01*
X16733274Y-10423154D01*
X16733258Y-10440837D01*
X16740011Y-10457180D01*
X16743427Y-10460602D01*
X16742595Y-10461432D01*
X16735814Y-10477764D01*
X16735798Y-10495447D01*
X16742551Y-10511790D01*
X16744699Y-10513942D01*
X16742595Y-10516042D01*
X16735814Y-10532374D01*
X16735798Y-10550057D01*
X16742551Y-10566400D01*
X16744699Y-10568552D01*
X16742595Y-10570652D01*
X16735814Y-10586984D01*
X16735798Y-10604667D01*
X16742551Y-10621010D01*
X16744066Y-10622528D01*
X16740055Y-10626532D01*
X16733274Y-10642864D01*
X16733258Y-10660547D01*
X16740011Y-10676890D01*
X16752504Y-10689405D01*
X16768836Y-10696186D01*
X16786519Y-10696202D01*
X16802862Y-10689449D01*
X16815377Y-10676956D01*
X16822158Y-10660624D01*
X16822174Y-10642941D01*
X16815421Y-10626598D01*
X16813906Y-10625080D01*
X16817917Y-10621076D01*
X16824698Y-10604744D01*
X16824714Y-10587061D01*
X16824714Y-10734039D01*
X16823444Y-10737098D01*
X16823428Y-10754781D01*
X16830181Y-10771124D01*
X16842674Y-10783639D01*
X16859006Y-10790420D01*
X16876689Y-10790436D01*
X16893032Y-10783683D01*
X16905547Y-10771190D01*
X16912328Y-10754858D01*
X16912344Y-10737175D01*
X16912344Y-11179048D01*
X16855448Y-11179048D01*
X16855448Y-10932501D01*
X16848695Y-10916158D01*
X16836202Y-10903643D01*
X16819870Y-10896862D01*
X16802187Y-10896846D01*
X16785844Y-10903599D01*
X16773329Y-10916092D01*
X16766548Y-10932424D01*
X16766532Y-10950107D01*
X16773285Y-10966450D01*
X16785778Y-10978965D01*
X16802110Y-10985746D01*
X16819793Y-10985762D01*
X16836136Y-10979009D01*
X16848651Y-10966516D01*
X16855432Y-10950184D01*
X16855448Y-10932501D01*
X16855448Y-11179048D01*
X16696444Y-11179048D01*
X16696444Y-9860621D01*
X16689691Y-9844278D01*
X16677198Y-9831763D01*
X16660866Y-9824982D01*
X16643183Y-9824966D01*
X16626840Y-9831719D01*
X16616472Y-9842069D01*
X16614761Y-9837928D01*
X16602268Y-9825413D01*
X16585936Y-9818632D01*
X16568253Y-9818616D01*
X16551910Y-9825369D01*
X16539395Y-9837862D01*
X16532614Y-9854194D01*
X16532598Y-9871877D01*
X16539351Y-9888220D01*
X16551844Y-9900735D01*
X16568176Y-9907516D01*
X16585859Y-9907532D01*
X16602202Y-9900779D01*
X16612570Y-9890429D01*
X16614281Y-9894570D01*
X16626774Y-9907085D01*
X16643106Y-9913866D01*
X16660789Y-9913882D01*
X16677132Y-9907129D01*
X16689647Y-9894636D01*
X16696428Y-9878304D01*
X16696444Y-9860621D01*
X16696444Y-11179048D01*
X16664694Y-11179048D01*
X16664694Y-10282261D01*
X16657941Y-10265918D01*
X16645448Y-10253403D01*
X16629116Y-10246622D01*
X16611433Y-10246606D01*
X16595090Y-10253359D01*
X16582575Y-10265852D01*
X16575794Y-10282184D01*
X16575778Y-10299867D01*
X16582531Y-10316210D01*
X16595024Y-10328725D01*
X16611356Y-10335506D01*
X16629039Y-10335522D01*
X16645382Y-10328769D01*
X16657897Y-10316276D01*
X16664678Y-10299944D01*
X16664694Y-10282261D01*
X16664694Y-11179048D01*
X16269978Y-11179048D01*
X16269978Y-9817949D01*
X16263225Y-9801606D01*
X16250732Y-9789091D01*
X16234400Y-9782310D01*
X16216717Y-9782294D01*
X16200374Y-9789047D01*
X16187859Y-9801540D01*
X16181078Y-9817872D01*
X16181062Y-9835555D01*
X16187815Y-9851898D01*
X16200308Y-9864413D01*
X16216640Y-9871194D01*
X16234323Y-9871210D01*
X16250666Y-9864457D01*
X16263181Y-9851964D01*
X16269962Y-9835632D01*
X16269978Y-9817949D01*
X16269978Y-11179048D01*
X16113514Y-11179048D01*
X16113514Y-10020641D01*
X16106761Y-10004298D01*
X16094268Y-9991783D01*
X16077936Y-9985002D01*
X16060253Y-9984986D01*
X16043910Y-9991739D01*
X16031395Y-10004232D01*
X16024614Y-10020564D01*
X16024598Y-10038247D01*
X16031351Y-10054590D01*
X16043844Y-10067105D01*
X16060176Y-10073886D01*
X16077859Y-10073902D01*
X16094202Y-10067149D01*
X16106717Y-10054656D01*
X16113498Y-10038324D01*
X16113514Y-10020641D01*
X16113514Y-11179048D01*
X16025884Y-11179048D01*
X16025884Y-10329251D01*
X16019131Y-10312908D01*
X16006638Y-10300393D01*
X15990306Y-10293612D01*
X15972623Y-10293596D01*
X15956280Y-10300349D01*
X15943765Y-10312842D01*
X15936984Y-10329174D01*
X15936968Y-10346857D01*
X15943721Y-10363200D01*
X15956214Y-10375715D01*
X15972546Y-10382496D01*
X15990229Y-10382512D01*
X16006572Y-10375759D01*
X16019087Y-10363266D01*
X16025868Y-10346934D01*
X16025884Y-10329251D01*
X16025884Y-11179048D01*
X15858244Y-11179048D01*
X15858244Y-10423231D01*
X15851491Y-10406888D01*
X15848710Y-10404102D01*
X15848907Y-10403906D01*
X15855688Y-10387574D01*
X15855704Y-10369891D01*
X15848951Y-10353548D01*
X15848072Y-10352667D01*
X15850177Y-10350566D01*
X15856958Y-10334234D01*
X15856974Y-10316551D01*
X15851386Y-10303027D01*
X15851386Y-10144847D01*
X15844633Y-10128504D01*
X15832140Y-10115989D01*
X15815808Y-10109208D01*
X15798125Y-10109192D01*
X15781782Y-10115945D01*
X15769267Y-10128438D01*
X15762486Y-10144770D01*
X15762470Y-10162453D01*
X15769223Y-10178796D01*
X15781716Y-10191311D01*
X15798048Y-10198092D01*
X15815731Y-10198108D01*
X15832074Y-10191355D01*
X15844589Y-10178862D01*
X15851370Y-10162530D01*
X15851386Y-10144847D01*
X15851386Y-10303027D01*
X15850221Y-10300208D01*
X15837728Y-10287693D01*
X15821396Y-10280912D01*
X15803713Y-10280896D01*
X15787370Y-10287649D01*
X15774855Y-10300142D01*
X15768074Y-10316474D01*
X15768058Y-10334157D01*
X15774811Y-10350500D01*
X15775690Y-10351381D01*
X15773585Y-10353482D01*
X15766804Y-10369814D01*
X15766788Y-10387497D01*
X15773541Y-10403840D01*
X15776322Y-10406626D01*
X15776125Y-10406822D01*
X15769344Y-10423154D01*
X15769328Y-10440837D01*
X15776081Y-10457180D01*
X15777595Y-10458697D01*
X15774855Y-10461432D01*
X15768074Y-10477764D01*
X15768058Y-10495447D01*
X15774811Y-10511790D01*
X15777594Y-10514578D01*
X15774855Y-10517312D01*
X15768074Y-10533644D01*
X15768058Y-10551327D01*
X15774213Y-10566222D01*
X15769775Y-10570652D01*
X15762994Y-10586984D01*
X15762978Y-10604667D01*
X15769731Y-10621010D01*
X15772515Y-10623799D01*
X15768505Y-10627802D01*
X15761724Y-10644134D01*
X15761708Y-10661817D01*
X15768461Y-10678160D01*
X15780954Y-10690675D01*
X15797286Y-10697456D01*
X15814969Y-10697472D01*
X15831312Y-10690719D01*
X15843827Y-10678226D01*
X15850608Y-10661894D01*
X15850624Y-10644211D01*
X15843871Y-10627868D01*
X15841087Y-10625079D01*
X15845097Y-10621076D01*
X15851878Y-10604744D01*
X15851894Y-10587061D01*
X15845739Y-10572166D01*
X15850177Y-10567736D01*
X15856958Y-10551404D01*
X15856974Y-10533721D01*
X15850221Y-10517378D01*
X15847438Y-10514590D01*
X15850177Y-10511856D01*
X15856958Y-10495524D01*
X15856974Y-10477841D01*
X15850221Y-10461498D01*
X15848707Y-10459981D01*
X15851447Y-10457246D01*
X15858228Y-10440914D01*
X15858244Y-10423231D01*
X15858244Y-11179048D01*
X15819128Y-11179048D01*
X15819128Y-10727523D01*
X15812375Y-10711180D01*
X15799882Y-10698665D01*
X15783550Y-10691884D01*
X15765867Y-10691868D01*
X15749524Y-10698621D01*
X15737009Y-10711114D01*
X15730228Y-10727446D01*
X15730212Y-10745129D01*
X15736965Y-10761472D01*
X15749458Y-10773987D01*
X15765790Y-10780768D01*
X15783473Y-10780784D01*
X15799816Y-10774031D01*
X15812331Y-10761538D01*
X15819112Y-10745206D01*
X15819128Y-10727523D01*
X15819128Y-11179048D01*
X15734546Y-11179048D01*
X15734546Y-10941645D01*
X15727793Y-10925302D01*
X15715300Y-10912787D01*
X15698968Y-10906006D01*
X15681285Y-10905990D01*
X15664942Y-10912743D01*
X15652427Y-10925236D01*
X15645646Y-10941568D01*
X15645630Y-10959251D01*
X15652383Y-10975594D01*
X15664876Y-10988109D01*
X15681208Y-10994890D01*
X15698891Y-10994906D01*
X15715234Y-10988153D01*
X15727749Y-10975660D01*
X15734530Y-10959328D01*
X15734546Y-10941645D01*
X15734546Y-11179048D01*
X15513312Y-11179048D01*
X15513312Y-10733111D01*
X15506559Y-10716768D01*
X15494066Y-10704253D01*
X15477734Y-10697472D01*
X15460051Y-10697456D01*
X15443708Y-10704209D01*
X15431193Y-10716702D01*
X15427968Y-10724470D01*
X15427968Y-10377003D01*
X15421215Y-10360660D01*
X15419702Y-10359144D01*
X15421171Y-10357678D01*
X15427952Y-10341346D01*
X15427968Y-10323663D01*
X15427460Y-10322434D01*
X15427460Y-10069917D01*
X15420707Y-10053574D01*
X15420187Y-10053054D01*
X15426936Y-10036800D01*
X15426952Y-10019117D01*
X15420199Y-10002774D01*
X15407706Y-9990259D01*
X15391374Y-9983478D01*
X15373691Y-9983462D01*
X15357348Y-9990215D01*
X15344833Y-10002708D01*
X15338052Y-10019040D01*
X15338036Y-10036723D01*
X15344789Y-10053066D01*
X15345309Y-10053586D01*
X15338560Y-10069840D01*
X15338544Y-10087523D01*
X15345297Y-10103866D01*
X15357790Y-10116381D01*
X15374122Y-10123162D01*
X15391805Y-10123178D01*
X15408148Y-10116425D01*
X15420663Y-10103932D01*
X15427444Y-10087600D01*
X15427460Y-10069917D01*
X15427460Y-10322434D01*
X15421215Y-10307320D01*
X15408722Y-10294805D01*
X15392390Y-10288024D01*
X15374707Y-10288008D01*
X15358364Y-10294761D01*
X15345849Y-10307254D01*
X15339068Y-10323586D01*
X15339052Y-10341269D01*
X15345805Y-10357612D01*
X15347318Y-10359128D01*
X15345849Y-10360594D01*
X15339068Y-10376926D01*
X15339052Y-10394609D01*
X15345805Y-10410952D01*
X15346684Y-10411833D01*
X15344579Y-10413934D01*
X15337798Y-10430266D01*
X15337782Y-10447949D01*
X15344535Y-10464292D01*
X15345414Y-10465173D01*
X15343309Y-10467274D01*
X15336528Y-10483606D01*
X15336512Y-10501289D01*
X15343265Y-10517632D01*
X15345412Y-10519783D01*
X15344579Y-10520614D01*
X15337798Y-10536946D01*
X15337782Y-10554629D01*
X15344535Y-10570972D01*
X15346683Y-10573124D01*
X15344579Y-10575224D01*
X15337798Y-10591556D01*
X15337782Y-10609239D01*
X15344535Y-10625582D01*
X15347318Y-10628370D01*
X15344579Y-10631104D01*
X15337798Y-10647436D01*
X15337782Y-10665119D01*
X15344535Y-10681462D01*
X15357028Y-10693977D01*
X15373360Y-10700758D01*
X15391043Y-10700774D01*
X15407386Y-10694021D01*
X15419901Y-10681528D01*
X15426682Y-10665196D01*
X15426698Y-10647513D01*
X15419945Y-10631170D01*
X15417162Y-10628382D01*
X15419901Y-10625648D01*
X15426682Y-10609316D01*
X15426698Y-10591633D01*
X15419945Y-10575290D01*
X15417797Y-10573138D01*
X15419901Y-10571038D01*
X15426682Y-10554706D01*
X15426698Y-10537023D01*
X15419945Y-10520680D01*
X15417798Y-10518529D01*
X15418631Y-10517698D01*
X15425412Y-10501366D01*
X15425428Y-10483683D01*
X15418675Y-10467340D01*
X15417796Y-10466459D01*
X15419901Y-10464358D01*
X15426682Y-10448026D01*
X15426698Y-10430343D01*
X15419945Y-10414000D01*
X15419066Y-10413119D01*
X15421171Y-10411018D01*
X15427952Y-10394686D01*
X15427968Y-10377003D01*
X15427968Y-10724470D01*
X15424412Y-10733034D01*
X15424396Y-10750717D01*
X15431149Y-10767060D01*
X15443642Y-10779575D01*
X15459974Y-10786356D01*
X15477657Y-10786372D01*
X15494000Y-10779619D01*
X15506515Y-10767126D01*
X15513296Y-10750794D01*
X15513312Y-10733111D01*
X15513312Y-11179048D01*
X15460988Y-11179048D01*
X15460988Y-10918023D01*
X15454235Y-10901680D01*
X15441742Y-10889165D01*
X15425410Y-10882384D01*
X15407727Y-10882368D01*
X15391384Y-10889121D01*
X15378869Y-10901614D01*
X15372088Y-10917946D01*
X15372072Y-10935629D01*
X15378825Y-10951972D01*
X15391318Y-10964487D01*
X15407650Y-10971268D01*
X15425333Y-10971284D01*
X15441676Y-10964531D01*
X15454191Y-10952038D01*
X15460972Y-10935706D01*
X15460988Y-10918023D01*
X15460988Y-11179048D01*
X15313414Y-11179048D01*
X15313414Y-9875353D01*
X15306661Y-9859010D01*
X15294168Y-9846495D01*
X15277836Y-9839714D01*
X15260153Y-9839698D01*
X15245967Y-9845560D01*
X15233716Y-9833287D01*
X15217384Y-9826506D01*
X15199701Y-9826490D01*
X15183358Y-9833243D01*
X15177016Y-9839574D01*
X15177016Y-9653357D01*
X15170263Y-9637014D01*
X15159492Y-9626224D01*
X15159492Y-9499964D01*
X15151002Y-9479418D01*
X15135297Y-9463685D01*
X15114766Y-9455160D01*
X15092535Y-9455140D01*
X15071990Y-9463630D01*
X15062716Y-9472888D01*
X15062716Y-8146375D01*
X15055963Y-8130032D01*
X15043470Y-8117517D01*
X15027138Y-8110736D01*
X15009455Y-8110720D01*
X14993112Y-8117473D01*
X14980597Y-8129966D01*
X14973816Y-8146298D01*
X14973800Y-8163981D01*
X14980553Y-8180324D01*
X14993046Y-8192839D01*
X15009378Y-8199620D01*
X15027061Y-8199636D01*
X15043404Y-8192883D01*
X15055919Y-8180390D01*
X15062700Y-8164058D01*
X15062716Y-8146375D01*
X15062716Y-9472888D01*
X15056257Y-9479335D01*
X15047732Y-9499866D01*
X15047712Y-9522097D01*
X15056202Y-9542642D01*
X15071907Y-9558375D01*
X15092438Y-9566900D01*
X15114668Y-9566920D01*
X15135214Y-9558430D01*
X15150947Y-9542725D01*
X15159472Y-9522194D01*
X15159492Y-9499964D01*
X15159492Y-9626224D01*
X15157770Y-9624499D01*
X15141438Y-9617718D01*
X15123755Y-9617702D01*
X15107412Y-9624455D01*
X15094897Y-9636948D01*
X15088116Y-9653280D01*
X15088100Y-9670963D01*
X15094853Y-9687306D01*
X15107346Y-9699821D01*
X15123678Y-9706602D01*
X15141361Y-9706618D01*
X15157704Y-9699865D01*
X15170219Y-9687372D01*
X15177000Y-9671040D01*
X15177016Y-9653357D01*
X15177016Y-9839574D01*
X15170843Y-9845736D01*
X15164062Y-9862068D01*
X15164046Y-9879751D01*
X15170799Y-9896094D01*
X15183292Y-9908609D01*
X15199624Y-9915390D01*
X15217307Y-9915406D01*
X15231493Y-9909544D01*
X15243744Y-9921817D01*
X15260076Y-9928598D01*
X15277759Y-9928614D01*
X15294102Y-9921861D01*
X15306617Y-9909368D01*
X15313398Y-9893036D01*
X15313414Y-9875353D01*
X15313414Y-11179048D01*
X15271758Y-11179048D01*
X15271758Y-10284293D01*
X15265005Y-10267950D01*
X15252512Y-10255435D01*
X15236180Y-10248654D01*
X15218497Y-10248638D01*
X15202154Y-10255391D01*
X15189639Y-10267884D01*
X15182858Y-10284216D01*
X15182842Y-10301899D01*
X15189595Y-10318242D01*
X15202088Y-10330757D01*
X15218420Y-10337538D01*
X15236103Y-10337554D01*
X15252446Y-10330801D01*
X15264961Y-10318308D01*
X15271742Y-10301976D01*
X15271758Y-10284293D01*
X15271758Y-11179048D01*
X15091672Y-11179048D01*
X15091672Y-9702887D01*
X15084919Y-9686544D01*
X15072426Y-9674029D01*
X15056094Y-9667248D01*
X15038411Y-9667232D01*
X15034014Y-9669049D01*
X15034014Y-8656661D01*
X15027261Y-8640318D01*
X15014768Y-8627803D01*
X14998436Y-8621022D01*
X14980753Y-8621006D01*
X14964410Y-8627759D01*
X14951895Y-8640252D01*
X14945114Y-8656584D01*
X14945098Y-8674267D01*
X14951851Y-8690610D01*
X14964344Y-8703125D01*
X14980676Y-8709906D01*
X14998359Y-8709922D01*
X15014702Y-8703169D01*
X15027217Y-8690676D01*
X15033998Y-8674344D01*
X15034014Y-8656661D01*
X15034014Y-9669049D01*
X15022068Y-9673985D01*
X15009553Y-9686478D01*
X15002772Y-9702810D01*
X15002756Y-9720493D01*
X15009509Y-9736836D01*
X15022002Y-9749351D01*
X15038334Y-9756132D01*
X15056017Y-9756148D01*
X15072360Y-9749395D01*
X15084875Y-9736902D01*
X15091656Y-9720570D01*
X15091672Y-9702887D01*
X15091672Y-11179048D01*
X15069574Y-11179048D01*
X15069574Y-9863669D01*
X15062821Y-9847326D01*
X15050328Y-9834811D01*
X15033996Y-9828030D01*
X15016313Y-9828014D01*
X14999970Y-9834767D01*
X14987455Y-9847260D01*
X14980674Y-9863592D01*
X14980658Y-9881275D01*
X14987411Y-9897618D01*
X14999904Y-9910133D01*
X15016236Y-9916914D01*
X15033919Y-9916930D01*
X15050262Y-9910177D01*
X15062777Y-9897684D01*
X15069558Y-9881352D01*
X15069574Y-9863669D01*
X15069574Y-11179048D01*
X14969752Y-11179048D01*
X14969752Y-9862907D01*
X14962999Y-9846564D01*
X14950506Y-9834049D01*
X14934174Y-9827268D01*
X14916491Y-9827252D01*
X14909808Y-9830014D01*
X14909808Y-8335097D01*
X14903055Y-8318754D01*
X14890562Y-8306239D01*
X14874230Y-8299458D01*
X14856547Y-8299442D01*
X14840204Y-8306195D01*
X14827689Y-8318688D01*
X14820908Y-8335020D01*
X14820892Y-8352703D01*
X14827645Y-8369046D01*
X14840138Y-8381561D01*
X14856470Y-8388342D01*
X14874153Y-8388358D01*
X14890496Y-8381605D01*
X14903011Y-8369112D01*
X14909792Y-8352780D01*
X14909808Y-8335097D01*
X14909808Y-9830014D01*
X14902442Y-9833057D01*
X14902442Y-8481401D01*
X14895689Y-8465058D01*
X14883196Y-8452543D01*
X14866864Y-8445762D01*
X14855448Y-8445752D01*
X14855452Y-8441777D01*
X14848699Y-8425434D01*
X14836206Y-8412919D01*
X14819874Y-8406138D01*
X14802191Y-8406122D01*
X14785848Y-8412875D01*
X14773333Y-8425368D01*
X14766552Y-8441700D01*
X14766536Y-8459383D01*
X14773289Y-8475726D01*
X14785782Y-8488241D01*
X14802114Y-8495022D01*
X14813530Y-8495032D01*
X14813526Y-8499007D01*
X14820279Y-8515350D01*
X14832772Y-8527865D01*
X14849104Y-8534646D01*
X14866787Y-8534662D01*
X14883130Y-8527909D01*
X14895645Y-8515416D01*
X14902426Y-8499084D01*
X14902442Y-8481401D01*
X14902442Y-9833057D01*
X14900148Y-9834005D01*
X14887633Y-9846498D01*
X14880852Y-9862830D01*
X14880836Y-9880513D01*
X14887589Y-9896856D01*
X14900082Y-9909371D01*
X14916414Y-9916152D01*
X14934097Y-9916168D01*
X14950440Y-9909415D01*
X14962955Y-9896922D01*
X14969736Y-9880590D01*
X14969752Y-9862907D01*
X14969752Y-11179048D01*
X14869168Y-11179048D01*
X14869168Y-9773753D01*
X14862415Y-9757410D01*
X14849922Y-9744895D01*
X14833590Y-9738114D01*
X14822432Y-9738104D01*
X14822432Y-9513149D01*
X14815679Y-9496806D01*
X14803186Y-9484291D01*
X14786854Y-9477510D01*
X14769171Y-9477494D01*
X14752828Y-9484247D01*
X14740313Y-9496740D01*
X14733532Y-9513072D01*
X14733516Y-9530755D01*
X14740269Y-9547098D01*
X14752762Y-9559613D01*
X14769094Y-9566394D01*
X14786777Y-9566410D01*
X14803120Y-9559657D01*
X14815635Y-9547164D01*
X14822416Y-9530832D01*
X14822432Y-9513149D01*
X14822432Y-9738104D01*
X14815907Y-9738098D01*
X14799564Y-9744851D01*
X14787049Y-9757344D01*
X14780268Y-9773676D01*
X14780252Y-9791359D01*
X14787005Y-9807702D01*
X14799498Y-9820217D01*
X14815830Y-9826998D01*
X14833513Y-9827014D01*
X14849856Y-9820261D01*
X14862371Y-9807768D01*
X14869152Y-9791436D01*
X14869168Y-9773753D01*
X14869168Y-11179048D01*
X14719308Y-11179048D01*
X14719308Y-10007433D01*
X14712555Y-9991090D01*
X14706100Y-9984624D01*
X14706100Y-9476573D01*
X14699347Y-9460230D01*
X14686854Y-9447715D01*
X14670522Y-9440934D01*
X14652839Y-9440918D01*
X14636496Y-9447671D01*
X14630154Y-9454002D01*
X14630154Y-8274137D01*
X14623401Y-8257794D01*
X14610908Y-8245279D01*
X14594576Y-8238498D01*
X14576893Y-8238482D01*
X14560550Y-8245235D01*
X14548035Y-8257728D01*
X14541254Y-8274060D01*
X14541238Y-8291743D01*
X14547991Y-8308086D01*
X14560484Y-8320601D01*
X14576816Y-8327382D01*
X14594499Y-8327398D01*
X14610842Y-8320645D01*
X14623357Y-8308152D01*
X14630138Y-8291820D01*
X14630154Y-8274137D01*
X14630154Y-9454002D01*
X14623981Y-9460164D01*
X14617200Y-9476496D01*
X14617184Y-9494179D01*
X14623937Y-9510522D01*
X14636430Y-9523037D01*
X14652762Y-9529818D01*
X14670445Y-9529834D01*
X14686788Y-9523081D01*
X14699303Y-9510588D01*
X14706084Y-9494256D01*
X14706100Y-9476573D01*
X14706100Y-9984624D01*
X14700062Y-9978575D01*
X14683730Y-9971794D01*
X14666047Y-9971778D01*
X14649704Y-9978531D01*
X14637189Y-9991024D01*
X14630408Y-10007356D01*
X14630392Y-10025039D01*
X14637145Y-10041382D01*
X14649638Y-10053897D01*
X14665970Y-10060678D01*
X14683653Y-10060694D01*
X14699996Y-10053941D01*
X14712511Y-10041448D01*
X14719292Y-10025116D01*
X14719308Y-10007433D01*
X14719308Y-11179048D01*
X14636758Y-11179048D01*
X14636758Y-10325949D01*
X14630005Y-10309606D01*
X14617512Y-10297091D01*
X14601180Y-10290310D01*
X14583497Y-10290294D01*
X14567154Y-10297047D01*
X14555986Y-10308196D01*
X14555986Y-9451681D01*
X14549233Y-9435338D01*
X14536740Y-9422823D01*
X14521188Y-9416365D01*
X14521188Y-9154247D01*
X14514435Y-9137904D01*
X14510382Y-9133844D01*
X14514391Y-9129842D01*
X14521172Y-9113510D01*
X14521188Y-9095827D01*
X14514435Y-9079484D01*
X14501942Y-9066969D01*
X14488422Y-9061355D01*
X14488422Y-8150185D01*
X14481669Y-8133842D01*
X14469176Y-8121327D01*
X14452844Y-8114546D01*
X14435161Y-8114530D01*
X14418818Y-8121283D01*
X14406303Y-8133776D01*
X14399522Y-8150108D01*
X14399506Y-8167791D01*
X14406259Y-8184134D01*
X14418752Y-8196649D01*
X14435084Y-8203430D01*
X14452767Y-8203446D01*
X14469110Y-8196693D01*
X14481625Y-8184200D01*
X14488406Y-8167868D01*
X14488422Y-8150185D01*
X14488422Y-9061355D01*
X14487660Y-9061039D01*
X14487660Y-8383103D01*
X14480907Y-8366760D01*
X14468414Y-8354245D01*
X14452082Y-8347464D01*
X14434399Y-8347448D01*
X14418056Y-8354201D01*
X14405541Y-8366694D01*
X14398760Y-8383026D01*
X14398744Y-8400709D01*
X14405497Y-8417052D01*
X14417990Y-8429567D01*
X14434322Y-8436348D01*
X14452005Y-8436364D01*
X14468348Y-8429611D01*
X14480863Y-8417118D01*
X14487644Y-8400786D01*
X14487660Y-8383103D01*
X14487660Y-9061039D01*
X14485610Y-9060188D01*
X14467927Y-9060172D01*
X14451584Y-9066925D01*
X14439069Y-9079418D01*
X14432288Y-9095750D01*
X14432272Y-9113433D01*
X14439025Y-9129776D01*
X14443078Y-9133836D01*
X14439069Y-9137838D01*
X14432288Y-9154170D01*
X14432272Y-9171853D01*
X14439025Y-9188196D01*
X14451518Y-9200711D01*
X14467850Y-9207492D01*
X14485533Y-9207508D01*
X14501876Y-9200755D01*
X14514391Y-9188262D01*
X14521172Y-9171930D01*
X14521188Y-9154247D01*
X14521188Y-9416365D01*
X14520408Y-9416042D01*
X14502725Y-9416026D01*
X14486382Y-9422779D01*
X14473867Y-9435272D01*
X14467086Y-9451604D01*
X14467070Y-9469287D01*
X14473823Y-9485630D01*
X14486316Y-9498145D01*
X14502648Y-9504926D01*
X14520331Y-9504942D01*
X14536674Y-9498189D01*
X14549189Y-9485696D01*
X14555970Y-9469364D01*
X14555986Y-9451681D01*
X14555986Y-10308196D01*
X14554639Y-10309540D01*
X14547858Y-10325872D01*
X14547842Y-10343555D01*
X14554595Y-10359898D01*
X14567088Y-10372413D01*
X14583420Y-10379194D01*
X14601103Y-10379210D01*
X14617446Y-10372457D01*
X14629961Y-10359964D01*
X14636742Y-10343632D01*
X14636758Y-10325949D01*
X14636758Y-11179048D01*
X14461498Y-11179048D01*
X14461498Y-10586553D01*
X14454745Y-10570210D01*
X14453232Y-10568694D01*
X14454701Y-10567228D01*
X14461482Y-10550896D01*
X14461498Y-10533213D01*
X14454745Y-10516870D01*
X14453232Y-10515354D01*
X14454701Y-10513888D01*
X14461482Y-10497556D01*
X14461498Y-10479873D01*
X14454745Y-10463530D01*
X14451964Y-10460744D01*
X14452161Y-10460548D01*
X14458942Y-10444216D01*
X14458958Y-10426533D01*
X14452205Y-10410190D01*
X14451326Y-10409309D01*
X14453431Y-10407208D01*
X14460212Y-10390876D01*
X14460228Y-10373193D01*
X14453475Y-10356850D01*
X14451962Y-10355334D01*
X14453431Y-10353868D01*
X14460212Y-10337536D01*
X14460228Y-10319853D01*
X14459720Y-10318624D01*
X14459720Y-10133925D01*
X14452967Y-10117582D01*
X14440474Y-10105067D01*
X14424142Y-10098286D01*
X14416286Y-10098279D01*
X14416286Y-9743781D01*
X14409533Y-9727438D01*
X14402062Y-9719954D01*
X14402062Y-9462349D01*
X14395309Y-9446006D01*
X14391648Y-9442338D01*
X14391648Y-8905327D01*
X14384895Y-8888984D01*
X14379202Y-8883281D01*
X14379202Y-8777057D01*
X14372449Y-8760714D01*
X14359956Y-8748199D01*
X14343624Y-8741418D01*
X14325941Y-8741402D01*
X14309598Y-8748155D01*
X14297083Y-8760648D01*
X14290302Y-8776980D01*
X14290286Y-8794663D01*
X14297039Y-8811006D01*
X14309532Y-8823521D01*
X14325864Y-8830302D01*
X14343547Y-8830318D01*
X14359890Y-8823565D01*
X14372405Y-8811072D01*
X14379186Y-8794740D01*
X14379202Y-8777057D01*
X14379202Y-8883281D01*
X14372402Y-8876469D01*
X14356070Y-8869688D01*
X14338387Y-8869672D01*
X14322044Y-8876425D01*
X14309529Y-8888918D01*
X14302748Y-8905250D01*
X14302732Y-8922933D01*
X14309485Y-8939276D01*
X14321978Y-8951791D01*
X14338310Y-8958572D01*
X14355993Y-8958588D01*
X14372336Y-8951835D01*
X14384851Y-8939342D01*
X14391632Y-8923010D01*
X14391648Y-8905327D01*
X14391648Y-9442338D01*
X14386568Y-9437250D01*
X14386568Y-9108527D01*
X14379815Y-9092184D01*
X14367322Y-9079669D01*
X14350990Y-9072888D01*
X14333307Y-9072872D01*
X14316964Y-9079625D01*
X14304449Y-9092118D01*
X14297668Y-9108450D01*
X14297652Y-9126133D01*
X14304405Y-9142476D01*
X14316898Y-9154991D01*
X14333230Y-9161772D01*
X14350913Y-9161788D01*
X14367256Y-9155035D01*
X14379771Y-9142542D01*
X14386552Y-9126210D01*
X14386568Y-9108527D01*
X14386568Y-9437250D01*
X14382816Y-9433491D01*
X14366484Y-9426710D01*
X14363708Y-9426707D01*
X14363708Y-9362527D01*
X14356955Y-9346184D01*
X14344462Y-9333669D01*
X14328130Y-9326888D01*
X14310447Y-9326872D01*
X14294104Y-9333625D01*
X14282174Y-9345535D01*
X14282174Y-8464637D01*
X14275421Y-8448294D01*
X14273538Y-8446408D01*
X14273538Y-8331287D01*
X14266785Y-8314944D01*
X14254292Y-8302429D01*
X14247386Y-8299561D01*
X14251686Y-8297785D01*
X14264201Y-8285292D01*
X14270982Y-8268960D01*
X14270998Y-8251277D01*
X14264245Y-8234934D01*
X14251752Y-8222419D01*
X14239714Y-8217421D01*
X14254226Y-8211425D01*
X14266741Y-8198932D01*
X14273522Y-8182600D01*
X14273538Y-8164917D01*
X14266785Y-8148574D01*
X14254292Y-8136059D01*
X14237960Y-8129278D01*
X14220277Y-8129262D01*
X14203934Y-8136015D01*
X14191419Y-8148508D01*
X14184638Y-8164840D01*
X14184622Y-8182523D01*
X14191375Y-8198866D01*
X14203868Y-8211381D01*
X14215905Y-8216379D01*
X14201394Y-8222375D01*
X14188879Y-8234868D01*
X14182098Y-8251200D01*
X14182098Y-8251314D01*
X14182098Y-8084907D01*
X14175345Y-8068564D01*
X14162852Y-8056049D01*
X14146520Y-8049268D01*
X14128837Y-8049252D01*
X14112494Y-8056005D01*
X14099979Y-8068498D01*
X14093198Y-8084830D01*
X14093182Y-8102513D01*
X14099935Y-8118856D01*
X14112428Y-8131371D01*
X14128760Y-8138152D01*
X14146443Y-8138168D01*
X14162786Y-8131415D01*
X14175301Y-8118922D01*
X14182082Y-8102590D01*
X14182098Y-8084907D01*
X14182098Y-8251314D01*
X14182082Y-8268883D01*
X14188835Y-8285226D01*
X14201328Y-8297741D01*
X14208234Y-8300608D01*
X14203934Y-8302385D01*
X14191419Y-8314878D01*
X14184638Y-8331210D01*
X14184622Y-8348893D01*
X14191375Y-8365236D01*
X14203868Y-8377751D01*
X14220200Y-8384532D01*
X14237883Y-8384548D01*
X14254226Y-8377795D01*
X14266741Y-8365302D01*
X14273522Y-8348970D01*
X14273538Y-8331287D01*
X14273538Y-8446408D01*
X14262928Y-8435779D01*
X14246596Y-8428998D01*
X14228913Y-8428982D01*
X14212570Y-8435735D01*
X14200055Y-8448228D01*
X14193274Y-8464560D01*
X14193258Y-8482243D01*
X14200011Y-8498586D01*
X14212504Y-8511101D01*
X14228836Y-8517882D01*
X14246519Y-8517898D01*
X14262862Y-8511145D01*
X14275377Y-8498652D01*
X14282158Y-8482320D01*
X14282174Y-8464637D01*
X14282174Y-9345535D01*
X14281589Y-9346118D01*
X14280650Y-9348381D01*
X14280650Y-8720161D01*
X14273897Y-8703818D01*
X14269982Y-8699896D01*
X14269982Y-8578429D01*
X14263229Y-8562086D01*
X14250736Y-8549571D01*
X14234404Y-8542790D01*
X14216721Y-8542774D01*
X14200378Y-8549527D01*
X14187863Y-8562020D01*
X14185129Y-8568605D01*
X14179917Y-8555990D01*
X14167424Y-8543475D01*
X14160039Y-8540409D01*
X14169390Y-8536545D01*
X14181905Y-8524052D01*
X14188686Y-8507720D01*
X14188702Y-8490037D01*
X14181949Y-8473694D01*
X14169456Y-8461179D01*
X14153124Y-8454398D01*
X14135441Y-8454382D01*
X14119098Y-8461135D01*
X14107168Y-8473045D01*
X14107168Y-8253817D01*
X14100415Y-8237474D01*
X14087922Y-8224959D01*
X14071590Y-8218178D01*
X14053907Y-8218162D01*
X14037564Y-8224915D01*
X14027158Y-8235303D01*
X14027158Y-8172537D01*
X14020405Y-8156194D01*
X14007912Y-8143679D01*
X13997040Y-8139165D01*
X14006576Y-8135225D01*
X14019091Y-8122732D01*
X14025872Y-8106400D01*
X14025888Y-8088717D01*
X14019135Y-8072374D01*
X14006642Y-8059859D01*
X13990310Y-8053078D01*
X13972627Y-8053062D01*
X13956284Y-8059815D01*
X13943769Y-8072308D01*
X13936988Y-8088640D01*
X13936972Y-8106323D01*
X13943725Y-8122666D01*
X13956218Y-8135181D01*
X13967090Y-8139695D01*
X13957554Y-8143635D01*
X13945039Y-8156128D01*
X13938258Y-8172460D01*
X13938242Y-8190143D01*
X13944995Y-8206486D01*
X13957488Y-8219001D01*
X13973820Y-8225782D01*
X13991503Y-8225798D01*
X14007846Y-8219045D01*
X14020361Y-8206552D01*
X14027142Y-8190220D01*
X14027158Y-8172537D01*
X14027158Y-8235303D01*
X14025049Y-8237408D01*
X14018268Y-8253740D01*
X14018252Y-8271423D01*
X14025005Y-8287766D01*
X14037498Y-8300281D01*
X14053830Y-8307062D01*
X14071513Y-8307078D01*
X14087856Y-8300325D01*
X14100371Y-8287832D01*
X14107152Y-8271500D01*
X14107168Y-8253817D01*
X14107168Y-8473045D01*
X14106583Y-8473628D01*
X14099802Y-8489960D01*
X14099786Y-8507643D01*
X14106539Y-8523986D01*
X14119032Y-8536501D01*
X14126417Y-8539567D01*
X14117066Y-8543431D01*
X14104551Y-8555924D01*
X14104374Y-8556351D01*
X14104225Y-8555990D01*
X14091732Y-8543475D01*
X14075400Y-8536694D01*
X14057717Y-8536678D01*
X14041374Y-8543431D01*
X14028859Y-8555924D01*
X14022078Y-8572256D01*
X14022062Y-8589939D01*
X14028815Y-8606282D01*
X14041238Y-8618726D01*
X14037818Y-8620139D01*
X14025303Y-8632632D01*
X14018522Y-8648964D01*
X14018506Y-8666647D01*
X14025259Y-8682990D01*
X14037752Y-8695505D01*
X14047017Y-8699352D01*
X14038326Y-8702943D01*
X14025811Y-8715436D01*
X14022972Y-8722274D01*
X14017865Y-8709914D01*
X14005372Y-8697399D01*
X13989040Y-8690618D01*
X13971357Y-8690602D01*
X13955014Y-8697355D01*
X13947148Y-8705208D01*
X13947148Y-8415107D01*
X13940395Y-8398764D01*
X13927902Y-8386249D01*
X13911570Y-8379468D01*
X13893887Y-8379452D01*
X13877544Y-8386205D01*
X13865029Y-8398698D01*
X13858248Y-8415030D01*
X13858232Y-8432713D01*
X13864985Y-8449056D01*
X13877478Y-8461571D01*
X13893810Y-8468352D01*
X13911493Y-8468368D01*
X13927836Y-8461615D01*
X13940351Y-8449122D01*
X13947132Y-8432790D01*
X13947148Y-8415107D01*
X13947148Y-8705208D01*
X13942499Y-8709848D01*
X13935718Y-8726180D01*
X13935702Y-8743863D01*
X13942455Y-8760206D01*
X13954948Y-8772721D01*
X13971280Y-8779502D01*
X13988963Y-8779518D01*
X14005306Y-8772765D01*
X14017821Y-8760272D01*
X14020660Y-8753434D01*
X14025767Y-8765794D01*
X14038260Y-8778309D01*
X14039840Y-8778965D01*
X14037564Y-8779905D01*
X14025049Y-8792398D01*
X14018268Y-8808730D01*
X14018252Y-8826413D01*
X14025005Y-8842756D01*
X14037498Y-8855271D01*
X14048316Y-8859763D01*
X14039342Y-8863471D01*
X14026827Y-8875964D01*
X14020046Y-8892296D01*
X14020030Y-8909979D01*
X14026783Y-8926322D01*
X14039276Y-8938837D01*
X14045868Y-8941574D01*
X14037564Y-8945005D01*
X14025049Y-8957498D01*
X14018268Y-8973830D01*
X14018252Y-8991513D01*
X14025005Y-9007856D01*
X14037498Y-9020371D01*
X14037905Y-9020540D01*
X14036294Y-9021205D01*
X14023779Y-9033698D01*
X14022185Y-9037538D01*
X14021675Y-9036304D01*
X14009182Y-9023789D01*
X13992850Y-9017008D01*
X13975167Y-9016992D01*
X13958824Y-9023745D01*
X13946309Y-9036238D01*
X13939528Y-9052570D01*
X13939512Y-9070253D01*
X13946265Y-9086596D01*
X13958758Y-9099111D01*
X13975090Y-9105892D01*
X13992773Y-9105908D01*
X14009116Y-9099155D01*
X14021631Y-9086662D01*
X14023225Y-9082822D01*
X14023735Y-9084056D01*
X14036228Y-9096571D01*
X14052560Y-9103352D01*
X14070243Y-9103368D01*
X14086586Y-9096615D01*
X14099101Y-9084122D01*
X14105882Y-9067790D01*
X14105898Y-9050107D01*
X14099145Y-9033764D01*
X14086652Y-9021249D01*
X14086245Y-9021080D01*
X14087856Y-9020415D01*
X14100371Y-9007922D01*
X14107152Y-8991590D01*
X14107168Y-8973907D01*
X14100415Y-8957564D01*
X14087922Y-8945049D01*
X14081330Y-8942312D01*
X14089634Y-8938881D01*
X14102149Y-8926388D01*
X14103810Y-8922388D01*
X14105015Y-8925306D01*
X14117508Y-8937821D01*
X14133840Y-8944602D01*
X14151523Y-8944618D01*
X14167866Y-8937865D01*
X14180381Y-8925372D01*
X14187162Y-8909040D01*
X14187178Y-8891357D01*
X14180425Y-8875014D01*
X14167932Y-8862499D01*
X14163000Y-8860451D01*
X14169898Y-8857601D01*
X14182413Y-8845108D01*
X14189194Y-8828776D01*
X14189210Y-8811093D01*
X14182457Y-8794750D01*
X14169964Y-8782235D01*
X14161885Y-8778880D01*
X14166850Y-8776829D01*
X14179365Y-8764336D01*
X14186146Y-8748004D01*
X14186162Y-8730321D01*
X14179409Y-8713978D01*
X14166916Y-8701463D01*
X14161370Y-8699161D01*
X14168882Y-8696057D01*
X14181397Y-8683564D01*
X14188178Y-8667232D01*
X14188194Y-8649549D01*
X14181441Y-8633206D01*
X14168948Y-8620691D01*
X14165921Y-8619434D01*
X14167358Y-8618841D01*
X14179873Y-8606348D01*
X14182607Y-8599763D01*
X14187819Y-8612378D01*
X14200312Y-8624893D01*
X14216644Y-8631674D01*
X14234327Y-8631690D01*
X14250670Y-8624937D01*
X14263185Y-8612444D01*
X14269966Y-8596112D01*
X14269982Y-8578429D01*
X14269982Y-8699896D01*
X14261404Y-8691303D01*
X14245072Y-8684522D01*
X14227389Y-8684506D01*
X14211046Y-8691259D01*
X14198531Y-8703752D01*
X14191750Y-8720084D01*
X14191734Y-8737767D01*
X14198487Y-8754110D01*
X14210980Y-8766625D01*
X14227312Y-8773406D01*
X14244995Y-8773422D01*
X14261338Y-8766669D01*
X14273853Y-8754176D01*
X14280634Y-8737844D01*
X14280650Y-8720161D01*
X14280650Y-9348381D01*
X14274808Y-9362450D01*
X14274792Y-9380133D01*
X14281545Y-9396476D01*
X14294038Y-9408991D01*
X14310370Y-9415772D01*
X14328053Y-9415788D01*
X14344396Y-9409035D01*
X14356911Y-9396542D01*
X14363692Y-9380210D01*
X14363708Y-9362527D01*
X14363708Y-9426707D01*
X14348801Y-9426694D01*
X14332458Y-9433447D01*
X14319943Y-9445940D01*
X14313162Y-9462272D01*
X14313146Y-9479955D01*
X14319899Y-9496298D01*
X14332392Y-9508813D01*
X14348724Y-9515594D01*
X14366407Y-9515610D01*
X14382750Y-9508857D01*
X14395265Y-9496364D01*
X14402046Y-9480032D01*
X14402062Y-9462349D01*
X14402062Y-9719954D01*
X14397040Y-9714923D01*
X14380708Y-9708142D01*
X14363025Y-9708126D01*
X14346682Y-9714879D01*
X14334167Y-9727372D01*
X14327386Y-9743704D01*
X14327370Y-9761387D01*
X14334123Y-9777730D01*
X14346616Y-9790245D01*
X14362948Y-9797026D01*
X14380631Y-9797042D01*
X14396974Y-9790289D01*
X14409489Y-9777796D01*
X14416270Y-9761464D01*
X14416286Y-9743781D01*
X14416286Y-10098279D01*
X14406459Y-10098270D01*
X14390116Y-10105023D01*
X14377601Y-10117516D01*
X14370820Y-10133848D01*
X14370804Y-10151531D01*
X14377557Y-10167874D01*
X14390050Y-10180389D01*
X14406382Y-10187170D01*
X14424065Y-10187186D01*
X14440408Y-10180433D01*
X14452923Y-10167940D01*
X14459704Y-10151608D01*
X14459720Y-10133925D01*
X14459720Y-10318624D01*
X14453475Y-10303510D01*
X14440982Y-10290995D01*
X14424650Y-10284214D01*
X14406967Y-10284198D01*
X14390624Y-10290951D01*
X14378109Y-10303444D01*
X14371328Y-10319776D01*
X14371312Y-10337459D01*
X14378065Y-10353802D01*
X14379578Y-10355318D01*
X14378109Y-10356784D01*
X14371328Y-10373116D01*
X14371312Y-10390799D01*
X14378065Y-10407142D01*
X14378944Y-10408023D01*
X14376839Y-10410124D01*
X14370058Y-10426456D01*
X14370042Y-10444139D01*
X14376795Y-10460482D01*
X14379576Y-10463268D01*
X14379379Y-10463464D01*
X14372598Y-10479796D01*
X14372582Y-10497479D01*
X14379335Y-10513822D01*
X14380848Y-10515338D01*
X14379379Y-10516804D01*
X14372598Y-10533136D01*
X14372582Y-10550819D01*
X14379335Y-10567162D01*
X14380848Y-10568678D01*
X14379379Y-10570144D01*
X14372598Y-10586476D01*
X14372582Y-10604159D01*
X14379335Y-10620502D01*
X14380849Y-10622019D01*
X14378109Y-10624754D01*
X14371328Y-10641086D01*
X14371312Y-10658769D01*
X14378065Y-10675112D01*
X14385171Y-10682230D01*
X14369121Y-10682216D01*
X14352778Y-10688969D01*
X14340263Y-10701462D01*
X14333482Y-10717794D01*
X14333466Y-10735477D01*
X14340219Y-10751820D01*
X14352712Y-10764335D01*
X14369044Y-10771116D01*
X14386727Y-10771132D01*
X14403070Y-10764379D01*
X14415585Y-10751886D01*
X14422366Y-10735554D01*
X14422382Y-10717871D01*
X14415629Y-10701528D01*
X14408523Y-10694410D01*
X14424573Y-10694424D01*
X14440916Y-10687671D01*
X14453431Y-10675178D01*
X14460212Y-10658846D01*
X14460228Y-10641163D01*
X14453475Y-10624820D01*
X14451961Y-10623303D01*
X14454701Y-10620568D01*
X14461482Y-10604236D01*
X14461498Y-10586553D01*
X14461498Y-11179048D01*
X14335006Y-11179048D01*
X14335006Y-10948249D01*
X14328253Y-10931906D01*
X14315760Y-10919391D01*
X14305034Y-10914937D01*
X14305034Y-9454729D01*
X14298281Y-9438386D01*
X14285788Y-9425871D01*
X14270998Y-9419730D01*
X14270998Y-9132657D01*
X14264245Y-9116314D01*
X14251752Y-9103799D01*
X14235420Y-9097018D01*
X14217737Y-9097002D01*
X14201394Y-9103755D01*
X14188879Y-9116248D01*
X14182098Y-9132580D01*
X14182082Y-9150263D01*
X14188835Y-9166606D01*
X14201077Y-9178869D01*
X14186154Y-9185035D01*
X14173639Y-9197528D01*
X14166858Y-9213860D01*
X14166842Y-9231543D01*
X14173595Y-9247886D01*
X14186088Y-9260401D01*
X14202420Y-9267182D01*
X14220103Y-9267198D01*
X14236446Y-9260445D01*
X14248961Y-9247952D01*
X14255742Y-9231620D01*
X14255758Y-9213937D01*
X14249005Y-9197594D01*
X14236763Y-9185331D01*
X14251686Y-9179165D01*
X14264201Y-9166672D01*
X14270982Y-9150340D01*
X14270998Y-9132657D01*
X14270998Y-9419730D01*
X14269456Y-9419090D01*
X14251773Y-9419074D01*
X14235430Y-9425827D01*
X14224755Y-9436484D01*
X14214668Y-9426379D01*
X14198336Y-9419598D01*
X14180653Y-9419582D01*
X14164310Y-9426335D01*
X14151795Y-9438828D01*
X14145014Y-9455160D01*
X14144998Y-9472843D01*
X14151751Y-9489186D01*
X14164244Y-9501701D01*
X14180576Y-9508482D01*
X14198259Y-9508498D01*
X14214602Y-9501745D01*
X14225277Y-9491088D01*
X14235364Y-9501193D01*
X14251696Y-9507974D01*
X14269379Y-9507990D01*
X14285722Y-9501237D01*
X14298237Y-9488744D01*
X14305018Y-9472412D01*
X14305034Y-9454729D01*
X14305034Y-10914937D01*
X14303510Y-10914304D01*
X14303510Y-9703649D01*
X14296757Y-9687306D01*
X14284264Y-9674791D01*
X14267932Y-9668010D01*
X14250249Y-9667994D01*
X14233906Y-9674747D01*
X14221391Y-9687240D01*
X14214610Y-9703572D01*
X14214594Y-9721255D01*
X14221347Y-9737598D01*
X14233840Y-9750113D01*
X14250172Y-9756894D01*
X14267855Y-9756910D01*
X14284198Y-9750157D01*
X14296713Y-9737664D01*
X14303494Y-9721332D01*
X14303510Y-9703649D01*
X14303510Y-10914304D01*
X14299428Y-10912610D01*
X14281745Y-10912594D01*
X14265402Y-10919347D01*
X14252887Y-10931840D01*
X14246106Y-10948172D01*
X14246090Y-10965855D01*
X14252843Y-10982198D01*
X14265336Y-10994713D01*
X14281668Y-11001494D01*
X14299351Y-11001510D01*
X14315694Y-10994757D01*
X14328209Y-10982264D01*
X14334990Y-10965932D01*
X14335006Y-10948249D01*
X14335006Y-11179048D01*
X14135362Y-11179048D01*
X14135362Y-9477081D01*
X14128609Y-9460738D01*
X14116116Y-9448223D01*
X14099784Y-9441442D01*
X14082101Y-9441426D01*
X14065758Y-9448179D01*
X14053243Y-9460672D01*
X14046462Y-9477004D01*
X14046446Y-9494687D01*
X14053199Y-9511030D01*
X14065692Y-9523545D01*
X14082024Y-9530326D01*
X14099707Y-9530342D01*
X14116050Y-9523589D01*
X14128565Y-9511096D01*
X14135346Y-9494764D01*
X14135362Y-9477081D01*
X14135362Y-11179048D01*
X14117328Y-11179048D01*
X14117328Y-10711267D01*
X14110575Y-10694924D01*
X14098082Y-10682409D01*
X14081750Y-10675628D01*
X14064067Y-10675612D01*
X14047724Y-10682365D01*
X14035209Y-10694858D01*
X14035032Y-10695285D01*
X14035032Y-10591633D01*
X14034270Y-10589789D01*
X14034270Y-10078299D01*
X14027517Y-10061956D01*
X14022705Y-10057136D01*
X14023917Y-10055926D01*
X14030698Y-10039594D01*
X14030714Y-10021911D01*
X14023961Y-10005568D01*
X14011468Y-9993053D01*
X13995136Y-9986272D01*
X13991344Y-9986268D01*
X13991344Y-9539057D01*
X13984591Y-9522714D01*
X13972098Y-9510199D01*
X13955766Y-9503418D01*
X13947148Y-9503410D01*
X13947148Y-9215207D01*
X13940395Y-9198864D01*
X13934448Y-9192906D01*
X13934448Y-8846907D01*
X13934448Y-8529407D01*
X13927695Y-8513064D01*
X13915202Y-8500549D01*
X13898870Y-8493768D01*
X13881187Y-8493752D01*
X13864844Y-8500505D01*
X13852329Y-8512998D01*
X13845548Y-8529330D01*
X13845532Y-8547013D01*
X13852285Y-8563356D01*
X13864778Y-8575871D01*
X13881110Y-8582652D01*
X13898793Y-8582668D01*
X13915136Y-8575915D01*
X13927651Y-8563422D01*
X13934432Y-8547090D01*
X13934448Y-8529407D01*
X13934448Y-8846907D01*
X13927695Y-8830564D01*
X13915202Y-8818049D01*
X13898870Y-8811268D01*
X13881187Y-8811252D01*
X13864844Y-8818005D01*
X13852329Y-8830498D01*
X13845548Y-8846830D01*
X13845532Y-8864513D01*
X13852285Y-8880856D01*
X13864778Y-8893371D01*
X13881110Y-8900152D01*
X13898793Y-8900168D01*
X13915136Y-8893415D01*
X13927651Y-8880922D01*
X13934432Y-8864590D01*
X13934448Y-8846907D01*
X13934448Y-9192906D01*
X13927902Y-9186349D01*
X13911570Y-9179568D01*
X13893887Y-9179552D01*
X13877544Y-9186305D01*
X13865029Y-9198798D01*
X13864598Y-9199837D01*
X13864598Y-8970097D01*
X13857845Y-8953754D01*
X13845352Y-8941239D01*
X13829020Y-8934458D01*
X13824466Y-8934454D01*
X13824466Y-8847669D01*
X13817713Y-8831326D01*
X13805220Y-8818811D01*
X13788906Y-8812037D01*
X13788906Y-8411297D01*
X13782153Y-8394954D01*
X13769660Y-8382439D01*
X13753328Y-8375658D01*
X13735645Y-8375642D01*
X13719302Y-8382395D01*
X13706787Y-8394888D01*
X13700006Y-8411220D01*
X13699990Y-8428903D01*
X13706743Y-8445246D01*
X13719236Y-8457761D01*
X13735568Y-8464542D01*
X13753251Y-8464558D01*
X13769594Y-8457805D01*
X13782109Y-8445312D01*
X13788890Y-8428980D01*
X13788906Y-8411297D01*
X13788906Y-8812037D01*
X13788888Y-8812030D01*
X13771205Y-8812014D01*
X13754862Y-8818767D01*
X13742347Y-8831260D01*
X13735566Y-8847592D01*
X13735550Y-8865275D01*
X13742303Y-8881618D01*
X13754796Y-8894133D01*
X13771128Y-8900914D01*
X13788811Y-8900930D01*
X13805154Y-8894177D01*
X13817669Y-8881684D01*
X13824450Y-8865352D01*
X13824466Y-8847669D01*
X13824466Y-8934454D01*
X13811337Y-8934442D01*
X13794994Y-8941195D01*
X13782479Y-8953688D01*
X13775698Y-8970020D01*
X13775682Y-8987703D01*
X13782435Y-9004046D01*
X13794928Y-9016561D01*
X13811260Y-9023342D01*
X13828943Y-9023358D01*
X13845286Y-9016605D01*
X13857801Y-9004112D01*
X13864582Y-8987780D01*
X13864598Y-8970097D01*
X13864598Y-9199837D01*
X13858248Y-9215130D01*
X13858232Y-9232813D01*
X13864985Y-9249156D01*
X13877478Y-9261671D01*
X13893810Y-9268452D01*
X13911493Y-9268468D01*
X13927836Y-9261715D01*
X13940351Y-9249222D01*
X13947132Y-9232890D01*
X13947148Y-9215207D01*
X13947148Y-9503410D01*
X13938083Y-9503402D01*
X13921740Y-9510155D01*
X13909225Y-9522648D01*
X13902444Y-9538980D01*
X13902428Y-9556663D01*
X13909181Y-9573006D01*
X13921674Y-9585521D01*
X13938006Y-9592302D01*
X13955689Y-9592318D01*
X13972032Y-9585565D01*
X13984547Y-9573072D01*
X13991328Y-9556740D01*
X13991344Y-9539057D01*
X13991344Y-9986268D01*
X13977453Y-9986256D01*
X13961110Y-9993009D01*
X13948595Y-10005502D01*
X13941814Y-10021834D01*
X13941798Y-10039517D01*
X13948551Y-10055860D01*
X13953363Y-10060680D01*
X13952151Y-10061890D01*
X13945370Y-10078222D01*
X13945354Y-10095905D01*
X13952107Y-10112248D01*
X13964600Y-10124763D01*
X13980932Y-10131544D01*
X13998615Y-10131560D01*
X14014958Y-10124807D01*
X14027473Y-10112314D01*
X14034254Y-10095982D01*
X14034270Y-10078299D01*
X14034270Y-10589789D01*
X14028279Y-10575290D01*
X14024227Y-10571231D01*
X14026965Y-10568498D01*
X14033746Y-10552166D01*
X14033762Y-10534483D01*
X14027009Y-10518140D01*
X14024227Y-10515353D01*
X14025695Y-10513888D01*
X14032476Y-10497556D01*
X14032492Y-10479873D01*
X14025739Y-10463530D01*
X14023592Y-10461379D01*
X14024425Y-10460548D01*
X14031206Y-10444216D01*
X14031222Y-10426533D01*
X14024469Y-10410190D01*
X14022321Y-10408038D01*
X14024425Y-10405938D01*
X14031206Y-10389606D01*
X14031222Y-10371923D01*
X14024469Y-10355580D01*
X14021053Y-10352158D01*
X14021885Y-10351328D01*
X14028666Y-10334996D01*
X14028682Y-10317313D01*
X14021929Y-10300970D01*
X14009436Y-10288455D01*
X13993104Y-10281674D01*
X13975421Y-10281658D01*
X13959078Y-10288411D01*
X13946563Y-10300904D01*
X13940290Y-10316012D01*
X13940290Y-9864431D01*
X13933537Y-9848088D01*
X13921044Y-9835573D01*
X13904712Y-9828792D01*
X13887029Y-9828776D01*
X13870686Y-9835529D01*
X13860009Y-9846187D01*
X13848400Y-9834557D01*
X13832068Y-9827776D01*
X13814385Y-9827760D01*
X13798042Y-9834513D01*
X13785527Y-9847006D01*
X13780778Y-9858444D01*
X13780778Y-9048837D01*
X13774025Y-9032494D01*
X13761532Y-9019979D01*
X13745200Y-9013198D01*
X13727517Y-9013182D01*
X13711174Y-9019935D01*
X13698659Y-9032428D01*
X13691878Y-9048760D01*
X13691862Y-9066443D01*
X13698615Y-9082786D01*
X13711108Y-9095301D01*
X13727440Y-9102082D01*
X13745123Y-9102098D01*
X13761466Y-9095345D01*
X13773981Y-9082852D01*
X13780762Y-9066520D01*
X13780778Y-9048837D01*
X13780778Y-9858444D01*
X13778746Y-9863338D01*
X13778730Y-9881021D01*
X13785483Y-9897364D01*
X13797976Y-9909879D01*
X13814308Y-9916660D01*
X13831991Y-9916676D01*
X13848334Y-9909923D01*
X13859010Y-9899265D01*
X13870620Y-9910895D01*
X13886952Y-9917676D01*
X13904635Y-9917692D01*
X13920978Y-9910939D01*
X13933493Y-9898446D01*
X13940274Y-9882114D01*
X13940290Y-9864431D01*
X13940290Y-10316012D01*
X13939782Y-10317236D01*
X13939766Y-10334919D01*
X13946519Y-10351262D01*
X13949935Y-10354684D01*
X13949103Y-10355514D01*
X13942322Y-10371846D01*
X13942306Y-10389529D01*
X13949059Y-10405872D01*
X13951207Y-10408024D01*
X13949103Y-10410124D01*
X13942322Y-10426456D01*
X13942306Y-10444139D01*
X13949059Y-10460482D01*
X13951206Y-10462633D01*
X13950373Y-10463464D01*
X13943592Y-10479796D01*
X13943576Y-10497479D01*
X13950329Y-10513822D01*
X13953111Y-10516609D01*
X13951643Y-10518074D01*
X13944862Y-10534406D01*
X13944846Y-10552089D01*
X13951599Y-10568432D01*
X13955651Y-10572491D01*
X13952913Y-10575224D01*
X13946132Y-10591556D01*
X13946116Y-10609239D01*
X13952642Y-10625032D01*
X13949103Y-10628564D01*
X13942322Y-10644896D01*
X13942306Y-10662579D01*
X13949059Y-10678922D01*
X13961552Y-10691437D01*
X13977884Y-10698218D01*
X13995567Y-10698234D01*
X14011910Y-10691481D01*
X14024425Y-10678988D01*
X14031206Y-10662656D01*
X14031222Y-10644973D01*
X14024696Y-10629180D01*
X14028235Y-10625648D01*
X14035016Y-10609316D01*
X14035032Y-10591633D01*
X14035032Y-10695285D01*
X14028428Y-10711190D01*
X14028412Y-10728873D01*
X14035165Y-10745216D01*
X14047658Y-10757731D01*
X14063990Y-10764512D01*
X14081673Y-10764528D01*
X14098016Y-10757775D01*
X14110531Y-10745282D01*
X14117312Y-10728950D01*
X14117328Y-10711267D01*
X14117328Y-11179048D01*
X14064242Y-11179048D01*
X14064242Y-10919293D01*
X14057489Y-10902950D01*
X14044996Y-10890435D01*
X14028664Y-10883654D01*
X14010981Y-10883638D01*
X13994638Y-10890391D01*
X13982123Y-10902884D01*
X13975342Y-10919216D01*
X13975326Y-10936899D01*
X13982079Y-10953242D01*
X13994572Y-10965757D01*
X14010904Y-10972538D01*
X14028587Y-10972554D01*
X14044930Y-10965801D01*
X14057445Y-10953308D01*
X14064226Y-10936976D01*
X14064242Y-10919293D01*
X14064242Y-11179048D01*
X13873742Y-11179048D01*
X13873742Y-10290643D01*
X13866989Y-10274300D01*
X13854496Y-10261785D01*
X13838164Y-10255004D01*
X13820481Y-10254988D01*
X13804138Y-10261741D01*
X13791623Y-10274234D01*
X13784842Y-10290566D01*
X13784826Y-10308249D01*
X13791579Y-10324592D01*
X13804072Y-10337107D01*
X13820404Y-10343888D01*
X13838087Y-10343904D01*
X13854430Y-10337151D01*
X13866945Y-10324658D01*
X13873726Y-10308326D01*
X13873742Y-10290643D01*
X13873742Y-11179048D01*
X13721596Y-11179048D01*
X13721596Y-9566489D01*
X13714843Y-9550146D01*
X13702350Y-9537631D01*
X13686018Y-9530850D01*
X13668335Y-9530834D01*
X13651992Y-9537587D01*
X13639477Y-9550080D01*
X13632696Y-9566412D01*
X13632680Y-9584095D01*
X13639433Y-9600438D01*
X13651926Y-9612953D01*
X13668258Y-9619734D01*
X13685941Y-9619750D01*
X13702284Y-9612997D01*
X13714799Y-9600504D01*
X13721580Y-9584172D01*
X13721596Y-9566489D01*
X13721596Y-11179048D01*
X13672828Y-11179048D01*
X13672828Y-9876623D01*
X13666075Y-9860280D01*
X13653582Y-9847765D01*
X13637250Y-9840984D01*
X13619567Y-9840968D01*
X13603224Y-9847721D01*
X13590709Y-9860214D01*
X13590278Y-9861253D01*
X13590278Y-8883737D01*
X13587738Y-8877590D01*
X13587738Y-8421457D01*
X13580985Y-8405114D01*
X13568492Y-8392599D01*
X13552160Y-8385818D01*
X13534477Y-8385802D01*
X13518134Y-8392555D01*
X13505619Y-8405048D01*
X13498838Y-8421380D01*
X13498822Y-8439063D01*
X13505575Y-8455406D01*
X13518068Y-8467921D01*
X13534400Y-8474702D01*
X13552083Y-8474718D01*
X13568426Y-8467965D01*
X13580941Y-8455472D01*
X13587722Y-8439140D01*
X13587738Y-8421457D01*
X13587738Y-8877590D01*
X13583525Y-8867394D01*
X13571032Y-8854879D01*
X13554700Y-8848098D01*
X13537017Y-8848082D01*
X13520674Y-8854835D01*
X13508159Y-8867328D01*
X13501378Y-8883660D01*
X13501362Y-8901343D01*
X13508115Y-8917686D01*
X13520608Y-8930201D01*
X13536940Y-8936982D01*
X13554623Y-8936998D01*
X13570966Y-8930245D01*
X13583481Y-8917752D01*
X13590262Y-8901420D01*
X13590278Y-8883737D01*
X13590278Y-9861253D01*
X13583928Y-9876546D01*
X13583912Y-9894229D01*
X13590665Y-9910572D01*
X13603158Y-9923087D01*
X13619490Y-9929868D01*
X13637173Y-9929884D01*
X13653516Y-9923131D01*
X13666031Y-9910638D01*
X13672812Y-9894306D01*
X13672828Y-9876623D01*
X13672828Y-11179048D01*
X13547860Y-11179048D01*
X13547860Y-9051885D01*
X13541107Y-9035542D01*
X13528614Y-9023027D01*
X13512282Y-9016246D01*
X13494599Y-9016230D01*
X13478256Y-9022983D01*
X13477248Y-9023990D01*
X13477248Y-8859607D01*
X13477248Y-8529407D01*
X13470495Y-8513064D01*
X13458002Y-8500549D01*
X13441670Y-8493768D01*
X13423987Y-8493752D01*
X13407644Y-8500505D01*
X13395129Y-8512998D01*
X13388348Y-8529330D01*
X13388348Y-8529444D01*
X13388348Y-8415107D01*
X13381595Y-8398764D01*
X13369102Y-8386249D01*
X13352770Y-8379468D01*
X13335087Y-8379452D01*
X13318744Y-8386205D01*
X13306229Y-8398698D01*
X13299448Y-8415030D01*
X13299432Y-8432713D01*
X13306185Y-8449056D01*
X13318678Y-8461571D01*
X13335010Y-8468352D01*
X13352693Y-8468368D01*
X13369036Y-8461615D01*
X13381551Y-8449122D01*
X13388332Y-8432790D01*
X13388348Y-8415107D01*
X13388348Y-8529444D01*
X13388332Y-8547013D01*
X13395085Y-8563356D01*
X13407578Y-8575871D01*
X13423910Y-8582652D01*
X13441593Y-8582668D01*
X13457936Y-8575915D01*
X13470451Y-8563422D01*
X13477232Y-8547090D01*
X13477248Y-8529407D01*
X13477248Y-8859607D01*
X13470495Y-8843264D01*
X13458002Y-8830749D01*
X13441670Y-8823968D01*
X13423987Y-8823952D01*
X13407644Y-8830705D01*
X13395129Y-8843198D01*
X13388348Y-8859530D01*
X13388332Y-8877213D01*
X13395085Y-8893556D01*
X13407578Y-8906071D01*
X13423910Y-8912852D01*
X13441593Y-8912868D01*
X13457936Y-8906115D01*
X13470451Y-8893622D01*
X13477232Y-8877290D01*
X13477248Y-8859607D01*
X13477248Y-9023990D01*
X13465741Y-9035476D01*
X13458960Y-9051808D01*
X13458944Y-9069491D01*
X13465697Y-9085834D01*
X13478190Y-9098349D01*
X13481303Y-9099641D01*
X13477494Y-9101215D01*
X13464979Y-9113708D01*
X13458198Y-9130040D01*
X13458182Y-9147723D01*
X13464935Y-9164066D01*
X13477428Y-9176581D01*
X13493760Y-9183362D01*
X13511443Y-9183378D01*
X13527786Y-9176625D01*
X13540301Y-9164132D01*
X13547082Y-9147800D01*
X13547098Y-9130117D01*
X13540345Y-9113774D01*
X13527852Y-9101259D01*
X13524739Y-9099967D01*
X13528548Y-9098393D01*
X13541063Y-9085900D01*
X13547844Y-9069568D01*
X13547860Y-9051885D01*
X13547860Y-11179048D01*
X13547098Y-11179048D01*
X13547098Y-9567505D01*
X13540345Y-9551162D01*
X13527852Y-9538647D01*
X13511520Y-9531866D01*
X13493837Y-9531850D01*
X13477494Y-9538603D01*
X13464979Y-9551096D01*
X13458198Y-9567428D01*
X13458182Y-9585111D01*
X13464935Y-9601454D01*
X13477428Y-9613969D01*
X13493760Y-9620750D01*
X13511443Y-9620766D01*
X13527786Y-9614013D01*
X13540301Y-9601520D01*
X13547082Y-9585188D01*
X13547098Y-9567505D01*
X13547098Y-11179048D01*
X13520682Y-11179048D01*
X13520682Y-9850969D01*
X13513929Y-9834626D01*
X13501436Y-9822111D01*
X13485104Y-9815330D01*
X13468612Y-9815315D01*
X13468612Y-9738701D01*
X13461859Y-9722358D01*
X13449366Y-9709843D01*
X13433034Y-9703062D01*
X13415351Y-9703046D01*
X13399008Y-9709799D01*
X13387586Y-9721202D01*
X13387586Y-9563949D01*
X13387078Y-9562720D01*
X13387078Y-8970097D01*
X13387078Y-8812617D01*
X13380325Y-8796274D01*
X13367832Y-8783759D01*
X13351500Y-8776978D01*
X13333817Y-8776962D01*
X13317474Y-8783715D01*
X13312148Y-8789032D01*
X13312148Y-8567507D01*
X13305395Y-8551164D01*
X13292902Y-8538649D01*
X13276570Y-8531868D01*
X13258887Y-8531852D01*
X13242544Y-8538605D01*
X13230029Y-8551098D01*
X13223248Y-8567430D01*
X13223232Y-8585113D01*
X13229985Y-8601456D01*
X13242478Y-8613971D01*
X13258810Y-8620752D01*
X13276493Y-8620768D01*
X13292836Y-8614015D01*
X13305351Y-8601522D01*
X13312132Y-8585190D01*
X13312148Y-8567507D01*
X13312148Y-8789032D01*
X13304959Y-8796208D01*
X13298178Y-8812540D01*
X13298162Y-8830223D01*
X13304915Y-8846566D01*
X13317408Y-8859081D01*
X13333740Y-8865862D01*
X13351423Y-8865878D01*
X13367766Y-8859125D01*
X13380281Y-8846632D01*
X13387062Y-8830300D01*
X13387078Y-8812617D01*
X13387078Y-8970097D01*
X13380325Y-8953754D01*
X13367832Y-8941239D01*
X13351500Y-8934458D01*
X13333817Y-8934442D01*
X13317474Y-8941195D01*
X13304959Y-8953688D01*
X13298178Y-8970020D01*
X13298162Y-8987703D01*
X13304915Y-9004046D01*
X13317408Y-9016561D01*
X13333740Y-9023342D01*
X13351423Y-9023358D01*
X13367766Y-9016605D01*
X13380281Y-9004112D01*
X13387062Y-8987780D01*
X13387078Y-8970097D01*
X13387078Y-9562720D01*
X13380833Y-9547606D01*
X13368340Y-9535091D01*
X13352008Y-9528310D01*
X13334325Y-9528294D01*
X13317982Y-9535047D01*
X13305467Y-9547540D01*
X13298686Y-9563872D01*
X13298670Y-9581555D01*
X13305423Y-9597898D01*
X13317916Y-9610413D01*
X13334248Y-9617194D01*
X13351931Y-9617210D01*
X13368274Y-9610457D01*
X13380789Y-9597964D01*
X13387570Y-9581632D01*
X13387586Y-9563949D01*
X13387586Y-9721202D01*
X13386493Y-9722292D01*
X13379712Y-9738624D01*
X13379696Y-9756307D01*
X13386449Y-9772650D01*
X13398942Y-9785165D01*
X13415274Y-9791946D01*
X13432957Y-9791962D01*
X13449300Y-9785209D01*
X13461815Y-9772716D01*
X13468596Y-9756384D01*
X13468612Y-9738701D01*
X13468612Y-9815315D01*
X13467421Y-9815314D01*
X13451078Y-9822067D01*
X13438563Y-9834560D01*
X13431782Y-9850892D01*
X13431766Y-9868575D01*
X13438519Y-9884918D01*
X13451012Y-9897433D01*
X13467344Y-9904214D01*
X13485027Y-9904230D01*
X13501370Y-9897477D01*
X13513885Y-9884984D01*
X13520666Y-9868652D01*
X13520682Y-9850969D01*
X13520682Y-11179048D01*
X13372600Y-11179048D01*
X13372600Y-9843857D01*
X13365847Y-9827514D01*
X13353354Y-9814999D01*
X13337022Y-9808218D01*
X13319339Y-9808202D01*
X13302996Y-9814955D01*
X13290481Y-9827448D01*
X13283700Y-9843780D01*
X13283684Y-9861463D01*
X13290437Y-9877806D01*
X13302930Y-9890321D01*
X13319262Y-9897102D01*
X13336945Y-9897118D01*
X13353288Y-9890365D01*
X13365803Y-9877872D01*
X13372584Y-9861540D01*
X13372600Y-9843857D01*
X13372600Y-11179048D01*
X13323578Y-11179048D01*
X13323578Y-10012767D01*
X13316825Y-9996424D01*
X13304332Y-9983909D01*
X13288000Y-9977128D01*
X13270317Y-9977112D01*
X13253974Y-9983865D01*
X13241459Y-9996358D01*
X13234678Y-10012690D01*
X13234662Y-10030373D01*
X13241415Y-10046716D01*
X13253908Y-10059231D01*
X13270240Y-10066012D01*
X13287923Y-10066028D01*
X13304266Y-10059275D01*
X13316781Y-10046782D01*
X13323562Y-10030450D01*
X13323578Y-10012767D01*
X13323578Y-11179048D01*
X13248902Y-11179048D01*
X13248902Y-10324425D01*
X13242149Y-10308082D01*
X13233916Y-10299834D01*
X13233916Y-9562679D01*
X13227163Y-9546336D01*
X13214670Y-9533821D01*
X13198338Y-9527040D01*
X13180655Y-9527024D01*
X13164312Y-9533777D01*
X13151797Y-9546270D01*
X13145016Y-9562602D01*
X13145000Y-9580285D01*
X13151753Y-9596628D01*
X13164246Y-9609143D01*
X13180578Y-9615924D01*
X13198261Y-9615940D01*
X13214604Y-9609187D01*
X13227119Y-9596694D01*
X13233900Y-9580362D01*
X13233916Y-9562679D01*
X13233916Y-10299834D01*
X13229656Y-10295567D01*
X13213324Y-10288786D01*
X13195641Y-10288770D01*
X13179298Y-10295523D01*
X13166783Y-10308016D01*
X13160002Y-10324348D01*
X13159986Y-10342031D01*
X13166739Y-10358374D01*
X13179232Y-10370889D01*
X13195564Y-10377670D01*
X13213247Y-10377686D01*
X13229590Y-10370933D01*
X13242105Y-10358440D01*
X13248886Y-10342108D01*
X13248902Y-10324425D01*
X13248902Y-11179048D01*
X13139682Y-11179048D01*
X13139682Y-8878657D01*
X13132929Y-8862314D01*
X13120436Y-8849799D01*
X13104104Y-8843018D01*
X13086421Y-8843002D01*
X13070088Y-8849751D01*
X13070088Y-8582008D01*
X13061598Y-8561462D01*
X13056880Y-8556735D01*
X13056880Y-8184243D01*
X13048390Y-8163698D01*
X13032685Y-8147965D01*
X13027793Y-8145933D01*
X13035635Y-8138105D01*
X13044160Y-8117574D01*
X13044180Y-8095343D01*
X13035690Y-8074798D01*
X13019985Y-8059065D01*
X12999454Y-8050540D01*
X12977223Y-8050520D01*
X12956678Y-8059010D01*
X12940945Y-8074715D01*
X12932420Y-8095246D01*
X12932400Y-8117476D01*
X12940890Y-8138022D01*
X12956595Y-8153755D01*
X12961487Y-8155786D01*
X12953645Y-8163615D01*
X12945120Y-8184146D01*
X12945100Y-8206376D01*
X12953590Y-8226922D01*
X12969295Y-8242655D01*
X12989826Y-8251180D01*
X13012056Y-8251200D01*
X13032602Y-8242710D01*
X13048335Y-8227005D01*
X13056860Y-8206474D01*
X13056880Y-8184243D01*
X13056880Y-8556735D01*
X13045893Y-8545729D01*
X13025362Y-8537204D01*
X13003131Y-8537184D01*
X12982586Y-8545674D01*
X12966853Y-8561379D01*
X12958328Y-8581910D01*
X12958308Y-8604141D01*
X12966798Y-8624686D01*
X12982503Y-8640419D01*
X13003034Y-8648944D01*
X13025264Y-8648964D01*
X13045810Y-8640474D01*
X13061543Y-8624769D01*
X13070068Y-8604238D01*
X13070088Y-8582008D01*
X13070088Y-8849751D01*
X13070078Y-8849755D01*
X13057563Y-8862248D01*
X13050782Y-8878580D01*
X13050766Y-8896263D01*
X13057519Y-8912606D01*
X13070012Y-8925121D01*
X13086344Y-8931902D01*
X13104027Y-8931918D01*
X13120370Y-8925165D01*
X13132885Y-8912672D01*
X13139666Y-8896340D01*
X13139682Y-8878657D01*
X13139682Y-11179048D01*
X13074150Y-11179048D01*
X13074150Y-9563949D01*
X13067397Y-9547606D01*
X13054904Y-9535091D01*
X13038572Y-9528310D01*
X13020889Y-9528294D01*
X13004546Y-9535047D01*
X12992031Y-9547540D01*
X12985250Y-9563872D01*
X12985234Y-9581555D01*
X12991987Y-9597898D01*
X13004480Y-9610413D01*
X13020812Y-9617194D01*
X13038495Y-9617210D01*
X13054838Y-9610457D01*
X13067353Y-9597964D01*
X13074134Y-9581632D01*
X13074150Y-9563949D01*
X13074150Y-11179048D01*
X13064752Y-11179048D01*
X13064752Y-10321123D01*
X13057999Y-10304780D01*
X13045702Y-10292461D01*
X13045702Y-10158563D01*
X13038949Y-10142220D01*
X13026456Y-10129705D01*
X13010124Y-10122924D01*
X12992441Y-10122908D01*
X12976098Y-10129661D01*
X12963583Y-10142154D01*
X12956802Y-10158486D01*
X12956786Y-10176169D01*
X12963539Y-10192512D01*
X12976032Y-10205027D01*
X12992364Y-10211808D01*
X13010047Y-10211824D01*
X13026390Y-10205071D01*
X13038905Y-10192578D01*
X13045686Y-10176246D01*
X13045702Y-10158563D01*
X13045702Y-10292461D01*
X13045506Y-10292265D01*
X13029174Y-10285484D01*
X13011491Y-10285468D01*
X12995148Y-10292221D01*
X12982633Y-10304714D01*
X12975852Y-10321046D01*
X12975836Y-10338729D01*
X12982589Y-10355072D01*
X12983468Y-10355953D01*
X12981363Y-10358054D01*
X12974582Y-10374386D01*
X12974566Y-10392069D01*
X12981319Y-10408412D01*
X12981564Y-10408658D01*
X12978823Y-10411394D01*
X12972042Y-10427726D01*
X12972026Y-10445409D01*
X12978779Y-10461752D01*
X12981560Y-10464538D01*
X12981363Y-10464734D01*
X12974582Y-10481066D01*
X12974566Y-10498749D01*
X12981319Y-10515092D01*
X12983467Y-10517244D01*
X12981363Y-10519344D01*
X12974582Y-10535676D01*
X12974566Y-10553359D01*
X12981319Y-10569702D01*
X12981564Y-10569948D01*
X12978823Y-10572684D01*
X12972042Y-10589016D01*
X12972026Y-10606699D01*
X12978779Y-10623042D01*
X12982195Y-10626464D01*
X12981363Y-10627294D01*
X12974582Y-10643626D01*
X12974566Y-10661309D01*
X12980162Y-10674852D01*
X12977709Y-10674850D01*
X12961366Y-10681603D01*
X12948851Y-10694096D01*
X12942070Y-10710428D01*
X12942054Y-10728111D01*
X12948807Y-10744454D01*
X12961300Y-10756969D01*
X12977632Y-10763750D01*
X12995315Y-10763766D01*
X13011658Y-10757013D01*
X13024173Y-10744520D01*
X13030954Y-10728188D01*
X13030970Y-10710505D01*
X13025373Y-10696962D01*
X13027827Y-10696964D01*
X13044170Y-10690211D01*
X13056685Y-10677718D01*
X13063466Y-10661386D01*
X13063482Y-10643703D01*
X13056729Y-10627360D01*
X13053313Y-10623938D01*
X13054145Y-10623108D01*
X13060926Y-10606776D01*
X13060942Y-10589093D01*
X13054189Y-10572750D01*
X13053943Y-10572504D01*
X13056685Y-10569768D01*
X13063466Y-10553436D01*
X13063482Y-10535753D01*
X13056729Y-10519410D01*
X13054581Y-10517258D01*
X13056685Y-10515158D01*
X13063466Y-10498826D01*
X13063482Y-10481143D01*
X13056729Y-10464800D01*
X13053948Y-10462014D01*
X13054145Y-10461818D01*
X13060926Y-10445486D01*
X13060942Y-10427803D01*
X13054189Y-10411460D01*
X13053943Y-10411214D01*
X13056685Y-10408478D01*
X13063466Y-10392146D01*
X13063482Y-10374463D01*
X13056729Y-10358120D01*
X13055850Y-10357239D01*
X13057955Y-10355138D01*
X13064736Y-10338806D01*
X13064752Y-10321123D01*
X13064752Y-11179048D01*
X12936736Y-11179048D01*
X12936736Y-10931739D01*
X12929983Y-10915396D01*
X12918448Y-10903841D01*
X12918448Y-9717365D01*
X12911695Y-9701022D01*
X12899202Y-9688507D01*
X12882870Y-9681726D01*
X12865187Y-9681710D01*
X12848844Y-9688463D01*
X12836329Y-9700956D01*
X12829548Y-9717288D01*
X12829532Y-9734971D01*
X12836285Y-9751314D01*
X12848778Y-9763829D01*
X12865110Y-9770610D01*
X12882793Y-9770626D01*
X12899136Y-9763873D01*
X12911651Y-9751380D01*
X12918432Y-9735048D01*
X12918448Y-9717365D01*
X12918448Y-10903841D01*
X12917490Y-10902881D01*
X12901158Y-10896100D01*
X12883475Y-10896084D01*
X12867132Y-10902837D01*
X12854617Y-10915330D01*
X12847836Y-10931662D01*
X12847820Y-10949345D01*
X12854573Y-10965688D01*
X12867066Y-10978203D01*
X12883398Y-10984984D01*
X12901081Y-10985000D01*
X12917424Y-10978247D01*
X12929939Y-10965754D01*
X12936720Y-10949422D01*
X12936736Y-10931739D01*
X12936736Y-11179048D01*
X12815080Y-11179048D01*
X12815080Y-9371026D01*
X12799259Y-9332737D01*
X12769990Y-9303416D01*
X12754618Y-9297033D01*
X12754618Y-8650057D01*
X12747865Y-8633714D01*
X12735372Y-8621199D01*
X12719040Y-8614418D01*
X12701357Y-8614402D01*
X12685014Y-8621155D01*
X12672499Y-8633648D01*
X12665718Y-8649980D01*
X12665702Y-8667663D01*
X12672455Y-8684006D01*
X12684948Y-8696521D01*
X12701280Y-8703302D01*
X12718963Y-8703318D01*
X12735306Y-8696565D01*
X12747821Y-8684072D01*
X12754602Y-8667740D01*
X12754618Y-8650057D01*
X12754618Y-9297033D01*
X12731728Y-9287528D01*
X12698232Y-9287499D01*
X12698232Y-9103724D01*
X12689742Y-9083178D01*
X12674037Y-9067445D01*
X12653526Y-9058928D01*
X12653526Y-8650057D01*
X12646773Y-8633714D01*
X12634280Y-8621199D01*
X12617948Y-8614418D01*
X12600265Y-8614402D01*
X12583922Y-8621155D01*
X12571407Y-8633648D01*
X12564626Y-8649980D01*
X12564610Y-8667663D01*
X12571363Y-8684006D01*
X12583856Y-8696521D01*
X12600188Y-8703302D01*
X12617871Y-8703318D01*
X12634214Y-8696565D01*
X12646729Y-8684072D01*
X12653510Y-8667740D01*
X12653526Y-8650057D01*
X12653526Y-9058928D01*
X12653506Y-9058920D01*
X12631275Y-9058900D01*
X12610730Y-9067390D01*
X12594997Y-9083095D01*
X12586472Y-9103626D01*
X12586452Y-9125857D01*
X12594942Y-9146402D01*
X12610647Y-9162135D01*
X12631178Y-9170660D01*
X12653408Y-9170680D01*
X12673954Y-9162190D01*
X12689687Y-9146485D01*
X12698212Y-9125954D01*
X12698232Y-9103724D01*
X12698232Y-9287499D01*
X12690298Y-9287492D01*
X12652008Y-9303313D01*
X12622688Y-9332582D01*
X12606800Y-9370844D01*
X12606764Y-9412274D01*
X12622585Y-9450564D01*
X12651854Y-9479884D01*
X12690116Y-9495772D01*
X12731546Y-9495808D01*
X12769835Y-9479987D01*
X12799156Y-9450718D01*
X12815044Y-9412456D01*
X12815080Y-9371026D01*
X12815080Y-11179048D01*
X12701278Y-11179048D01*
X12701278Y-10736159D01*
X12694525Y-10719816D01*
X12682032Y-10707301D01*
X12665700Y-10700520D01*
X12648017Y-10700504D01*
X12631674Y-10707257D01*
X12619159Y-10719750D01*
X12612378Y-10736082D01*
X12612362Y-10753765D01*
X12619115Y-10770108D01*
X12631608Y-10782623D01*
X12647940Y-10789404D01*
X12665623Y-10789420D01*
X12681966Y-10782667D01*
X12694481Y-10770174D01*
X12701262Y-10753842D01*
X12701278Y-10736159D01*
X12701278Y-11179048D01*
X12649970Y-11179048D01*
X12649970Y-10921071D01*
X12643217Y-10904728D01*
X12630724Y-10892213D01*
X12614392Y-10885432D01*
X12605520Y-10885424D01*
X12605520Y-10538801D01*
X12598767Y-10522458D01*
X12595985Y-10519671D01*
X12597453Y-10518206D01*
X12604234Y-10501874D01*
X12604250Y-10484191D01*
X12597497Y-10467848D01*
X12595350Y-10465697D01*
X12596183Y-10464866D01*
X12602964Y-10448534D01*
X12602980Y-10430851D01*
X12596227Y-10414508D01*
X12595348Y-10413627D01*
X12597453Y-10411526D01*
X12604234Y-10395194D01*
X12604250Y-10377511D01*
X12603234Y-10375052D01*
X12603234Y-10071695D01*
X12596683Y-10055841D01*
X12603218Y-10040102D01*
X12603234Y-10022419D01*
X12596481Y-10006076D01*
X12596085Y-10005679D01*
X12596085Y-9405469D01*
X12590780Y-9351162D01*
X12580203Y-9325628D01*
X12558149Y-9317364D01*
X12531208Y-9344305D01*
X12531208Y-9290423D01*
X12522944Y-9268369D01*
X12470741Y-9252487D01*
X12416434Y-9257792D01*
X12390900Y-9268369D01*
X12382636Y-9290423D01*
X12456922Y-9364709D01*
X12531208Y-9290423D01*
X12531208Y-9344305D01*
X12483863Y-9391650D01*
X12558149Y-9465936D01*
X12580203Y-9457672D01*
X12596085Y-9405469D01*
X12596085Y-10005679D01*
X12583988Y-9993561D01*
X12567656Y-9986780D01*
X12549973Y-9986764D01*
X12533630Y-9993517D01*
X12531208Y-9995935D01*
X12531208Y-9492877D01*
X12456922Y-9418591D01*
X12429981Y-9445532D01*
X12429981Y-9391650D01*
X12355695Y-9317364D01*
X12355332Y-9317500D01*
X12355332Y-8543908D01*
X12353808Y-8540219D01*
X12353808Y-8188307D01*
X12345318Y-8167762D01*
X12329613Y-8152029D01*
X12309082Y-8143504D01*
X12286851Y-8143484D01*
X12266306Y-8151974D01*
X12250573Y-8167679D01*
X12242048Y-8188210D01*
X12242028Y-8210440D01*
X12250518Y-8230986D01*
X12266223Y-8246719D01*
X12286754Y-8255244D01*
X12308984Y-8255264D01*
X12329530Y-8246774D01*
X12345263Y-8231069D01*
X12353788Y-8210538D01*
X12353808Y-8188307D01*
X12353808Y-8540219D01*
X12346842Y-8523362D01*
X12331137Y-8507629D01*
X12310606Y-8499104D01*
X12288375Y-8499084D01*
X12267830Y-8507574D01*
X12252097Y-8523279D01*
X12243572Y-8543810D01*
X12243552Y-8566041D01*
X12252042Y-8586586D01*
X12267747Y-8602319D01*
X12288278Y-8610844D01*
X12310508Y-8610864D01*
X12331054Y-8602374D01*
X12346787Y-8586669D01*
X12355312Y-8566138D01*
X12355332Y-8543908D01*
X12355332Y-9317500D01*
X12333641Y-9325628D01*
X12317759Y-9377831D01*
X12323064Y-9432138D01*
X12333641Y-9457672D01*
X12355695Y-9465936D01*
X12429981Y-9391650D01*
X12429981Y-9445532D01*
X12382636Y-9492877D01*
X12390900Y-9514931D01*
X12443103Y-9530813D01*
X12497410Y-9525508D01*
X12522944Y-9514931D01*
X12531208Y-9492877D01*
X12531208Y-9995935D01*
X12521115Y-10006010D01*
X12514334Y-10022342D01*
X12514318Y-10040025D01*
X12520869Y-10055879D01*
X12514334Y-10071618D01*
X12514318Y-10089301D01*
X12521071Y-10105644D01*
X12533564Y-10118159D01*
X12549896Y-10124940D01*
X12567579Y-10124956D01*
X12583922Y-10118203D01*
X12596437Y-10105710D01*
X12603218Y-10089378D01*
X12603234Y-10071695D01*
X12603234Y-10375052D01*
X12597497Y-10361168D01*
X12595350Y-10359017D01*
X12596183Y-10358186D01*
X12602964Y-10341854D01*
X12602980Y-10324171D01*
X12596227Y-10307828D01*
X12583734Y-10295313D01*
X12567402Y-10288532D01*
X12549719Y-10288516D01*
X12533376Y-10295269D01*
X12520861Y-10307762D01*
X12514080Y-10324094D01*
X12514064Y-10341777D01*
X12520817Y-10358120D01*
X12522964Y-10360271D01*
X12522131Y-10361102D01*
X12515350Y-10377434D01*
X12515334Y-10395117D01*
X12522087Y-10411460D01*
X12522966Y-10412341D01*
X12520861Y-10414442D01*
X12514080Y-10430774D01*
X12514064Y-10448457D01*
X12520817Y-10464800D01*
X12522964Y-10466951D01*
X12522131Y-10467782D01*
X12515350Y-10484114D01*
X12515334Y-10501797D01*
X12522087Y-10518140D01*
X12524869Y-10520927D01*
X12523401Y-10522392D01*
X12516620Y-10538724D01*
X12516604Y-10556407D01*
X12523357Y-10572750D01*
X12524236Y-10573631D01*
X12522131Y-10575732D01*
X12515350Y-10592064D01*
X12515334Y-10609747D01*
X12522087Y-10626090D01*
X12524236Y-10628243D01*
X12520861Y-10631612D01*
X12514080Y-10647944D01*
X12514064Y-10665627D01*
X12520817Y-10681970D01*
X12533310Y-10694485D01*
X12549642Y-10701266D01*
X12567325Y-10701282D01*
X12583668Y-10694529D01*
X12596183Y-10682036D01*
X12602964Y-10665704D01*
X12602980Y-10648021D01*
X12596227Y-10631678D01*
X12594078Y-10629525D01*
X12597453Y-10626156D01*
X12604234Y-10609824D01*
X12604250Y-10592141D01*
X12597497Y-10575798D01*
X12596618Y-10574917D01*
X12598723Y-10572816D01*
X12605504Y-10556484D01*
X12605520Y-10538801D01*
X12605520Y-10885424D01*
X12596709Y-10885416D01*
X12580366Y-10892169D01*
X12567851Y-10904662D01*
X12561070Y-10920994D01*
X12561054Y-10938677D01*
X12567807Y-10955020D01*
X12580300Y-10967535D01*
X12596632Y-10974316D01*
X12614315Y-10974332D01*
X12630658Y-10967579D01*
X12643173Y-10955086D01*
X12649954Y-10938754D01*
X12649970Y-10921071D01*
X12649970Y-11179048D01*
X12447278Y-11179048D01*
X12447278Y-9865447D01*
X12440525Y-9849104D01*
X12428032Y-9836589D01*
X12411700Y-9829808D01*
X12394017Y-9829792D01*
X12377674Y-9836545D01*
X12376922Y-9837296D01*
X12376724Y-9837097D01*
X12360392Y-9830316D01*
X12342709Y-9830300D01*
X12326366Y-9837053D01*
X12313851Y-9849546D01*
X12307070Y-9865878D01*
X12307054Y-9883561D01*
X12313807Y-9899904D01*
X12326300Y-9912419D01*
X12342632Y-9919200D01*
X12360315Y-9919216D01*
X12376658Y-9912463D01*
X12377410Y-9911712D01*
X12377608Y-9911911D01*
X12393940Y-9918692D01*
X12411623Y-9918708D01*
X12427966Y-9911955D01*
X12440481Y-9899462D01*
X12447262Y-9883130D01*
X12447278Y-9865447D01*
X12447278Y-11179048D01*
X12446770Y-11179048D01*
X12446770Y-10286071D01*
X12440017Y-10269728D01*
X12427524Y-10257213D01*
X12411192Y-10250432D01*
X12393509Y-10250416D01*
X12377166Y-10257169D01*
X12364651Y-10269662D01*
X12357870Y-10285994D01*
X12357854Y-10303677D01*
X12364607Y-10320020D01*
X12377100Y-10332535D01*
X12393432Y-10339316D01*
X12411115Y-10339332D01*
X12427458Y-10332579D01*
X12439973Y-10320086D01*
X12446754Y-10303754D01*
X12446770Y-10286071D01*
X12446770Y-11179048D01*
X12141970Y-11179048D01*
X12141970Y-9863669D01*
X12135217Y-9847326D01*
X12122724Y-9834811D01*
X12106392Y-9828030D01*
X12088709Y-9828014D01*
X12072366Y-9834767D01*
X12059851Y-9847260D01*
X12053070Y-9863592D01*
X12053054Y-9881275D01*
X12059807Y-9897618D01*
X12072300Y-9910133D01*
X12088632Y-9916914D01*
X12106315Y-9916930D01*
X12122658Y-9910177D01*
X12135173Y-9897684D01*
X12141954Y-9881352D01*
X12141970Y-9863669D01*
X12141970Y-11179048D01*
X11895590Y-11179048D01*
X11895590Y-10021911D01*
X11895082Y-10020682D01*
X11895082Y-9862399D01*
X11888329Y-9846056D01*
X11875836Y-9833541D01*
X11859504Y-9826760D01*
X11841821Y-9826744D01*
X11825478Y-9833497D01*
X11812963Y-9845990D01*
X11806182Y-9862322D01*
X11806166Y-9880005D01*
X11812919Y-9896348D01*
X11825412Y-9908863D01*
X11841744Y-9915644D01*
X11859427Y-9915660D01*
X11875770Y-9908907D01*
X11888285Y-9896414D01*
X11895066Y-9880082D01*
X11895082Y-9862399D01*
X11895082Y-10020682D01*
X11888837Y-10005568D01*
X11876344Y-9993053D01*
X11860012Y-9986272D01*
X11842329Y-9986256D01*
X11825986Y-9993009D01*
X11813471Y-10005502D01*
X11806690Y-10021834D01*
X11806674Y-10039517D01*
X11813427Y-10055860D01*
X11825920Y-10068375D01*
X11842252Y-10075156D01*
X11859935Y-10075172D01*
X11876278Y-10068419D01*
X11888793Y-10055926D01*
X11895574Y-10039594D01*
X11895590Y-10021911D01*
X11895590Y-11179048D01*
X11818374Y-11179048D01*
X11818374Y-10320361D01*
X11811621Y-10304018D01*
X11799128Y-10291503D01*
X11782796Y-10284722D01*
X11765113Y-10284706D01*
X11748770Y-10291459D01*
X11736255Y-10303952D01*
X11729474Y-10320284D01*
X11729458Y-10337967D01*
X11736211Y-10354310D01*
X11748704Y-10366825D01*
X11765036Y-10373606D01*
X11782719Y-10373622D01*
X11799062Y-10366869D01*
X11811577Y-10354376D01*
X11818358Y-10338044D01*
X11818374Y-10320361D01*
X11818374Y-11179048D01*
X11637780Y-11179048D01*
X11637780Y-10480381D01*
X11631027Y-10464038D01*
X11629514Y-10462522D01*
X11630983Y-10461056D01*
X11637764Y-10444724D01*
X11637780Y-10427041D01*
X11631027Y-10410698D01*
X11629514Y-10409182D01*
X11630983Y-10407716D01*
X11637764Y-10391384D01*
X11637780Y-10373701D01*
X11631027Y-10357358D01*
X11628880Y-10355207D01*
X11629713Y-10354376D01*
X11636494Y-10338044D01*
X11636510Y-10320361D01*
X11636002Y-10319132D01*
X11636002Y-10123511D01*
X11629249Y-10107168D01*
X11616756Y-10094653D01*
X11600424Y-10087872D01*
X11582741Y-10087856D01*
X11566398Y-10094609D01*
X11553883Y-10107102D01*
X11547102Y-10123434D01*
X11547086Y-10141117D01*
X11553839Y-10157460D01*
X11566332Y-10169975D01*
X11582664Y-10176756D01*
X11600347Y-10176772D01*
X11616690Y-10170019D01*
X11629205Y-10157526D01*
X11635986Y-10141194D01*
X11636002Y-10123511D01*
X11636002Y-10319132D01*
X11629757Y-10304018D01*
X11617264Y-10291503D01*
X11600932Y-10284722D01*
X11583249Y-10284706D01*
X11566906Y-10291459D01*
X11554391Y-10303952D01*
X11547610Y-10320284D01*
X11547594Y-10337967D01*
X11554347Y-10354310D01*
X11556494Y-10356461D01*
X11555661Y-10357292D01*
X11548880Y-10373624D01*
X11548864Y-10391307D01*
X11555617Y-10407650D01*
X11557130Y-10409166D01*
X11555661Y-10410632D01*
X11548880Y-10426964D01*
X11548864Y-10444647D01*
X11555617Y-10460990D01*
X11557130Y-10462506D01*
X11555661Y-10463972D01*
X11548880Y-10480304D01*
X11548864Y-10497987D01*
X11555617Y-10514330D01*
X11555863Y-10514577D01*
X11551851Y-10518582D01*
X11545070Y-10534914D01*
X11545054Y-10552597D01*
X11551807Y-10568940D01*
X11555223Y-10572362D01*
X11554391Y-10573192D01*
X11547610Y-10589524D01*
X11547594Y-10607207D01*
X11554347Y-10623550D01*
X11557765Y-10626974D01*
X11554391Y-10630342D01*
X11547610Y-10646674D01*
X11547594Y-10664357D01*
X11553649Y-10679010D01*
X11544300Y-10682873D01*
X11531785Y-10695366D01*
X11525004Y-10711698D01*
X11524988Y-10729381D01*
X11531741Y-10745724D01*
X11544234Y-10758239D01*
X11560566Y-10765020D01*
X11578249Y-10765036D01*
X11594592Y-10758283D01*
X11607107Y-10745790D01*
X11613888Y-10729458D01*
X11613904Y-10711775D01*
X11607849Y-10697122D01*
X11617198Y-10693259D01*
X11629713Y-10680766D01*
X11636494Y-10664434D01*
X11636510Y-10646751D01*
X11629757Y-10630408D01*
X11626339Y-10626984D01*
X11629713Y-10623616D01*
X11636494Y-10607284D01*
X11636510Y-10589601D01*
X11629757Y-10573258D01*
X11626341Y-10569836D01*
X11627173Y-10569006D01*
X11633954Y-10552674D01*
X11633970Y-10534991D01*
X11627217Y-10518648D01*
X11626970Y-10518401D01*
X11630983Y-10514396D01*
X11637764Y-10498064D01*
X11637780Y-10480381D01*
X11637780Y-11179048D01*
X11450574Y-11179048D01*
X11450574Y-10983842D01*
X11458890Y-10992173D01*
X11475222Y-10998954D01*
X11492905Y-10998970D01*
X11509248Y-10992217D01*
X11521763Y-10979724D01*
X11528544Y-10963392D01*
X11528560Y-10945709D01*
X11521807Y-10929366D01*
X11509314Y-10916851D01*
X11492982Y-10910070D01*
X11475299Y-10910054D01*
X11458956Y-10916807D01*
X11450574Y-10925175D01*
X11450574Y-9729470D01*
X12154154Y-9729470D01*
X12156584Y-9728987D01*
X12158644Y-9727610D01*
X12160021Y-9725550D01*
X12160504Y-9723120D01*
X12160504Y-8002016D01*
X15455392Y-8002016D01*
X15455392Y-8831326D01*
X15414762Y-8831326D01*
X15414762Y-8631538D01*
X15406272Y-8610992D01*
X15390567Y-8595259D01*
X15370818Y-8587058D01*
X15370818Y-8142057D01*
X15364065Y-8125714D01*
X15351572Y-8113199D01*
X15335240Y-8106418D01*
X15317557Y-8106402D01*
X15301214Y-8113155D01*
X15288699Y-8125648D01*
X15281918Y-8141980D01*
X15281902Y-8159663D01*
X15288655Y-8176006D01*
X15301148Y-8188521D01*
X15317480Y-8195302D01*
X15335163Y-8195318D01*
X15351506Y-8188565D01*
X15364021Y-8176072D01*
X15370802Y-8159740D01*
X15370818Y-8142057D01*
X15370818Y-8587058D01*
X15370036Y-8586734D01*
X15347805Y-8586714D01*
X15327260Y-8595204D01*
X15311527Y-8610909D01*
X15303002Y-8631440D01*
X15302982Y-8653671D01*
X15311472Y-8674216D01*
X15327177Y-8689949D01*
X15347708Y-8698474D01*
X15369938Y-8698494D01*
X15390484Y-8690004D01*
X15406217Y-8674299D01*
X15414742Y-8653768D01*
X15414762Y-8631538D01*
X15414762Y-8831326D01*
X15373358Y-8831326D01*
X15373358Y-8770453D01*
X15366605Y-8754110D01*
X15354112Y-8741595D01*
X15337780Y-8734814D01*
X15320097Y-8734798D01*
X15303754Y-8741551D01*
X15291239Y-8754044D01*
X15284458Y-8770376D01*
X15284442Y-8788059D01*
X15291195Y-8804402D01*
X15303688Y-8816917D01*
X15320020Y-8823698D01*
X15337703Y-8823714D01*
X15354046Y-8816961D01*
X15366561Y-8804468D01*
X15373342Y-8788136D01*
X15373358Y-8770453D01*
X15373358Y-8831326D01*
X15229850Y-8831326D01*
X15229850Y-8698594D01*
X15221360Y-8678048D01*
X15205655Y-8662315D01*
X15185124Y-8653790D01*
X15171682Y-8653778D01*
X15171682Y-8513913D01*
X15164929Y-8497570D01*
X15152436Y-8485055D01*
X15136104Y-8478274D01*
X15118421Y-8478258D01*
X15102078Y-8485011D01*
X15089563Y-8497504D01*
X15082782Y-8513836D01*
X15082766Y-8531519D01*
X15089519Y-8547862D01*
X15102012Y-8560377D01*
X15118344Y-8567158D01*
X15136027Y-8567174D01*
X15152370Y-8560421D01*
X15164885Y-8547928D01*
X15171666Y-8531596D01*
X15171682Y-8513913D01*
X15171682Y-8653778D01*
X15162893Y-8653770D01*
X15142348Y-8662260D01*
X15126615Y-8677965D01*
X15118090Y-8698496D01*
X15118070Y-8720727D01*
X15126560Y-8741272D01*
X15142265Y-8757005D01*
X15162796Y-8765530D01*
X15185026Y-8765550D01*
X15205572Y-8757060D01*
X15221305Y-8741355D01*
X15229830Y-8720824D01*
X15229850Y-8698594D01*
X15229850Y-8831326D01*
X15209774Y-8831326D01*
X15207344Y-8831809D01*
X15205284Y-8833186D01*
X15203907Y-8835246D01*
X15203424Y-8837676D01*
X15203424Y-9733026D01*
X15203907Y-9735456D01*
X15205284Y-9737516D01*
X15207344Y-9738893D01*
X15209774Y-9739376D01*
X16913098Y-9739376D01*
X16913098Y-11179048D01*
X16913098Y-11179048D01*
G37*
X16913098Y-11179048D02*
X16912344Y-11179048D01*
X16912344Y-10737175D01*
X16905591Y-10720832D01*
X16893098Y-10708317D01*
X16876766Y-10701536D01*
X16859083Y-10701520D01*
X16842740Y-10708273D01*
X16830225Y-10720766D01*
X16824714Y-10734039D01*
X16824714Y-10587061D01*
X16817961Y-10570718D01*
X16815813Y-10568566D01*
X16817917Y-10566466D01*
X16824698Y-10550134D01*
X16824714Y-10532451D01*
X16817961Y-10516108D01*
X16815813Y-10513956D01*
X16817917Y-10511856D01*
X16824698Y-10495524D01*
X16824714Y-10477841D01*
X16817961Y-10461498D01*
X16814545Y-10458076D01*
X16815377Y-10457246D01*
X16822158Y-10440914D01*
X16822174Y-10423231D01*
X16815421Y-10406888D01*
X16814542Y-10406007D01*
X16816647Y-10403906D01*
X16823428Y-10387574D01*
X16823444Y-10369891D01*
X16816691Y-10353548D01*
X16815178Y-10352032D01*
X16816647Y-10350566D01*
X16823428Y-10334234D01*
X16823444Y-10316551D01*
X16823444Y-10058741D01*
X16816691Y-10042398D01*
X16806926Y-10032616D01*
X16812837Y-10026716D01*
X16819618Y-10010384D01*
X16819634Y-9992701D01*
X16812881Y-9976358D01*
X16800388Y-9963843D01*
X16784056Y-9957062D01*
X16766373Y-9957046D01*
X16750030Y-9963799D01*
X16737515Y-9976292D01*
X16730734Y-9992624D01*
X16730718Y-10010307D01*
X16737471Y-10026650D01*
X16747236Y-10036432D01*
X16741325Y-10042332D01*
X16734544Y-10058664D01*
X16734528Y-10076347D01*
X16741281Y-10092690D01*
X16753774Y-10105205D01*
X16770106Y-10111986D01*
X16787789Y-10112002D01*
X16804132Y-10105249D01*
X16816647Y-10092756D01*
X16823428Y-10076424D01*
X16823444Y-10058741D01*
X16823444Y-10316551D01*
X16816691Y-10300208D01*
X16804198Y-10287693D01*
X16787866Y-10280912D01*
X16770183Y-10280896D01*
X16753840Y-10287649D01*
X16741325Y-10300142D01*
X16734544Y-10316474D01*
X16734528Y-10334157D01*
X16741281Y-10350500D01*
X16742794Y-10352016D01*
X16741325Y-10353482D01*
X16734544Y-10369814D01*
X16734528Y-10387497D01*
X16741281Y-10403840D01*
X16742160Y-10404721D01*
X16740055Y-10406822D01*
X16733274Y-10423154D01*
X16733258Y-10440837D01*
X16740011Y-10457180D01*
X16743427Y-10460602D01*
X16742595Y-10461432D01*
X16735814Y-10477764D01*
X16735798Y-10495447D01*
X16742551Y-10511790D01*
X16744699Y-10513942D01*
X16742595Y-10516042D01*
X16735814Y-10532374D01*
X16735798Y-10550057D01*
X16742551Y-10566400D01*
X16744699Y-10568552D01*
X16742595Y-10570652D01*
X16735814Y-10586984D01*
X16735798Y-10604667D01*
X16742551Y-10621010D01*
X16744066Y-10622528D01*
X16740055Y-10626532D01*
X16733274Y-10642864D01*
X16733258Y-10660547D01*
X16740011Y-10676890D01*
X16752504Y-10689405D01*
X16768836Y-10696186D01*
X16786519Y-10696202D01*
X16802862Y-10689449D01*
X16815377Y-10676956D01*
X16822158Y-10660624D01*
X16822174Y-10642941D01*
X16815421Y-10626598D01*
X16813906Y-10625080D01*
X16817917Y-10621076D01*
X16824698Y-10604744D01*
X16824714Y-10587061D01*
X16824714Y-10734039D01*
X16823444Y-10737098D01*
X16823428Y-10754781D01*
X16830181Y-10771124D01*
X16842674Y-10783639D01*
X16859006Y-10790420D01*
X16876689Y-10790436D01*
X16893032Y-10783683D01*
X16905547Y-10771190D01*
X16912328Y-10754858D01*
X16912344Y-10737175D01*
X16912344Y-11179048D01*
X16855448Y-11179048D01*
X16855448Y-10932501D01*
X16848695Y-10916158D01*
X16836202Y-10903643D01*
X16819870Y-10896862D01*
X16802187Y-10896846D01*
X16785844Y-10903599D01*
X16773329Y-10916092D01*
X16766548Y-10932424D01*
X16766532Y-10950107D01*
X16773285Y-10966450D01*
X16785778Y-10978965D01*
X16802110Y-10985746D01*
X16819793Y-10985762D01*
X16836136Y-10979009D01*
X16848651Y-10966516D01*
X16855432Y-10950184D01*
X16855448Y-10932501D01*
X16855448Y-11179048D01*
X16696444Y-11179048D01*
X16696444Y-9860621D01*
X16689691Y-9844278D01*
X16677198Y-9831763D01*
X16660866Y-9824982D01*
X16643183Y-9824966D01*
X16626840Y-9831719D01*
X16616472Y-9842069D01*
X16614761Y-9837928D01*
X16602268Y-9825413D01*
X16585936Y-9818632D01*
X16568253Y-9818616D01*
X16551910Y-9825369D01*
X16539395Y-9837862D01*
X16532614Y-9854194D01*
X16532598Y-9871877D01*
X16539351Y-9888220D01*
X16551844Y-9900735D01*
X16568176Y-9907516D01*
X16585859Y-9907532D01*
X16602202Y-9900779D01*
X16612570Y-9890429D01*
X16614281Y-9894570D01*
X16626774Y-9907085D01*
X16643106Y-9913866D01*
X16660789Y-9913882D01*
X16677132Y-9907129D01*
X16689647Y-9894636D01*
X16696428Y-9878304D01*
X16696444Y-9860621D01*
X16696444Y-11179048D01*
X16664694Y-11179048D01*
X16664694Y-10282261D01*
X16657941Y-10265918D01*
X16645448Y-10253403D01*
X16629116Y-10246622D01*
X16611433Y-10246606D01*
X16595090Y-10253359D01*
X16582575Y-10265852D01*
X16575794Y-10282184D01*
X16575778Y-10299867D01*
X16582531Y-10316210D01*
X16595024Y-10328725D01*
X16611356Y-10335506D01*
X16629039Y-10335522D01*
X16645382Y-10328769D01*
X16657897Y-10316276D01*
X16664678Y-10299944D01*
X16664694Y-10282261D01*
X16664694Y-11179048D01*
X16269978Y-11179048D01*
X16269978Y-9817949D01*
X16263225Y-9801606D01*
X16250732Y-9789091D01*
X16234400Y-9782310D01*
X16216717Y-9782294D01*
X16200374Y-9789047D01*
X16187859Y-9801540D01*
X16181078Y-9817872D01*
X16181062Y-9835555D01*
X16187815Y-9851898D01*
X16200308Y-9864413D01*
X16216640Y-9871194D01*
X16234323Y-9871210D01*
X16250666Y-9864457D01*
X16263181Y-9851964D01*
X16269962Y-9835632D01*
X16269978Y-9817949D01*
X16269978Y-11179048D01*
X16113514Y-11179048D01*
X16113514Y-10020641D01*
X16106761Y-10004298D01*
X16094268Y-9991783D01*
X16077936Y-9985002D01*
X16060253Y-9984986D01*
X16043910Y-9991739D01*
X16031395Y-10004232D01*
X16024614Y-10020564D01*
X16024598Y-10038247D01*
X16031351Y-10054590D01*
X16043844Y-10067105D01*
X16060176Y-10073886D01*
X16077859Y-10073902D01*
X16094202Y-10067149D01*
X16106717Y-10054656D01*
X16113498Y-10038324D01*
X16113514Y-10020641D01*
X16113514Y-11179048D01*
X16025884Y-11179048D01*
X16025884Y-10329251D01*
X16019131Y-10312908D01*
X16006638Y-10300393D01*
X15990306Y-10293612D01*
X15972623Y-10293596D01*
X15956280Y-10300349D01*
X15943765Y-10312842D01*
X15936984Y-10329174D01*
X15936968Y-10346857D01*
X15943721Y-10363200D01*
X15956214Y-10375715D01*
X15972546Y-10382496D01*
X15990229Y-10382512D01*
X16006572Y-10375759D01*
X16019087Y-10363266D01*
X16025868Y-10346934D01*
X16025884Y-10329251D01*
X16025884Y-11179048D01*
X15858244Y-11179048D01*
X15858244Y-10423231D01*
X15851491Y-10406888D01*
X15848710Y-10404102D01*
X15848907Y-10403906D01*
X15855688Y-10387574D01*
X15855704Y-10369891D01*
X15848951Y-10353548D01*
X15848072Y-10352667D01*
X15850177Y-10350566D01*
X15856958Y-10334234D01*
X15856974Y-10316551D01*
X15851386Y-10303027D01*
X15851386Y-10144847D01*
X15844633Y-10128504D01*
X15832140Y-10115989D01*
X15815808Y-10109208D01*
X15798125Y-10109192D01*
X15781782Y-10115945D01*
X15769267Y-10128438D01*
X15762486Y-10144770D01*
X15762470Y-10162453D01*
X15769223Y-10178796D01*
X15781716Y-10191311D01*
X15798048Y-10198092D01*
X15815731Y-10198108D01*
X15832074Y-10191355D01*
X15844589Y-10178862D01*
X15851370Y-10162530D01*
X15851386Y-10144847D01*
X15851386Y-10303027D01*
X15850221Y-10300208D01*
X15837728Y-10287693D01*
X15821396Y-10280912D01*
X15803713Y-10280896D01*
X15787370Y-10287649D01*
X15774855Y-10300142D01*
X15768074Y-10316474D01*
X15768058Y-10334157D01*
X15774811Y-10350500D01*
X15775690Y-10351381D01*
X15773585Y-10353482D01*
X15766804Y-10369814D01*
X15766788Y-10387497D01*
X15773541Y-10403840D01*
X15776322Y-10406626D01*
X15776125Y-10406822D01*
X15769344Y-10423154D01*
X15769328Y-10440837D01*
X15776081Y-10457180D01*
X15777595Y-10458697D01*
X15774855Y-10461432D01*
X15768074Y-10477764D01*
X15768058Y-10495447D01*
X15774811Y-10511790D01*
X15777594Y-10514578D01*
X15774855Y-10517312D01*
X15768074Y-10533644D01*
X15768058Y-10551327D01*
X15774213Y-10566222D01*
X15769775Y-10570652D01*
X15762994Y-10586984D01*
X15762978Y-10604667D01*
X15769731Y-10621010D01*
X15772515Y-10623799D01*
X15768505Y-10627802D01*
X15761724Y-10644134D01*
X15761708Y-10661817D01*
X15768461Y-10678160D01*
X15780954Y-10690675D01*
X15797286Y-10697456D01*
X15814969Y-10697472D01*
X15831312Y-10690719D01*
X15843827Y-10678226D01*
X15850608Y-10661894D01*
X15850624Y-10644211D01*
X15843871Y-10627868D01*
X15841087Y-10625079D01*
X15845097Y-10621076D01*
X15851878Y-10604744D01*
X15851894Y-10587061D01*
X15845739Y-10572166D01*
X15850177Y-10567736D01*
X15856958Y-10551404D01*
X15856974Y-10533721D01*
X15850221Y-10517378D01*
X15847438Y-10514590D01*
X15850177Y-10511856D01*
X15856958Y-10495524D01*
X15856974Y-10477841D01*
X15850221Y-10461498D01*
X15848707Y-10459981D01*
X15851447Y-10457246D01*
X15858228Y-10440914D01*
X15858244Y-10423231D01*
X15858244Y-11179048D01*
X15819128Y-11179048D01*
X15819128Y-10727523D01*
X15812375Y-10711180D01*
X15799882Y-10698665D01*
X15783550Y-10691884D01*
X15765867Y-10691868D01*
X15749524Y-10698621D01*
X15737009Y-10711114D01*
X15730228Y-10727446D01*
X15730212Y-10745129D01*
X15736965Y-10761472D01*
X15749458Y-10773987D01*
X15765790Y-10780768D01*
X15783473Y-10780784D01*
X15799816Y-10774031D01*
X15812331Y-10761538D01*
X15819112Y-10745206D01*
X15819128Y-10727523D01*
X15819128Y-11179048D01*
X15734546Y-11179048D01*
X15734546Y-10941645D01*
X15727793Y-10925302D01*
X15715300Y-10912787D01*
X15698968Y-10906006D01*
X15681285Y-10905990D01*
X15664942Y-10912743D01*
X15652427Y-10925236D01*
X15645646Y-10941568D01*
X15645630Y-10959251D01*
X15652383Y-10975594D01*
X15664876Y-10988109D01*
X15681208Y-10994890D01*
X15698891Y-10994906D01*
X15715234Y-10988153D01*
X15727749Y-10975660D01*
X15734530Y-10959328D01*
X15734546Y-10941645D01*
X15734546Y-11179048D01*
X15513312Y-11179048D01*
X15513312Y-10733111D01*
X15506559Y-10716768D01*
X15494066Y-10704253D01*
X15477734Y-10697472D01*
X15460051Y-10697456D01*
X15443708Y-10704209D01*
X15431193Y-10716702D01*
X15427968Y-10724470D01*
X15427968Y-10377003D01*
X15421215Y-10360660D01*
X15419702Y-10359144D01*
X15421171Y-10357678D01*
X15427952Y-10341346D01*
X15427968Y-10323663D01*
X15427460Y-10322434D01*
X15427460Y-10069917D01*
X15420707Y-10053574D01*
X15420187Y-10053054D01*
X15426936Y-10036800D01*
X15426952Y-10019117D01*
X15420199Y-10002774D01*
X15407706Y-9990259D01*
X15391374Y-9983478D01*
X15373691Y-9983462D01*
X15357348Y-9990215D01*
X15344833Y-10002708D01*
X15338052Y-10019040D01*
X15338036Y-10036723D01*
X15344789Y-10053066D01*
X15345309Y-10053586D01*
X15338560Y-10069840D01*
X15338544Y-10087523D01*
X15345297Y-10103866D01*
X15357790Y-10116381D01*
X15374122Y-10123162D01*
X15391805Y-10123178D01*
X15408148Y-10116425D01*
X15420663Y-10103932D01*
X15427444Y-10087600D01*
X15427460Y-10069917D01*
X15427460Y-10322434D01*
X15421215Y-10307320D01*
X15408722Y-10294805D01*
X15392390Y-10288024D01*
X15374707Y-10288008D01*
X15358364Y-10294761D01*
X15345849Y-10307254D01*
X15339068Y-10323586D01*
X15339052Y-10341269D01*
X15345805Y-10357612D01*
X15347318Y-10359128D01*
X15345849Y-10360594D01*
X15339068Y-10376926D01*
X15339052Y-10394609D01*
X15345805Y-10410952D01*
X15346684Y-10411833D01*
X15344579Y-10413934D01*
X15337798Y-10430266D01*
X15337782Y-10447949D01*
X15344535Y-10464292D01*
X15345414Y-10465173D01*
X15343309Y-10467274D01*
X15336528Y-10483606D01*
X15336512Y-10501289D01*
X15343265Y-10517632D01*
X15345412Y-10519783D01*
X15344579Y-10520614D01*
X15337798Y-10536946D01*
X15337782Y-10554629D01*
X15344535Y-10570972D01*
X15346683Y-10573124D01*
X15344579Y-10575224D01*
X15337798Y-10591556D01*
X15337782Y-10609239D01*
X15344535Y-10625582D01*
X15347318Y-10628370D01*
X15344579Y-10631104D01*
X15337798Y-10647436D01*
X15337782Y-10665119D01*
X15344535Y-10681462D01*
X15357028Y-10693977D01*
X15373360Y-10700758D01*
X15391043Y-10700774D01*
X15407386Y-10694021D01*
X15419901Y-10681528D01*
X15426682Y-10665196D01*
X15426698Y-10647513D01*
X15419945Y-10631170D01*
X15417162Y-10628382D01*
X15419901Y-10625648D01*
X15426682Y-10609316D01*
X15426698Y-10591633D01*
X15419945Y-10575290D01*
X15417797Y-10573138D01*
X15419901Y-10571038D01*
X15426682Y-10554706D01*
X15426698Y-10537023D01*
X15419945Y-10520680D01*
X15417798Y-10518529D01*
X15418631Y-10517698D01*
X15425412Y-10501366D01*
X15425428Y-10483683D01*
X15418675Y-10467340D01*
X15417796Y-10466459D01*
X15419901Y-10464358D01*
X15426682Y-10448026D01*
X15426698Y-10430343D01*
X15419945Y-10414000D01*
X15419066Y-10413119D01*
X15421171Y-10411018D01*
X15427952Y-10394686D01*
X15427968Y-10377003D01*
X15427968Y-10724470D01*
X15424412Y-10733034D01*
X15424396Y-10750717D01*
X15431149Y-10767060D01*
X15443642Y-10779575D01*
X15459974Y-10786356D01*
X15477657Y-10786372D01*
X15494000Y-10779619D01*
X15506515Y-10767126D01*
X15513296Y-10750794D01*
X15513312Y-10733111D01*
X15513312Y-11179048D01*
X15460988Y-11179048D01*
X15460988Y-10918023D01*
X15454235Y-10901680D01*
X15441742Y-10889165D01*
X15425410Y-10882384D01*
X15407727Y-10882368D01*
X15391384Y-10889121D01*
X15378869Y-10901614D01*
X15372088Y-10917946D01*
X15372072Y-10935629D01*
X15378825Y-10951972D01*
X15391318Y-10964487D01*
X15407650Y-10971268D01*
X15425333Y-10971284D01*
X15441676Y-10964531D01*
X15454191Y-10952038D01*
X15460972Y-10935706D01*
X15460988Y-10918023D01*
X15460988Y-11179048D01*
X15313414Y-11179048D01*
X15313414Y-9875353D01*
X15306661Y-9859010D01*
X15294168Y-9846495D01*
X15277836Y-9839714D01*
X15260153Y-9839698D01*
X15245967Y-9845560D01*
X15233716Y-9833287D01*
X15217384Y-9826506D01*
X15199701Y-9826490D01*
X15183358Y-9833243D01*
X15177016Y-9839574D01*
X15177016Y-9653357D01*
X15170263Y-9637014D01*
X15159492Y-9626224D01*
X15159492Y-9499964D01*
X15151002Y-9479418D01*
X15135297Y-9463685D01*
X15114766Y-9455160D01*
X15092535Y-9455140D01*
X15071990Y-9463630D01*
X15062716Y-9472888D01*
X15062716Y-8146375D01*
X15055963Y-8130032D01*
X15043470Y-8117517D01*
X15027138Y-8110736D01*
X15009455Y-8110720D01*
X14993112Y-8117473D01*
X14980597Y-8129966D01*
X14973816Y-8146298D01*
X14973800Y-8163981D01*
X14980553Y-8180324D01*
X14993046Y-8192839D01*
X15009378Y-8199620D01*
X15027061Y-8199636D01*
X15043404Y-8192883D01*
X15055919Y-8180390D01*
X15062700Y-8164058D01*
X15062716Y-8146375D01*
X15062716Y-9472888D01*
X15056257Y-9479335D01*
X15047732Y-9499866D01*
X15047712Y-9522097D01*
X15056202Y-9542642D01*
X15071907Y-9558375D01*
X15092438Y-9566900D01*
X15114668Y-9566920D01*
X15135214Y-9558430D01*
X15150947Y-9542725D01*
X15159472Y-9522194D01*
X15159492Y-9499964D01*
X15159492Y-9626224D01*
X15157770Y-9624499D01*
X15141438Y-9617718D01*
X15123755Y-9617702D01*
X15107412Y-9624455D01*
X15094897Y-9636948D01*
X15088116Y-9653280D01*
X15088100Y-9670963D01*
X15094853Y-9687306D01*
X15107346Y-9699821D01*
X15123678Y-9706602D01*
X15141361Y-9706618D01*
X15157704Y-9699865D01*
X15170219Y-9687372D01*
X15177000Y-9671040D01*
X15177016Y-9653357D01*
X15177016Y-9839574D01*
X15170843Y-9845736D01*
X15164062Y-9862068D01*
X15164046Y-9879751D01*
X15170799Y-9896094D01*
X15183292Y-9908609D01*
X15199624Y-9915390D01*
X15217307Y-9915406D01*
X15231493Y-9909544D01*
X15243744Y-9921817D01*
X15260076Y-9928598D01*
X15277759Y-9928614D01*
X15294102Y-9921861D01*
X15306617Y-9909368D01*
X15313398Y-9893036D01*
X15313414Y-9875353D01*
X15313414Y-11179048D01*
X15271758Y-11179048D01*
X15271758Y-10284293D01*
X15265005Y-10267950D01*
X15252512Y-10255435D01*
X15236180Y-10248654D01*
X15218497Y-10248638D01*
X15202154Y-10255391D01*
X15189639Y-10267884D01*
X15182858Y-10284216D01*
X15182842Y-10301899D01*
X15189595Y-10318242D01*
X15202088Y-10330757D01*
X15218420Y-10337538D01*
X15236103Y-10337554D01*
X15252446Y-10330801D01*
X15264961Y-10318308D01*
X15271742Y-10301976D01*
X15271758Y-10284293D01*
X15271758Y-11179048D01*
X15091672Y-11179048D01*
X15091672Y-9702887D01*
X15084919Y-9686544D01*
X15072426Y-9674029D01*
X15056094Y-9667248D01*
X15038411Y-9667232D01*
X15034014Y-9669049D01*
X15034014Y-8656661D01*
X15027261Y-8640318D01*
X15014768Y-8627803D01*
X14998436Y-8621022D01*
X14980753Y-8621006D01*
X14964410Y-8627759D01*
X14951895Y-8640252D01*
X14945114Y-8656584D01*
X14945098Y-8674267D01*
X14951851Y-8690610D01*
X14964344Y-8703125D01*
X14980676Y-8709906D01*
X14998359Y-8709922D01*
X15014702Y-8703169D01*
X15027217Y-8690676D01*
X15033998Y-8674344D01*
X15034014Y-8656661D01*
X15034014Y-9669049D01*
X15022068Y-9673985D01*
X15009553Y-9686478D01*
X15002772Y-9702810D01*
X15002756Y-9720493D01*
X15009509Y-9736836D01*
X15022002Y-9749351D01*
X15038334Y-9756132D01*
X15056017Y-9756148D01*
X15072360Y-9749395D01*
X15084875Y-9736902D01*
X15091656Y-9720570D01*
X15091672Y-9702887D01*
X15091672Y-11179048D01*
X15069574Y-11179048D01*
X15069574Y-9863669D01*
X15062821Y-9847326D01*
X15050328Y-9834811D01*
X15033996Y-9828030D01*
X15016313Y-9828014D01*
X14999970Y-9834767D01*
X14987455Y-9847260D01*
X14980674Y-9863592D01*
X14980658Y-9881275D01*
X14987411Y-9897618D01*
X14999904Y-9910133D01*
X15016236Y-9916914D01*
X15033919Y-9916930D01*
X15050262Y-9910177D01*
X15062777Y-9897684D01*
X15069558Y-9881352D01*
X15069574Y-9863669D01*
X15069574Y-11179048D01*
X14969752Y-11179048D01*
X14969752Y-9862907D01*
X14962999Y-9846564D01*
X14950506Y-9834049D01*
X14934174Y-9827268D01*
X14916491Y-9827252D01*
X14909808Y-9830014D01*
X14909808Y-8335097D01*
X14903055Y-8318754D01*
X14890562Y-8306239D01*
X14874230Y-8299458D01*
X14856547Y-8299442D01*
X14840204Y-8306195D01*
X14827689Y-8318688D01*
X14820908Y-8335020D01*
X14820892Y-8352703D01*
X14827645Y-8369046D01*
X14840138Y-8381561D01*
X14856470Y-8388342D01*
X14874153Y-8388358D01*
X14890496Y-8381605D01*
X14903011Y-8369112D01*
X14909792Y-8352780D01*
X14909808Y-8335097D01*
X14909808Y-9830014D01*
X14902442Y-9833057D01*
X14902442Y-8481401D01*
X14895689Y-8465058D01*
X14883196Y-8452543D01*
X14866864Y-8445762D01*
X14855448Y-8445752D01*
X14855452Y-8441777D01*
X14848699Y-8425434D01*
X14836206Y-8412919D01*
X14819874Y-8406138D01*
X14802191Y-8406122D01*
X14785848Y-8412875D01*
X14773333Y-8425368D01*
X14766552Y-8441700D01*
X14766536Y-8459383D01*
X14773289Y-8475726D01*
X14785782Y-8488241D01*
X14802114Y-8495022D01*
X14813530Y-8495032D01*
X14813526Y-8499007D01*
X14820279Y-8515350D01*
X14832772Y-8527865D01*
X14849104Y-8534646D01*
X14866787Y-8534662D01*
X14883130Y-8527909D01*
X14895645Y-8515416D01*
X14902426Y-8499084D01*
X14902442Y-8481401D01*
X14902442Y-9833057D01*
X14900148Y-9834005D01*
X14887633Y-9846498D01*
X14880852Y-9862830D01*
X14880836Y-9880513D01*
X14887589Y-9896856D01*
X14900082Y-9909371D01*
X14916414Y-9916152D01*
X14934097Y-9916168D01*
X14950440Y-9909415D01*
X14962955Y-9896922D01*
X14969736Y-9880590D01*
X14969752Y-9862907D01*
X14969752Y-11179048D01*
X14869168Y-11179048D01*
X14869168Y-9773753D01*
X14862415Y-9757410D01*
X14849922Y-9744895D01*
X14833590Y-9738114D01*
X14822432Y-9738104D01*
X14822432Y-9513149D01*
X14815679Y-9496806D01*
X14803186Y-9484291D01*
X14786854Y-9477510D01*
X14769171Y-9477494D01*
X14752828Y-9484247D01*
X14740313Y-9496740D01*
X14733532Y-9513072D01*
X14733516Y-9530755D01*
X14740269Y-9547098D01*
X14752762Y-9559613D01*
X14769094Y-9566394D01*
X14786777Y-9566410D01*
X14803120Y-9559657D01*
X14815635Y-9547164D01*
X14822416Y-9530832D01*
X14822432Y-9513149D01*
X14822432Y-9738104D01*
X14815907Y-9738098D01*
X14799564Y-9744851D01*
X14787049Y-9757344D01*
X14780268Y-9773676D01*
X14780252Y-9791359D01*
X14787005Y-9807702D01*
X14799498Y-9820217D01*
X14815830Y-9826998D01*
X14833513Y-9827014D01*
X14849856Y-9820261D01*
X14862371Y-9807768D01*
X14869152Y-9791436D01*
X14869168Y-9773753D01*
X14869168Y-11179048D01*
X14719308Y-11179048D01*
X14719308Y-10007433D01*
X14712555Y-9991090D01*
X14706100Y-9984624D01*
X14706100Y-9476573D01*
X14699347Y-9460230D01*
X14686854Y-9447715D01*
X14670522Y-9440934D01*
X14652839Y-9440918D01*
X14636496Y-9447671D01*
X14630154Y-9454002D01*
X14630154Y-8274137D01*
X14623401Y-8257794D01*
X14610908Y-8245279D01*
X14594576Y-8238498D01*
X14576893Y-8238482D01*
X14560550Y-8245235D01*
X14548035Y-8257728D01*
X14541254Y-8274060D01*
X14541238Y-8291743D01*
X14547991Y-8308086D01*
X14560484Y-8320601D01*
X14576816Y-8327382D01*
X14594499Y-8327398D01*
X14610842Y-8320645D01*
X14623357Y-8308152D01*
X14630138Y-8291820D01*
X14630154Y-8274137D01*
X14630154Y-9454002D01*
X14623981Y-9460164D01*
X14617200Y-9476496D01*
X14617184Y-9494179D01*
X14623937Y-9510522D01*
X14636430Y-9523037D01*
X14652762Y-9529818D01*
X14670445Y-9529834D01*
X14686788Y-9523081D01*
X14699303Y-9510588D01*
X14706084Y-9494256D01*
X14706100Y-9476573D01*
X14706100Y-9984624D01*
X14700062Y-9978575D01*
X14683730Y-9971794D01*
X14666047Y-9971778D01*
X14649704Y-9978531D01*
X14637189Y-9991024D01*
X14630408Y-10007356D01*
X14630392Y-10025039D01*
X14637145Y-10041382D01*
X14649638Y-10053897D01*
X14665970Y-10060678D01*
X14683653Y-10060694D01*
X14699996Y-10053941D01*
X14712511Y-10041448D01*
X14719292Y-10025116D01*
X14719308Y-10007433D01*
X14719308Y-11179048D01*
X14636758Y-11179048D01*
X14636758Y-10325949D01*
X14630005Y-10309606D01*
X14617512Y-10297091D01*
X14601180Y-10290310D01*
X14583497Y-10290294D01*
X14567154Y-10297047D01*
X14555986Y-10308196D01*
X14555986Y-9451681D01*
X14549233Y-9435338D01*
X14536740Y-9422823D01*
X14521188Y-9416365D01*
X14521188Y-9154247D01*
X14514435Y-9137904D01*
X14510382Y-9133844D01*
X14514391Y-9129842D01*
X14521172Y-9113510D01*
X14521188Y-9095827D01*
X14514435Y-9079484D01*
X14501942Y-9066969D01*
X14488422Y-9061355D01*
X14488422Y-8150185D01*
X14481669Y-8133842D01*
X14469176Y-8121327D01*
X14452844Y-8114546D01*
X14435161Y-8114530D01*
X14418818Y-8121283D01*
X14406303Y-8133776D01*
X14399522Y-8150108D01*
X14399506Y-8167791D01*
X14406259Y-8184134D01*
X14418752Y-8196649D01*
X14435084Y-8203430D01*
X14452767Y-8203446D01*
X14469110Y-8196693D01*
X14481625Y-8184200D01*
X14488406Y-8167868D01*
X14488422Y-8150185D01*
X14488422Y-9061355D01*
X14487660Y-9061039D01*
X14487660Y-8383103D01*
X14480907Y-8366760D01*
X14468414Y-8354245D01*
X14452082Y-8347464D01*
X14434399Y-8347448D01*
X14418056Y-8354201D01*
X14405541Y-8366694D01*
X14398760Y-8383026D01*
X14398744Y-8400709D01*
X14405497Y-8417052D01*
X14417990Y-8429567D01*
X14434322Y-8436348D01*
X14452005Y-8436364D01*
X14468348Y-8429611D01*
X14480863Y-8417118D01*
X14487644Y-8400786D01*
X14487660Y-8383103D01*
X14487660Y-9061039D01*
X14485610Y-9060188D01*
X14467927Y-9060172D01*
X14451584Y-9066925D01*
X14439069Y-9079418D01*
X14432288Y-9095750D01*
X14432272Y-9113433D01*
X14439025Y-9129776D01*
X14443078Y-9133836D01*
X14439069Y-9137838D01*
X14432288Y-9154170D01*
X14432272Y-9171853D01*
X14439025Y-9188196D01*
X14451518Y-9200711D01*
X14467850Y-9207492D01*
X14485533Y-9207508D01*
X14501876Y-9200755D01*
X14514391Y-9188262D01*
X14521172Y-9171930D01*
X14521188Y-9154247D01*
X14521188Y-9416365D01*
X14520408Y-9416042D01*
X14502725Y-9416026D01*
X14486382Y-9422779D01*
X14473867Y-9435272D01*
X14467086Y-9451604D01*
X14467070Y-9469287D01*
X14473823Y-9485630D01*
X14486316Y-9498145D01*
X14502648Y-9504926D01*
X14520331Y-9504942D01*
X14536674Y-9498189D01*
X14549189Y-9485696D01*
X14555970Y-9469364D01*
X14555986Y-9451681D01*
X14555986Y-10308196D01*
X14554639Y-10309540D01*
X14547858Y-10325872D01*
X14547842Y-10343555D01*
X14554595Y-10359898D01*
X14567088Y-10372413D01*
X14583420Y-10379194D01*
X14601103Y-10379210D01*
X14617446Y-10372457D01*
X14629961Y-10359964D01*
X14636742Y-10343632D01*
X14636758Y-10325949D01*
X14636758Y-11179048D01*
X14461498Y-11179048D01*
X14461498Y-10586553D01*
X14454745Y-10570210D01*
X14453232Y-10568694D01*
X14454701Y-10567228D01*
X14461482Y-10550896D01*
X14461498Y-10533213D01*
X14454745Y-10516870D01*
X14453232Y-10515354D01*
X14454701Y-10513888D01*
X14461482Y-10497556D01*
X14461498Y-10479873D01*
X14454745Y-10463530D01*
X14451964Y-10460744D01*
X14452161Y-10460548D01*
X14458942Y-10444216D01*
X14458958Y-10426533D01*
X14452205Y-10410190D01*
X14451326Y-10409309D01*
X14453431Y-10407208D01*
X14460212Y-10390876D01*
X14460228Y-10373193D01*
X14453475Y-10356850D01*
X14451962Y-10355334D01*
X14453431Y-10353868D01*
X14460212Y-10337536D01*
X14460228Y-10319853D01*
X14459720Y-10318624D01*
X14459720Y-10133925D01*
X14452967Y-10117582D01*
X14440474Y-10105067D01*
X14424142Y-10098286D01*
X14416286Y-10098279D01*
X14416286Y-9743781D01*
X14409533Y-9727438D01*
X14402062Y-9719954D01*
X14402062Y-9462349D01*
X14395309Y-9446006D01*
X14391648Y-9442338D01*
X14391648Y-8905327D01*
X14384895Y-8888984D01*
X14379202Y-8883281D01*
X14379202Y-8777057D01*
X14372449Y-8760714D01*
X14359956Y-8748199D01*
X14343624Y-8741418D01*
X14325941Y-8741402D01*
X14309598Y-8748155D01*
X14297083Y-8760648D01*
X14290302Y-8776980D01*
X14290286Y-8794663D01*
X14297039Y-8811006D01*
X14309532Y-8823521D01*
X14325864Y-8830302D01*
X14343547Y-8830318D01*
X14359890Y-8823565D01*
X14372405Y-8811072D01*
X14379186Y-8794740D01*
X14379202Y-8777057D01*
X14379202Y-8883281D01*
X14372402Y-8876469D01*
X14356070Y-8869688D01*
X14338387Y-8869672D01*
X14322044Y-8876425D01*
X14309529Y-8888918D01*
X14302748Y-8905250D01*
X14302732Y-8922933D01*
X14309485Y-8939276D01*
X14321978Y-8951791D01*
X14338310Y-8958572D01*
X14355993Y-8958588D01*
X14372336Y-8951835D01*
X14384851Y-8939342D01*
X14391632Y-8923010D01*
X14391648Y-8905327D01*
X14391648Y-9442338D01*
X14386568Y-9437250D01*
X14386568Y-9108527D01*
X14379815Y-9092184D01*
X14367322Y-9079669D01*
X14350990Y-9072888D01*
X14333307Y-9072872D01*
X14316964Y-9079625D01*
X14304449Y-9092118D01*
X14297668Y-9108450D01*
X14297652Y-9126133D01*
X14304405Y-9142476D01*
X14316898Y-9154991D01*
X14333230Y-9161772D01*
X14350913Y-9161788D01*
X14367256Y-9155035D01*
X14379771Y-9142542D01*
X14386552Y-9126210D01*
X14386568Y-9108527D01*
X14386568Y-9437250D01*
X14382816Y-9433491D01*
X14366484Y-9426710D01*
X14363708Y-9426707D01*
X14363708Y-9362527D01*
X14356955Y-9346184D01*
X14344462Y-9333669D01*
X14328130Y-9326888D01*
X14310447Y-9326872D01*
X14294104Y-9333625D01*
X14282174Y-9345535D01*
X14282174Y-8464637D01*
X14275421Y-8448294D01*
X14273538Y-8446408D01*
X14273538Y-8331287D01*
X14266785Y-8314944D01*
X14254292Y-8302429D01*
X14247386Y-8299561D01*
X14251686Y-8297785D01*
X14264201Y-8285292D01*
X14270982Y-8268960D01*
X14270998Y-8251277D01*
X14264245Y-8234934D01*
X14251752Y-8222419D01*
X14239714Y-8217421D01*
X14254226Y-8211425D01*
X14266741Y-8198932D01*
X14273522Y-8182600D01*
X14273538Y-8164917D01*
X14266785Y-8148574D01*
X14254292Y-8136059D01*
X14237960Y-8129278D01*
X14220277Y-8129262D01*
X14203934Y-8136015D01*
X14191419Y-8148508D01*
X14184638Y-8164840D01*
X14184622Y-8182523D01*
X14191375Y-8198866D01*
X14203868Y-8211381D01*
X14215905Y-8216379D01*
X14201394Y-8222375D01*
X14188879Y-8234868D01*
X14182098Y-8251200D01*
X14182098Y-8251314D01*
X14182098Y-8084907D01*
X14175345Y-8068564D01*
X14162852Y-8056049D01*
X14146520Y-8049268D01*
X14128837Y-8049252D01*
X14112494Y-8056005D01*
X14099979Y-8068498D01*
X14093198Y-8084830D01*
X14093182Y-8102513D01*
X14099935Y-8118856D01*
X14112428Y-8131371D01*
X14128760Y-8138152D01*
X14146443Y-8138168D01*
X14162786Y-8131415D01*
X14175301Y-8118922D01*
X14182082Y-8102590D01*
X14182098Y-8084907D01*
X14182098Y-8251314D01*
X14182082Y-8268883D01*
X14188835Y-8285226D01*
X14201328Y-8297741D01*
X14208234Y-8300608D01*
X14203934Y-8302385D01*
X14191419Y-8314878D01*
X14184638Y-8331210D01*
X14184622Y-8348893D01*
X14191375Y-8365236D01*
X14203868Y-8377751D01*
X14220200Y-8384532D01*
X14237883Y-8384548D01*
X14254226Y-8377795D01*
X14266741Y-8365302D01*
X14273522Y-8348970D01*
X14273538Y-8331287D01*
X14273538Y-8446408D01*
X14262928Y-8435779D01*
X14246596Y-8428998D01*
X14228913Y-8428982D01*
X14212570Y-8435735D01*
X14200055Y-8448228D01*
X14193274Y-8464560D01*
X14193258Y-8482243D01*
X14200011Y-8498586D01*
X14212504Y-8511101D01*
X14228836Y-8517882D01*
X14246519Y-8517898D01*
X14262862Y-8511145D01*
X14275377Y-8498652D01*
X14282158Y-8482320D01*
X14282174Y-8464637D01*
X14282174Y-9345535D01*
X14281589Y-9346118D01*
X14280650Y-9348381D01*
X14280650Y-8720161D01*
X14273897Y-8703818D01*
X14269982Y-8699896D01*
X14269982Y-8578429D01*
X14263229Y-8562086D01*
X14250736Y-8549571D01*
X14234404Y-8542790D01*
X14216721Y-8542774D01*
X14200378Y-8549527D01*
X14187863Y-8562020D01*
X14185129Y-8568605D01*
X14179917Y-8555990D01*
X14167424Y-8543475D01*
X14160039Y-8540409D01*
X14169390Y-8536545D01*
X14181905Y-8524052D01*
X14188686Y-8507720D01*
X14188702Y-8490037D01*
X14181949Y-8473694D01*
X14169456Y-8461179D01*
X14153124Y-8454398D01*
X14135441Y-8454382D01*
X14119098Y-8461135D01*
X14107168Y-8473045D01*
X14107168Y-8253817D01*
X14100415Y-8237474D01*
X14087922Y-8224959D01*
X14071590Y-8218178D01*
X14053907Y-8218162D01*
X14037564Y-8224915D01*
X14027158Y-8235303D01*
X14027158Y-8172537D01*
X14020405Y-8156194D01*
X14007912Y-8143679D01*
X13997040Y-8139165D01*
X14006576Y-8135225D01*
X14019091Y-8122732D01*
X14025872Y-8106400D01*
X14025888Y-8088717D01*
X14019135Y-8072374D01*
X14006642Y-8059859D01*
X13990310Y-8053078D01*
X13972627Y-8053062D01*
X13956284Y-8059815D01*
X13943769Y-8072308D01*
X13936988Y-8088640D01*
X13936972Y-8106323D01*
X13943725Y-8122666D01*
X13956218Y-8135181D01*
X13967090Y-8139695D01*
X13957554Y-8143635D01*
X13945039Y-8156128D01*
X13938258Y-8172460D01*
X13938242Y-8190143D01*
X13944995Y-8206486D01*
X13957488Y-8219001D01*
X13973820Y-8225782D01*
X13991503Y-8225798D01*
X14007846Y-8219045D01*
X14020361Y-8206552D01*
X14027142Y-8190220D01*
X14027158Y-8172537D01*
X14027158Y-8235303D01*
X14025049Y-8237408D01*
X14018268Y-8253740D01*
X14018252Y-8271423D01*
X14025005Y-8287766D01*
X14037498Y-8300281D01*
X14053830Y-8307062D01*
X14071513Y-8307078D01*
X14087856Y-8300325D01*
X14100371Y-8287832D01*
X14107152Y-8271500D01*
X14107168Y-8253817D01*
X14107168Y-8473045D01*
X14106583Y-8473628D01*
X14099802Y-8489960D01*
X14099786Y-8507643D01*
X14106539Y-8523986D01*
X14119032Y-8536501D01*
X14126417Y-8539567D01*
X14117066Y-8543431D01*
X14104551Y-8555924D01*
X14104374Y-8556351D01*
X14104225Y-8555990D01*
X14091732Y-8543475D01*
X14075400Y-8536694D01*
X14057717Y-8536678D01*
X14041374Y-8543431D01*
X14028859Y-8555924D01*
X14022078Y-8572256D01*
X14022062Y-8589939D01*
X14028815Y-8606282D01*
X14041238Y-8618726D01*
X14037818Y-8620139D01*
X14025303Y-8632632D01*
X14018522Y-8648964D01*
X14018506Y-8666647D01*
X14025259Y-8682990D01*
X14037752Y-8695505D01*
X14047017Y-8699352D01*
X14038326Y-8702943D01*
X14025811Y-8715436D01*
X14022972Y-8722274D01*
X14017865Y-8709914D01*
X14005372Y-8697399D01*
X13989040Y-8690618D01*
X13971357Y-8690602D01*
X13955014Y-8697355D01*
X13947148Y-8705208D01*
X13947148Y-8415107D01*
X13940395Y-8398764D01*
X13927902Y-8386249D01*
X13911570Y-8379468D01*
X13893887Y-8379452D01*
X13877544Y-8386205D01*
X13865029Y-8398698D01*
X13858248Y-8415030D01*
X13858232Y-8432713D01*
X13864985Y-8449056D01*
X13877478Y-8461571D01*
X13893810Y-8468352D01*
X13911493Y-8468368D01*
X13927836Y-8461615D01*
X13940351Y-8449122D01*
X13947132Y-8432790D01*
X13947148Y-8415107D01*
X13947148Y-8705208D01*
X13942499Y-8709848D01*
X13935718Y-8726180D01*
X13935702Y-8743863D01*
X13942455Y-8760206D01*
X13954948Y-8772721D01*
X13971280Y-8779502D01*
X13988963Y-8779518D01*
X14005306Y-8772765D01*
X14017821Y-8760272D01*
X14020660Y-8753434D01*
X14025767Y-8765794D01*
X14038260Y-8778309D01*
X14039840Y-8778965D01*
X14037564Y-8779905D01*
X14025049Y-8792398D01*
X14018268Y-8808730D01*
X14018252Y-8826413D01*
X14025005Y-8842756D01*
X14037498Y-8855271D01*
X14048316Y-8859763D01*
X14039342Y-8863471D01*
X14026827Y-8875964D01*
X14020046Y-8892296D01*
X14020030Y-8909979D01*
X14026783Y-8926322D01*
X14039276Y-8938837D01*
X14045868Y-8941574D01*
X14037564Y-8945005D01*
X14025049Y-8957498D01*
X14018268Y-8973830D01*
X14018252Y-8991513D01*
X14025005Y-9007856D01*
X14037498Y-9020371D01*
X14037905Y-9020540D01*
X14036294Y-9021205D01*
X14023779Y-9033698D01*
X14022185Y-9037538D01*
X14021675Y-9036304D01*
X14009182Y-9023789D01*
X13992850Y-9017008D01*
X13975167Y-9016992D01*
X13958824Y-9023745D01*
X13946309Y-9036238D01*
X13939528Y-9052570D01*
X13939512Y-9070253D01*
X13946265Y-9086596D01*
X13958758Y-9099111D01*
X13975090Y-9105892D01*
X13992773Y-9105908D01*
X14009116Y-9099155D01*
X14021631Y-9086662D01*
X14023225Y-9082822D01*
X14023735Y-9084056D01*
X14036228Y-9096571D01*
X14052560Y-9103352D01*
X14070243Y-9103368D01*
X14086586Y-9096615D01*
X14099101Y-9084122D01*
X14105882Y-9067790D01*
X14105898Y-9050107D01*
X14099145Y-9033764D01*
X14086652Y-9021249D01*
X14086245Y-9021080D01*
X14087856Y-9020415D01*
X14100371Y-9007922D01*
X14107152Y-8991590D01*
X14107168Y-8973907D01*
X14100415Y-8957564D01*
X14087922Y-8945049D01*
X14081330Y-8942312D01*
X14089634Y-8938881D01*
X14102149Y-8926388D01*
X14103810Y-8922388D01*
X14105015Y-8925306D01*
X14117508Y-8937821D01*
X14133840Y-8944602D01*
X14151523Y-8944618D01*
X14167866Y-8937865D01*
X14180381Y-8925372D01*
X14187162Y-8909040D01*
X14187178Y-8891357D01*
X14180425Y-8875014D01*
X14167932Y-8862499D01*
X14163000Y-8860451D01*
X14169898Y-8857601D01*
X14182413Y-8845108D01*
X14189194Y-8828776D01*
X14189210Y-8811093D01*
X14182457Y-8794750D01*
X14169964Y-8782235D01*
X14161885Y-8778880D01*
X14166850Y-8776829D01*
X14179365Y-8764336D01*
X14186146Y-8748004D01*
X14186162Y-8730321D01*
X14179409Y-8713978D01*
X14166916Y-8701463D01*
X14161370Y-8699161D01*
X14168882Y-8696057D01*
X14181397Y-8683564D01*
X14188178Y-8667232D01*
X14188194Y-8649549D01*
X14181441Y-8633206D01*
X14168948Y-8620691D01*
X14165921Y-8619434D01*
X14167358Y-8618841D01*
X14179873Y-8606348D01*
X14182607Y-8599763D01*
X14187819Y-8612378D01*
X14200312Y-8624893D01*
X14216644Y-8631674D01*
X14234327Y-8631690D01*
X14250670Y-8624937D01*
X14263185Y-8612444D01*
X14269966Y-8596112D01*
X14269982Y-8578429D01*
X14269982Y-8699896D01*
X14261404Y-8691303D01*
X14245072Y-8684522D01*
X14227389Y-8684506D01*
X14211046Y-8691259D01*
X14198531Y-8703752D01*
X14191750Y-8720084D01*
X14191734Y-8737767D01*
X14198487Y-8754110D01*
X14210980Y-8766625D01*
X14227312Y-8773406D01*
X14244995Y-8773422D01*
X14261338Y-8766669D01*
X14273853Y-8754176D01*
X14280634Y-8737844D01*
X14280650Y-8720161D01*
X14280650Y-9348381D01*
X14274808Y-9362450D01*
X14274792Y-9380133D01*
X14281545Y-9396476D01*
X14294038Y-9408991D01*
X14310370Y-9415772D01*
X14328053Y-9415788D01*
X14344396Y-9409035D01*
X14356911Y-9396542D01*
X14363692Y-9380210D01*
X14363708Y-9362527D01*
X14363708Y-9426707D01*
X14348801Y-9426694D01*
X14332458Y-9433447D01*
X14319943Y-9445940D01*
X14313162Y-9462272D01*
X14313146Y-9479955D01*
X14319899Y-9496298D01*
X14332392Y-9508813D01*
X14348724Y-9515594D01*
X14366407Y-9515610D01*
X14382750Y-9508857D01*
X14395265Y-9496364D01*
X14402046Y-9480032D01*
X14402062Y-9462349D01*
X14402062Y-9719954D01*
X14397040Y-9714923D01*
X14380708Y-9708142D01*
X14363025Y-9708126D01*
X14346682Y-9714879D01*
X14334167Y-9727372D01*
X14327386Y-9743704D01*
X14327370Y-9761387D01*
X14334123Y-9777730D01*
X14346616Y-9790245D01*
X14362948Y-9797026D01*
X14380631Y-9797042D01*
X14396974Y-9790289D01*
X14409489Y-9777796D01*
X14416270Y-9761464D01*
X14416286Y-9743781D01*
X14416286Y-10098279D01*
X14406459Y-10098270D01*
X14390116Y-10105023D01*
X14377601Y-10117516D01*
X14370820Y-10133848D01*
X14370804Y-10151531D01*
X14377557Y-10167874D01*
X14390050Y-10180389D01*
X14406382Y-10187170D01*
X14424065Y-10187186D01*
X14440408Y-10180433D01*
X14452923Y-10167940D01*
X14459704Y-10151608D01*
X14459720Y-10133925D01*
X14459720Y-10318624D01*
X14453475Y-10303510D01*
X14440982Y-10290995D01*
X14424650Y-10284214D01*
X14406967Y-10284198D01*
X14390624Y-10290951D01*
X14378109Y-10303444D01*
X14371328Y-10319776D01*
X14371312Y-10337459D01*
X14378065Y-10353802D01*
X14379578Y-10355318D01*
X14378109Y-10356784D01*
X14371328Y-10373116D01*
X14371312Y-10390799D01*
X14378065Y-10407142D01*
X14378944Y-10408023D01*
X14376839Y-10410124D01*
X14370058Y-10426456D01*
X14370042Y-10444139D01*
X14376795Y-10460482D01*
X14379576Y-10463268D01*
X14379379Y-10463464D01*
X14372598Y-10479796D01*
X14372582Y-10497479D01*
X14379335Y-10513822D01*
X14380848Y-10515338D01*
X14379379Y-10516804D01*
X14372598Y-10533136D01*
X14372582Y-10550819D01*
X14379335Y-10567162D01*
X14380848Y-10568678D01*
X14379379Y-10570144D01*
X14372598Y-10586476D01*
X14372582Y-10604159D01*
X14379335Y-10620502D01*
X14380849Y-10622019D01*
X14378109Y-10624754D01*
X14371328Y-10641086D01*
X14371312Y-10658769D01*
X14378065Y-10675112D01*
X14385171Y-10682230D01*
X14369121Y-10682216D01*
X14352778Y-10688969D01*
X14340263Y-10701462D01*
X14333482Y-10717794D01*
X14333466Y-10735477D01*
X14340219Y-10751820D01*
X14352712Y-10764335D01*
X14369044Y-10771116D01*
X14386727Y-10771132D01*
X14403070Y-10764379D01*
X14415585Y-10751886D01*
X14422366Y-10735554D01*
X14422382Y-10717871D01*
X14415629Y-10701528D01*
X14408523Y-10694410D01*
X14424573Y-10694424D01*
X14440916Y-10687671D01*
X14453431Y-10675178D01*
X14460212Y-10658846D01*
X14460228Y-10641163D01*
X14453475Y-10624820D01*
X14451961Y-10623303D01*
X14454701Y-10620568D01*
X14461482Y-10604236D01*
X14461498Y-10586553D01*
X14461498Y-11179048D01*
X14335006Y-11179048D01*
X14335006Y-10948249D01*
X14328253Y-10931906D01*
X14315760Y-10919391D01*
X14305034Y-10914937D01*
X14305034Y-9454729D01*
X14298281Y-9438386D01*
X14285788Y-9425871D01*
X14270998Y-9419730D01*
X14270998Y-9132657D01*
X14264245Y-9116314D01*
X14251752Y-9103799D01*
X14235420Y-9097018D01*
X14217737Y-9097002D01*
X14201394Y-9103755D01*
X14188879Y-9116248D01*
X14182098Y-9132580D01*
X14182082Y-9150263D01*
X14188835Y-9166606D01*
X14201077Y-9178869D01*
X14186154Y-9185035D01*
X14173639Y-9197528D01*
X14166858Y-9213860D01*
X14166842Y-9231543D01*
X14173595Y-9247886D01*
X14186088Y-9260401D01*
X14202420Y-9267182D01*
X14220103Y-9267198D01*
X14236446Y-9260445D01*
X14248961Y-9247952D01*
X14255742Y-9231620D01*
X14255758Y-9213937D01*
X14249005Y-9197594D01*
X14236763Y-9185331D01*
X14251686Y-9179165D01*
X14264201Y-9166672D01*
X14270982Y-9150340D01*
X14270998Y-9132657D01*
X14270998Y-9419730D01*
X14269456Y-9419090D01*
X14251773Y-9419074D01*
X14235430Y-9425827D01*
X14224755Y-9436484D01*
X14214668Y-9426379D01*
X14198336Y-9419598D01*
X14180653Y-9419582D01*
X14164310Y-9426335D01*
X14151795Y-9438828D01*
X14145014Y-9455160D01*
X14144998Y-9472843D01*
X14151751Y-9489186D01*
X14164244Y-9501701D01*
X14180576Y-9508482D01*
X14198259Y-9508498D01*
X14214602Y-9501745D01*
X14225277Y-9491088D01*
X14235364Y-9501193D01*
X14251696Y-9507974D01*
X14269379Y-9507990D01*
X14285722Y-9501237D01*
X14298237Y-9488744D01*
X14305018Y-9472412D01*
X14305034Y-9454729D01*
X14305034Y-10914937D01*
X14303510Y-10914304D01*
X14303510Y-9703649D01*
X14296757Y-9687306D01*
X14284264Y-9674791D01*
X14267932Y-9668010D01*
X14250249Y-9667994D01*
X14233906Y-9674747D01*
X14221391Y-9687240D01*
X14214610Y-9703572D01*
X14214594Y-9721255D01*
X14221347Y-9737598D01*
X14233840Y-9750113D01*
X14250172Y-9756894D01*
X14267855Y-9756910D01*
X14284198Y-9750157D01*
X14296713Y-9737664D01*
X14303494Y-9721332D01*
X14303510Y-9703649D01*
X14303510Y-10914304D01*
X14299428Y-10912610D01*
X14281745Y-10912594D01*
X14265402Y-10919347D01*
X14252887Y-10931840D01*
X14246106Y-10948172D01*
X14246090Y-10965855D01*
X14252843Y-10982198D01*
X14265336Y-10994713D01*
X14281668Y-11001494D01*
X14299351Y-11001510D01*
X14315694Y-10994757D01*
X14328209Y-10982264D01*
X14334990Y-10965932D01*
X14335006Y-10948249D01*
X14335006Y-11179048D01*
X14135362Y-11179048D01*
X14135362Y-9477081D01*
X14128609Y-9460738D01*
X14116116Y-9448223D01*
X14099784Y-9441442D01*
X14082101Y-9441426D01*
X14065758Y-9448179D01*
X14053243Y-9460672D01*
X14046462Y-9477004D01*
X14046446Y-9494687D01*
X14053199Y-9511030D01*
X14065692Y-9523545D01*
X14082024Y-9530326D01*
X14099707Y-9530342D01*
X14116050Y-9523589D01*
X14128565Y-9511096D01*
X14135346Y-9494764D01*
X14135362Y-9477081D01*
X14135362Y-11179048D01*
X14117328Y-11179048D01*
X14117328Y-10711267D01*
X14110575Y-10694924D01*
X14098082Y-10682409D01*
X14081750Y-10675628D01*
X14064067Y-10675612D01*
X14047724Y-10682365D01*
X14035209Y-10694858D01*
X14035032Y-10695285D01*
X14035032Y-10591633D01*
X14034270Y-10589789D01*
X14034270Y-10078299D01*
X14027517Y-10061956D01*
X14022705Y-10057136D01*
X14023917Y-10055926D01*
X14030698Y-10039594D01*
X14030714Y-10021911D01*
X14023961Y-10005568D01*
X14011468Y-9993053D01*
X13995136Y-9986272D01*
X13991344Y-9986268D01*
X13991344Y-9539057D01*
X13984591Y-9522714D01*
X13972098Y-9510199D01*
X13955766Y-9503418D01*
X13947148Y-9503410D01*
X13947148Y-9215207D01*
X13940395Y-9198864D01*
X13934448Y-9192906D01*
X13934448Y-8846907D01*
X13934448Y-8529407D01*
X13927695Y-8513064D01*
X13915202Y-8500549D01*
X13898870Y-8493768D01*
X13881187Y-8493752D01*
X13864844Y-8500505D01*
X13852329Y-8512998D01*
X13845548Y-8529330D01*
X13845532Y-8547013D01*
X13852285Y-8563356D01*
X13864778Y-8575871D01*
X13881110Y-8582652D01*
X13898793Y-8582668D01*
X13915136Y-8575915D01*
X13927651Y-8563422D01*
X13934432Y-8547090D01*
X13934448Y-8529407D01*
X13934448Y-8846907D01*
X13927695Y-8830564D01*
X13915202Y-8818049D01*
X13898870Y-8811268D01*
X13881187Y-8811252D01*
X13864844Y-8818005D01*
X13852329Y-8830498D01*
X13845548Y-8846830D01*
X13845532Y-8864513D01*
X13852285Y-8880856D01*
X13864778Y-8893371D01*
X13881110Y-8900152D01*
X13898793Y-8900168D01*
X13915136Y-8893415D01*
X13927651Y-8880922D01*
X13934432Y-8864590D01*
X13934448Y-8846907D01*
X13934448Y-9192906D01*
X13927902Y-9186349D01*
X13911570Y-9179568D01*
X13893887Y-9179552D01*
X13877544Y-9186305D01*
X13865029Y-9198798D01*
X13864598Y-9199837D01*
X13864598Y-8970097D01*
X13857845Y-8953754D01*
X13845352Y-8941239D01*
X13829020Y-8934458D01*
X13824466Y-8934454D01*
X13824466Y-8847669D01*
X13817713Y-8831326D01*
X13805220Y-8818811D01*
X13788906Y-8812037D01*
X13788906Y-8411297D01*
X13782153Y-8394954D01*
X13769660Y-8382439D01*
X13753328Y-8375658D01*
X13735645Y-8375642D01*
X13719302Y-8382395D01*
X13706787Y-8394888D01*
X13700006Y-8411220D01*
X13699990Y-8428903D01*
X13706743Y-8445246D01*
X13719236Y-8457761D01*
X13735568Y-8464542D01*
X13753251Y-8464558D01*
X13769594Y-8457805D01*
X13782109Y-8445312D01*
X13788890Y-8428980D01*
X13788906Y-8411297D01*
X13788906Y-8812037D01*
X13788888Y-8812030D01*
X13771205Y-8812014D01*
X13754862Y-8818767D01*
X13742347Y-8831260D01*
X13735566Y-8847592D01*
X13735550Y-8865275D01*
X13742303Y-8881618D01*
X13754796Y-8894133D01*
X13771128Y-8900914D01*
X13788811Y-8900930D01*
X13805154Y-8894177D01*
X13817669Y-8881684D01*
X13824450Y-8865352D01*
X13824466Y-8847669D01*
X13824466Y-8934454D01*
X13811337Y-8934442D01*
X13794994Y-8941195D01*
X13782479Y-8953688D01*
X13775698Y-8970020D01*
X13775682Y-8987703D01*
X13782435Y-9004046D01*
X13794928Y-9016561D01*
X13811260Y-9023342D01*
X13828943Y-9023358D01*
X13845286Y-9016605D01*
X13857801Y-9004112D01*
X13864582Y-8987780D01*
X13864598Y-8970097D01*
X13864598Y-9199837D01*
X13858248Y-9215130D01*
X13858232Y-9232813D01*
X13864985Y-9249156D01*
X13877478Y-9261671D01*
X13893810Y-9268452D01*
X13911493Y-9268468D01*
X13927836Y-9261715D01*
X13940351Y-9249222D01*
X13947132Y-9232890D01*
X13947148Y-9215207D01*
X13947148Y-9503410D01*
X13938083Y-9503402D01*
X13921740Y-9510155D01*
X13909225Y-9522648D01*
X13902444Y-9538980D01*
X13902428Y-9556663D01*
X13909181Y-9573006D01*
X13921674Y-9585521D01*
X13938006Y-9592302D01*
X13955689Y-9592318D01*
X13972032Y-9585565D01*
X13984547Y-9573072D01*
X13991328Y-9556740D01*
X13991344Y-9539057D01*
X13991344Y-9986268D01*
X13977453Y-9986256D01*
X13961110Y-9993009D01*
X13948595Y-10005502D01*
X13941814Y-10021834D01*
X13941798Y-10039517D01*
X13948551Y-10055860D01*
X13953363Y-10060680D01*
X13952151Y-10061890D01*
X13945370Y-10078222D01*
X13945354Y-10095905D01*
X13952107Y-10112248D01*
X13964600Y-10124763D01*
X13980932Y-10131544D01*
X13998615Y-10131560D01*
X14014958Y-10124807D01*
X14027473Y-10112314D01*
X14034254Y-10095982D01*
X14034270Y-10078299D01*
X14034270Y-10589789D01*
X14028279Y-10575290D01*
X14024227Y-10571231D01*
X14026965Y-10568498D01*
X14033746Y-10552166D01*
X14033762Y-10534483D01*
X14027009Y-10518140D01*
X14024227Y-10515353D01*
X14025695Y-10513888D01*
X14032476Y-10497556D01*
X14032492Y-10479873D01*
X14025739Y-10463530D01*
X14023592Y-10461379D01*
X14024425Y-10460548D01*
X14031206Y-10444216D01*
X14031222Y-10426533D01*
X14024469Y-10410190D01*
X14022321Y-10408038D01*
X14024425Y-10405938D01*
X14031206Y-10389606D01*
X14031222Y-10371923D01*
X14024469Y-10355580D01*
X14021053Y-10352158D01*
X14021885Y-10351328D01*
X14028666Y-10334996D01*
X14028682Y-10317313D01*
X14021929Y-10300970D01*
X14009436Y-10288455D01*
X13993104Y-10281674D01*
X13975421Y-10281658D01*
X13959078Y-10288411D01*
X13946563Y-10300904D01*
X13940290Y-10316012D01*
X13940290Y-9864431D01*
X13933537Y-9848088D01*
X13921044Y-9835573D01*
X13904712Y-9828792D01*
X13887029Y-9828776D01*
X13870686Y-9835529D01*
X13860009Y-9846187D01*
X13848400Y-9834557D01*
X13832068Y-9827776D01*
X13814385Y-9827760D01*
X13798042Y-9834513D01*
X13785527Y-9847006D01*
X13780778Y-9858444D01*
X13780778Y-9048837D01*
X13774025Y-9032494D01*
X13761532Y-9019979D01*
X13745200Y-9013198D01*
X13727517Y-9013182D01*
X13711174Y-9019935D01*
X13698659Y-9032428D01*
X13691878Y-9048760D01*
X13691862Y-9066443D01*
X13698615Y-9082786D01*
X13711108Y-9095301D01*
X13727440Y-9102082D01*
X13745123Y-9102098D01*
X13761466Y-9095345D01*
X13773981Y-9082852D01*
X13780762Y-9066520D01*
X13780778Y-9048837D01*
X13780778Y-9858444D01*
X13778746Y-9863338D01*
X13778730Y-9881021D01*
X13785483Y-9897364D01*
X13797976Y-9909879D01*
X13814308Y-9916660D01*
X13831991Y-9916676D01*
X13848334Y-9909923D01*
X13859010Y-9899265D01*
X13870620Y-9910895D01*
X13886952Y-9917676D01*
X13904635Y-9917692D01*
X13920978Y-9910939D01*
X13933493Y-9898446D01*
X13940274Y-9882114D01*
X13940290Y-9864431D01*
X13940290Y-10316012D01*
X13939782Y-10317236D01*
X13939766Y-10334919D01*
X13946519Y-10351262D01*
X13949935Y-10354684D01*
X13949103Y-10355514D01*
X13942322Y-10371846D01*
X13942306Y-10389529D01*
X13949059Y-10405872D01*
X13951207Y-10408024D01*
X13949103Y-10410124D01*
X13942322Y-10426456D01*
X13942306Y-10444139D01*
X13949059Y-10460482D01*
X13951206Y-10462633D01*
X13950373Y-10463464D01*
X13943592Y-10479796D01*
X13943576Y-10497479D01*
X13950329Y-10513822D01*
X13953111Y-10516609D01*
X13951643Y-10518074D01*
X13944862Y-10534406D01*
X13944846Y-10552089D01*
X13951599Y-10568432D01*
X13955651Y-10572491D01*
X13952913Y-10575224D01*
X13946132Y-10591556D01*
X13946116Y-10609239D01*
X13952642Y-10625032D01*
X13949103Y-10628564D01*
X13942322Y-10644896D01*
X13942306Y-10662579D01*
X13949059Y-10678922D01*
X13961552Y-10691437D01*
X13977884Y-10698218D01*
X13995567Y-10698234D01*
X14011910Y-10691481D01*
X14024425Y-10678988D01*
X14031206Y-10662656D01*
X14031222Y-10644973D01*
X14024696Y-10629180D01*
X14028235Y-10625648D01*
X14035016Y-10609316D01*
X14035032Y-10591633D01*
X14035032Y-10695285D01*
X14028428Y-10711190D01*
X14028412Y-10728873D01*
X14035165Y-10745216D01*
X14047658Y-10757731D01*
X14063990Y-10764512D01*
X14081673Y-10764528D01*
X14098016Y-10757775D01*
X14110531Y-10745282D01*
X14117312Y-10728950D01*
X14117328Y-10711267D01*
X14117328Y-11179048D01*
X14064242Y-11179048D01*
X14064242Y-10919293D01*
X14057489Y-10902950D01*
X14044996Y-10890435D01*
X14028664Y-10883654D01*
X14010981Y-10883638D01*
X13994638Y-10890391D01*
X13982123Y-10902884D01*
X13975342Y-10919216D01*
X13975326Y-10936899D01*
X13982079Y-10953242D01*
X13994572Y-10965757D01*
X14010904Y-10972538D01*
X14028587Y-10972554D01*
X14044930Y-10965801D01*
X14057445Y-10953308D01*
X14064226Y-10936976D01*
X14064242Y-10919293D01*
X14064242Y-11179048D01*
X13873742Y-11179048D01*
X13873742Y-10290643D01*
X13866989Y-10274300D01*
X13854496Y-10261785D01*
X13838164Y-10255004D01*
X13820481Y-10254988D01*
X13804138Y-10261741D01*
X13791623Y-10274234D01*
X13784842Y-10290566D01*
X13784826Y-10308249D01*
X13791579Y-10324592D01*
X13804072Y-10337107D01*
X13820404Y-10343888D01*
X13838087Y-10343904D01*
X13854430Y-10337151D01*
X13866945Y-10324658D01*
X13873726Y-10308326D01*
X13873742Y-10290643D01*
X13873742Y-11179048D01*
X13721596Y-11179048D01*
X13721596Y-9566489D01*
X13714843Y-9550146D01*
X13702350Y-9537631D01*
X13686018Y-9530850D01*
X13668335Y-9530834D01*
X13651992Y-9537587D01*
X13639477Y-9550080D01*
X13632696Y-9566412D01*
X13632680Y-9584095D01*
X13639433Y-9600438D01*
X13651926Y-9612953D01*
X13668258Y-9619734D01*
X13685941Y-9619750D01*
X13702284Y-9612997D01*
X13714799Y-9600504D01*
X13721580Y-9584172D01*
X13721596Y-9566489D01*
X13721596Y-11179048D01*
X13672828Y-11179048D01*
X13672828Y-9876623D01*
X13666075Y-9860280D01*
X13653582Y-9847765D01*
X13637250Y-9840984D01*
X13619567Y-9840968D01*
X13603224Y-9847721D01*
X13590709Y-9860214D01*
X13590278Y-9861253D01*
X13590278Y-8883737D01*
X13587738Y-8877590D01*
X13587738Y-8421457D01*
X13580985Y-8405114D01*
X13568492Y-8392599D01*
X13552160Y-8385818D01*
X13534477Y-8385802D01*
X13518134Y-8392555D01*
X13505619Y-8405048D01*
X13498838Y-8421380D01*
X13498822Y-8439063D01*
X13505575Y-8455406D01*
X13518068Y-8467921D01*
X13534400Y-8474702D01*
X13552083Y-8474718D01*
X13568426Y-8467965D01*
X13580941Y-8455472D01*
X13587722Y-8439140D01*
X13587738Y-8421457D01*
X13587738Y-8877590D01*
X13583525Y-8867394D01*
X13571032Y-8854879D01*
X13554700Y-8848098D01*
X13537017Y-8848082D01*
X13520674Y-8854835D01*
X13508159Y-8867328D01*
X13501378Y-8883660D01*
X13501362Y-8901343D01*
X13508115Y-8917686D01*
X13520608Y-8930201D01*
X13536940Y-8936982D01*
X13554623Y-8936998D01*
X13570966Y-8930245D01*
X13583481Y-8917752D01*
X13590262Y-8901420D01*
X13590278Y-8883737D01*
X13590278Y-9861253D01*
X13583928Y-9876546D01*
X13583912Y-9894229D01*
X13590665Y-9910572D01*
X13603158Y-9923087D01*
X13619490Y-9929868D01*
X13637173Y-9929884D01*
X13653516Y-9923131D01*
X13666031Y-9910638D01*
X13672812Y-9894306D01*
X13672828Y-9876623D01*
X13672828Y-11179048D01*
X13547860Y-11179048D01*
X13547860Y-9051885D01*
X13541107Y-9035542D01*
X13528614Y-9023027D01*
X13512282Y-9016246D01*
X13494599Y-9016230D01*
X13478256Y-9022983D01*
X13477248Y-9023990D01*
X13477248Y-8859607D01*
X13477248Y-8529407D01*
X13470495Y-8513064D01*
X13458002Y-8500549D01*
X13441670Y-8493768D01*
X13423987Y-8493752D01*
X13407644Y-8500505D01*
X13395129Y-8512998D01*
X13388348Y-8529330D01*
X13388348Y-8529444D01*
X13388348Y-8415107D01*
X13381595Y-8398764D01*
X13369102Y-8386249D01*
X13352770Y-8379468D01*
X13335087Y-8379452D01*
X13318744Y-8386205D01*
X13306229Y-8398698D01*
X13299448Y-8415030D01*
X13299432Y-8432713D01*
X13306185Y-8449056D01*
X13318678Y-8461571D01*
X13335010Y-8468352D01*
X13352693Y-8468368D01*
X13369036Y-8461615D01*
X13381551Y-8449122D01*
X13388332Y-8432790D01*
X13388348Y-8415107D01*
X13388348Y-8529444D01*
X13388332Y-8547013D01*
X13395085Y-8563356D01*
X13407578Y-8575871D01*
X13423910Y-8582652D01*
X13441593Y-8582668D01*
X13457936Y-8575915D01*
X13470451Y-8563422D01*
X13477232Y-8547090D01*
X13477248Y-8529407D01*
X13477248Y-8859607D01*
X13470495Y-8843264D01*
X13458002Y-8830749D01*
X13441670Y-8823968D01*
X13423987Y-8823952D01*
X13407644Y-8830705D01*
X13395129Y-8843198D01*
X13388348Y-8859530D01*
X13388332Y-8877213D01*
X13395085Y-8893556D01*
X13407578Y-8906071D01*
X13423910Y-8912852D01*
X13441593Y-8912868D01*
X13457936Y-8906115D01*
X13470451Y-8893622D01*
X13477232Y-8877290D01*
X13477248Y-8859607D01*
X13477248Y-9023990D01*
X13465741Y-9035476D01*
X13458960Y-9051808D01*
X13458944Y-9069491D01*
X13465697Y-9085834D01*
X13478190Y-9098349D01*
X13481303Y-9099641D01*
X13477494Y-9101215D01*
X13464979Y-9113708D01*
X13458198Y-9130040D01*
X13458182Y-9147723D01*
X13464935Y-9164066D01*
X13477428Y-9176581D01*
X13493760Y-9183362D01*
X13511443Y-9183378D01*
X13527786Y-9176625D01*
X13540301Y-9164132D01*
X13547082Y-9147800D01*
X13547098Y-9130117D01*
X13540345Y-9113774D01*
X13527852Y-9101259D01*
X13524739Y-9099967D01*
X13528548Y-9098393D01*
X13541063Y-9085900D01*
X13547844Y-9069568D01*
X13547860Y-9051885D01*
X13547860Y-11179048D01*
X13547098Y-11179048D01*
X13547098Y-9567505D01*
X13540345Y-9551162D01*
X13527852Y-9538647D01*
X13511520Y-9531866D01*
X13493837Y-9531850D01*
X13477494Y-9538603D01*
X13464979Y-9551096D01*
X13458198Y-9567428D01*
X13458182Y-9585111D01*
X13464935Y-9601454D01*
X13477428Y-9613969D01*
X13493760Y-9620750D01*
X13511443Y-9620766D01*
X13527786Y-9614013D01*
X13540301Y-9601520D01*
X13547082Y-9585188D01*
X13547098Y-9567505D01*
X13547098Y-11179048D01*
X13520682Y-11179048D01*
X13520682Y-9850969D01*
X13513929Y-9834626D01*
X13501436Y-9822111D01*
X13485104Y-9815330D01*
X13468612Y-9815315D01*
X13468612Y-9738701D01*
X13461859Y-9722358D01*
X13449366Y-9709843D01*
X13433034Y-9703062D01*
X13415351Y-9703046D01*
X13399008Y-9709799D01*
X13387586Y-9721202D01*
X13387586Y-9563949D01*
X13387078Y-9562720D01*
X13387078Y-8970097D01*
X13387078Y-8812617D01*
X13380325Y-8796274D01*
X13367832Y-8783759D01*
X13351500Y-8776978D01*
X13333817Y-8776962D01*
X13317474Y-8783715D01*
X13312148Y-8789032D01*
X13312148Y-8567507D01*
X13305395Y-8551164D01*
X13292902Y-8538649D01*
X13276570Y-8531868D01*
X13258887Y-8531852D01*
X13242544Y-8538605D01*
X13230029Y-8551098D01*
X13223248Y-8567430D01*
X13223232Y-8585113D01*
X13229985Y-8601456D01*
X13242478Y-8613971D01*
X13258810Y-8620752D01*
X13276493Y-8620768D01*
X13292836Y-8614015D01*
X13305351Y-8601522D01*
X13312132Y-8585190D01*
X13312148Y-8567507D01*
X13312148Y-8789032D01*
X13304959Y-8796208D01*
X13298178Y-8812540D01*
X13298162Y-8830223D01*
X13304915Y-8846566D01*
X13317408Y-8859081D01*
X13333740Y-8865862D01*
X13351423Y-8865878D01*
X13367766Y-8859125D01*
X13380281Y-8846632D01*
X13387062Y-8830300D01*
X13387078Y-8812617D01*
X13387078Y-8970097D01*
X13380325Y-8953754D01*
X13367832Y-8941239D01*
X13351500Y-8934458D01*
X13333817Y-8934442D01*
X13317474Y-8941195D01*
X13304959Y-8953688D01*
X13298178Y-8970020D01*
X13298162Y-8987703D01*
X13304915Y-9004046D01*
X13317408Y-9016561D01*
X13333740Y-9023342D01*
X13351423Y-9023358D01*
X13367766Y-9016605D01*
X13380281Y-9004112D01*
X13387062Y-8987780D01*
X13387078Y-8970097D01*
X13387078Y-9562720D01*
X13380833Y-9547606D01*
X13368340Y-9535091D01*
X13352008Y-9528310D01*
X13334325Y-9528294D01*
X13317982Y-9535047D01*
X13305467Y-9547540D01*
X13298686Y-9563872D01*
X13298670Y-9581555D01*
X13305423Y-9597898D01*
X13317916Y-9610413D01*
X13334248Y-9617194D01*
X13351931Y-9617210D01*
X13368274Y-9610457D01*
X13380789Y-9597964D01*
X13387570Y-9581632D01*
X13387586Y-9563949D01*
X13387586Y-9721202D01*
X13386493Y-9722292D01*
X13379712Y-9738624D01*
X13379696Y-9756307D01*
X13386449Y-9772650D01*
X13398942Y-9785165D01*
X13415274Y-9791946D01*
X13432957Y-9791962D01*
X13449300Y-9785209D01*
X13461815Y-9772716D01*
X13468596Y-9756384D01*
X13468612Y-9738701D01*
X13468612Y-9815315D01*
X13467421Y-9815314D01*
X13451078Y-9822067D01*
X13438563Y-9834560D01*
X13431782Y-9850892D01*
X13431766Y-9868575D01*
X13438519Y-9884918D01*
X13451012Y-9897433D01*
X13467344Y-9904214D01*
X13485027Y-9904230D01*
X13501370Y-9897477D01*
X13513885Y-9884984D01*
X13520666Y-9868652D01*
X13520682Y-9850969D01*
X13520682Y-11179048D01*
X13372600Y-11179048D01*
X13372600Y-9843857D01*
X13365847Y-9827514D01*
X13353354Y-9814999D01*
X13337022Y-9808218D01*
X13319339Y-9808202D01*
X13302996Y-9814955D01*
X13290481Y-9827448D01*
X13283700Y-9843780D01*
X13283684Y-9861463D01*
X13290437Y-9877806D01*
X13302930Y-9890321D01*
X13319262Y-9897102D01*
X13336945Y-9897118D01*
X13353288Y-9890365D01*
X13365803Y-9877872D01*
X13372584Y-9861540D01*
X13372600Y-9843857D01*
X13372600Y-11179048D01*
X13323578Y-11179048D01*
X13323578Y-10012767D01*
X13316825Y-9996424D01*
X13304332Y-9983909D01*
X13288000Y-9977128D01*
X13270317Y-9977112D01*
X13253974Y-9983865D01*
X13241459Y-9996358D01*
X13234678Y-10012690D01*
X13234662Y-10030373D01*
X13241415Y-10046716D01*
X13253908Y-10059231D01*
X13270240Y-10066012D01*
X13287923Y-10066028D01*
X13304266Y-10059275D01*
X13316781Y-10046782D01*
X13323562Y-10030450D01*
X13323578Y-10012767D01*
X13323578Y-11179048D01*
X13248902Y-11179048D01*
X13248902Y-10324425D01*
X13242149Y-10308082D01*
X13233916Y-10299834D01*
X13233916Y-9562679D01*
X13227163Y-9546336D01*
X13214670Y-9533821D01*
X13198338Y-9527040D01*
X13180655Y-9527024D01*
X13164312Y-9533777D01*
X13151797Y-9546270D01*
X13145016Y-9562602D01*
X13145000Y-9580285D01*
X13151753Y-9596628D01*
X13164246Y-9609143D01*
X13180578Y-9615924D01*
X13198261Y-9615940D01*
X13214604Y-9609187D01*
X13227119Y-9596694D01*
X13233900Y-9580362D01*
X13233916Y-9562679D01*
X13233916Y-10299834D01*
X13229656Y-10295567D01*
X13213324Y-10288786D01*
X13195641Y-10288770D01*
X13179298Y-10295523D01*
X13166783Y-10308016D01*
X13160002Y-10324348D01*
X13159986Y-10342031D01*
X13166739Y-10358374D01*
X13179232Y-10370889D01*
X13195564Y-10377670D01*
X13213247Y-10377686D01*
X13229590Y-10370933D01*
X13242105Y-10358440D01*
X13248886Y-10342108D01*
X13248902Y-10324425D01*
X13248902Y-11179048D01*
X13139682Y-11179048D01*
X13139682Y-8878657D01*
X13132929Y-8862314D01*
X13120436Y-8849799D01*
X13104104Y-8843018D01*
X13086421Y-8843002D01*
X13070088Y-8849751D01*
X13070088Y-8582008D01*
X13061598Y-8561462D01*
X13056880Y-8556735D01*
X13056880Y-8184243D01*
X13048390Y-8163698D01*
X13032685Y-8147965D01*
X13027793Y-8145933D01*
X13035635Y-8138105D01*
X13044160Y-8117574D01*
X13044180Y-8095343D01*
X13035690Y-8074798D01*
X13019985Y-8059065D01*
X12999454Y-8050540D01*
X12977223Y-8050520D01*
X12956678Y-8059010D01*
X12940945Y-8074715D01*
X12932420Y-8095246D01*
X12932400Y-8117476D01*
X12940890Y-8138022D01*
X12956595Y-8153755D01*
X12961487Y-8155786D01*
X12953645Y-8163615D01*
X12945120Y-8184146D01*
X12945100Y-8206376D01*
X12953590Y-8226922D01*
X12969295Y-8242655D01*
X12989826Y-8251180D01*
X13012056Y-8251200D01*
X13032602Y-8242710D01*
X13048335Y-8227005D01*
X13056860Y-8206474D01*
X13056880Y-8184243D01*
X13056880Y-8556735D01*
X13045893Y-8545729D01*
X13025362Y-8537204D01*
X13003131Y-8537184D01*
X12982586Y-8545674D01*
X12966853Y-8561379D01*
X12958328Y-8581910D01*
X12958308Y-8604141D01*
X12966798Y-8624686D01*
X12982503Y-8640419D01*
X13003034Y-8648944D01*
X13025264Y-8648964D01*
X13045810Y-8640474D01*
X13061543Y-8624769D01*
X13070068Y-8604238D01*
X13070088Y-8582008D01*
X13070088Y-8849751D01*
X13070078Y-8849755D01*
X13057563Y-8862248D01*
X13050782Y-8878580D01*
X13050766Y-8896263D01*
X13057519Y-8912606D01*
X13070012Y-8925121D01*
X13086344Y-8931902D01*
X13104027Y-8931918D01*
X13120370Y-8925165D01*
X13132885Y-8912672D01*
X13139666Y-8896340D01*
X13139682Y-8878657D01*
X13139682Y-11179048D01*
X13074150Y-11179048D01*
X13074150Y-9563949D01*
X13067397Y-9547606D01*
X13054904Y-9535091D01*
X13038572Y-9528310D01*
X13020889Y-9528294D01*
X13004546Y-9535047D01*
X12992031Y-9547540D01*
X12985250Y-9563872D01*
X12985234Y-9581555D01*
X12991987Y-9597898D01*
X13004480Y-9610413D01*
X13020812Y-9617194D01*
X13038495Y-9617210D01*
X13054838Y-9610457D01*
X13067353Y-9597964D01*
X13074134Y-9581632D01*
X13074150Y-9563949D01*
X13074150Y-11179048D01*
X13064752Y-11179048D01*
X13064752Y-10321123D01*
X13057999Y-10304780D01*
X13045702Y-10292461D01*
X13045702Y-10158563D01*
X13038949Y-10142220D01*
X13026456Y-10129705D01*
X13010124Y-10122924D01*
X12992441Y-10122908D01*
X12976098Y-10129661D01*
X12963583Y-10142154D01*
X12956802Y-10158486D01*
X12956786Y-10176169D01*
X12963539Y-10192512D01*
X12976032Y-10205027D01*
X12992364Y-10211808D01*
X13010047Y-10211824D01*
X13026390Y-10205071D01*
X13038905Y-10192578D01*
X13045686Y-10176246D01*
X13045702Y-10158563D01*
X13045702Y-10292461D01*
X13045506Y-10292265D01*
X13029174Y-10285484D01*
X13011491Y-10285468D01*
X12995148Y-10292221D01*
X12982633Y-10304714D01*
X12975852Y-10321046D01*
X12975836Y-10338729D01*
X12982589Y-10355072D01*
X12983468Y-10355953D01*
X12981363Y-10358054D01*
X12974582Y-10374386D01*
X12974566Y-10392069D01*
X12981319Y-10408412D01*
X12981564Y-10408658D01*
X12978823Y-10411394D01*
X12972042Y-10427726D01*
X12972026Y-10445409D01*
X12978779Y-10461752D01*
X12981560Y-10464538D01*
X12981363Y-10464734D01*
X12974582Y-10481066D01*
X12974566Y-10498749D01*
X12981319Y-10515092D01*
X12983467Y-10517244D01*
X12981363Y-10519344D01*
X12974582Y-10535676D01*
X12974566Y-10553359D01*
X12981319Y-10569702D01*
X12981564Y-10569948D01*
X12978823Y-10572684D01*
X12972042Y-10589016D01*
X12972026Y-10606699D01*
X12978779Y-10623042D01*
X12982195Y-10626464D01*
X12981363Y-10627294D01*
X12974582Y-10643626D01*
X12974566Y-10661309D01*
X12980162Y-10674852D01*
X12977709Y-10674850D01*
X12961366Y-10681603D01*
X12948851Y-10694096D01*
X12942070Y-10710428D01*
X12942054Y-10728111D01*
X12948807Y-10744454D01*
X12961300Y-10756969D01*
X12977632Y-10763750D01*
X12995315Y-10763766D01*
X13011658Y-10757013D01*
X13024173Y-10744520D01*
X13030954Y-10728188D01*
X13030970Y-10710505D01*
X13025373Y-10696962D01*
X13027827Y-10696964D01*
X13044170Y-10690211D01*
X13056685Y-10677718D01*
X13063466Y-10661386D01*
X13063482Y-10643703D01*
X13056729Y-10627360D01*
X13053313Y-10623938D01*
X13054145Y-10623108D01*
X13060926Y-10606776D01*
X13060942Y-10589093D01*
X13054189Y-10572750D01*
X13053943Y-10572504D01*
X13056685Y-10569768D01*
X13063466Y-10553436D01*
X13063482Y-10535753D01*
X13056729Y-10519410D01*
X13054581Y-10517258D01*
X13056685Y-10515158D01*
X13063466Y-10498826D01*
X13063482Y-10481143D01*
X13056729Y-10464800D01*
X13053948Y-10462014D01*
X13054145Y-10461818D01*
X13060926Y-10445486D01*
X13060942Y-10427803D01*
X13054189Y-10411460D01*
X13053943Y-10411214D01*
X13056685Y-10408478D01*
X13063466Y-10392146D01*
X13063482Y-10374463D01*
X13056729Y-10358120D01*
X13055850Y-10357239D01*
X13057955Y-10355138D01*
X13064736Y-10338806D01*
X13064752Y-10321123D01*
X13064752Y-11179048D01*
X12936736Y-11179048D01*
X12936736Y-10931739D01*
X12929983Y-10915396D01*
X12918448Y-10903841D01*
X12918448Y-9717365D01*
X12911695Y-9701022D01*
X12899202Y-9688507D01*
X12882870Y-9681726D01*
X12865187Y-9681710D01*
X12848844Y-9688463D01*
X12836329Y-9700956D01*
X12829548Y-9717288D01*
X12829532Y-9734971D01*
X12836285Y-9751314D01*
X12848778Y-9763829D01*
X12865110Y-9770610D01*
X12882793Y-9770626D01*
X12899136Y-9763873D01*
X12911651Y-9751380D01*
X12918432Y-9735048D01*
X12918448Y-9717365D01*
X12918448Y-10903841D01*
X12917490Y-10902881D01*
X12901158Y-10896100D01*
X12883475Y-10896084D01*
X12867132Y-10902837D01*
X12854617Y-10915330D01*
X12847836Y-10931662D01*
X12847820Y-10949345D01*
X12854573Y-10965688D01*
X12867066Y-10978203D01*
X12883398Y-10984984D01*
X12901081Y-10985000D01*
X12917424Y-10978247D01*
X12929939Y-10965754D01*
X12936720Y-10949422D01*
X12936736Y-10931739D01*
X12936736Y-11179048D01*
X12815080Y-11179048D01*
X12815080Y-9371026D01*
X12799259Y-9332737D01*
X12769990Y-9303416D01*
X12754618Y-9297033D01*
X12754618Y-8650057D01*
X12747865Y-8633714D01*
X12735372Y-8621199D01*
X12719040Y-8614418D01*
X12701357Y-8614402D01*
X12685014Y-8621155D01*
X12672499Y-8633648D01*
X12665718Y-8649980D01*
X12665702Y-8667663D01*
X12672455Y-8684006D01*
X12684948Y-8696521D01*
X12701280Y-8703302D01*
X12718963Y-8703318D01*
X12735306Y-8696565D01*
X12747821Y-8684072D01*
X12754602Y-8667740D01*
X12754618Y-8650057D01*
X12754618Y-9297033D01*
X12731728Y-9287528D01*
X12698232Y-9287499D01*
X12698232Y-9103724D01*
X12689742Y-9083178D01*
X12674037Y-9067445D01*
X12653526Y-9058928D01*
X12653526Y-8650057D01*
X12646773Y-8633714D01*
X12634280Y-8621199D01*
X12617948Y-8614418D01*
X12600265Y-8614402D01*
X12583922Y-8621155D01*
X12571407Y-8633648D01*
X12564626Y-8649980D01*
X12564610Y-8667663D01*
X12571363Y-8684006D01*
X12583856Y-8696521D01*
X12600188Y-8703302D01*
X12617871Y-8703318D01*
X12634214Y-8696565D01*
X12646729Y-8684072D01*
X12653510Y-8667740D01*
X12653526Y-8650057D01*
X12653526Y-9058928D01*
X12653506Y-9058920D01*
X12631275Y-9058900D01*
X12610730Y-9067390D01*
X12594997Y-9083095D01*
X12586472Y-9103626D01*
X12586452Y-9125857D01*
X12594942Y-9146402D01*
X12610647Y-9162135D01*
X12631178Y-9170660D01*
X12653408Y-9170680D01*
X12673954Y-9162190D01*
X12689687Y-9146485D01*
X12698212Y-9125954D01*
X12698232Y-9103724D01*
X12698232Y-9287499D01*
X12690298Y-9287492D01*
X12652008Y-9303313D01*
X12622688Y-9332582D01*
X12606800Y-9370844D01*
X12606764Y-9412274D01*
X12622585Y-9450564D01*
X12651854Y-9479884D01*
X12690116Y-9495772D01*
X12731546Y-9495808D01*
X12769835Y-9479987D01*
X12799156Y-9450718D01*
X12815044Y-9412456D01*
X12815080Y-9371026D01*
X12815080Y-11179048D01*
X12701278Y-11179048D01*
X12701278Y-10736159D01*
X12694525Y-10719816D01*
X12682032Y-10707301D01*
X12665700Y-10700520D01*
X12648017Y-10700504D01*
X12631674Y-10707257D01*
X12619159Y-10719750D01*
X12612378Y-10736082D01*
X12612362Y-10753765D01*
X12619115Y-10770108D01*
X12631608Y-10782623D01*
X12647940Y-10789404D01*
X12665623Y-10789420D01*
X12681966Y-10782667D01*
X12694481Y-10770174D01*
X12701262Y-10753842D01*
X12701278Y-10736159D01*
X12701278Y-11179048D01*
X12649970Y-11179048D01*
X12649970Y-10921071D01*
X12643217Y-10904728D01*
X12630724Y-10892213D01*
X12614392Y-10885432D01*
X12605520Y-10885424D01*
X12605520Y-10538801D01*
X12598767Y-10522458D01*
X12595985Y-10519671D01*
X12597453Y-10518206D01*
X12604234Y-10501874D01*
X12604250Y-10484191D01*
X12597497Y-10467848D01*
X12595350Y-10465697D01*
X12596183Y-10464866D01*
X12602964Y-10448534D01*
X12602980Y-10430851D01*
X12596227Y-10414508D01*
X12595348Y-10413627D01*
X12597453Y-10411526D01*
X12604234Y-10395194D01*
X12604250Y-10377511D01*
X12603234Y-10375052D01*
X12603234Y-10071695D01*
X12596683Y-10055841D01*
X12603218Y-10040102D01*
X12603234Y-10022419D01*
X12596481Y-10006076D01*
X12596085Y-10005679D01*
X12596085Y-9405469D01*
X12590780Y-9351162D01*
X12580203Y-9325628D01*
X12558149Y-9317364D01*
X12531208Y-9344305D01*
X12531208Y-9290423D01*
X12522944Y-9268369D01*
X12470741Y-9252487D01*
X12416434Y-9257792D01*
X12390900Y-9268369D01*
X12382636Y-9290423D01*
X12456922Y-9364709D01*
X12531208Y-9290423D01*
X12531208Y-9344305D01*
X12483863Y-9391650D01*
X12558149Y-9465936D01*
X12580203Y-9457672D01*
X12596085Y-9405469D01*
X12596085Y-10005679D01*
X12583988Y-9993561D01*
X12567656Y-9986780D01*
X12549973Y-9986764D01*
X12533630Y-9993517D01*
X12531208Y-9995935D01*
X12531208Y-9492877D01*
X12456922Y-9418591D01*
X12429981Y-9445532D01*
X12429981Y-9391650D01*
X12355695Y-9317364D01*
X12355332Y-9317500D01*
X12355332Y-8543908D01*
X12353808Y-8540219D01*
X12353808Y-8188307D01*
X12345318Y-8167762D01*
X12329613Y-8152029D01*
X12309082Y-8143504D01*
X12286851Y-8143484D01*
X12266306Y-8151974D01*
X12250573Y-8167679D01*
X12242048Y-8188210D01*
X12242028Y-8210440D01*
X12250518Y-8230986D01*
X12266223Y-8246719D01*
X12286754Y-8255244D01*
X12308984Y-8255264D01*
X12329530Y-8246774D01*
X12345263Y-8231069D01*
X12353788Y-8210538D01*
X12353808Y-8188307D01*
X12353808Y-8540219D01*
X12346842Y-8523362D01*
X12331137Y-8507629D01*
X12310606Y-8499104D01*
X12288375Y-8499084D01*
X12267830Y-8507574D01*
X12252097Y-8523279D01*
X12243572Y-8543810D01*
X12243552Y-8566041D01*
X12252042Y-8586586D01*
X12267747Y-8602319D01*
X12288278Y-8610844D01*
X12310508Y-8610864D01*
X12331054Y-8602374D01*
X12346787Y-8586669D01*
X12355312Y-8566138D01*
X12355332Y-8543908D01*
X12355332Y-9317500D01*
X12333641Y-9325628D01*
X12317759Y-9377831D01*
X12323064Y-9432138D01*
X12333641Y-9457672D01*
X12355695Y-9465936D01*
X12429981Y-9391650D01*
X12429981Y-9445532D01*
X12382636Y-9492877D01*
X12390900Y-9514931D01*
X12443103Y-9530813D01*
X12497410Y-9525508D01*
X12522944Y-9514931D01*
X12531208Y-9492877D01*
X12531208Y-9995935D01*
X12521115Y-10006010D01*
X12514334Y-10022342D01*
X12514318Y-10040025D01*
X12520869Y-10055879D01*
X12514334Y-10071618D01*
X12514318Y-10089301D01*
X12521071Y-10105644D01*
X12533564Y-10118159D01*
X12549896Y-10124940D01*
X12567579Y-10124956D01*
X12583922Y-10118203D01*
X12596437Y-10105710D01*
X12603218Y-10089378D01*
X12603234Y-10071695D01*
X12603234Y-10375052D01*
X12597497Y-10361168D01*
X12595350Y-10359017D01*
X12596183Y-10358186D01*
X12602964Y-10341854D01*
X12602980Y-10324171D01*
X12596227Y-10307828D01*
X12583734Y-10295313D01*
X12567402Y-10288532D01*
X12549719Y-10288516D01*
X12533376Y-10295269D01*
X12520861Y-10307762D01*
X12514080Y-10324094D01*
X12514064Y-10341777D01*
X12520817Y-10358120D01*
X12522964Y-10360271D01*
X12522131Y-10361102D01*
X12515350Y-10377434D01*
X12515334Y-10395117D01*
X12522087Y-10411460D01*
X12522966Y-10412341D01*
X12520861Y-10414442D01*
X12514080Y-10430774D01*
X12514064Y-10448457D01*
X12520817Y-10464800D01*
X12522964Y-10466951D01*
X12522131Y-10467782D01*
X12515350Y-10484114D01*
X12515334Y-10501797D01*
X12522087Y-10518140D01*
X12524869Y-10520927D01*
X12523401Y-10522392D01*
X12516620Y-10538724D01*
X12516604Y-10556407D01*
X12523357Y-10572750D01*
X12524236Y-10573631D01*
X12522131Y-10575732D01*
X12515350Y-10592064D01*
X12515334Y-10609747D01*
X12522087Y-10626090D01*
X12524236Y-10628243D01*
X12520861Y-10631612D01*
X12514080Y-10647944D01*
X12514064Y-10665627D01*
X12520817Y-10681970D01*
X12533310Y-10694485D01*
X12549642Y-10701266D01*
X12567325Y-10701282D01*
X12583668Y-10694529D01*
X12596183Y-10682036D01*
X12602964Y-10665704D01*
X12602980Y-10648021D01*
X12596227Y-10631678D01*
X12594078Y-10629525D01*
X12597453Y-10626156D01*
X12604234Y-10609824D01*
X12604250Y-10592141D01*
X12597497Y-10575798D01*
X12596618Y-10574917D01*
X12598723Y-10572816D01*
X12605504Y-10556484D01*
X12605520Y-10538801D01*
X12605520Y-10885424D01*
X12596709Y-10885416D01*
X12580366Y-10892169D01*
X12567851Y-10904662D01*
X12561070Y-10920994D01*
X12561054Y-10938677D01*
X12567807Y-10955020D01*
X12580300Y-10967535D01*
X12596632Y-10974316D01*
X12614315Y-10974332D01*
X12630658Y-10967579D01*
X12643173Y-10955086D01*
X12649954Y-10938754D01*
X12649970Y-10921071D01*
X12649970Y-11179048D01*
X12447278Y-11179048D01*
X12447278Y-9865447D01*
X12440525Y-9849104D01*
X12428032Y-9836589D01*
X12411700Y-9829808D01*
X12394017Y-9829792D01*
X12377674Y-9836545D01*
X12376922Y-9837296D01*
X12376724Y-9837097D01*
X12360392Y-9830316D01*
X12342709Y-9830300D01*
X12326366Y-9837053D01*
X12313851Y-9849546D01*
X12307070Y-9865878D01*
X12307054Y-9883561D01*
X12313807Y-9899904D01*
X12326300Y-9912419D01*
X12342632Y-9919200D01*
X12360315Y-9919216D01*
X12376658Y-9912463D01*
X12377410Y-9911712D01*
X12377608Y-9911911D01*
X12393940Y-9918692D01*
X12411623Y-9918708D01*
X12427966Y-9911955D01*
X12440481Y-9899462D01*
X12447262Y-9883130D01*
X12447278Y-9865447D01*
X12447278Y-11179048D01*
X12446770Y-11179048D01*
X12446770Y-10286071D01*
X12440017Y-10269728D01*
X12427524Y-10257213D01*
X12411192Y-10250432D01*
X12393509Y-10250416D01*
X12377166Y-10257169D01*
X12364651Y-10269662D01*
X12357870Y-10285994D01*
X12357854Y-10303677D01*
X12364607Y-10320020D01*
X12377100Y-10332535D01*
X12393432Y-10339316D01*
X12411115Y-10339332D01*
X12427458Y-10332579D01*
X12439973Y-10320086D01*
X12446754Y-10303754D01*
X12446770Y-10286071D01*
X12446770Y-11179048D01*
X12141970Y-11179048D01*
X12141970Y-9863669D01*
X12135217Y-9847326D01*
X12122724Y-9834811D01*
X12106392Y-9828030D01*
X12088709Y-9828014D01*
X12072366Y-9834767D01*
X12059851Y-9847260D01*
X12053070Y-9863592D01*
X12053054Y-9881275D01*
X12059807Y-9897618D01*
X12072300Y-9910133D01*
X12088632Y-9916914D01*
X12106315Y-9916930D01*
X12122658Y-9910177D01*
X12135173Y-9897684D01*
X12141954Y-9881352D01*
X12141970Y-9863669D01*
X12141970Y-11179048D01*
X11895590Y-11179048D01*
X11895590Y-10021911D01*
X11895082Y-10020682D01*
X11895082Y-9862399D01*
X11888329Y-9846056D01*
X11875836Y-9833541D01*
X11859504Y-9826760D01*
X11841821Y-9826744D01*
X11825478Y-9833497D01*
X11812963Y-9845990D01*
X11806182Y-9862322D01*
X11806166Y-9880005D01*
X11812919Y-9896348D01*
X11825412Y-9908863D01*
X11841744Y-9915644D01*
X11859427Y-9915660D01*
X11875770Y-9908907D01*
X11888285Y-9896414D01*
X11895066Y-9880082D01*
X11895082Y-9862399D01*
X11895082Y-10020682D01*
X11888837Y-10005568D01*
X11876344Y-9993053D01*
X11860012Y-9986272D01*
X11842329Y-9986256D01*
X11825986Y-9993009D01*
X11813471Y-10005502D01*
X11806690Y-10021834D01*
X11806674Y-10039517D01*
X11813427Y-10055860D01*
X11825920Y-10068375D01*
X11842252Y-10075156D01*
X11859935Y-10075172D01*
X11876278Y-10068419D01*
X11888793Y-10055926D01*
X11895574Y-10039594D01*
X11895590Y-10021911D01*
X11895590Y-11179048D01*
X11818374Y-11179048D01*
X11818374Y-10320361D01*
X11811621Y-10304018D01*
X11799128Y-10291503D01*
X11782796Y-10284722D01*
X11765113Y-10284706D01*
X11748770Y-10291459D01*
X11736255Y-10303952D01*
X11729474Y-10320284D01*
X11729458Y-10337967D01*
X11736211Y-10354310D01*
X11748704Y-10366825D01*
X11765036Y-10373606D01*
X11782719Y-10373622D01*
X11799062Y-10366869D01*
X11811577Y-10354376D01*
X11818358Y-10338044D01*
X11818374Y-10320361D01*
X11818374Y-11179048D01*
X11637780Y-11179048D01*
X11637780Y-10480381D01*
X11631027Y-10464038D01*
X11629514Y-10462522D01*
X11630983Y-10461056D01*
X11637764Y-10444724D01*
X11637780Y-10427041D01*
X11631027Y-10410698D01*
X11629514Y-10409182D01*
X11630983Y-10407716D01*
X11637764Y-10391384D01*
X11637780Y-10373701D01*
X11631027Y-10357358D01*
X11628880Y-10355207D01*
X11629713Y-10354376D01*
X11636494Y-10338044D01*
X11636510Y-10320361D01*
X11636002Y-10319132D01*
X11636002Y-10123511D01*
X11629249Y-10107168D01*
X11616756Y-10094653D01*
X11600424Y-10087872D01*
X11582741Y-10087856D01*
X11566398Y-10094609D01*
X11553883Y-10107102D01*
X11547102Y-10123434D01*
X11547086Y-10141117D01*
X11553839Y-10157460D01*
X11566332Y-10169975D01*
X11582664Y-10176756D01*
X11600347Y-10176772D01*
X11616690Y-10170019D01*
X11629205Y-10157526D01*
X11635986Y-10141194D01*
X11636002Y-10123511D01*
X11636002Y-10319132D01*
X11629757Y-10304018D01*
X11617264Y-10291503D01*
X11600932Y-10284722D01*
X11583249Y-10284706D01*
X11566906Y-10291459D01*
X11554391Y-10303952D01*
X11547610Y-10320284D01*
X11547594Y-10337967D01*
X11554347Y-10354310D01*
X11556494Y-10356461D01*
X11555661Y-10357292D01*
X11548880Y-10373624D01*
X11548864Y-10391307D01*
X11555617Y-10407650D01*
X11557130Y-10409166D01*
X11555661Y-10410632D01*
X11548880Y-10426964D01*
X11548864Y-10444647D01*
X11555617Y-10460990D01*
X11557130Y-10462506D01*
X11555661Y-10463972D01*
X11548880Y-10480304D01*
X11548864Y-10497987D01*
X11555617Y-10514330D01*
X11555863Y-10514577D01*
X11551851Y-10518582D01*
X11545070Y-10534914D01*
X11545054Y-10552597D01*
X11551807Y-10568940D01*
X11555223Y-10572362D01*
X11554391Y-10573192D01*
X11547610Y-10589524D01*
X11547594Y-10607207D01*
X11554347Y-10623550D01*
X11557765Y-10626974D01*
X11554391Y-10630342D01*
X11547610Y-10646674D01*
X11547594Y-10664357D01*
X11553649Y-10679010D01*
X11544300Y-10682873D01*
X11531785Y-10695366D01*
X11525004Y-10711698D01*
X11524988Y-10729381D01*
X11531741Y-10745724D01*
X11544234Y-10758239D01*
X11560566Y-10765020D01*
X11578249Y-10765036D01*
X11594592Y-10758283D01*
X11607107Y-10745790D01*
X11613888Y-10729458D01*
X11613904Y-10711775D01*
X11607849Y-10697122D01*
X11617198Y-10693259D01*
X11629713Y-10680766D01*
X11636494Y-10664434D01*
X11636510Y-10646751D01*
X11629757Y-10630408D01*
X11626339Y-10626984D01*
X11629713Y-10623616D01*
X11636494Y-10607284D01*
X11636510Y-10589601D01*
X11629757Y-10573258D01*
X11626341Y-10569836D01*
X11627173Y-10569006D01*
X11633954Y-10552674D01*
X11633970Y-10534991D01*
X11627217Y-10518648D01*
X11626970Y-10518401D01*
X11630983Y-10514396D01*
X11637764Y-10498064D01*
X11637780Y-10480381D01*
X11637780Y-11179048D01*
X11450574Y-11179048D01*
X11450574Y-10983842D01*
X11458890Y-10992173D01*
X11475222Y-10998954D01*
X11492905Y-10998970D01*
X11509248Y-10992217D01*
X11521763Y-10979724D01*
X11528544Y-10963392D01*
X11528560Y-10945709D01*
X11521807Y-10929366D01*
X11509314Y-10916851D01*
X11492982Y-10910070D01*
X11475299Y-10910054D01*
X11458956Y-10916807D01*
X11450574Y-10925175D01*
X11450574Y-9729470D01*
X12154154Y-9729470D01*
X12156584Y-9728987D01*
X12158644Y-9727610D01*
X12160021Y-9725550D01*
X12160504Y-9723120D01*
X12160504Y-8002016D01*
X15455392Y-8002016D01*
X15455392Y-8831326D01*
X15414762Y-8831326D01*
X15414762Y-8631538D01*
X15406272Y-8610992D01*
X15390567Y-8595259D01*
X15370818Y-8587058D01*
X15370818Y-8142057D01*
X15364065Y-8125714D01*
X15351572Y-8113199D01*
X15335240Y-8106418D01*
X15317557Y-8106402D01*
X15301214Y-8113155D01*
X15288699Y-8125648D01*
X15281918Y-8141980D01*
X15281902Y-8159663D01*
X15288655Y-8176006D01*
X15301148Y-8188521D01*
X15317480Y-8195302D01*
X15335163Y-8195318D01*
X15351506Y-8188565D01*
X15364021Y-8176072D01*
X15370802Y-8159740D01*
X15370818Y-8142057D01*
X15370818Y-8587058D01*
X15370036Y-8586734D01*
X15347805Y-8586714D01*
X15327260Y-8595204D01*
X15311527Y-8610909D01*
X15303002Y-8631440D01*
X15302982Y-8653671D01*
X15311472Y-8674216D01*
X15327177Y-8689949D01*
X15347708Y-8698474D01*
X15369938Y-8698494D01*
X15390484Y-8690004D01*
X15406217Y-8674299D01*
X15414742Y-8653768D01*
X15414762Y-8631538D01*
X15414762Y-8831326D01*
X15373358Y-8831326D01*
X15373358Y-8770453D01*
X15366605Y-8754110D01*
X15354112Y-8741595D01*
X15337780Y-8734814D01*
X15320097Y-8734798D01*
X15303754Y-8741551D01*
X15291239Y-8754044D01*
X15284458Y-8770376D01*
X15284442Y-8788059D01*
X15291195Y-8804402D01*
X15303688Y-8816917D01*
X15320020Y-8823698D01*
X15337703Y-8823714D01*
X15354046Y-8816961D01*
X15366561Y-8804468D01*
X15373342Y-8788136D01*
X15373358Y-8770453D01*
X15373358Y-8831326D01*
X15229850Y-8831326D01*
X15229850Y-8698594D01*
X15221360Y-8678048D01*
X15205655Y-8662315D01*
X15185124Y-8653790D01*
X15171682Y-8653778D01*
X15171682Y-8513913D01*
X15164929Y-8497570D01*
X15152436Y-8485055D01*
X15136104Y-8478274D01*
X15118421Y-8478258D01*
X15102078Y-8485011D01*
X15089563Y-8497504D01*
X15082782Y-8513836D01*
X15082766Y-8531519D01*
X15089519Y-8547862D01*
X15102012Y-8560377D01*
X15118344Y-8567158D01*
X15136027Y-8567174D01*
X15152370Y-8560421D01*
X15164885Y-8547928D01*
X15171666Y-8531596D01*
X15171682Y-8513913D01*
X15171682Y-8653778D01*
X15162893Y-8653770D01*
X15142348Y-8662260D01*
X15126615Y-8677965D01*
X15118090Y-8698496D01*
X15118070Y-8720727D01*
X15126560Y-8741272D01*
X15142265Y-8757005D01*
X15162796Y-8765530D01*
X15185026Y-8765550D01*
X15205572Y-8757060D01*
X15221305Y-8741355D01*
X15229830Y-8720824D01*
X15229850Y-8698594D01*
X15229850Y-8831326D01*
X15209774Y-8831326D01*
X15207344Y-8831809D01*
X15205284Y-8833186D01*
X15203907Y-8835246D01*
X15203424Y-8837676D01*
X15203424Y-9733026D01*
X15203907Y-9735456D01*
X15205284Y-9737516D01*
X15207344Y-9738893D01*
X15209774Y-9739376D01*
X16913098Y-9739376D01*
X16913098Y-11179048D01*
M02*
