G04 #@! TF.FileFunction,Soldermask,Top*
%FSLAX45Y45*%
G04 Gerber Fmt 4.5, Leading zero omitted, Abs format (unit mm)*
G04 Created by KiCad (PCBNEW 0.201509251832+6217~30~ubuntu14.04.1-product) date Fri 30 Oct 2015 01:43:29 PM EDT*
%MOMM*%
G01*
G04 APERTURE LIST*
%ADD10C,0.127000*%
%ADD11R,0.751840X0.652780*%
%ADD12R,0.652780X0.751840*%
%ADD13R,0.751840X1.051560*%
%ADD14R,2.252980X1.402080*%
%ADD15R,0.421640X0.551180*%
%ADD16R,0.551180X0.421640*%
%ADD17R,0.482600X2.692400*%
%ADD18R,1.052400X0.402400*%
%ADD19R,0.402400X1.052400*%
%ADD20R,1.152400X1.152400*%
%ADD21C,1.752600*%
%ADD22C,0.558800*%
%ADD23R,1.702400X0.712400*%
%ADD24R,0.965200X0.482600*%
%ADD25R,1.652400X2.152400*%
%ADD26R,1.041400X0.965200*%
%ADD27R,1.051560X0.751840*%
%ADD28R,0.411480X0.952500*%
%ADD29R,3.152140X0.901700*%
%ADD30R,0.802400X0.502400*%
%ADD31R,0.502400X0.802400*%
%ADD32R,0.752400X1.052400*%
G04 APERTURE END LIST*
D10*
D11*
X15733776Y-9932924D03*
X15733776Y-10033000D03*
X12945872Y-9929622D03*
X12945872Y-10029698D03*
X15734538Y-10143236D03*
X15734538Y-10243312D03*
D12*
X16619474Y-9797288D03*
X16519398Y-9797288D03*
D11*
X12922758Y-10150094D03*
X12922758Y-10250170D03*
D12*
X13826744Y-9794240D03*
X13726668Y-9794240D03*
D11*
X14349222Y-9926828D03*
X14349222Y-10026904D03*
X11524996Y-9933432D03*
X11524996Y-10033508D03*
X11527536Y-10139172D03*
X11527536Y-10239248D03*
X14354302Y-10140442D03*
X14354302Y-10240518D03*
D12*
X14586712Y-9835134D03*
X14486636Y-9835134D03*
X11863070Y-9807194D03*
X11762994Y-9807194D03*
D11*
X13148310Y-9328912D03*
X13148310Y-9428988D03*
X13599160Y-9431528D03*
X13599160Y-9331452D03*
X12301982Y-8725916D03*
X12301982Y-8825992D03*
D13*
X12411202Y-8093964D03*
X12561062Y-8093964D03*
X12901930Y-8093964D03*
X12752070Y-8093964D03*
D11*
X14496288Y-8792718D03*
X14496288Y-8692642D03*
D12*
X14616430Y-9367774D03*
X14516354Y-9367774D03*
X14981428Y-8957310D03*
X14881352Y-8957310D03*
D11*
X14613890Y-8691372D03*
X14613890Y-8791448D03*
D12*
X14929866Y-8857488D03*
X14829790Y-8857488D03*
X14892528Y-9351010D03*
X14792452Y-9351010D03*
X14929866Y-8751316D03*
X14829790Y-8751316D03*
X15160752Y-8093710D03*
X15260828Y-8093710D03*
X14970252Y-9351010D03*
X15070328Y-9351010D03*
X15148052Y-9058910D03*
X15248128Y-9058910D03*
D11*
X15236190Y-8969248D03*
X15236190Y-8869172D03*
D14*
X12485370Y-8259572D03*
X12485370Y-8564372D03*
X12829032Y-8259572D03*
X12829032Y-8564372D03*
D11*
X14880590Y-9059672D03*
X14880590Y-9159748D03*
D12*
X15070328Y-9058910D03*
X14970252Y-9058910D03*
D11*
X14969490Y-9261348D03*
X14969490Y-9161272D03*
D12*
X14929866Y-8664448D03*
X14829790Y-8664448D03*
D15*
X16867378Y-10816844D03*
X16817594Y-10816844D03*
X14071346Y-10809986D03*
X14021562Y-10809986D03*
X16867378Y-10881614D03*
X16817594Y-10881614D03*
X14071346Y-10874756D03*
X14021562Y-10874756D03*
X15722854Y-10889234D03*
X15772638Y-10889234D03*
X12930632Y-10874756D03*
X12980416Y-10874756D03*
D16*
X15729966Y-10830306D03*
X15729966Y-10780522D03*
X12947904Y-10815828D03*
X12947904Y-10766044D03*
D15*
X15466822Y-10808716D03*
X15417038Y-10808716D03*
X12654534Y-10810494D03*
X12604750Y-10810494D03*
X15466822Y-10873486D03*
X15417038Y-10873486D03*
X12654534Y-10876534D03*
X12604750Y-10876534D03*
X14327378Y-10883646D03*
X14377162Y-10883646D03*
X11520170Y-10873994D03*
X11569954Y-10873994D03*
D16*
X14333220Y-10824718D03*
X14333220Y-10774934D03*
X11527282Y-10815066D03*
X11527282Y-10765282D03*
D11*
X14390370Y-9352788D03*
X14390370Y-9252712D03*
X12387834Y-8924544D03*
X12387834Y-9024620D03*
X12387326Y-8725916D03*
X12387326Y-8825992D03*
X12940030Y-8873744D03*
X12940030Y-8773668D03*
X12940030Y-9049004D03*
X12940030Y-8948928D03*
X14715490Y-8791448D03*
X14715490Y-8691372D03*
X15059660Y-8573770D03*
X15059660Y-8673846D03*
X14382750Y-8353552D03*
X14382750Y-8253476D03*
X14382242Y-8177784D03*
X14382242Y-8077708D03*
D12*
X12987528Y-9325610D03*
X12887452Y-9325610D03*
D17*
X16834866Y-11102594D03*
X16771366Y-11102594D03*
X16707866Y-11102594D03*
X16644366Y-11102594D03*
X16580866Y-11102594D03*
X16517366Y-11102594D03*
X16453866Y-11102594D03*
X16390366Y-11102594D03*
X16326866Y-11102594D03*
X16263366Y-11102594D03*
X16199866Y-11102594D03*
X16136366Y-11102594D03*
X16072866Y-11102594D03*
X16009366Y-11102594D03*
X15945866Y-11102594D03*
X15882366Y-11102594D03*
X15818866Y-11102594D03*
X15755366Y-11102594D03*
X14042644Y-11102086D03*
X13979144Y-11102086D03*
X13915644Y-11102086D03*
X13852144Y-11102086D03*
X13788644Y-11102086D03*
X13725144Y-11102086D03*
X13661644Y-11102086D03*
X13598144Y-11102086D03*
X13534644Y-11102086D03*
X13471144Y-11102086D03*
X13407644Y-11102086D03*
X13344144Y-11102086D03*
X13280644Y-11102086D03*
X13217144Y-11102086D03*
X13153644Y-11102086D03*
X13090144Y-11102086D03*
X13026644Y-11102086D03*
X12963144Y-11102086D03*
D18*
X15890116Y-10332104D03*
X15890116Y-10382104D03*
X15890116Y-10432104D03*
X15890116Y-10482104D03*
X15890116Y-10532104D03*
X15890116Y-10582104D03*
X15890116Y-10632104D03*
X15890116Y-10682104D03*
X15890116Y-10282104D03*
X15890116Y-10232104D03*
X15890116Y-10182104D03*
X15890116Y-10132104D03*
X15890116Y-10082104D03*
X15890116Y-10032104D03*
X16700116Y-10382104D03*
X16700116Y-10432104D03*
X16700116Y-10482104D03*
X16700116Y-10532104D03*
X16700116Y-10582104D03*
X16700116Y-10632104D03*
X16700116Y-10682104D03*
X16700116Y-10332104D03*
X16700116Y-10282104D03*
X16700116Y-10232104D03*
X16700116Y-10182104D03*
X16700116Y-10132104D03*
X16700116Y-10082104D03*
X16700116Y-10032104D03*
D19*
X16270116Y-10762104D03*
X16220116Y-10762104D03*
X16170116Y-10762104D03*
X16120116Y-10762104D03*
X16070116Y-10762104D03*
X16020116Y-10762104D03*
X15970116Y-10762104D03*
X16320116Y-10762104D03*
X16370116Y-10762104D03*
X16420116Y-10762104D03*
X16470116Y-10762104D03*
X16520116Y-10762104D03*
X16570116Y-10762104D03*
X16620116Y-10762104D03*
X16620116Y-9952104D03*
X16570116Y-9952104D03*
X16520116Y-9952104D03*
X16470116Y-9952104D03*
X16420116Y-9952104D03*
X16370116Y-9952104D03*
X16320116Y-9952104D03*
X16270116Y-9952104D03*
X16220116Y-9952104D03*
X16170116Y-9952104D03*
X16120116Y-9952104D03*
X16070116Y-9952104D03*
X16020116Y-9952104D03*
X15970116Y-9952104D03*
D20*
X16295116Y-10357104D03*
D18*
X13097894Y-10331596D03*
X13097894Y-10381596D03*
X13097894Y-10431596D03*
X13097894Y-10481596D03*
X13097894Y-10531596D03*
X13097894Y-10581596D03*
X13097894Y-10631596D03*
X13097894Y-10681596D03*
X13097894Y-10281596D03*
X13097894Y-10231596D03*
X13097894Y-10181596D03*
X13097894Y-10131596D03*
X13097894Y-10081596D03*
X13097894Y-10031596D03*
X13907894Y-10381596D03*
X13907894Y-10431596D03*
X13907894Y-10481596D03*
X13907894Y-10531596D03*
X13907894Y-10581596D03*
X13907894Y-10631596D03*
X13907894Y-10681596D03*
X13907894Y-10331596D03*
X13907894Y-10281596D03*
X13907894Y-10231596D03*
X13907894Y-10181596D03*
X13907894Y-10131596D03*
X13907894Y-10081596D03*
X13907894Y-10031596D03*
D19*
X13477894Y-10761596D03*
X13427894Y-10761596D03*
X13377894Y-10761596D03*
X13327894Y-10761596D03*
X13277894Y-10761596D03*
X13227894Y-10761596D03*
X13177894Y-10761596D03*
X13527894Y-10761596D03*
X13577894Y-10761596D03*
X13627894Y-10761596D03*
X13677894Y-10761596D03*
X13727894Y-10761596D03*
X13777894Y-10761596D03*
X13827894Y-10761596D03*
X13827894Y-9951596D03*
X13777894Y-9951596D03*
X13727894Y-9951596D03*
X13677894Y-9951596D03*
X13627894Y-9951596D03*
X13577894Y-9951596D03*
X13527894Y-9951596D03*
X13477894Y-9951596D03*
X13427894Y-9951596D03*
X13377894Y-9951596D03*
X13327894Y-9951596D03*
X13277894Y-9951596D03*
X13227894Y-9951596D03*
X13177894Y-9951596D03*
D20*
X13502894Y-10356596D03*
D17*
X15439390Y-11100816D03*
X15375890Y-11100816D03*
X15312390Y-11100816D03*
X15248890Y-11100816D03*
X15185390Y-11100816D03*
X15121890Y-11100816D03*
X15058390Y-11100816D03*
X14994890Y-11100816D03*
X14931390Y-11100816D03*
X14867890Y-11100816D03*
X14804390Y-11100816D03*
X14740890Y-11100816D03*
X14677390Y-11100816D03*
X14613890Y-11100816D03*
X14550390Y-11100816D03*
X14486890Y-11100816D03*
X14423390Y-11100816D03*
X14359890Y-11100816D03*
X12628372Y-11102594D03*
X12564872Y-11102594D03*
X12501372Y-11102594D03*
X12437872Y-11102594D03*
X12374372Y-11102594D03*
X12310872Y-11102594D03*
X12247372Y-11102594D03*
X12183872Y-11102594D03*
X12120372Y-11102594D03*
X12056872Y-11102594D03*
X11993372Y-11102594D03*
X11929872Y-11102594D03*
X11866372Y-11102594D03*
X11802872Y-11102594D03*
X11739372Y-11102594D03*
X11675872Y-11102594D03*
X11612372Y-11102594D03*
X11548872Y-11102594D03*
D18*
X14494640Y-10330326D03*
X14494640Y-10380326D03*
X14494640Y-10430326D03*
X14494640Y-10480326D03*
X14494640Y-10530326D03*
X14494640Y-10580326D03*
X14494640Y-10630326D03*
X14494640Y-10680326D03*
X14494640Y-10280326D03*
X14494640Y-10230326D03*
X14494640Y-10180326D03*
X14494640Y-10130326D03*
X14494640Y-10080326D03*
X14494640Y-10030326D03*
X15304640Y-10380326D03*
X15304640Y-10430326D03*
X15304640Y-10480326D03*
X15304640Y-10530326D03*
X15304640Y-10580326D03*
X15304640Y-10630326D03*
X15304640Y-10680326D03*
X15304640Y-10330326D03*
X15304640Y-10280326D03*
X15304640Y-10230326D03*
X15304640Y-10180326D03*
X15304640Y-10130326D03*
X15304640Y-10080326D03*
X15304640Y-10030326D03*
D19*
X14874640Y-10760326D03*
X14824640Y-10760326D03*
X14774640Y-10760326D03*
X14724640Y-10760326D03*
X14674640Y-10760326D03*
X14624640Y-10760326D03*
X14574640Y-10760326D03*
X14924640Y-10760326D03*
X14974640Y-10760326D03*
X15024640Y-10760326D03*
X15074640Y-10760326D03*
X15124640Y-10760326D03*
X15174640Y-10760326D03*
X15224640Y-10760326D03*
X15224640Y-9950326D03*
X15174640Y-9950326D03*
X15124640Y-9950326D03*
X15074640Y-9950326D03*
X15024640Y-9950326D03*
X14974640Y-9950326D03*
X14924640Y-9950326D03*
X14874640Y-9950326D03*
X14824640Y-9950326D03*
X14774640Y-9950326D03*
X14724640Y-9950326D03*
X14674640Y-9950326D03*
X14624640Y-9950326D03*
X14574640Y-9950326D03*
D20*
X14899640Y-10355326D03*
D18*
X11670922Y-10332104D03*
X11670922Y-10382104D03*
X11670922Y-10432104D03*
X11670922Y-10482104D03*
X11670922Y-10532104D03*
X11670922Y-10582104D03*
X11670922Y-10632104D03*
X11670922Y-10682104D03*
X11670922Y-10282104D03*
X11670922Y-10232104D03*
X11670922Y-10182104D03*
X11670922Y-10132104D03*
X11670922Y-10082104D03*
X11670922Y-10032104D03*
X12480922Y-10382104D03*
X12480922Y-10432104D03*
X12480922Y-10482104D03*
X12480922Y-10532104D03*
X12480922Y-10582104D03*
X12480922Y-10632104D03*
X12480922Y-10682104D03*
X12480922Y-10332104D03*
X12480922Y-10282104D03*
X12480922Y-10232104D03*
X12480922Y-10182104D03*
X12480922Y-10132104D03*
X12480922Y-10082104D03*
X12480922Y-10032104D03*
D19*
X12050922Y-10762104D03*
X12000922Y-10762104D03*
X11950922Y-10762104D03*
X11900922Y-10762104D03*
X11850922Y-10762104D03*
X11800922Y-10762104D03*
X11750922Y-10762104D03*
X12100922Y-10762104D03*
X12150922Y-10762104D03*
X12200922Y-10762104D03*
X12250922Y-10762104D03*
X12300922Y-10762104D03*
X12350922Y-10762104D03*
X12400922Y-10762104D03*
X12400922Y-9952104D03*
X12350922Y-9952104D03*
X12300922Y-9952104D03*
X12250922Y-9952104D03*
X12200922Y-9952104D03*
X12150922Y-9952104D03*
X12100922Y-9952104D03*
X12050922Y-9952104D03*
X12000922Y-9952104D03*
X11950922Y-9952104D03*
X11900922Y-9952104D03*
X11850922Y-9952104D03*
X11800922Y-9952104D03*
X11750922Y-9952104D03*
D20*
X12075922Y-10357104D03*
D21*
X12456922Y-9391650D03*
X12710922Y-9391650D03*
D22*
X14183614Y-9179814D03*
X14103604Y-9179814D03*
X14023594Y-9179814D03*
X13943584Y-9179814D03*
X13863574Y-9179814D03*
X13783564Y-9179814D03*
X13703554Y-9179814D03*
X13623544Y-9179814D03*
X13543534Y-9179814D03*
X13463524Y-9179814D03*
X13383514Y-9179814D03*
X13303504Y-9179814D03*
X13223494Y-9179814D03*
X13143738Y-9179814D03*
X14183614Y-9099804D03*
X14103604Y-9099804D03*
X14023594Y-9099804D03*
X13943584Y-9099804D03*
X13863574Y-9099804D03*
X13783564Y-9099804D03*
X13703554Y-9099804D03*
X13623544Y-9099804D03*
X13543534Y-9099804D03*
X13463524Y-9099804D03*
X13383514Y-9099804D03*
X13303504Y-9099804D03*
X13223494Y-9099804D03*
X13143738Y-9099804D03*
X14183614Y-9019794D03*
X14103604Y-9019794D03*
X14023594Y-9019794D03*
X13943584Y-9019794D03*
X13863574Y-9019794D03*
X13783564Y-9019794D03*
X13703554Y-9019794D03*
X13623544Y-9019794D03*
X13543534Y-9019794D03*
X13463524Y-9019794D03*
X13383514Y-9019794D03*
X13303504Y-9019794D03*
X13223494Y-9019794D03*
X13143738Y-9019794D03*
X14183614Y-8939784D03*
X14103604Y-8939784D03*
X14023594Y-8939784D03*
X13943584Y-8939784D03*
X13863574Y-8939784D03*
X13783564Y-8939784D03*
X13703554Y-8939784D03*
X13623544Y-8939784D03*
X13543534Y-8939784D03*
X13463524Y-8939784D03*
X13383514Y-8939784D03*
X13303504Y-8939784D03*
X13223494Y-8939784D03*
X13143738Y-8939784D03*
X14183614Y-8859774D03*
X14103604Y-8859774D03*
X14023594Y-8859774D03*
X13943584Y-8859774D03*
X13383514Y-8859774D03*
X13303504Y-8859774D03*
X13223494Y-8859774D03*
X13143738Y-8859774D03*
X14183614Y-8779764D03*
X14103604Y-8779764D03*
X14023594Y-8779764D03*
X13943584Y-8779764D03*
X13383514Y-8779764D03*
X13303504Y-8779764D03*
X13223494Y-8779764D03*
X13143738Y-8779764D03*
X14183614Y-8699754D03*
X14103604Y-8699754D03*
X14023594Y-8699754D03*
X13943584Y-8699754D03*
X13383514Y-8699754D03*
X13303504Y-8699754D03*
X13223494Y-8699754D03*
X13143738Y-8699754D03*
X14183614Y-8619744D03*
X14103604Y-8619744D03*
X14023594Y-8619744D03*
X13943584Y-8619744D03*
X13383514Y-8619744D03*
X13303504Y-8619744D03*
X13223494Y-8619744D03*
X13143738Y-8619744D03*
X14183614Y-8539734D03*
X14103604Y-8539734D03*
X14023594Y-8539734D03*
X13943584Y-8539734D03*
X13383514Y-8539734D03*
X13303504Y-8539734D03*
X13223494Y-8539734D03*
X13143738Y-8539734D03*
X14183614Y-8459724D03*
X14103604Y-8459724D03*
X14023594Y-8459724D03*
X13943584Y-8459724D03*
X13383514Y-8459724D03*
X13303504Y-8459724D03*
X13223494Y-8459724D03*
X13143738Y-8459724D03*
X14183614Y-8379714D03*
X14103604Y-8379714D03*
X14023594Y-8379714D03*
X13943584Y-8379714D03*
X13863574Y-8379714D03*
X13783564Y-8379714D03*
X13703554Y-8379714D03*
X13623544Y-8379714D03*
X13543534Y-8379714D03*
X13463524Y-8379714D03*
X13383514Y-8379714D03*
X13303504Y-8379714D03*
X13223494Y-8379714D03*
X13143738Y-8379714D03*
X14183614Y-8299704D03*
X14103604Y-8299704D03*
X14023594Y-8299704D03*
X13943584Y-8299704D03*
X13863574Y-8299704D03*
X13783564Y-8299704D03*
X13703554Y-8299704D03*
X13623544Y-8299704D03*
X13543534Y-8299704D03*
X13463524Y-8299704D03*
X13383514Y-8299704D03*
X13303504Y-8299704D03*
X13223494Y-8299704D03*
X13143738Y-8299704D03*
X14183614Y-8219694D03*
X14103604Y-8219694D03*
X14023594Y-8219694D03*
X13943584Y-8219694D03*
X13863574Y-8219694D03*
X13783564Y-8219694D03*
X13703554Y-8219694D03*
X13623544Y-8219694D03*
X13543534Y-8219694D03*
X13463524Y-8219694D03*
X13383514Y-8219694D03*
X13303504Y-8219694D03*
X13223494Y-8219694D03*
X13143738Y-8219694D03*
X14183614Y-8139938D03*
X14103604Y-8139938D03*
X14023594Y-8139938D03*
X13943584Y-8139938D03*
X13863574Y-8139938D03*
X13783564Y-8139938D03*
X13703554Y-8139938D03*
X13623544Y-8139938D03*
X13543534Y-8139938D03*
X13463524Y-8139938D03*
X13383514Y-8139938D03*
X13303504Y-8139938D03*
X13223494Y-8139938D03*
X13143738Y-8139938D03*
D23*
X14539966Y-8092694D03*
X14539966Y-8219694D03*
X14539966Y-8346694D03*
X14539966Y-8473694D03*
X15014966Y-8473694D03*
X15014966Y-8346694D03*
X15014966Y-8219694D03*
X15014966Y-8092694D03*
D24*
X15271750Y-8708390D03*
X15271750Y-8644890D03*
X15271750Y-8581390D03*
X15271750Y-8517890D03*
X15271750Y-8454390D03*
X15271750Y-8390890D03*
X15271750Y-8327390D03*
X15271750Y-8263890D03*
X15271750Y-8200390D03*
D25*
X15284196Y-9275064D03*
X16184196Y-9275064D03*
D26*
X13282930Y-9448800D03*
X13448030Y-9448800D03*
X13448030Y-9321800D03*
X13282930Y-9321800D03*
D27*
X12287250Y-8999728D03*
X12287250Y-9149588D03*
D13*
X12439396Y-9169146D03*
X12589256Y-9169146D03*
D12*
X12670028Y-9184386D03*
X12770104Y-9184386D03*
D28*
X12558522Y-9033510D03*
X12608560Y-9033510D03*
X12658598Y-9033510D03*
X12708636Y-9033510D03*
X12758674Y-9033510D03*
X12758674Y-8733282D03*
X12708636Y-8733282D03*
X12658598Y-8733282D03*
X12608560Y-8733282D03*
X12558522Y-8733282D03*
D29*
X12658598Y-8883396D03*
D30*
X14408610Y-9063990D03*
X14408610Y-9013990D03*
X14408610Y-8963990D03*
X14408610Y-9113990D03*
X14408610Y-9163990D03*
D31*
X14596110Y-8876490D03*
X14646110Y-8876490D03*
X14696110Y-8876490D03*
X14546110Y-8876490D03*
X14496110Y-8876490D03*
X14596110Y-9251490D03*
X14646110Y-9251490D03*
X14696110Y-9251490D03*
X14546110Y-9251490D03*
X14496110Y-9251490D03*
D30*
X14783610Y-9063990D03*
X14783610Y-9013990D03*
X14783610Y-9113990D03*
X14783610Y-9163990D03*
X14783610Y-8963990D03*
D11*
X14840712Y-9479534D03*
X14840712Y-9579610D03*
X14676628Y-9547098D03*
X14676628Y-9647174D03*
X14258544Y-9529826D03*
X14258544Y-9629902D03*
X14513814Y-9530588D03*
X14513814Y-9630664D03*
X14173200Y-9529826D03*
X14173200Y-9629902D03*
X14343888Y-9529826D03*
X14343888Y-9629902D03*
X13423392Y-9601962D03*
X13423392Y-9702038D03*
X13861288Y-9537446D03*
X13861288Y-9637522D03*
X13582396Y-9601962D03*
X13582396Y-9702038D03*
X12950190Y-9601962D03*
X12950190Y-9702038D03*
X13268706Y-9603740D03*
X13268706Y-9703816D03*
X13109448Y-9601962D03*
X13109448Y-9702038D03*
D32*
X13012236Y-9467088D03*
X12862236Y-9467088D03*
M02*
