G04 #@! TF.FileFunction,Soldermask,Bot*
%FSLAX45Y45*%
G04 Gerber Fmt 4.5, Leading zero omitted, Abs format (unit mm)*
G04 Created by KiCad (PCBNEW 0.201506030104+5696~23~ubuntu14.04.1-product) date Thu 09 Jul 2015 08:08:36 PM EDT*
%MOMM*%
G01*
G04 APERTURE LIST*
%ADD10C,0.127000*%
%ADD11R,0.751840X1.051560*%
%ADD12R,1.051560X0.751840*%
%ADD13R,0.652780X0.751840*%
%ADD14R,0.751840X0.652780*%
%ADD15R,0.482600X2.692400*%
%ADD16C,1.752600*%
%ADD17R,0.602400X0.752400*%
%ADD18R,0.902400X0.752400*%
%ADD19R,0.965200X0.482600*%
G04 APERTURE END LIST*
D10*
D11*
X13687806Y-8284464D03*
X13837666Y-8284464D03*
D12*
X13661390Y-8829040D03*
X13661390Y-8679180D03*
D13*
X13432028Y-8246110D03*
X13331952Y-8246110D03*
D14*
X13661390Y-8600948D03*
X13661390Y-8500872D03*
X13923010Y-8303768D03*
X13923010Y-8203692D03*
X13534390Y-8588248D03*
X13534390Y-8488172D03*
X14060424Y-8381746D03*
X14060424Y-8481822D03*
X13534390Y-8704072D03*
X13534390Y-8804148D03*
D13*
X14043152Y-9160510D03*
X14143228Y-9160510D03*
D14*
X13775690Y-8704072D03*
X13775690Y-8804148D03*
D13*
X13915390Y-9060180D03*
X13815314Y-9060180D03*
D14*
X13775690Y-8588248D03*
X13775690Y-8488172D03*
X13343890Y-9134348D03*
X13343890Y-9034272D03*
X13216890Y-8716772D03*
X13216890Y-8816848D03*
D13*
X13135102Y-8935212D03*
X13235178Y-8935212D03*
X15019528Y-8081010D03*
X14919452Y-8081010D03*
X14708632Y-8387080D03*
X14808708Y-8387080D03*
X14808708Y-8301990D03*
X14708632Y-8301990D03*
X13708126Y-9192260D03*
X13808202Y-9192260D03*
D15*
X16834866Y-11102594D03*
X16771366Y-11102594D03*
X16707866Y-11102594D03*
X16644366Y-11102594D03*
X16580866Y-11102594D03*
X16517366Y-11102594D03*
X16453866Y-11102594D03*
X16390366Y-11102594D03*
X16326866Y-11102594D03*
X16263366Y-11102594D03*
X16199866Y-11102594D03*
X16136366Y-11102594D03*
X16072866Y-11102594D03*
X16009366Y-11102594D03*
X15945866Y-11102594D03*
X15882366Y-11102594D03*
X15818866Y-11102594D03*
X15755366Y-11102594D03*
X14042644Y-11102086D03*
X13979144Y-11102086D03*
X13915644Y-11102086D03*
X13852144Y-11102086D03*
X13788644Y-11102086D03*
X13725144Y-11102086D03*
X13661644Y-11102086D03*
X13598144Y-11102086D03*
X13534644Y-11102086D03*
X13471144Y-11102086D03*
X13407644Y-11102086D03*
X13344144Y-11102086D03*
X13280644Y-11102086D03*
X13217144Y-11102086D03*
X13153644Y-11102086D03*
X13090144Y-11102086D03*
X13026644Y-11102086D03*
X12963144Y-11102086D03*
X15439390Y-11100816D03*
X15375890Y-11100816D03*
X15312390Y-11100816D03*
X15248890Y-11100816D03*
X15185390Y-11100816D03*
X15121890Y-11100816D03*
X15058390Y-11100816D03*
X14994890Y-11100816D03*
X14931390Y-11100816D03*
X14867890Y-11100816D03*
X14804390Y-11100816D03*
X14740890Y-11100816D03*
X14677390Y-11100816D03*
X14613890Y-11100816D03*
X14550390Y-11100816D03*
X14486890Y-11100816D03*
X14423390Y-11100816D03*
X14359890Y-11100816D03*
X12628372Y-11102594D03*
X12564872Y-11102594D03*
X12501372Y-11102594D03*
X12437872Y-11102594D03*
X12374372Y-11102594D03*
X12310872Y-11102594D03*
X12247372Y-11102594D03*
X12183872Y-11102594D03*
X12120372Y-11102594D03*
X12056872Y-11102594D03*
X11993372Y-11102594D03*
X11929872Y-11102594D03*
X11866372Y-11102594D03*
X11802872Y-11102594D03*
X11739372Y-11102594D03*
X11675872Y-11102594D03*
X11612372Y-11102594D03*
X11548872Y-11102594D03*
D16*
X12456922Y-9391650D03*
X12710922Y-9391650D03*
D17*
X13504950Y-8996970D03*
D18*
X13619950Y-8996970D03*
D17*
X13634950Y-9191970D03*
X13504950Y-9191970D03*
D19*
X15271750Y-8200390D03*
X15271750Y-8263890D03*
X15271750Y-8327390D03*
X15271750Y-8390890D03*
X15271750Y-8454390D03*
X15271750Y-8517890D03*
X15271750Y-8581390D03*
X15271750Y-8644890D03*
X15271750Y-8708390D03*
M02*
